<?xml version="1.0" encoding="UTF-8" standalone="no"?>
<svg
   width="609.59998mm"
   height="304.79999mm"
   viewBox="0 0 609.59998 304.79999"
   version="1.1"
   id="svg150"
   sodipodi:docname="SmartServo_Enclosure_2pc.svg"
   inkscape:version="1.2 (dc2aedaf03, 2022-05-15)"
   xmlns:inkscape="http://www.inkscape.org/namespaces/inkscape"
   xmlns:sodipodi="http://sodipodi.sourceforge.net/DTD/sodipodi-0.dtd"
   xmlns="http://www.w3.org/2000/svg"
   xmlns:svg="http://www.w3.org/2000/svg">
  <defs
     id="defs154" />
  <sodipodi:namedview
     id="namedview152"
     pagecolor="#ffffff"
     bordercolor="#000000"
     borderopacity="0.25"
     inkscape:showpageshadow="2"
     inkscape:pageopacity="0.0"
     inkscape:pagecheckerboard="0"
     inkscape:deskcolor="#d1d1d1"
     inkscape:document-units="mm"
     showgrid="false"
     inkscape:zoom="2.5782176"
     inkscape:cx="165.42436"
     inkscape:cy="424.13022"
     inkscape:window-width="1920"
     inkscape:window-height="1122"
     inkscape:window-x="-8"
     inkscape:window-y="-8"
     inkscape:window-maximized="1"
     inkscape:current-layer="svg150" />
  <desc
     id="desc144">Output from Flights of Ideas SVG Sketchup Plugin</desc>
  <path
     id="face0-cut"
     style="fill:none;stroke:#ff0000;stroke-width:0.05;stroke-linecap:round;stroke-linejoin:round;stroke-miterlimit:4;stroke-dasharray:none;stroke-opacity:1"
     d="M 58,10 H 13 12.608414 L 12.223543,10.102223 11.85195,10.228361 11.5,10.401924 11.173716,10.61994 10.87868,10.87868 10.61994,11.173716 10.401924,11.5 10.228361,11.85195 10.102223,12.223543 10.025665,12.608421 10,13 v 64 l 0.02567,0.391579 0.07656,0.384878 0.126138,0.371593 0.173563,0.35195 0.218016,0.326284 0.25874,0.295036 0.295036,0.25874 0.326284,0.218016 0.35195,0.173563 0.371593,0.126138 0.384878,0.07656 L 13,80 H 58 L 58.391579,79.97433 58.776457,79.89777 59.14805,79.771639 59.5,79.598076 59.826284,79.38006 60.12132,79.12132 60.38006,78.826284 60.598076,78.5 60.771639,78.14805 60.897777,77.776457 60.974335,77.391579 61,77 V 13 L 60.974335,12.608421 60.897777,12.223543 60.771639,11.85195 60.598076,11.5 60.38006,11.173716 60.12132,10.87868 59.826284,10.61994 59.5,10.401924 59.14805,10.228361 58.776457,10.102223 58.391579,10.025665 58,10 M 57.272792,16.272792 56.9,16.558846 56.465874,16.738666 56,16.8 55.534126,16.738666 55.1,16.558846 54.727208,16.272792 54.441154,15.9 54.261334,15.465874 54.2,15 54.261334,14.534126 54.441154,14.1 54.727208,13.727208 55.1,13.441154 55.534126,13.261334 56,13.2 56.465874,13.261334 56.9,13.441154 57.272792,13.727208 57.558846,14.1 57.738666,14.534126 57.8,15 57.738666,15.465874 57.558846,15.9 57.272792,16.272792 M 54.261334,75.465874 54.2,75 54.261334,74.534126 54.441154,74.1 54.727208,73.727208 55.1,73.441154 55.534126,73.261334 56,73.2 56.465874,73.261334 56.9,73.441154 57.272792,73.727208 57.558846,74.1 57.738666,74.534126 57.8,75 57.738666,75.465874 57.558846,75.9 57.272792,76.272792 56.9,76.558846 56.465874,76.738666 56,76.8 55.534126,76.738666 55.1,76.558846 54.727208,76.272792 54.441154,75.9 54.261334,75.465874 M 13.441154,75.9 13.261334,75.465874 13.2,75 13.261334,74.534126 13.441154,74.1 13.727208,73.727208 14.1,73.441154 14.534126,73.261334 15,73.2 15.465874,73.261334 15.9,73.441154 16.272792,73.727208 16.558846,74.1 16.738666,74.534126 16.8,75 16.738666,75.465874 16.558846,75.9 16.272792,76.272792 15.9,76.558846 15.465874,76.738666 15,76.8 14.534126,76.738666 14.1,76.558846 13.727208,76.272792 13.441154,75.9 M 15.9,16.558846 15.465874,16.738666 15,16.8 14.534126,16.738666 14.1,16.558846 13.727208,16.272792 13.441154,15.9 13.261334,15.465874 13.2,15 13.261334,14.534126 13.441154,14.1 13.727208,13.727208 14.1,13.441154 14.534126,13.261334 15,13.2 15.465874,13.261334 15.9,13.441154 16.272792,13.727208 16.558846,14.1 16.738666,14.534126 16.8,15 16.738666,15.465874 16.558846,15.9 16.272792,16.272792 15.9,16.558846" />
  <path
     id="face0-interior"
     style="fill:none;stroke:#ff0000;stroke-width:0.05;stroke-linecap:round;stroke-linejoin:round;stroke-miterlimit:4;stroke-dasharray:none;stroke-opacity:1"
     d="m 58,10 m -45,0 m -0.391586,0 m -0.384871,0.102223 M 11.85195,10.228361 M 11.5,10.401924 m -0.326284,0.218016 m -0.295036,0.25874 m -0.25874,0.295036 M 10.401924,11.5 m -0.173563,0.35195 m -0.126138,0.371593 m -0.07656,0.384878 M 10,13 m 0,64 m 0.02567,0.391579 m 0.07656,0.384878 m 0.126138,0.371593 M 10.401924,78.5 m 0.218016,0.326284 m 0.25874,0.295036 m 0.295036,0.25874 M 11.5,79.598076 m 0.35195,0.173563 m 0.371593,0.126138 m 0.384878,0.07656 M 13,80 m 45,0 m 0.391579,-0.02567 m 0.384878,-0.07656 M 59.14805,79.771639 M 59.5,79.598076 m 0.326284,-0.218016 m 0.295036,-0.25874 m 0.25874,-0.295036 M 60.598076,78.5 m 0.173563,-0.35195 m 0.126138,-0.371593 m 0.07656,-0.384878 M 61,77 M 61,13 M 60.97434,12.608421 M 60.89778,12.223543 M 60.771639,11.85195 M 60.598076,11.5 M 60.38006,11.173716 M 60.12132,10.87868 M 59.826284,10.61994 M 59.5,10.401924 m -0.35195,-0.173563 m -0.371593,-0.126138 m -0.384878,-0.07656 M 57.272792,16.27279 M 56.9,16.558846 m -0.434126,0.17982 M 56,16.8 M 55.534126,16.73867 M 55.1,16.558846 M 54.727208,16.272792 M 54.441154,15.9 m -0.17982,-0.434126 M 54.2,15 m 0.06133,-0.465874 M 54.441154,14.1 m 0.286054,-0.372792 M 55.1,13.441154 m 0.434126,-0.17982 M 56,13.2 m 0.465874,0.06133 M 56.9,13.441154 m 0.372792,0.286054 M 57.558846,14.1 m 0.17982,0.434126 M 57.8,15 m -0.06133,0.465874 M 57.558846,15.9 M 54.261334,75.465874 M 54.2,75 m 0.06133,-0.465874 M 54.441154,74.1 m 0.286054,-0.372792 M 55.1,73.441154 m 0.434126,-0.17982 M 56,73.2 m 0.465874,0.06133 M 56.9,73.441154 m 0.372792,0.286054 M 57.558846,74.1 m 0.17982,0.434126 M 57.8,75 m -0.06133,0.465874 M 57.558846,75.9 m -0.286054,0.372792 M 56.9,76.558846 m -0.434126,0.17982 M 56,76.8 M 55.534126,76.73867 M 55.1,76.558846 M 54.727208,76.272792 M 54.441154,75.9 m -41,0 m -0.17982,-0.434126 M 13.2,75 m 0.06133,-0.465874 M 13.441154,74.1 m 0.286054,-0.372792 M 14.1,73.441154 m 0.434126,-0.17982 M 15,73.2 m 0.465874,0.06133 M 15.9,73.441154 m 0.372792,0.286054 M 16.558846,74.1 m 0.17982,0.434126 M 16.8,75 m -0.06133,0.465874 M 16.558846,75.9 m -0.286054,0.372792 M 15.9,76.558846 m -0.434126,0.17982 M 15,76.8 M 14.534126,76.73867 M 14.1,76.558846 M 13.727208,76.272792 M 15.9,16.558846 m -0.434126,0.17982 M 15,16.8 M 14.534126,16.73867 M 14.1,16.558846 M 13.727208,16.272792 M 13.441154,15.9 m -0.17982,-0.434126 M 13.2,15 m 0.06133,-0.465874 M 13.441154,14.1 m 0.286054,-0.372792 M 14.1,13.441154 m 0.434126,-0.17982 M 15,13.2 m 0.465874,0.06133 M 15.9,13.441154 m 0.372792,0.286054 M 16.558846,14.1 m 0.17982,0.434126 M 16.8,15 m -0.06133,0.465874 M 16.558846,15.9 m -0.286054,0.372792" />
  <path
     id="path148"
     style="fill:none;stroke:#ff0000;stroke-width:0.05;stroke-linecap:round;stroke-linejoin:round;stroke-miterlimit:4;stroke-dasharray:none;stroke-opacity:1"
     d="m 58,10 m -45,0 m -0.391586,0 m -0.384871,0.102223 M 11.85195,10.228361 M 11.5,10.401924 m -0.326284,0.218016 m -0.295036,0.25874 m -0.25874,0.295036 M 10.401924,11.5 m -0.173563,0.35195 m -0.126138,0.371593 m -0.07656,0.384878 M 10,13 m 0,64 m 0.02567,0.391579 m 0.07656,0.384878 m 0.126138,0.371593 M 10.401924,78.5 m 0.218016,0.326284 m 0.25874,0.295036 m 0.295036,0.25874 M 11.5,79.598076 m 0.35195,0.173563 m 0.371593,0.126138 m 0.384878,0.07656 M 13,80 m 45,0 m 0.391579,-0.02567 m 0.384878,-0.07656 M 59.14805,79.771639 M 59.5,79.598076 m 0.326284,-0.218016 m 0.295036,-0.25874 m 0.25874,-0.295036 M 60.598076,78.5 m 0.173563,-0.35195 m 0.126138,-0.371593 m 0.07656,-0.384878 M 61,77 M 61,13 M 60.97434,12.608421 M 60.89778,12.223543 M 60.771639,11.85195 M 60.598076,11.5 M 60.38006,11.173716 M 60.12132,10.87868 M 59.826284,10.61994 M 59.5,10.401924 m -0.35195,-0.173563 m -0.371593,-0.126138 m -0.384878,-0.07656 M 57.272792,16.27279 M 56.9,16.558846 m -0.434126,0.17982 M 56,16.8 M 55.534126,16.73867 M 55.1,16.558846 M 54.727208,16.272792 M 54.441154,15.9 m -0.17982,-0.434126 M 54.2,15 m 0.06133,-0.465874 M 54.441154,14.1 m 0.286054,-0.372792 M 55.1,13.441154 m 0.434126,-0.17982 M 56,13.2 m 0.465874,0.06133 M 56.9,13.441154 m 0.372792,0.286054 M 57.558846,14.1 m 0.17982,0.434126 M 57.8,15 m -0.06133,0.465874 M 57.558846,15.9 M 54.261334,75.465874 M 54.2,75 m 0.06133,-0.465874 M 54.441154,74.1 m 0.286054,-0.372792 M 55.1,73.441154 m 0.434126,-0.17982 M 56,73.2 m 0.465874,0.06133 M 56.9,73.441154 m 0.372792,0.286054 M 57.558846,74.1 m 0.17982,0.434126 M 57.8,75 m -0.06133,0.465874 M 57.558846,75.9 m -0.286054,0.372792 M 56.9,76.558846 m -0.434126,0.17982 M 56,76.8 M 55.534126,76.73867 M 55.1,76.558846 M 54.727208,76.272792 M 54.441154,75.9 m -41,0 m -0.17982,-0.434126 M 13.2,75 m 0.06133,-0.465874 M 13.441154,74.1 m 0.286054,-0.372792 M 14.1,73.441154 m 0.434126,-0.17982 M 15,73.2 m 0.465874,0.06133 M 15.9,73.441154 m 0.372792,0.286054 M 16.558846,74.1 m 0.17982,0.434126 M 16.8,75 m -0.06133,0.465874 M 16.558846,75.9 m -0.286054,0.372792 M 15.9,76.558846 m -0.434126,0.17982 M 15,76.8 M 14.534126,76.73867 M 14.1,76.558846 M 13.727208,76.272792 M 15.9,16.558846 m -0.434126,0.17982 M 15,16.8 M 14.534126,16.73867 M 14.1,16.558846 M 13.727208,16.272792 M 13.441154,15.9 m -0.17982,-0.434126 M 13.2,15 m 0.06133,-0.465874 M 13.441154,14.1 m 0.286054,-0.372792 M 14.1,13.441154 m 0.434126,-0.17982 M 15,13.2 m 0.465874,0.06133 M 15.9,13.441154 m 0.372792,0.286054 M 16.558846,14.1 m 0.17982,0.434126 M 16.8,15 m -0.06133,0.465874 M 16.558846,15.9 m -0.286054,0.372792" />
  <text
     xml:space="preserve"
     style="font-size:3.52777px;font-family:Aldrich;-inkscape-font-specification:Aldrich;fill:#000000;stroke:#ff0000;stroke-width:0.0499999;stroke-dasharray:none;stroke-opacity:1"
     x="24.091619"
     y="23.801359"
     id="text7050"><tspan
       id="tspan7048"
       style="stroke-width:0.05"
       sodipodi:role="line" /></text>
  <g
     aria-label="Bpod"
     id="text7054"
     style="font-size:7.76111px;font-family:Aldrich;-inkscape-font-specification:Aldrich;stroke:#000000;stroke-width:0.0499999">
    <path
       d="m 29.634569,23.87827 q 0.170532,0.05306 0.310747,0.151585 0.140216,0.09853 0.238745,0.253903 0.09853,0.151584 0.151584,0.360012 0.05306,0.208429 0.05306,0.477491 v 0.272851 q 0,1.318782 -1.318782,1.318782 h -2.97484 v -5.434292 h 2.819466 q 1.318782,0 1.318782,1.322572 v 0.09853 q 0,0.458543 -0.147794,0.750342 -0.144005,0.28801 -0.450963,0.428225 z m -2.77778,0.466122 v 1.606792 h 2.190391 q 0.306958,0 0.443384,-0.144005 0.136425,-0.144005 0.136425,-0.450963 V 24.93557 q 0,-0.310748 -0.136425,-0.450963 -0.136426,-0.140215 -0.443384,-0.140215 z m 0,-2.30408 v 1.546159 h 2.088072 q 0.28043,-0.01137 0.401698,-0.151584 0.125057,-0.144005 0.125057,-0.439594 V 22.63907 q 0,-0.310748 -0.136426,-0.454753 -0.136426,-0.144005 -0.443384,-0.144005 z"
       style="stroke-width:0.05"
       id="path8644" />
    <path
       d="m 35.046124,25.966342 q 0,0.155374 -0.06063,0.2918 -0.05684,0.136426 -0.159163,0.238745 -0.09853,0.09853 -0.234956,0.159163 -0.136426,0.05684 -0.291799,0.05684 h -2.080493 v 1.62953 H 31.47632 v -5.665458 h 0.742763 v 0.682129 q 0.01137,-0.144005 0.07579,-0.265273 0.06442,-0.125057 0.162953,-0.216007 0.09853,-0.09474 0.227376,-0.147795 0.132636,-0.05305 0.280431,-0.05305 h 1.333941 q 0.155373,0 0.291799,0.06063 0.136426,0.05684 0.234956,0.159164 0.102319,0.09853 0.159163,0.234955 0.06063,0.136426 0.06063,0.2918 z m -0.746552,0 v -2.542824 h -2.080493 v 2.542824 z"
       style="stroke-width:0.05"
       id="path8646" />
    <path
       d="m 39.77934,25.966342 q 0,0.155374 -0.06063,0.2918 -0.05684,0.136426 -0.159164,0.238745 -0.09853,0.09853 -0.234955,0.159163 -0.132636,0.05684 -0.28801,0.05684 H 37.03188 q -0.151584,0 -0.28801,-0.05684 -0.136425,-0.06063 -0.238745,-0.159163 -0.09853,-0.102319 -0.159163,-0.238745 -0.05684,-0.136426 -0.05684,-0.2918 v -2.542824 q 0,-0.155374 0.05684,-0.2918 0.06063,-0.136425 0.159163,-0.234955 0.10232,-0.10232 0.238745,-0.159164 0.136426,-0.06063 0.28801,-0.06063 h 2.004701 q 0.155374,0 0.28801,0.06063 0.136426,0.05684 0.234955,0.159164 0.10232,0.09853 0.159164,0.234955 0.06063,0.136426 0.06063,0.2918 z m -2.747464,-2.542824 v 2.542824 h 2.004701 v -2.542824 z"
       style="stroke-width:0.05"
       id="path8648" />
    <path
       d="m 41.02233,23.423518 q 0,-0.155374 0.05684,-0.2918 0.06063,-0.136425 0.159164,-0.234955 0.102319,-0.10232 0.238745,-0.159164 0.136425,-0.06063 0.28801,-0.06063 h 2.080492 v -1.553738 h 0.746553 v 5.589666 h -0.746553 v -0.682128 q -0.01137,0.140215 -0.07579,0.265272 -0.06442,0.125057 -0.166742,0.219797 -0.09853,0.09095 -0.227377,0.144005 -0.128846,0.05305 -0.272851,0.05305 h -1.33773 q -0.151585,0 -0.28801,-0.05684 -0.136426,-0.06063 -0.238745,-0.159163 -0.09853,-0.102319 -0.159164,-0.238745 -0.05684,-0.136426 -0.05684,-0.2918 z m 0.742763,2.542824 h 2.080492 v -2.542824 h -2.080492 z"
       style="stroke-width:0.05"
       id="path8650" />
  </g>
  <g
     aria-label="Smart"
     id="text7886"
     style="font-size:5.64444px;font-family:Aldrich;-inkscape-font-specification:Aldrich;stroke:#000000;stroke-width:0.0499999">
    <path
       d="m 27.195555,32.661214 q -0.115756,0 -0.220486,-0.0441 -0.101975,-0.04685 -0.179145,-0.121267 -0.07717,-0.07717 -0.121267,-0.179145 -0.0441,-0.104731 -0.0441,-0.220486 v -1.12999 q 0,-0.115755 0.0441,-0.21773 0.0441,-0.104731 0.121267,-0.179145 0.07717,-0.07717 0.179145,-0.121267 0.10473,-0.04685 0.220486,-0.04685 h 1.918227 l 0.34451,0.0028 q 0.187413,-0.0055 0.190169,0.110243 0.0055,0.115755 0.0055,0.451996 H 29.11377 27.195543 v 1.12999 h 1.918227 q 0.115755,0 0.21773,0.0441 0.104731,0.0441 0.181901,0.121268 0.07717,0.07717 0.121267,0.181901 0.0441,0.101974 0.0441,0.21773 v 1.127234 q 0,0.115755 -0.0441,0.220486 -0.0441,0.101975 -0.121267,0.179145 -0.07717,0.07717 -0.181901,0.121267 -0.101975,0.0441 -0.21773,0.0441 h -1.973349 l -0.446484,0.0028 q -0.08544,-0.07441 -0.101975,-0.137803 -0.01654,-0.06615 -0.01654,-0.432704 l 0.564995,0.0028 h 1.973349 v -1.127234 z"
       style="stroke-width:0.05"
       id="path8653" />
    <path
       d="m 32.966774,31.961171 v 2.392272 h -0.542947 v -2.392272 h -1.242989 v 2.392272 h -0.540191 v -2.935219 h 0.540191 v 0.518142 q 0.0055,-0.107487 0.04961,-0.201193 0.0441,-0.09646 0.115755,-0.165365 0.07441,-0.07166 0.170877,-0.110243 0.09646,-0.04134 0.206705,-0.04134 h 0.700043 q 0.107487,0 0.20395,0.04134 0.09646,0.03858 0.170876,0.110243 0.07441,0.0689 0.118512,0.165365 0.04685,0.09371 0.04961,0.201193 0.0055,-0.107487 0.04685,-0.201193 0.0441,-0.09646 0.115755,-0.165365 0.07441,-0.07166 0.170877,-0.110243 0.09646,-0.04134 0.206706,-0.04134 h 0.700042 q 0.112999,0 0.212218,0.0441 0.09922,0.04134 0.170877,0.115755 0.07441,0.07166 0.115755,0.170877 0.0441,0.09922 0.0441,0.212218 v 2.392272 h -0.542947 v -2.392272 z"
       style="stroke-width:0.05"
       id="path8655" />
    <path
       d="m 35.653946,33.071869 q 0,-0.112999 0.04134,-0.209462 0.0441,-0.09922 0.115755,-0.173633 0.07442,-0.07441 0.173633,-0.115755 0.09922,-0.0441 0.209462,-0.0441 h 1.400086 v -0.567751 h -1.772156 v -0.542947 h 1.772156 q 0.112999,0 0.212217,0.0441 0.09922,0.04134 0.170877,0.115755 0.07441,0.07166 0.115755,0.170877 0.0441,0.09922 0.0441,0.212218 v 2.392272 h -0.542946 -0.540191 -0.859895 q -0.110243,0 -0.209462,-0.04134 -0.09922,-0.0441 -0.173633,-0.115755 -0.07166,-0.07441 -0.115755,-0.173633 -0.04134,-0.09922 -0.04134,-0.212217 z m 0.540191,0.738628 h 1.400086 v -0.738628 h -1.400086 z"
       style="stroke-width:0.05"
       id="path8657" />
    <path
       d="m 39.581352,31.961171 v 2.392272 h -0.54019 v -2.935219 h 0.54019 0.542947 0.57602 q 0.112999,0 0.209461,0.0441 0.09922,0.04134 0.173633,0.115755 0.07441,0.07166 0.115755,0.170877 0.0441,0.09922 0.0441,0.212218 v 0.496093 h -0.542946 v -0.496093 z"
       style="stroke-width:0.05"
       id="path8659" />
    <path
       d="m 41.747627,31.418224 h 0.716579 v -0.903992 h 0.542946 v 0.903992 h 0.964627 v 0.542947 h -0.964627 v 1.849326 h 0.964627 v 0.542946 h -0.964627 q -0.110242,0 -0.209461,-0.04134 -0.09922,-0.0441 -0.173633,-0.115755 -0.07441,-0.07441 -0.118511,-0.173633 -0.04134,-0.09922 -0.04134,-0.212217 v -1.849326 h -0.716579 z"
       style="stroke-width:0.05"
       id="path8661" />
  </g>
  <g
     aria-label="Servo"
     id="text7890"
     style="font-size:5.64444px;font-family:Aldrich;-inkscape-font-specification:Aldrich;stroke:#000000;stroke-width:0.0499999">
    <path
       d="m 27.724722,39.721238 q -0.115755,0 -0.220486,-0.0441 -0.101975,-0.04685 -0.179145,-0.121268 -0.07717,-0.07717 -0.121267,-0.179145 -0.0441,-0.10473 -0.0441,-0.220485 v -1.129991 q 0,-0.115755 0.0441,-0.21773 0.0441,-0.104731 0.121267,-0.179145 0.07717,-0.07717 0.179145,-0.121267 0.104731,-0.04685 0.220486,-0.04685 h 1.918227 l 0.34451,0.0028 q 0.187413,-0.0055 0.190169,0.110243 0.0055,0.115755 0.0055,0.451996 H 29.642937 27.72471 v 1.129991 h 1.918227 q 0.115756,0 0.21773,0.0441 0.104731,0.0441 0.181901,0.121267 0.07717,0.07717 0.121268,0.181901 0.0441,0.101975 0.0441,0.21773 v 1.127234 q 0,0.115755 -0.0441,0.220486 -0.0441,0.101975 -0.121268,0.179145 -0.07717,0.07717 -0.181901,0.121267 -0.101974,0.0441 -0.21773,0.0441 H 27.6696 l -0.446484,0.0028 q -0.08544,-0.07441 -0.101974,-0.137803 -0.01654,-0.06615 -0.01654,-0.432704 l 0.564995,0.0028 h 1.973349 v -1.127234 z"
       style="stroke-width:0.05"
       id="path8664" />
    <path
       d="m 33.653037,40.222843 h -1.943032 v 0.647678 h 1.943032 v 0.542946 h -1.943032 q -0.110243,0 -0.209462,-0.04134 -0.09922,-0.0441 -0.173632,-0.115755 -0.07166,-0.07441 -0.115755,-0.173633 -0.04134,-0.09922 -0.04134,-0.212217 v -1.849326 q 0,-0.112999 0.04134,-0.212218 0.0441,-0.09922 0.115755,-0.170876 0.07441,-0.07441 0.173632,-0.115756 0.09922,-0.0441 0.209462,-0.0441 h 1.400086 q 0.112999,0 0.212217,0.0441 0.09922,0.04134 0.170877,0.115756 0.07441,0.07166 0.115755,0.170876 0.0441,0.09922 0.0441,0.212218 z m -1.943032,-1.201648 v 0.658702 h 1.400086 v -0.658702 z"
       style="stroke-width:0.05"
       id="path8666" />
    <path
       d="m 35.097221,39.021195 v 2.392272 H 34.55703 v -2.935219 h 0.540191 0.542946 0.57602 q 0.112999,0 0.209461,0.0441 0.09922,0.04134 0.173633,0.115756 0.07441,0.07166 0.115755,0.170876 0.0441,0.09922 0.0441,0.212218 v 0.496093 H 36.21619 v -0.496093 z"
       style="stroke-width:0.05"
       id="path8668" />
    <path
       d="m 38.269462,41.413467 -1.174088,-2.935219 h 0.564995 l 0.890212,2.284786 0.892968,-2.284786 h 0.564996 l -1.174088,2.935219 z"
       style="stroke-width:0.05"
       id="path8670" />
    <path
       d="m 43.111885,40.870521 q 0,0.112999 -0.0441,0.212217 -0.04134,0.09922 -0.115755,0.173633 -0.07166,0.07166 -0.170876,0.115755 -0.09646,0.04134 -0.209462,0.04134 h -1.457963 q -0.110243,0 -0.209462,-0.04134 -0.09922,-0.0441 -0.173633,-0.115755 -0.07166,-0.07441 -0.115755,-0.173633 -0.04134,-0.09922 -0.04134,-0.212217 v -1.849326 q 0,-0.112999 0.04134,-0.212218 0.0441,-0.09922 0.115755,-0.170876 0.07441,-0.07441 0.173633,-0.115756 0.09922,-0.0441 0.209462,-0.0441 h 1.457963 q 0.112999,0 0.209462,0.0441 0.09922,0.04134 0.170876,0.115756 0.07441,0.07166 0.115755,0.170876 0.0441,0.09922 0.0441,0.212218 z m -1.998154,-1.849326 v 1.849326 h 1.457963 v -1.849326 z"
       style="stroke-width:0.05"
       id="path8672" />
  </g>
  <g
     aria-label="Module"
     id="text7894"
     style="font-size:5.64444px;font-family:Aldrich;-inkscape-font-specification:Aldrich;stroke:#000000;stroke-width:0.0499999">
    <path
       d="m 28.089536,48.422142 -1.4745,-2.896634 v 2.896634 h -0.564995 v -3.952211 h 0.61736 l 1.504817,2.976561 1.507573,-2.976561 h 0.614604 v 3.952211 h -0.562239 v -2.896634 l -1.4745,2.896634 z"
       style="stroke-width:0.05"
       id="path8675" />
    <path
       d="m 33.794609,47.879195 q 0,0.112999 -0.0441,0.212218 -0.04134,0.09922 -0.115755,0.173633 -0.07166,0.07166 -0.170876,0.115755 -0.09646,0.04134 -0.209462,0.04134 h -1.457963 q -0.110243,0 -0.209462,-0.04134 -0.09922,-0.0441 -0.173633,-0.115755 -0.07166,-0.07441 -0.115755,-0.173633 -0.04134,-0.09922 -0.04134,-0.212218 V 46.02987 q 0,-0.113 0.04134,-0.212218 0.0441,-0.09922 0.115755,-0.170877 0.07441,-0.07441 0.173633,-0.115755 0.09922,-0.0441 0.209462,-0.0441 h 1.457963 q 0.112999,0 0.209462,0.0441 0.09922,0.04134 0.170876,0.115755 0.07441,0.07166 0.115755,0.170877 0.0441,0.09922 0.0441,0.212218 z M 31.796456,46.02987 v 1.849325 h 1.457963 V 46.02987 Z"
       style="stroke-width:0.05"
       id="path8677" />
    <path
       d="m 34.698602,46.02987 q 0,-0.113 0.04134,-0.212218 0.0441,-0.09922 0.115755,-0.170877 0.07441,-0.07441 0.173633,-0.115755 0.09922,-0.0441 0.209462,-0.0441 h 1.513084 v -1.129991 h 0.542947 v 4.06521 h -0.542947 v -0.496093 q -0.0083,0.101974 -0.05512,0.192925 -0.04685,0.09095 -0.121267,0.159852 -0.07166,0.06615 -0.165365,0.104731 -0.09371,0.03858 -0.198437,0.03858 h -0.972894 q -0.110243,0 -0.209462,-0.04134 -0.09922,-0.0441 -0.173633,-0.115755 -0.07166,-0.07441 -0.115755,-0.173633 -0.04134,-0.09922 -0.04134,-0.212218 z m 0.540191,1.849325 h 1.513084 V 46.02987 h -1.513084 z"
       style="stroke-width:0.05"
       id="path8679" />
    <path
       d="m 38.198817,45.486923 h 0.54019 v 2.392272 h 1.513085 v -2.392272 h 0.542947 v 2.935219 h -0.542947 v -0.496093 q -0.0083,0.101974 -0.05512,0.192925 -0.04685,0.09095 -0.121268,0.159852 -0.07166,0.06615 -0.165364,0.104731 -0.09371,0.03858 -0.198438,0.03858 h -0.972894 q -0.110243,0 -0.209461,-0.04134 -0.09922,-0.0441 -0.173633,-0.115755 -0.07166,-0.07441 -0.115755,-0.173633 -0.04134,-0.09922 -0.04134,-0.212218 z"
       style="stroke-width:0.05"
       id="path8681" />
    <path
       d="m 42.239221,44.356932 v 4.06521 H 41.69903 v -4.06521 z"
       style="stroke-width:0.05"
       id="path8683" />
    <path
       d="m 45.626437,47.231518 h -1.943033 v 0.647677 h 1.943033 v 0.542947 h -1.943033 q -0.110243,0 -0.209461,-0.04134 -0.09922,-0.0441 -0.173633,-0.115755 -0.07166,-0.07441 -0.115755,-0.173633 -0.04134,-0.09922 -0.04134,-0.212218 V 46.02987 q 0,-0.113 0.04134,-0.212218 0.0441,-0.09922 0.115755,-0.170877 0.07441,-0.07441 0.173633,-0.115755 0.09922,-0.0441 0.209461,-0.0441 h 1.400086 q 0.112999,0 0.212218,0.0441 0.09922,0.04134 0.170876,0.115755 0.07441,0.07166 0.115755,0.170877 0.0441,0.09922 0.0441,0.212218 z M 43.683404,46.02987 v 0.658701 H 45.08349 V 46.02987 Z"
       style="stroke-width:0.05"
       id="path8685" />
  </g>
  <path
     id="path2565"
     style="color:#000000;font-style:normal;font-variant:normal;font-weight:normal;font-stretch:normal;font-size:medium;line-height:normal;font-family:sans-serif;font-variant-ligatures:normal;font-variant-position:normal;font-variant-caps:normal;font-variant-numeric:normal;font-variant-alternates:normal;font-feature-settings:normal;text-indent:0;text-align:start;text-decoration:none;text-decoration-line:none;text-decoration-style:solid;text-decoration-color:#000000;letter-spacing:normal;word-spacing:normal;text-transform:none;writing-mode:lr-tb;direction:ltr;text-orientation:mixed;dominant-baseline:auto;baseline-shift:baseline;text-anchor:start;white-space:normal;shape-padding:0;clip-rule:nonzero;display:inline;overflow:visible;visibility:visible;isolation:auto;mix-blend-mode:normal;color-interpolation:sRGB;color-interpolation-filters:linearRGB;solid-color:#000000;solid-opacity:1;fill:#000000;fill-opacity:1;fill-rule:nonzero;stroke:none;stroke-width:0.199014;stroke-linecap:round;stroke-linejoin:miter;stroke-miterlimit:10;stroke-dasharray:none;stroke-dashoffset:0;stroke-opacity:1;color-rendering:auto;image-rendering:auto;shape-rendering:auto;text-rendering:auto;enable-background:accumulate"
     d="m 31.931341,59.149318 a 0.0995167,0.0995167 0 0 1 -0.04856,-0.18471 c 0.222552,-0.1386 0.293842,-0.425371 0.176649,-0.637336 -0.107294,-0.194152 -0.353119,-0.290377 -0.578929,-0.21247 a 0.09954184,0.09954184 0 1 1 -0.06494,-0.188194 c 0.315381,-0.108808 0.662492,0.0229 0.818057,0.304405 0.169919,0.307323 0.06506,0.709061 -0.245578,0.902519 a 0.0995167,0.0995167 0 0 1 -0.0567,0.01579 z m 8.765509,0 a 0.0995167,0.0995167 0 0 1 -0.05373,-0.01579 c -0.310642,-0.193458 -0.415497,-0.595196 -0.245578,-0.902518 0.155565,-0.281501 0.502641,-0.413208 0.818057,-0.304405 a 0.09952817,0.09952817 0 1 1 -0.06486,0.188193 c -0.225863,-0.07791 -0.471721,0.01831 -0.579016,0.21247 -0.117192,0.211966 -0.0459,0.498736 0.17665,0.637336 a 0.0995167,0.0995167 0 0 1 -0.05153,0.18471 z m -0.385431,-1.294591 -0.290458,0.692137 -0.267901,-0.112436 0.290457,-0.692138 z m -7.99168,0 0.290458,0.692137 0.267901,-0.112436 -0.290415,-0.692138 z m 0.48004,-0.201438 0.290458,0.692138 0.267901,-0.112437 -0.290458,-0.692138 z m 0.480014,-0.201437 0.290458,0.692137 0.267901,-0.112437 -0.290415,-0.692137 z m 0.602912,-0.172984 c -0.104527,0.15125 -0.06667,0.358607 0.08458,0.463176 0.151292,0.104529 0.358651,0.06663 0.463178,-0.08462 0.104525,-0.15129 0.06667,-0.358646 -0.08458,-0.463176 -0.151292,-0.104524 -0.358649,-0.06663 -0.463176,0.08462 m 5.948678,0.374421 -0.290458,0.692138 -0.267901,-0.112437 0.290457,-0.692138 z m -0.479999,-0.201437 -0.290458,0.692137 -0.267944,-0.112437 0.290457,-0.692137 z m -0.602908,-0.172984 c 0.104527,0.15125 0.06663,0.358607 -0.08458,0.463176 -0.151292,0.104529 -0.35865,0.06663 -0.46322,-0.08462 -0.104527,-0.15129 -0.06667,-0.358646 0.08462,-0.463176 0.151249,-0.104524 0.358651,-0.06663 0.463177,0.08462 m -0.788665,2.625 h -0.774801 v -0.290584 h 0.774801 z m 0,-0.496379 h -0.774801 v -0.290545 h 0.774801 z m -2.508378,0.496379 h -0.774845 v -0.290584 h 0.774845 z m 0,-0.496379 h -0.774845 v -0.290545 h 0.774845 z m -0.780738,0.740331 -0.36434,0.678043 c -0.86891,0.08158 -1.735652,0.187045 -2.591469,0.342636 -1.829827,0.326082 -3.637564,0.834534 -5.240818,1.651541 1.692641,-0.666518 3.490043,-1.077116 5.309114,-1.341889 0.911065,-0.127736 1.827594,-0.227819 2.748607,-0.28882 0.920112,-0.06463 1.844714,-0.104457 2.767706,-0.111127 0.922859,-0.01254 1.845768,0.0089 2.763945,0.07206 0.918807,0.05835 1.831457,0.169328 2.732981,0.326133 1.798591,0.320499 3.554757,0.877918 5.092071,1.781763 -0.705645,-0.520497 -1.508677,-0.946164 -2.35475,-1.292401 -0.848819,-0.342883 -1.742276,-0.60578 -2.654555,-0.798129 -0.911516,-0.197506 -1.843044,-0.317744 -2.776389,-0.399946 -0.624103,-0.05068 -1.249974,-0.07737 -1.875814,-0.08854 L 37.969431,60.147818 H 37.17043 l -0.294596,0.534514 c -0.377028,0.0092 -0.753777,0.02279 -1.13006,0.04194 l -0.275787,-0.576475 z m 13.597532,6.166183 v -0.642852 h -1.21542 c -0.07119,0 -0.13795,-0.0135 -0.200405,-0.04038 -0.0625,-0.02688 -0.116696,-0.06333 -0.162679,-0.109262 -0.04598,-0.04603 -0.0824,-0.100223 -0.109308,-0.162725 -0.0269,-0.06245 -0.04033,-0.129208 -0.04033,-0.200401 V 64.5676 c 0,-0.0711 0.01343,-0.137906 0.04033,-0.200402 0.0269,-0.06241 0.06333,-0.116698 0.109308,-0.162635 0.04598,-0.04603 0.10018,-0.08245 0.162679,-0.109351 0.06246,-0.02688 0.129213,-0.04032 0.200405,-0.04032 h 1.621444 v 0.512724 H 47.052806 V 65.1584 h 1.21542 c 0.07114,0 0.137515,0.0135 0.1991,0.04038 0.06158,0.02688 0.115828,0.06333 0.162636,0.109261 0.04685,0.04603 0.08375,0.100223 0.110655,0.162725 0.02686,0.06246 0.04033,0.129214 0.04033,0.200402 v 0.642852 c 0,0.07114 -0.01347,0.13795 -0.04033,0.200362 -0.0269,0.0625 -0.0638,0.116693 -0.110655,0.162719 -0.04681,0.04592 -0.10105,0.0824 -0.162636,0.109267 -0.06158,0.02688 -0.127952,0.04038 -0.1991,0.04038 H 46.540085 V 66.31402 Z m -2.766593,0.512719 -1.322164,-1.184215 v 1.184215 h -0.510072 v -3.83889 h 0.510072 v 2.160161 l 1.215464,-1.093075 h 0.720908 l -1.488711,1.337722 1.595411,1.434082 z M 41.46232,64.56762 v 2.259124 h -0.510072 v -2.771848 h 0.510072 0.512724 0.543929 c 0.07114,0 0.137558,0.0135 0.199144,0.04032 0.06158,0.02688 0.115828,0.06333 0.162679,0.109312 0.04681,0.04598 0.08371,0.100223 0.110612,0.16268 0.02686,0.06245 0.04029,0.129253 0.04029,0.200401 v 0.468435 h -0.512723 v -0.468435 z m -3.250687,1.746405 h 1.376796 v -1.746399 h -1.376796 z m 1.886912,0 c 0,0.0711 -0.01343,0.137906 -0.04033,0.200363 -0.0269,0.06245 -0.06333,0.116653 -0.109307,0.16268 -0.04602,0.04598 -0.09979,0.08244 -0.161375,0.109306 -0.06158,0.02688 -0.127953,0.04032 -0.199101,0.04032 h -1.376794 c -0.06932,0 -0.135297,-0.01344 -0.197709,-0.04032 -0.0625,-0.02688 -0.11674,-0.06333 -0.162723,-0.109306 -0.04594,-0.04603 -0.08241,-0.100229 -0.109264,-0.16268 -0.0269,-0.06246 -0.04038,-0.12926 -0.04038,-0.200363 v -1.746399 c 0,-0.07114 0.01347,-0.13795 0.04038,-0.200402 0.02686,-0.06246 0.06333,-0.116698 0.109264,-0.16268 0.04598,-0.04598 0.100223,-0.0824 0.162723,-0.109306 0.06242,-0.02688 0.128387,-0.04032 0.197709,-0.04032 h 1.376796 c 0.07114,0 0.137515,0.0135 0.199101,0.04032 0.06158,0.02688 0.115349,0.06333 0.161375,0.109306 0.04598,0.04598 0.0824,0.100224 0.109307,0.16268 0.0269,0.06245 0.04033,0.129254 0.04033,0.200402 z m -6.12915,0.512697 -0.895322,-2.771804 h 0.51794 l 0.655844,2.089926 0.6116,-2.089926 h 0.523156 l 0.6116,2.089926 0.655888,-2.089926 h 0.517939 l -0.895322,2.771804 h -0.533542 l -0.619423,-2.035292 -0.616816,2.035292 z m -1.428864,0 h -0.512723 v -2.259124 h -1.428821 v 2.259124 h -0.510159 v -2.771804 h 0.510159 0.512724 0.916097 c 0.07114,0 0.137948,0.01344 0.200404,0.04026 0.06246,0.02688 0.116696,0.06333 0.162679,0.109351 0.04598,0.04598 0.0824,0.100223 0.109307,0.162635 0.0269,0.0625 0.04033,0.129299 0.04033,0.200402 z m -5.14021,-0.512697 h 1.32212 V 65.6165 h -1.32212 z M 26.890204,65.6165 c 0,-0.07114 0.01347,-0.137513 0.04033,-0.199102 0.0269,-0.06158 0.06333,-0.115825 0.109351,-0.162719 0.04594,-0.04682 0.10018,-0.08366 0.162635,-0.110572 0.06246,-0.02688 0.128388,-0.04032 0.197797,-0.04032 h 1.322121 v -0.53615 h -1.673469 v -0.512725 h 1.67347 c 0.07119,0 0.137949,0.0135 0.200448,0.04032 0.06246,0.02688 0.116652,0.06333 0.162635,0.109307 0.04598,0.04598 0.08241,0.100223 0.109351,0.16268 0.02686,0.06245 0.04033,0.129253 0.04033,0.200401 v 2.25908 h -0.512767 -0.510073 -0.812048 c -0.06941,0 -0.13534,-0.01344 -0.197796,-0.04032 -0.06246,-0.02688 -0.116696,-0.06333 -0.162636,-0.109307 -0.04602,-0.04603 -0.08245,-0.100229 -0.109351,-0.16268 -0.02686,-0.06246 -0.04033,-0.129259 -0.04033,-0.200362 z m -3.253295,-0.387822 c -0.07289,0 -0.14186,-0.01428 -0.206924,-0.04295 -0.06506,-0.02862 -0.121868,-0.0668 -0.170458,-0.114526 -0.04859,-0.04771 -0.08675,-0.104132 -0.114523,-0.169198 -0.02777,-0.06506 -0.04163,-0.133991 -0.04163,-0.206836 v -1.067125 c 0,-0.07289 0.01386,-0.141859 0.04163,-0.206925 0.02777,-0.06506 0.06594,-0.121431 0.114523,-0.169109 0.04859,-0.04777 0.105396,-0.08593 0.170458,-0.114526 0.06506,-0.02862 0.134038,-0.04301 0.206924,-0.04301 h 1.811418 l 0.325358,0.0028 c 0.117957,-0.0034 0.178283,0.03125 0.180891,0.104138 0.0026,0.07284 0.0039,0.215135 0.0039,0.426798 h -0.51016 -1.811419 v 1.067125 h 1.811419 c 0.07289,0 0.141861,0.01389 0.206924,0.04166 0.06506,0.02772 0.121911,0.06588 0.170458,0.114475 0.04859,0.04861 0.08675,0.105398 0.114523,0.170459 0.02777,0.06506 0.04168,0.134041 0.04168,0.206925 v 1.064476 c 0,0.07289 -0.01391,0.141859 -0.04168,0.206926 -0.02777,0.06506 -0.06594,0.121912 -0.114523,0.170458 -0.04854,0.04861 -0.105396,0.08675 -0.170458,0.11452 -0.06506,0.02778 -0.134039,0.04166 -0.206924,0.04166 H 23.58483 l -0.421584,0.0028 c -0.05381,-0.04687 -0.08592,-0.09066 -0.09631,-0.131426 -0.01043,-0.04077 -0.01565,-0.176546 -0.01565,-0.407288 l 0.533543,0.0028 h 1.863485 v -1.064476 z m 11.081536,-8.029414 v 1.67062 h 3.203236 v -1.67062 z m 0.471414,0.310514 h 1.040639 c 0.09694,0 0.175079,0.0779 0.175079,0.17449 v 0.338873 h -1.390508 v -0.338873 c 0,-0.09659 0.07785,-0.17449 0.17479,-0.17449 z m 1.779447,0.09925 a 0.16027562,0.16027561 0 0 1 0.160321,0.160317 0.16027562,0.16027561 0 0 1 -0.160321,0.160317 0.16027562,0.16027561 0 0 1 -0.160321,-0.160317 0.16027562,0.16027561 0 0 1 0.160321,-0.160317 z m 0.556203,0 a 0.16027562,0.16027561 0 0 1 0.160322,0.160317 0.16027562,0.16027561 0 0 1 -0.160322,0.160317 0.16027562,0.16027561 0 0 1 -0.160321,-0.160317 0.16027562,0.16027561 0 0 1 0.160321,-0.160317 z m -2.51044,0.490801 h 1.390509 v 0.323243 c 0,0.09661 -0.07814,0.174508 -0.17508,0.174508 h -1.040639 c -0.09694,0 -0.17479,-0.0779 -0.17479,-0.174508 z m 1.954237,0.08277 a 0.16027562,0.16027561 0 0 1 0.160321,0.160317 0.16027562,0.16027561 0 0 1 -0.160321,0.160031 0.16027562,0.16027561 0 0 1 -0.160321,-0.160031 0.16027562,0.16027561 0 0 1 0.160321,-0.160317 z m 0.556203,0 a 0.16027562,0.16027561 0 0 1 0.160322,0.160317 0.16027562,0.16027561 0 0 1 -0.160322,0.160031 0.16027562,0.16027561 0 0 1 -0.160321,-0.160031 0.16027562,0.16027561 0 0 1 0.160321,-0.160317 z m -1.165654,-3.494943 c -0.960314,-0.02122 -1.771231,0.782292 -1.798258,1.748768 h -0.002 v 0.04138 c -2.9e-5,0.0065 -8.8e-4,0.01266 -8.8e-4,0.0191 2.87e-4,0 5.6e-4,0 8.8e-4,0 v 0.460135 h 3.52272 v -0.520615 h -0.002 c -0.01198,-0.945437 -0.778646,-1.727858 -1.720412,-1.748768 z m -0.875978,0.912442 c 0.178195,0 0.322668,0.144463 0.322668,0.32266 0,0.178159 -0.144473,0.322381 -0.322668,0.322381 -0.178152,0 -0.322378,-0.144222 -0.322378,-0.322381 0,-0.178197 0.144226,-0.32266 0.322378,-0.32266 z m 1.675556,0.0045 c 0.178196,0.0011 0.321845,0.14621 0.320932,0.324396 -9.6e-4,0.178159 -0.145919,0.321849 -0.324114,0.320948 -0.178153,-0.0011 -0.321845,-0.146256 -0.320932,-0.324414 9.6e-4,-0.178186 0.145963,-0.321849 0.324114,-0.32093 z" />
  <rect
     style="fill:#000000;stroke:#000000;stroke-width:0.0499999;stroke-dasharray:none;stroke-opacity:1"
     id="rect9520"
     width="2.0499647"
     height="0.6349448"
     x="31.708691"
     y="22.678867" />
  <rect
     style="fill:#000000;stroke:#000000;stroke-width:0.0499999;stroke-dasharray:none;stroke-opacity:1"
     id="rect9520-4"
     width="2.0499647"
     height="0.6349448"
     x="42.486877"
     y="26.078089" />
  <rect
     style="fill:#000000;stroke:#000000;stroke-width:0.0501116;stroke-dasharray:none;stroke-opacity:1"
     id="rect9544"
     width="1.1337183"
     height="0.47382927"
     x="35.947002"
     y="47.94746" />
  <rect
     style="fill:#000000;stroke:#000000;stroke-width:0.0501116;stroke-dasharray:none;stroke-opacity:1"
     id="rect9544-0"
     width="1.1337183"
     height="0.47382927"
     x="39.321281"
     y="47.948593" />
  <g
     aria-label="Ch1"
     id="text9570"
     style="font-size:3.88056px;font-family:Aldrich;-inkscape-font-specification:Aldrich;stroke:#000000;stroke-width:0.0499999"
     transform="translate(0,-1.5875)">
    <path
       d="m 19.814825,75.70355 q 0,-0.07958 0.03032,-0.14969 0.03032,-0.072 0.08337,-0.123162 0.05306,-0.05306 0.123162,-0.08337 0.072,-0.03221 0.151585,-0.03221 h 1.474158 q 0.07958,0 0.149689,0.03221 0.072,0.03032 0.125058,0.08337 0.05305,0.05116 0.08337,0.123162 0.03032,0.07011 0.03032,0.14969 v 0.350539 H 21.677418 V 75.70355 H 20.20326 v 1.94028 h 1.474158 v -0.348644 h 0.388435 v 0.348644 q 0,0.07958 -0.03032,0.151584 -0.03032,0.07011 -0.08337,0.123162 -0.05306,0.05306 -0.125058,0.08337 -0.07011,0.03032 -0.149689,0.03032 H 20.20326 q -0.07958,0 -0.151585,-0.03032 -0.07011,-0.03032 -0.123162,-0.08337 -0.05305,-0.05305 -0.08337,-0.123162 -0.03032,-0.072 -0.03032,-0.151584 z"
       style="stroke-width:0.05"
       id="path9626" />
    <path
       d="m 24.434359,78.032265 h -0.373277 v -1.644691 h -1.040248 v 1.644691 h -0.371381 v -2.794837 h 0.371381 v 0.77687 l 0.377066,-0.0057 0.663182,0.0057 q 0.07769,0 0.1459,0.03032 0.06821,0.02842 0.117478,0.07958 0.05116,0.04927 0.07958,0.117478 0.03032,0.06821 0.03032,0.1459 z"
       style="stroke-width:0.05"
       id="path9628" />
    <path
       d="m 25.715247,75.315115 v 2.71715 H 25.326812 V 75.70355 H 24.86069 v -0.388435 z"
       style="stroke-width:0.05"
       id="path9630" />
  </g>
  <g
     aria-label="Ch2"
     id="text9570-9"
     style="font-size:3.88056px;font-family:Aldrich;-inkscape-font-specification:Aldrich;stroke:#000000;stroke-width:0.0499999"
     transform="translate(0,-1.5875)">
    <path
       d="m 31.704162,75.70355 q 0,-0.07958 0.03032,-0.14969 0.03032,-0.072 0.08337,-0.123162 0.05305,-0.05306 0.123162,-0.08337 0.072,-0.03221 0.151584,-0.03221 h 1.474158 q 0.07958,0 0.14969,0.03221 0.072,0.03032 0.125057,0.08337 0.05306,0.05116 0.08337,0.123162 0.03032,0.07011 0.03032,0.14969 v 0.350539 H 33.566755 V 75.70355 h -1.474158 v 1.94028 h 1.474158 v -0.348644 h 0.388435 v 0.348644 q 0,0.07958 -0.03032,0.151584 -0.03032,0.07011 -0.08337,0.123162 -0.05305,0.05306 -0.125057,0.08337 -0.07011,0.03032 -0.14969,0.03032 h -1.474158 q -0.07958,0 -0.151584,-0.03032 -0.07011,-0.03032 -0.123162,-0.08337 -0.05306,-0.05305 -0.08337,-0.123162 -0.03032,-0.072 -0.03032,-0.151584 z"
       style="stroke-width:0.05"
       id="path9633" />
    <path
       d="M 36.323696,78.032265 H 35.95042 v -1.644691 h -1.040248 v 1.644691 H 34.53879 v -2.794837 h 0.371382 v 0.77687 l 0.377066,-0.0057 0.663182,0.0057 q 0.07769,0 0.1459,0.03032 0.06821,0.02842 0.117477,0.07958 0.05116,0.04927 0.07958,0.117478 0.03032,0.06821 0.03032,0.1459 z"
       style="stroke-width:0.05"
       id="path9635" />
    <path
       d="m 37.333627,75.70355 v 0.350539 H 36.945192 V 75.70355 q 0,-0.07958 0.03032,-0.14969 0.03032,-0.072 0.08337,-0.123162 0.05306,-0.05306 0.123163,-0.08337 0.072,-0.03221 0.151584,-0.03221 h 1.229728 q 0.07958,0 0.14969,0.03221 0.072,0.03032 0.123162,0.08337 0.05306,0.05116 0.08337,0.123162 0.03221,0.07011 0.03221,0.14969 v 0.496439 q 0,0.07958 -0.01516,0.14211 -0.01516,0.06253 -0.04927,0.113688 -0.03221,0.04927 -0.08337,0.08906 -0.05116,0.03979 -0.125058,0.07579 l -1.345311,0.63097 v 0.392225 h 1.278993 v -0.348644 h 0.388435 v 0.737079 h -2.055863 v -0.714342 q 0,-0.07958 0.01516,-0.14211 0.01705,-0.06253 0.04926,-0.111793 0.03221,-0.04927 0.08337,-0.08906 0.05305,-0.04169 0.123162,-0.07579 l 1.347206,-0.632865 V 75.70355 Z"
       style="stroke-width:0.05"
       id="path9637" />
  </g>
  <g
     aria-label="Ch3"
     id="text9570-9-6"
     style="font-size:3.88056px;font-family:Aldrich;-inkscape-font-specification:Aldrich;stroke:#000000;stroke-width:0.0499999"
     transform="translate(0,-1.5875)">
    <path
       d="m 44.327717,75.70355 q 0,-0.07958 0.03032,-0.14969 0.03032,-0.072 0.08337,-0.123162 0.05305,-0.05306 0.123162,-0.08337 0.072,-0.03221 0.151585,-0.03221 h 1.474158 q 0.07958,0 0.149689,0.03221 0.072,0.03032 0.125057,0.08337 0.05306,0.05116 0.08337,0.123162 0.03032,0.07011 0.03032,0.14969 v 0.350539 H 46.19031 V 75.70355 h -1.474158 v 1.94028 h 1.474158 v -0.348644 h 0.388435 v 0.348644 q 0,0.07958 -0.03032,0.151584 -0.03032,0.07011 -0.08337,0.123162 -0.05305,0.05306 -0.125057,0.08337 -0.07011,0.03032 -0.149689,0.03032 h -1.474158 q -0.07958,0 -0.151585,-0.03032 -0.07011,-0.03032 -0.123162,-0.08337 -0.05306,-0.05305 -0.08337,-0.123162 -0.03032,-0.072 -0.03032,-0.151584 z"
       style="stroke-width:0.05"
       id="path9640" />
    <path
       d="m 48.94725,78.032265 h -0.373276 v -1.644691 h -1.040248 v 1.644691 h -0.371382 v -2.794837 h 0.371382 v 0.77687 l 0.377066,-0.0057 0.663182,0.0057 q 0.07769,0 0.1459,0.03032 0.06821,0.02842 0.117478,0.07958 0.05116,0.04927 0.07958,0.117478 0.03032,0.06821 0.03032,0.1459 z"
       style="stroke-width:0.05"
       id="path9642" />
    <path
       d="m 49.451269,77.209919 h 0.380855 v 0.144006 q 0,0.153479 0.06821,0.225481 0.06821,0.072 0.223587,0.072 h 0.782555 q 0.155373,0 0.223586,-0.072 0.06821,-0.072 0.06821,-0.225481 v -0.210324 q 0,-0.155374 -0.06821,-0.225481 -0.06821,-0.07011 -0.223586,-0.07011 h -0.803398 v -0.378961 h 0.792029 q 0.14211,-0.0057 0.202744,-0.07579 0.06253,-0.072 0.06253,-0.219798 V 75.99535 q 0,-0.155374 -0.07011,-0.227377 -0.06821,-0.072 -0.221693,-0.072 H 50.16182 q -0.153479,0 -0.221692,0.072 -0.06821,0.072 -0.06821,0.227377 v 0.144005 h -0.380856 v -0.162953 q 0,-0.661287 0.659392,-0.661287 h 0.7295 q 0.335381,0 0.496439,0.162953 0.162953,0.162953 0.162953,0.498334 v 0.04927 q 0,0.229271 -0.08148,0.378961 -0.07958,0.147794 -0.233061,0.219797 0.172427,0.05116 0.263378,0.204639 0.09095,0.153479 0.09095,0.407383 v 0.136426 q 0,0.659392 -0.659392,0.659392 h -0.807187 q -0.661286,0 -0.661286,-0.659392 z"
       style="stroke-width:0.05"
       id="path9644" />
  </g>
  <rect
     style="fill:#000000;fill-opacity:0;stroke:#000000;stroke-width:0.96212;stroke-linecap:butt;stroke-linejoin:bevel;stroke-miterlimit:4;stroke-dasharray:none;stroke-opacity:1"
     id="rect6564"
     width="24.43788"
     height="24.43788"
     x="69.87912"
     y="10.152781" />
  <g
     aria-label="1x1&quot;"
     style="font-style:normal;font-variant:normal;font-weight:normal;font-stretch:normal;font-size:7.05556px;line-height:6.61458px;font-family:Aldrich;-inkscape-font-specification:Aldrich;letter-spacing:0px;word-spacing:0px;fill:#000000;fill-opacity:1;stroke:none;stroke-width:0.264583px;stroke-linecap:butt;stroke-linejoin:miter;stroke-opacity:1"
     id="text6568"
     transform="translate(96.040428,-128.15901)">
    <path
       d="m -17.970595,147.06657 v 4.94027 h -0.706244 v -4.23403 h -0.847494 v -0.70624 z"
       style="stroke-width:0.264583px"
       id="path6570" />
    <path
       d="m -13.505751,148.33781 -1.333252,1.79145 1.395264,1.87758 h -0.819933 l -0.985297,-1.32637 -0.988743,1.32637 h -0.819933 l 1.398709,-1.87758 -1.333252,-1.79145 h 0.816488 l 0.926731,1.24023 0.923285,-1.24023 z"
       style="stroke-width:0.264583px"
       id="path6572" />
    <path
       d="m -11.466255,147.06657 v 4.94027 h -0.706244 v -4.23403 h -0.847494 v -0.70624 z"
       style="stroke-width:0.264583px"
       id="path6574" />
    <path
       d="m -9.5059946,149.38167 h -0.468533 l -0.2239314,-1.56752 v -0.74758 h 0.9163956 v 0.74758 z m 1.409044,0 h -0.4650879 l -0.2273763,-1.56752 v -0.74758 h 0.9198405 v 0.74758 z"
       style="stroke-width:0.264583px"
       id="path6576" />
  </g>
  <path
     id="face0-cut-9"
     style="fill:none;stroke:#ff0000;stroke-width:0.05;stroke-linecap:round;stroke-linejoin:round;stroke-miterlimit:4;stroke-dasharray:none;stroke-opacity:1"
     d="m 57.911778,83.136015 h -45 -0.391586 l -0.384871,0.102223 -0.371593,0.126138 -0.35195,0.173563 -0.326284,0.218016 -0.295036,0.25874 -0.25874,0.295036 -0.218016,0.326284 -0.173563,0.35195 -0.126138,0.371593 -0.07656,0.384878 -0.02567,0.391579 v 63.999995 l 0.02567,0.39158 0.07656,0.38488 0.126138,0.37159 0.173563,0.35195 0.218016,0.32629 0.25874,0.29503 0.295036,0.25874 0.326284,0.21802 0.35195,0.17356 0.371593,0.12614 0.384878,0.0766 0.391572,0.0257 h 45 l 0.391579,-0.0257 0.384878,-0.0766 0.371593,-0.12613 0.35195,-0.17356 0.326284,-0.21802 0.295036,-0.25874 0.25874,-0.29503 0.218016,-0.32629 0.173563,-0.35195 0.126138,-0.37159 0.07656,-0.38488 0.02566,-0.39158 V 86.136015 l -0.02566,-0.391579 -0.07656,-0.384878 -0.126138,-0.371593 -0.173563,-0.35195 -0.218016,-0.326284 -0.25874,-0.295036 -0.295036,-0.25874 -0.326284,-0.218016 -0.35195,-0.173563 -0.371593,-0.126138 -0.384878,-0.07656 -0.391579,-0.02566 m -0.727208,6.272792 -0.372792,0.286054 -0.434126,0.17982 -0.465874,0.06133 -0.465874,-0.06133 -0.434126,-0.17982 -0.372792,-0.286054 -0.286054,-0.372792 -0.17982,-0.434126 -0.06133,-0.465874 0.06133,-0.465874 0.17982,-0.434126 0.286054,-0.372792 0.372792,-0.286054 0.434126,-0.17982 0.465874,-0.06133 0.465874,0.06133 0.434126,0.17982 0.372792,0.286054 0.286054,0.372792 0.17982,0.434126 0.06133,0.465874 -0.06133,0.465874 -0.17982,0.434126 -0.286054,0.372792 m -3.011458,59.19309 -0.06133,-0.46588 0.06133,-0.46587 0.17982,-0.43413 0.286054,-0.37279 0.372792,-0.28605 0.434126,-0.17982 0.465874,-0.0613 0.465874,0.0613 0.434126,0.17982 0.372792,0.28605 0.286054,0.37279 0.17982,0.43413 0.06133,0.46587 -0.06133,0.46588 -0.17982,0.43412 -0.286054,0.37279 -0.372792,0.28606 -0.434126,0.17982 -0.465874,0.0613 -0.465874,-0.0613 -0.434126,-0.17982 -0.372792,-0.28606 -0.286054,-0.37279 -0.17982,-0.43412 m -40.82018,0.43412 -0.17982,-0.43412 -0.06133,-0.46588 0.06133,-0.46587 0.17982,-0.43413 0.286054,-0.37279 0.372792,-0.28605 0.434126,-0.17982 0.465874,-0.0613 0.465874,0.0613 0.434126,0.17982 0.372792,0.28605 0.286054,0.37279 0.17982,0.43413 0.06133,0.46587 -0.06133,0.46588 -0.17982,0.43412 -0.286054,0.37279 -0.372792,0.28606 -0.434126,0.17982 -0.465874,0.0613 -0.465874,-0.0613 -0.434126,-0.17982 -0.372792,-0.28606 -0.286054,-0.37279 m 2.458846,-59.341156 -0.434126,0.17982 -0.465874,0.06133 -0.465874,-0.06133 -0.434126,-0.17982 -0.372792,-0.286054 -0.286054,-0.372792 -0.17982,-0.434126 -0.06133,-0.465874 0.06133,-0.465874 0.17982,-0.434126 0.286054,-0.372792 0.372792,-0.286054 0.434126,-0.17982 0.465874,-0.06133 0.465874,0.06133 0.434126,0.17982 0.372792,0.286054 0.286054,0.372792 0.17982,0.434126 0.06133,0.465874 -0.06133,0.465874 -0.17982,0.434126 -0.286054,0.372792 -0.372792,0.286054" />
  <path
     id="face0-interior-8"
     style="fill:none;stroke:#ff0000;stroke-width:0.05;stroke-linecap:round;stroke-linejoin:round;stroke-miterlimit:4;stroke-dasharray:none;stroke-opacity:1"
     d="m 57.911778,83.136015 m -45,0 m -0.391586,0 m -0.384871,0.102223 m -0.371593,0.126138 m -0.35195,0.173563 m -0.326284,0.218016 m -0.295036,0.25874 m -0.25874,0.295036 m -0.218016,0.326284 m -0.173563,0.35195 m -0.126138,0.371593 m -0.07656,0.384878 m -0.02566,0.391579 m 0,63.999995 m 0.02567,0.39158 m 0.07656,0.38488 m 0.126138,0.37159 m 0.173556,0.35195 m 0.218016,0.32629 m 0.25874,0.29503 m 0.295036,0.25874 m 0.326284,0.21802 m 0.35195,0.17356 m 0.371593,0.12614 m 0.384878,0.0766 m 0.391579,0.0257 m 45,0 m 0.391579,-0.0257 m 0.384878,-0.0766 m 0.371593,-0.12613 m 0.35195,-0.17356 m 0.326284,-0.21802 m 0.295036,-0.25874 m 0.25874,-0.29503 m 0.218016,-0.32629 m 0.173563,-0.35195 m 0.126138,-0.37159 m 0.07656,-0.38488 m 0.02566,-0.39158 m 0,-63.999995 m -0.02566,-0.391579 m -0.07656,-0.384878 m -0.126141,-0.371593 m -0.173563,-0.35195 m -0.218016,-0.326294 m -0.25874,-0.295036 m -0.295036,-0.25874 m -0.326284,-0.218016 m -0.35195,-0.173563 m -0.371593,-0.126138 m -0.384878,-0.07656 m -1.118787,6.247127 m -0.372792,0.286056 m -0.434126,0.17982 m -0.465874,0.06133 m -0.465874,-0.06133 m -0.434126,-0.17982 m -0.372792,-0.286054 m -0.286054,-0.372792 m -0.17982,-0.434126 m -0.06133,-0.465874 m 0.06133,-0.465874 m 0.179824,-0.434126 m 0.286054,-0.372792 m 0.372792,-0.286054 m 0.434126,-0.17982 m 0.465874,-0.06133 m 0.465874,0.06133 m 0.434126,0.179824 m 0.372792,0.286054 m 0.286054,0.372792 m 0.17982,0.434126 m 0.06133,0.465874 m -0.06133,0.465874 m -0.179824,0.434126 m -3.297512,59.565871 m -0.06133,-0.46588 m 0.06133,-0.46587 m 0.179824,-0.43413 m 0.286054,-0.37279 m 0.372792,-0.28605 m 0.434126,-0.17982 m 0.465874,-0.0613 m 0.465874,0.0613 m 0.434126,0.17983 m 0.372792,0.28605 m 0.286054,0.37279 m 0.17982,0.43413 m 0.06133,0.46587 m -0.06133,0.46588 m -0.179824,0.43412 m -0.286054,0.37279 m -0.372792,0.28606 m -0.434126,0.17982 m -0.465874,0.0613 m -0.465874,-0.0613 m -0.434126,-0.17982 m -0.372792,-0.28606 m -0.286054,-0.37279 m -41,0 m -0.17982,-0.43412 m -0.06133,-0.46588 m 0.06133,-0.46587 m 0.179824,-0.43413 m 0.286054,-0.37279 m 0.372792,-0.28605 m 0.434126,-0.17982 m 0.465874,-0.0613 m 0.465874,0.0613 m 0.434126,0.17983 m 0.372792,0.28605 m 0.286054,0.37279 m 0.17982,0.43413 m 0.06133,0.46587 m -0.06133,0.46588 m -0.179824,0.43412 m -0.286054,0.37279 m -0.372792,0.28606 m -0.434126,0.17982 m -0.465874,0.0613 m -0.465874,-0.0613 m -0.434126,-0.17982 m -0.372792,-0.28606 m 2.172792,-59.713959 m -0.434126,0.17982 m -0.465874,0.06133 m -0.465874,-0.06133 m -0.434126,-0.17982 m -0.372792,-0.286054 m -0.286054,-0.372792 m -0.17982,-0.434126 m -0.06133,-0.465874 m 0.06133,-0.465874 m 0.179824,-0.434126 m 0.286054,-0.372792 m 0.372792,-0.286054 m 0.434126,-0.17982 m 0.465874,-0.06133 m 0.465874,0.06133 m 0.434126,0.179824 m 0.372792,0.286054 m 0.286054,0.372792 m 0.17982,0.434126 m 0.06133,0.465874 m -0.06133,0.465874 m -0.179824,0.434126 m -0.286054,0.372792" />
  <path
     id="path148-0"
     style="fill:none;stroke:#ff0000;stroke-width:0.05;stroke-linecap:round;stroke-linejoin:round;stroke-miterlimit:4;stroke-dasharray:none;stroke-opacity:1"
     d="m 57.911778,83.136015 m -45,0 m -0.391586,0 m -0.384871,0.102223 m -0.371593,0.126138 m -0.35195,0.173563 m -0.326284,0.218016 m -0.295036,0.25874 m -0.25874,0.295036 m -0.218016,0.326284 m -0.173563,0.35195 m -0.126138,0.371593 m -0.07656,0.384878 m -0.02566,0.391579 m 0,63.999995 m 0.02567,0.39158 m 0.07656,0.38488 m 0.126138,0.37159 m 0.173556,0.35195 m 0.218016,0.32629 m 0.25874,0.29503 m 0.295036,0.25874 m 0.326284,0.21802 m 0.35195,0.17356 m 0.371593,0.12614 m 0.384878,0.0766 m 0.391579,0.0257 m 45,0 m 0.391579,-0.0257 m 0.384878,-0.0766 m 0.371593,-0.12613 m 0.35195,-0.17356 m 0.326284,-0.21802 m 0.295036,-0.25874 m 0.25874,-0.29503 m 0.218016,-0.32629 m 0.173563,-0.35195 m 0.126138,-0.37159 m 0.07656,-0.38488 m 0.02566,-0.39158 m 0,-63.999995 m -0.02566,-0.391579 m -0.07656,-0.384878 m -0.126141,-0.371593 m -0.173563,-0.35195 m -0.218016,-0.326294 m -0.25874,-0.295036 m -0.295036,-0.25874 m -0.326284,-0.218016 m -0.35195,-0.173563 m -0.371593,-0.126138 m -0.384878,-0.07656 m -1.118787,6.247127 m -0.372792,0.286056 m -0.434126,0.17982 m -0.465874,0.06133 m -0.465874,-0.06133 m -0.434126,-0.17982 m -0.372792,-0.286054 m -0.286054,-0.372792 m -0.17982,-0.434126 m -0.06133,-0.465874 m 0.06133,-0.465874 m 0.179824,-0.434126 m 0.286054,-0.372792 m 0.372792,-0.286054 m 0.434126,-0.17982 m 0.465874,-0.06133 m 0.465874,0.06133 m 0.434126,0.179824 m 0.372792,0.286054 m 0.286054,0.372792 m 0.17982,0.434126 m 0.06133,0.465874 m -0.06133,0.465874 m -0.179824,0.434126 m -3.297512,59.565871 m -0.06133,-0.46588 m 0.06133,-0.46587 m 0.179824,-0.43413 m 0.286054,-0.37279 m 0.372792,-0.28605 m 0.434126,-0.17982 m 0.465874,-0.0613 m 0.465874,0.0613 m 0.434126,0.17983 m 0.372792,0.28605 m 0.286054,0.37279 m 0.17982,0.43413 m 0.06133,0.46587 m -0.06133,0.46588 m -0.179824,0.43412 m -0.286054,0.37279 m -0.372792,0.28606 m -0.434126,0.17982 m -0.465874,0.0613 m -0.465874,-0.0613 m -0.434126,-0.17982 m -0.372792,-0.28606 m -0.286054,-0.37279 m -41,0 m -0.17982,-0.43412 m -0.06133,-0.46588 m 0.06133,-0.46587 m 0.179824,-0.43413 m 0.286054,-0.37279 m 0.372792,-0.28605 m 0.434126,-0.17982 m 0.465874,-0.0613 m 0.465874,0.0613 m 0.434126,0.17983 m 0.372792,0.28605 m 0.286054,0.37279 m 0.17982,0.43413 m 0.06133,0.46587 m -0.06133,0.46588 m -0.179824,0.43412 m -0.286054,0.37279 m -0.372792,0.28606 m -0.434126,0.17982 m -0.465874,0.0613 m -0.465874,-0.0613 m -0.434126,-0.17982 m -0.372792,-0.28606 m 2.172792,-59.713959 m -0.434126,0.17982 m -0.465874,0.06133 m -0.465874,-0.06133 m -0.434126,-0.17982 m -0.372792,-0.286054 m -0.286054,-0.372792 m -0.17982,-0.434126 m -0.06133,-0.465874 m 0.06133,-0.465874 m 0.179824,-0.434126 m 0.286054,-0.372792 m 0.372792,-0.286054 m 0.434126,-0.17982 m 0.465874,-0.06133 m 0.465874,0.06133 m 0.434126,0.179824 m 0.372792,0.286054 m 0.286054,0.372792 m 0.17982,0.434126 m 0.06133,0.465874 m -0.06133,0.465874 m -0.179824,0.434126 m -0.286054,0.372792" />
  <g
     aria-label="5-12 VDC"
     id="text342"
     style="font-size:4.23333px;font-family:Bebas;-inkscape-font-specification:Bebas;stroke:#000000;stroke-width:0.3">
    <path
       d="m 41.257112,105.27002 v 0.80878 q 0.08418,-0.12026 0.237523,-0.18641 0.08118,-0.0331 0.189418,-0.0331 0.372821,0 0.550212,0.26157 0.153338,0.2255 0.153338,0.63741 v 0.81179 q 0,0.41792 -0.264583,0.68551 -0.252556,0.25857 -0.637405,0.25857 -0.372821,0 -0.619365,-0.2706 -0.237523,-0.25857 -0.237523,-0.63139 v -0.0902 l 0.544199,-0.0421 0.01203,0.12928 q 0.02105,0.2255 0.183404,0.30067 0.04811,0.0241 0.102225,0.0241 0.348769,0 0.348769,-0.3638 v -0.92304 q 0,-0.16536 -0.120265,-0.2736 -0.05713,-0.0511 -0.159351,-0.0511 -0.150332,0 -0.222491,0.11726 -0.06013,0.10222 -0.06013,0.21647 v 0.10223 h -0.571259 v -2.05954 h 1.662664 v 0.57126 z"
       style="opacity:1;stroke-opacity:0"
       id="path2032" />
    <path
       d="m 42.778465,106.3043 h 1.68371 v 0.57126 h -1.68371 z"
       style="opacity:1;stroke-opacity:0"
       id="path2034" />
    <path
       d="m 45.334098,108.47208 v -2.9014 h -0.48106 v -0.39687 q 0.20445,-0.0241 0.387855,-0.15334 0.18641,-0.13229 0.267589,-0.3187 h 0.396875 v 3.77031 z"
       style="opacity:1;stroke-opacity:0"
       id="path2036" />
    <path
       d="m 46.380407,105.76611 q 0,-0.53518 0.288636,-0.8178 0.24955,-0.24955 0.655444,-0.24955 0.372822,0 0.634399,0.27962 0.264583,0.27961 0.264583,0.65243 0,0.38485 -0.171378,0.74264 -0.0932,0.19844 -0.435961,0.68251 -0.0932,0.13229 -0.276609,0.4119 l -0.102226,0.15334 q -0.09922,0.15033 -0.150331,0.23752 -0.02405,0.0421 -0.02405,0.0511 l 1.115458,0.003 v 0.55623 h -1.806982 v -0.52015 q 0,-0.018 0.126278,-0.20745 0.05713,-0.0872 0.129285,-0.19243 l 0.147325,-0.21347 q 0.129285,-0.17739 0.405894,-0.56825 0.261577,-0.36681 0.390862,-0.66447 0.105232,-0.24353 0.105232,-0.454 0,-0.17137 -0.09621,-0.29164 -0.105232,-0.12628 -0.270597,-0.12628 -0.237523,0 -0.336742,0.27361 -0.03307,0.0902 -0.03307,0.21647 v 0.14432 h -0.559232 z"
       style="opacity:1;stroke-opacity:0"
       id="path2038" />
    <path
       d="m 49.678671,108.47208 -0.673484,-3.76731 h 0.595312 l 0.47204,2.93146 0.478054,-2.93146 h 0.595312 l -0.685511,3.76731 z"
       style="opacity:1;stroke-opacity:0"
       id="path2040" />
    <path
       d="m 53.406886,107.57009 q 0,0.37282 -0.261577,0.6374 -0.261576,0.26459 -0.631391,0.26459 H 51.62095 v -3.77031 h 0.892968 q 0.372821,0 0.631391,0.26458 0.261577,0.26458 0.261577,0.6344 z m -1.217684,0.33975 h 0.342755 q 0.135299,0 0.228504,-0.0962 0.0932,-0.0992 0.0932,-0.23151 v -1.97235 q 0,-0.1353 -0.09621,-0.23151 -0.09321,-0.0962 -0.225497,-0.0962 h -0.342755 z"
       style="opacity:1;stroke-opacity:0"
       id="path2042" />
    <path
       d="m 54.798951,108.52018 q -0.375828,0 -0.640411,-0.26157 -0.261577,-0.26459 -0.261577,-0.63741 v -2.05653 q 0,-0.37583 0.264583,-0.63741 0.264583,-0.26458 0.637405,-0.26458 0.375828,0 0.637405,0.26458 0.261576,0.26459 0.261576,0.63741 v 0.42995 h -0.589299 v -0.44198 q 0,-0.1353 -0.09621,-0.23151 -0.09621,-0.0962 -0.23151,-0.0962 -0.135298,0 -0.23151,0.0962 -0.09321,0.0962 -0.09321,0.23151 v 2.06255 q 0,0.1353 0.09321,0.23151 0.09621,0.0932 0.23151,0.0932 0.135298,0 0.23151,-0.0932 0.09621,-0.0962 0.09621,-0.23151 v -0.52015 h 0.589299 v 0.52616 q 0,0.37583 -0.264583,0.63741 -0.264583,0.26157 -0.634398,0.26157 z"
       style="opacity:1;stroke-opacity:0"
       id="path2044" />
  </g>
  <g
     aria-label="See   motor"
     id="text342-0"
     style="font-size:4.23333px;font-family:Bebas;-inkscape-font-specification:Bebas;stroke:#000000;stroke-width:0.3">
    <path
       d="m 28.071564,122.09169 q 0.006,0.39387 -0.20445,0.67349 -0.138305,0.18942 -0.390862,0.26759 -0.135298,0.0421 -0.315696,0.0421 -0.333735,0 -0.553219,-0.16536 -0.183404,-0.1353 -0.291643,-0.36681 -0.105231,-0.23452 -0.123271,-0.53518 l 0.541193,-0.0391 q 0.03608,0.32773 0.174384,0.47505 0.102225,0.11125 0.234517,0.10523 0.186411,-0.006 0.297656,-0.1834 0.05713,-0.0872 0.05713,-0.24955 0,-0.23452 -0.213471,-0.46603 -0.168371,-0.15935 -0.505113,-0.47805 -0.282623,-0.27361 -0.399881,-0.49008 -0.126279,-0.24354 -0.126279,-0.52917 0,-0.51413 0.345762,-0.77872 0.213471,-0.15935 0.529167,-0.15935 0.303669,0 0.520146,0.1353 0.168371,0.10523 0.270596,0.29465 0.105232,0.18942 0.126279,0.43596 l -0.5442,0.0992 q -0.02405,-0.23151 -0.132291,-0.36079 -0.07817,-0.0932 -0.225497,-0.0932 -0.156345,0 -0.237524,0.1383 -0.06615,0.11125 -0.06615,0.27661 0,0.25857 0.222491,0.52616 0.08419,0.10223 0.252556,0.24053 0.198438,0.16537 0.261577,0.23151 0.210464,0.21047 0.324716,0.41492 0.05412,0.0962 0.08719,0.17739 0.08118,0.20144 0.08418,0.36079 z"
       style="opacity:1;stroke-opacity:0"
       id="path2064" />
    <path
       d="m 28.54361,123.02976 v -3.77031 h 1.617565 v 0.56826 h -1.049313 v 1.03127 h 0.76669 v 0.57126 h -0.76669 v 1.03127 h 1.049313 v 0.56825 z"
       style="opacity:1;stroke-opacity:0"
       id="path2066" />
    <path
       d="m 30.552037,123.02976 v -3.77031 h 1.617565 v 0.56826 h -1.049313 v 1.03127 h 0.76669 v 0.57126 h -0.76669 v 1.03127 h 1.049313 v 0.56825 z"
       style="opacity:1;stroke-opacity:0"
       id="path2068" />
    <path
       d="m 34.301294,123.02976 h -0.568252 v -3.77031 h 0.814795 l 0.529167,2.70296 0.508119,-2.70296 h 0.78473 v 3.77031 h -0.568252 v -2.36922 l -0.493087,2.36922 h -0.457007 l -0.550213,-2.36321 z"
       style="opacity:1;stroke-opacity:0"
       id="path2070" />
    <path
       d="m 37.767932,119.21435 q 0.375828,0 0.637405,0.26459 0.264583,0.26458 0.264583,0.6374 v 2.05653 q 0,0.37583 -0.264583,0.64042 -0.264583,0.26157 -0.637405,0.26157 -0.375828,0 -0.637405,-0.26458 -0.261576,-0.26458 -0.261576,-0.63741 v -2.05653 q 0,-0.37583 0.264583,-0.6374 0.264583,-0.26459 0.634398,-0.26459 z m 0.309683,0.88996 q 0,-0.13529 -0.09621,-0.2285 -0.09321,-0.0962 -0.228504,-0.0962 -0.135298,0 -0.23151,0.0962 -0.09621,0.0932 -0.09621,0.2285 v 2.06255 q 0,0.1353 0.09621,0.23151 0.09621,0.0932 0.23151,0.0932 0.135298,0 0.228504,-0.0932 0.09621,-0.0962 0.09621,-0.23151 z"
       style="opacity:1;stroke-opacity:0"
       id="path2072" />
    <path
       d="M 39.665112,119.83071 H 39.06078 v -0.56825 h 1.77391 v 0.56825 h -0.601325 v 3.19905 h -0.568253 z"
       style="opacity:1;stroke-opacity:0"
       id="path2074" />
    <path
       d="m 42.124534,119.21435 q 0.375828,0 0.637405,0.26459 0.264583,0.26458 0.264583,0.6374 v 2.05653 q 0,0.37583 -0.264583,0.64042 -0.264584,0.26157 -0.637405,0.26157 -0.375829,0 -0.637405,-0.26458 -0.261576,-0.26458 -0.261576,-0.63741 v -2.05653 q 0,-0.37583 0.264583,-0.6374 0.264583,-0.26459 0.634398,-0.26459 z m 0.309682,0.88996 q 0,-0.13529 -0.09621,-0.2285 -0.0932,-0.0962 -0.228503,-0.0962 -0.135299,0 -0.231511,0.0962 -0.09621,0.0932 -0.09621,0.2285 v 2.06255 q 0,0.1353 0.09621,0.23151 0.09621,0.0932 0.231511,0.0932 0.135298,0 0.228503,-0.0932 0.09621,-0.0962 0.09621,-0.23151 z"
       style="opacity:1;stroke-opacity:0"
       id="path2076" />
    <path
       d="m 44.424598,119.26246 q 0.475047,0 0.697537,0.26158 0.195431,0.2285 0.195431,0.6374 v 0.54721 q 0,0.39988 -0.303669,0.67649 l 0.420928,1.64462 h -0.613352 l -0.345762,-1.42213 q -0.02405,0.003 -0.05111,0.003 h -0.327722 v 1.41913 h -0.568252 v -3.7673 z m 0.339749,0.908 q 0,-0.32772 -0.324716,-0.32772 h -0.342755 v 1.20566 h 0.342755 q 0.135298,0 0.228504,-0.0962 0.09621,-0.0962 0.09621,-0.23151 z"
       style="opacity:1;stroke-opacity:0"
       id="path2078" />
  </g>
  <g
     aria-label="Manual  for"
     id="text342-0-2"
     style="font-size:4.23333px;font-family:Bebas;-inkscape-font-specification:Bebas;stroke:#000000;stroke-width:0.3">
    <path
       d="m 25.496383,129.83946 h -0.568252 v -3.77031 h 0.814796 l 0.529166,2.70296 0.50812,-2.70296 h 0.784729 v 3.77031 H 26.99669 v -2.36922 l -0.493087,2.36922 h -0.457007 l -0.550213,-2.36321 z"
       style="opacity:1;stroke-opacity:0"
       id="path2081" />
    <path
       d="m 28.770597,128.97355 -0.138305,0.86591 h -0.592306 l 0.640412,-3.7673 h 0.781723 l 0.631391,3.7673 H 29.4982 l -0.135298,-0.86591 z m 0.297656,-2.03849 -0.210464,1.48527 h 0.420927 z"
       style="opacity:1;stroke-opacity:0"
       id="path2083" />
    <path
       d="m 31.211984,126.06915 0.751656,2.53158 v -2.53158 h 0.568253 v 3.77031 h -0.610346 l -0.781722,-2.41432 v 2.41432 h -0.568253 v -3.77031 z"
       style="opacity:1;stroke-opacity:0"
       id="path2085" />
    <path
       d="m 33.935986,129.88156 q -0.375829,0 -0.637405,-0.26158 -0.261577,-0.26158 -0.261577,-0.6344 v -2.91342 h 0.556226 v 2.90741 q 0,0.1353 0.09621,0.23151 0.09621,0.0932 0.231511,0.0932 0.135298,0 0.228503,-0.0932 0.09621,-0.0962 0.09621,-0.23151 v -2.90741 h 0.592306 v 2.91342 q 0,0.37884 -0.264584,0.63741 -0.264583,0.25857 -0.637404,0.25857 z"
       style="opacity:1;stroke-opacity:0"
       id="path2087" />
    <path
       d="m 35.959444,128.97355 -0.138305,0.86591 h -0.592305 l 0.640411,-3.7673 h 0.781723 l 0.631392,3.7673 h -0.595312 l -0.135298,-0.86591 z m 0.297656,-2.03849 -0.210464,1.48527 h 0.420928 z"
       style="opacity:1;stroke-opacity:0"
       id="path2089" />
    <path
       d="M 39.308832,129.83946 H 37.76042 v -3.7673 h 0.568252 v 3.20206 h 0.98016 z"
       style="opacity:1;stroke-opacity:0"
       id="path2091" />
    <path
       d="m 41.049668,129.83946 h -0.568252 v -3.77031 h 1.617565 v 0.56826 h -1.049313 v 1.03127 h 0.76669 v 0.57126 h -0.76669 z"
       style="opacity:1;stroke-opacity:0"
       id="path2093" />
    <path
       d="m 43.388825,126.02405 q 0.375828,0 0.637404,0.26459 0.264583,0.26458 0.264583,0.6374 v 2.05653 q 0,0.37583 -0.264583,0.64042 -0.264583,0.26157 -0.637404,0.26157 -0.375829,0 -0.637405,-0.26458 -0.261577,-0.26458 -0.261577,-0.63741 v -2.05653 q 0,-0.37583 0.264583,-0.6374 0.264584,-0.26459 0.634399,-0.26459 z m 0.309682,0.88996 q 0,-0.13529 -0.09621,-0.2285 -0.0932,-0.0962 -0.228504,-0.0962 -0.135298,0 -0.23151,0.0962 -0.09621,0.0932 -0.09621,0.2285 v 2.06255 q 0,0.1353 0.09621,0.23151 0.09621,0.0932 0.23151,0.0932 0.135299,0 0.228504,-0.0932 0.09621,-0.0962 0.09621,-0.23151 z"
       style="opacity:1;stroke-opacity:0"
       id="path2095" />
    <path
       d="m 45.688888,126.07216 q 0.475047,0 0.697537,0.26158 0.195431,0.2285 0.195431,0.6374 v 0.54721 q 0,0.39988 -0.303669,0.67649 l 0.420927,1.64462 h -0.613351 l -0.345762,-1.42213 q -0.02405,0.003 -0.05111,0.003 h -0.327722 v 1.41913 h -0.568253 v -3.7673 z m 0.339749,0.908 q 0,-0.32772 -0.324716,-0.32772 h -0.342755 v 1.20566 h 0.342755 q 0.135298,0 0.228504,-0.0962 0.09621,-0.0962 0.09621,-0.23151 z"
       style="opacity:1;stroke-opacity:0"
       id="path2097" />
  </g>
  <g
     aria-label="Correct Voltage"
     id="text342-0-2-9"
     style="font-size:4.23333px;font-family:Bebas;-inkscape-font-specification:Bebas;stroke:#000000;stroke-width:0.3">
    <path
       d="m 21.521628,136.89799 q -0.375828,0 -0.640411,-0.26158 -0.261577,-0.26458 -0.261577,-0.6374 v -2.05653 q 0,-0.37583 0.264583,-0.63741 0.264584,-0.26458 0.637405,-0.26458 0.375828,0 0.637405,0.26458 0.261576,0.26458 0.261576,0.63741 v 0.42994 h -0.589298 v -0.44197 q 0,-0.1353 -0.09621,-0.23151 -0.09621,-0.0962 -0.231511,-0.0962 -0.135298,0 -0.23151,0.0962 -0.09321,0.0962 -0.09321,0.23151 v 2.06255 q 0,0.13529 0.09321,0.23151 0.09621,0.0932 0.23151,0.0932 0.135299,0 0.231511,-0.0932 0.09621,-0.0962 0.09621,-0.23151 v -0.52015 h 0.589298 v 0.52616 q 0,0.37583 -0.264583,0.6374 -0.264583,0.26158 -0.634398,0.26158 z"
       style="opacity:1;stroke-opacity:0"
       id="path2100" />
    <path
       d="m 23.776597,133.03448 q 0.375828,0 0.637405,0.26458 0.264583,0.26458 0.264583,0.6374 v 2.05654 q 0,0.37582 -0.264583,0.64041 -0.264583,0.26157 -0.637405,0.26157 -0.375828,0 -0.637405,-0.26458 -0.261576,-0.26458 -0.261576,-0.6374 v -2.05654 q 0,-0.37583 0.264583,-0.6374 0.264583,-0.26458 0.634398,-0.26458 z m 0.309683,0.88996 q 0,-0.1353 -0.09621,-0.22851 -0.09321,-0.0962 -0.228504,-0.0962 -0.135298,0 -0.23151,0.0962 -0.09621,0.0932 -0.09621,0.22851 v 2.06254 q 0,0.1353 0.09621,0.23151 0.09621,0.0932 0.23151,0.0932 0.135298,0 0.228504,-0.0932 0.09621,-0.0962 0.09621,-0.23151 z"
       style="opacity:1;stroke-opacity:0"
       id="path2102" />
    <path
       d="m 26.076662,133.08258 q 0.475047,0 0.697537,0.26158 0.195431,0.2285 0.195431,0.6374 v 0.54721 q 0,0.39988 -0.303669,0.67649 l 0.420927,1.64462 h -0.613351 l -0.345762,-1.42213 q -0.02405,0.003 -0.05111,0.003 H 25.74894 v 1.41912 h -0.568253 v -3.7673 z m 0.339749,0.908 q 0,-0.32772 -0.324716,-0.32772 H 25.74894 v 1.20566 h 0.342755 q 0.135298,0 0.228504,-0.0962 0.09621,-0.0962 0.09621,-0.23151 z"
       style="opacity:1;stroke-opacity:0"
       id="path2104" />
    <path
       d="m 28.469941,133.08258 q 0.475047,0 0.697537,0.26158 0.195431,0.2285 0.195431,0.6374 v 0.54721 q 0,0.39988 -0.303669,0.67649 l 0.420928,1.64462 h -0.613352 l -0.345762,-1.42213 q -0.02405,0.003 -0.05111,0.003 h -0.327722 v 1.41912 h -0.568253 v -3.7673 z m 0.339749,0.908 q 0,-0.32772 -0.324716,-0.32772 h -0.342755 v 1.20566 h 0.342755 q 0.135298,0 0.228504,-0.0962 0.09621,-0.0962 0.09621,-0.23151 z"
       style="opacity:1;stroke-opacity:0"
       id="path2106" />
    <path
       d="m 29.967245,136.84988 v -3.77031 h 1.617565 v 0.56826 h -1.049313 v 1.03127 h 0.76669 v 0.57126 h -0.76669 v 1.03127 h 1.049313 v 0.56825 z"
       style="opacity:1;stroke-opacity:0"
       id="path2108" />
    <path
       d="m 32.87766,136.89799 q -0.375829,0 -0.640412,-0.26158 -0.261576,-0.26458 -0.261576,-0.6374 v -2.05653 q 0,-0.37583 0.264583,-0.63741 0.264583,-0.26458 0.637405,-0.26458 0.375828,0 0.637404,0.26458 0.261577,0.26458 0.261577,0.63741 v 0.42994 h -0.589299 v -0.44197 q 0,-0.1353 -0.09621,-0.23151 -0.09621,-0.0962 -0.23151,-0.0962 -0.135298,0 -0.23151,0.0962 -0.09321,0.0962 -0.09321,0.23151 v 2.06255 q 0,0.13529 0.09321,0.23151 0.09621,0.0932 0.23151,0.0932 0.135298,0 0.23151,-0.0932 0.09621,-0.0962 0.09621,-0.23151 v -0.52015 h 0.589299 v 0.52616 q 0,0.37583 -0.264583,0.6374 -0.264583,0.26158 -0.634398,0.26158 z"
       style="opacity:1;stroke-opacity:0"
       id="path2110" />
    <path
       d="m 34.771833,133.65083 h -0.604332 v -0.56825 h 1.77391 v 0.56825 h -0.601325 v 3.19905 h -0.568253 z"
       style="opacity:1;stroke-opacity:0"
       id="path2112" />
    <path
       d="m 37.396617,136.84988 -0.673484,-3.7673 h 0.595312 l 0.47204,2.93146 0.478054,-2.93146 h 0.595312 l -0.685511,3.7673 z"
       style="opacity:1;stroke-opacity:0"
       id="path2114" />
    <path
       d="m 40.153692,133.03448 q 0.375829,0 0.637405,0.26458 0.264583,0.26458 0.264583,0.6374 v 2.05654 q 0,0.37582 -0.264583,0.64041 -0.264583,0.26157 -0.637405,0.26157 -0.375828,0 -0.637404,-0.26458 -0.261577,-0.26458 -0.261577,-0.6374 v -2.05654 q 0,-0.37583 0.264583,-0.6374 0.264583,-0.26458 0.634398,-0.26458 z m 0.309683,0.88996 q 0,-0.1353 -0.09621,-0.22851 -0.09321,-0.0962 -0.228504,-0.0962 -0.135298,0 -0.23151,0.0962 -0.09621,0.0932 -0.09621,0.22851 v 2.06254 q 0,0.1353 0.09621,0.23151 0.09621,0.0932 0.23151,0.0932 0.135298,0 0.228504,-0.0932 0.09621,-0.0962 0.09621,-0.23151 z"
       style="opacity:1;stroke-opacity:0"
       id="path2116" />
    <path
       d="m 43.106194,136.84988 h -1.548413 v -3.7673 h 0.568253 v 3.20206 h 0.98016 z"
       style="opacity:1;stroke-opacity:0"
       id="path2118" />
    <path
       d="m 43.542156,133.65083 h -0.604332 v -0.56825 h 1.77391 v 0.56825 h -0.601326 v 3.19905 h -0.568252 z"
       style="opacity:1;stroke-opacity:0"
       id="path2120" />
    <path
       d="m 45.38221,135.98398 -0.138305,0.8659 H 44.6516 l 0.640411,-3.7673 h 0.781723 l 0.631392,3.7673 h -0.595312 l -0.135299,-0.8659 z m 0.297656,-2.0385 -0.210464,1.48528 h 0.420928 z"
       style="opacity:1;stroke-opacity:0"
       id="path2122" />
    <path
       d="m 47.997977,136.89799 q -0.375828,0 -0.640411,-0.26458 -0.261577,-0.26459 -0.261577,-0.6344 v -2.05653 q 0,-0.37583 0.264583,-0.63741 0.264583,-0.26458 0.637405,-0.26458 0.375828,0 0.637405,0.26458 0.261576,0.26458 0.261576,0.63741 v 0.42994 H 48.30766 v -0.44197 q 0,-0.1353 -0.09621,-0.23151 -0.09621,-0.0962 -0.231511,-0.0962 -0.135298,0 -0.23151,0.0962 -0.0932,0.0962 -0.0932,0.23151 v 2.06255 q 0,0.13529 0.0932,0.23151 0.09621,0.0932 0.23151,0.0932 0.135298,0 0.231511,-0.0932 0.09621,-0.0962 0.09621,-0.23151 v -0.74264 h -0.315696 v -0.56825 h 0.904994 v 1.3169 q 0,0.37583 -0.264583,0.6374 -0.264583,0.26158 -0.634398,0.26158 z"
       style="opacity:1;stroke-opacity:0"
       id="path2124" />
    <path
       d="m 49.390041,136.84988 v -3.77031 h 1.617565 v 0.56826 h -1.049312 v 1.03127 h 0.766689 v 0.57126 h -0.766689 v 1.03127 h 1.049312 v 0.56825 z"
       style="opacity:1;stroke-opacity:0"
       id="path2126" />
  </g>
  <g
     aria-label="+"
     style="font-style:normal;font-variant:normal;font-weight:normal;font-stretch:normal;font-size:4.58611px;line-height:6.61458px;font-family:'Solid Edge ISO';-inkscape-font-specification:'Solid Edge ISO';letter-spacing:0px;word-spacing:0px;fill:#000000;fill-opacity:1;stroke:none;stroke-width:0.264583px;stroke-linecap:butt;stroke-linejoin:miter;stroke-opacity:1"
     id="text4539"
     transform="rotate(90,64.968823,19.764399)">
    <path
       d="m 157.51508,29.413204 v 1.111732 h 1.11174 v 0.475079 h -1.11174 v 1.111732 h -0.47266 v -1.111732 h -1.11174 v -0.475079 h 1.11174 v -1.111732 z"
       style="font-style:normal;font-variant:normal;font-weight:normal;font-stretch:normal;font-size:4.93889px;font-family:Aldrich;-inkscape-font-specification:Aldrich;stroke-width:0.264583px"
       id="path6005" />
  </g>
  <g
     aria-label="O"
     transform="matrix(0,1.0434567,-0.95835314,0,84.733224,-45.204423)"
     style="font-style:normal;font-variant:normal;font-weight:normal;font-stretch:normal;font-size:8.54741px;line-height:12.328px;font-family:'Solid Edge ISO';-inkscape-font-specification:'Solid Edge ISO';letter-spacing:0px;word-spacing:0px;fill:#000000;fill-opacity:1;stroke:none;stroke-width:0.49312px;stroke-linecap:butt;stroke-linejoin:miter;stroke-opacity:1"
     id="text4596">
    <path
       d="m 152.6062,32.065628 q 0,0.939047 -0.49665,1.506648 -0.49665,0.565515 -1.37101,0.565515 -0.57595,0 -0.98704,-0.250412 -0.40901,-0.250413 -0.64273,-0.715763 -0.23372,-0.46535 -0.23372,-1.105988 0,-0.93696 0.49874,-1.504562 0.49874,-0.569688 1.36475,-0.569688 0.5843,0 0.99748,0.254586 0.41318,0.254586 0.64064,0.719936 0.22954,0.463263 0.22954,1.099728 z m -0.39649,0 q 0,-0.788799 -0.39231,-1.275017 -0.39231,-0.486218 -1.07886,-0.486218 -0.69072,0 -1.07886,0.488305 -0.38814,0.488304 -0.38814,1.27293 0,0.778365 0.3944,1.268756 0.3944,0.490392 1.0726,0.490392 0.44866,0 0.77002,-0.212851 0.32136,-0.214937 0.51126,-0.613511 0.18989,-0.40066 0.18989,-0.932786 z"
       style="font-style:normal;font-variant:normal;font-weight:normal;font-stretch:normal;font-family:CordiaUPC;-inkscape-font-specification:CordiaUPC;stroke-width:0.49312px"
       id="path6002" />
  </g>
  <g
     aria-label="-"
     transform="matrix(0,1.4717498,-0.67946332,0,84.733224,-45.204423)"
     style="font-style:normal;font-variant:normal;font-weight:normal;font-stretch:normal;font-size:6.74961px;line-height:9.73501px;font-family:'Solid Edge ISO';-inkscape-font-specification:'Solid Edge ISO';letter-spacing:0px;word-spacing:0px;fill:#000000;fill-opacity:1;stroke:none;stroke-width:0.3894px;stroke-linecap:butt;stroke-linejoin:miter;stroke-opacity:1"
     id="text4539-6">
    <path
       d="m 106.12817,57.080111 h 1.70008 v 0.699197 h -1.70008 z"
       style="font-style:normal;font-variant:normal;font-weight:normal;font-stretch:normal;font-size:7.26881px;font-family:Aldrich;-inkscape-font-specification:Aldrich;stroke-width:0.3894px"
       id="path5999" />
  </g>
  <g
     aria-label="O"
     transform="matrix(0,1.0434567,-0.95835313,0,84.733224,-45.204423)"
     inkscape:transform-center-x="-1.4547251e-05"
     inkscape:transform-center-y="-0.56122811"
     style="font-style:normal;font-variant:normal;font-weight:normal;font-stretch:normal;font-size:8.54741px;line-height:12.328px;font-family:'Solid Edge ISO';-inkscape-font-specification:'Solid Edge ISO';letter-spacing:0px;word-spacing:0px;fill:#000000;fill-opacity:1;stroke:none;stroke-width:0.49312px;stroke-linecap:butt;stroke-linejoin:miter;stroke-opacity:1"
     id="text4596-4">
    <path
       d="m 152.75874,40.683441 q 0,0.939047 -0.49665,1.506648 -0.49665,0.565515 -1.37101,0.565515 -0.57595,0 -0.98704,-0.250412 -0.40901,-0.250413 -0.64272,-0.715763 -0.23372,-0.465349 -0.23372,-1.105988 0,-0.93696 0.49874,-1.504562 0.49873,-0.569688 1.36474,-0.569688 0.5843,0 0.99748,0.254586 0.41318,0.254586 0.64064,0.719936 0.22954,0.463263 0.22954,1.099728 z m -0.39648,0 q 0,-0.788799 -0.39232,-1.275017 -0.39231,-0.486218 -1.07886,-0.486218 -0.69072,0 -1.07886,0.488305 -0.38814,0.488304 -0.38814,1.27293 0,0.778365 0.3944,1.268757 0.3944,0.490391 1.0726,0.490391 0.44866,0 0.77002,-0.212851 0.32136,-0.214937 0.51126,-0.613511 0.1899,-0.400659 0.1899,-0.932786 z"
       style="font-style:normal;font-variant:normal;font-weight:normal;font-stretch:normal;font-family:CordiaUPC;-inkscape-font-specification:CordiaUPC;stroke-width:0.49312px"
       id="path5996" />
  </g>
  <g
     aria-label="C"
     transform="matrix(0.99969889,0,0,1.0003012,84.733224,-45.204423)"
     style="font-style:normal;font-variant:normal;font-weight:normal;font-stretch:normal;font-size:5.35377px;line-height:7.72179px;font-family:'Solid Edge ISO';-inkscape-font-specification:'Solid Edge ISO';letter-spacing:0px;word-spacing:0px;fill:#000000;fill-opacity:1;stroke:none;stroke-width:0.308871px;stroke-linecap:butt;stroke-linejoin:miter;stroke-opacity:1"
     id="text4596-0">
    <path
       d="m -35.588594,157.31235 q 0,0.28494 0.08104,0.52021 0.08365,0.23266 0.232659,0.39997 0.15162,0.1673 0.360752,0.2588 0.211746,0.0915 0.467932,0.0915 0.237888,0 0.470547,-0.0627 0.235273,-0.0627 0.449633,-0.18037 v 0.4627 q -0.196061,0.10457 -0.439177,0.15946 -0.243115,0.0523 -0.530671,0.0523 -0.358139,0 -0.658765,-0.12548 -0.298013,-0.12548 -0.514987,-0.3503 -0.21436,-0.22481 -0.334611,-0.5359 -0.117637,-0.3137 -0.117637,-0.69013 0,-0.3869 0.128093,-0.71105 0.128094,-0.32677 0.35291,-0.56204 0.227431,-0.23528 0.5359,-0.36598 0.311084,-0.13332 0.67445,-0.13332 0.122865,0 0.248344,0.0157 0.125479,0.0131 0.24573,0.0392 0.120251,0.0235 0.227431,0.0575 0.109794,0.0314 0.198675,0.0706 v 0.46009 q -0.09149,-0.0392 -0.203904,-0.0784 -0.112408,-0.0392 -0.232659,-0.068 -0.12025,-0.0314 -0.245729,-0.0497 -0.125479,-0.0183 -0.243116,-0.0183 -0.24573,0 -0.457476,0.0967 -0.209131,0.0941 -0.363366,0.26926 -0.154235,0.17514 -0.243116,0.42349 -0.08888,0.24834 -0.08888,0.5542 z"
       style="font-style:normal;font-variant:normal;font-weight:normal;font-stretch:normal;font-family:'Estrangelo Edessa';-inkscape-font-specification:'Estrangelo Edessa';stroke-width:0.308871px"
       id="path5993" />
  </g>
  <path
     style="fill:none;fill-rule:evenodd;stroke:#000000;stroke-width:0.345459px;stroke-linecap:butt;stroke-linejoin:miter;stroke-opacity:1"
     d="m 52.104431,112.08067 -1.24737,0.0194"
     id="path4648-2"
     inkscape:connector-curvature="0" />
  <path
     style="fill:none;fill-rule:evenodd;stroke:#000000;stroke-width:0.345459px;stroke-linecap:butt;stroke-linejoin:miter;stroke-opacity:1"
     d="m 48.795301,112.19003 -1.24737,0.0194"
     id="path4648-2-9"
     inkscape:connector-curvature="0" />
  <g
     aria-label="."
     transform="matrix(0,0.99607743,-1.003938,0,84.733224,-45.204423)"
     style="font-style:normal;font-variant:normal;font-weight:normal;font-stretch:normal;font-size:6.88677px;line-height:9.93284px;font-family:'Solid Edge ISO';-inkscape-font-specification:'Solid Edge ISO';letter-spacing:0px;word-spacing:0px;fill:#000000;fill-opacity:1;stroke:none;stroke-width:0.397314px;stroke-linecap:butt;stroke-linejoin:miter;stroke-opacity:1"
     id="text4682">
    <path
       d="m 158.69768,34.252108 c 0,-0.399432 -0.31679,-0.743771 -0.74377,-0.743771 -0.42698,0 -0.74377,0.344339 -0.74377,0.743771 0,0.399433 0.31679,0.743772 0.74377,0.743772 0.42698,0 0.74377,-0.344339 0.74377,-0.743772 z"
       style="font-style:normal;font-variant:normal;font-weight:normal;font-stretch:normal;font-family:'Stencil Std';-inkscape-font-specification:'Stencil Std';stroke-width:0.397314px"
       id="path5990" />
  </g>
</svg>
