<?xml version="1.0" encoding="UTF-8" standalone="no"?>
<svg
   xmlns:dc="http://purl.org/dc/elements/1.1/"
   xmlns:cc="http://creativecommons.org/ns#"
   xmlns:rdf="http://www.w3.org/1999/02/22-rdf-syntax-ns#"
   xmlns:svg="http://www.w3.org/2000/svg"
   xmlns="http://www.w3.org/2000/svg"
   xmlns:sodipodi="http://sodipodi.sourceforge.net/DTD/sodipodi-0.dtd"
   xmlns:inkscape="http://www.inkscape.org/namespaces/inkscape"
   width="609.59998mm"
   height="304.79999mm"
   viewBox="0 0 609.59998 304.8"
   version="1.1"
   id="svg28"
   sodipodi:docname="AOModule_Enclosure_8Ch_r02.svg"
   inkscape:version="0.92.0 r15299">
  <metadata
     id="metadata34">
    <rdf:RDF>
      <cc:Work
         rdf:about="">
        <dc:format>image/svg+xml</dc:format>
        <dc:type
           rdf:resource="http://purl.org/dc/dcmitype/StillImage" />
        <dc:title></dc:title>
      </cc:Work>
    </rdf:RDF>
  </metadata>
  <defs
     id="defs32" />
  <sodipodi:namedview
     pagecolor="#ffffff"
     bordercolor="#666666"
     borderopacity="1"
     objecttolerance="10"
     gridtolerance="10"
     guidetolerance="10"
     inkscape:pageopacity="0"
     inkscape:pageshadow="2"
     inkscape:window-width="2780"
     inkscape:window-height="1685"
     id="namedview30"
     showgrid="false"
     units="mm"
     inkscape:zoom="1.2697807"
     inkscape:cx="738.17215"
     inkscape:cy="675.93797"
     inkscape:window-x="87"
     inkscape:window-y="-13"
     inkscape:window-maximized="1"
     inkscape:current-layer="text4647" />
  <desc
     id="desc2">Output from Flights of Ideas SVG Sketchup Plugin</desc>
  <path
     id="face1-cut"
     style="fill:none;stroke:#ff0000;stroke-width:0.05;stroke-linecap:round;stroke-linejoin:round;stroke-miterlimit:4;stroke-dasharray:none;stroke-opacity:1"
     d="m 5.5516908,116.10775 3.4e-4,32.5 0.0171,0.26105 0.051,0.25659 0.0841,0.24772 0.1157,0.23464 0.14535,0.21752 0.17249,0.19669 0.19669,0.17249 0.21752,0.14535 0.23464,0.11571 0.24773,0.0841 0.25658,0.051 0.26105,0.0171 h 7.0000002 l 12.12497,-0.91631 12.13639,-0.74994 12.14553,-0.58343 12.1524,-0.41682 12.156964,-0.25012 12.15925,-0.0834 12.15926,0.0834 12.156955,0.25012 12.1524,0.41682 12.14553,0.58343 12.13639,0.74994 12.12496,0.91631 h 7 l 0.26106,-0.0171 0.25658,-0.051 0.24773,-0.0841 0.23463,-0.11571 0.21753,-0.14535 0.19669,-0.17249 0.17249,-0.19669 0.14535,-0.21752 0.1157,-0.23464 0.0841,-0.24772 0.051,-0.25659 0.0171,-0.26105 -3.4e-4,-32.5 -0.0513,-0.78316 -0.15311,-0.76976 -0.25228,-0.74318 -0.34712,-0.7039 -0.43604,-0.65257 -0.51748,-0.59007 -0.59007,-0.51748 -0.65257,-0.43602 -0.7039,-0.34713 -0.74318,-0.25228 -0.76976,-0.15311 -0.78316,-0.0513 H 11.551631 l -0.78315,0.0513 -0.7697602,0.15311 -0.74319,0.25228 -0.7039,0.34713 -0.65256,0.43602 -0.59008,0.51748 -0.51748,0.59007 -0.43603,0.65257 -0.34712,0.7039 -0.25228,0.74318 -0.15312,0.76976 -0.0513,0.78316 m 10.8000002,-3 H 158.50266 v 1 h 3.3 v 3.1 H 13.051661 v -3.1 h 3.3 v -1 m 16.85534,10.22 h 14.8 l 0.13053,0.009 0.12829,0.0255 0.12387,0.0421 0.11731,0.0579 0.10877,0.0727 0.0983,0.0863 0.0863,0.0983 0.0727,0.10876 0.0579,0.11731 0.0421,0.12387 0.0255,0.12829 0.009,0.13053 v 12.5 l -0.009,0.13052 -0.0255,0.1283 -0.0421,0.12386 -0.0579,0.11732 -0.0727,0.10876 -0.0863,0.0983 -0.0983,0.0863 -0.10877,0.0727 -0.11731,0.0579 -0.12387,0.042 -0.12829,0.0255 -0.13053,0.009 h -14.7 -0.1 l -0.13052,-0.009 -0.12829,-0.0255 -0.12387,-0.042 -0.11732,-0.0579 -0.10876,-0.0727 -0.0983,-0.0863 -0.0862,-0.0983 -0.0727,-0.10876 -0.0579,-0.11732 -0.042,-0.12386 -0.0255,-0.1283 -0.009,-0.13052 v -12.5 l 0.009,-0.13053 0.0255,-0.12829 0.042,-0.12387 0.0579,-0.11731 0.0727,-0.10876 0.0862,-0.0983 0.0983,-0.0863 0.10876,-0.0727 0.11732,-0.0579 0.12387,-0.0421 0.12829,-0.0255 0.13052,-0.009 m 28.49,0 h 14.800004 l 0.25882,0.0341 0.12387,0.0421 0.11731,0.0579 0.10877,0.0727 0.0983,0.0863 0.0863,0.0983 0.0727,0.10876 0.0579,0.11731 0.042,0.12387 0.0341,0.25882 v 12.5 l -0.0341,0.25882 -0.042,0.12386 -0.0579,0.11732 -0.0727,0.10876 -0.0863,0.0983 -0.0983,0.0863 -0.10877,0.0727 -0.11731,0.0579 -0.12387,0.042 -0.25882,0.0341 H 61.697001 l -0.25881,-0.0341 -0.12387,-0.042 -0.11732,-0.0579 -0.10876,-0.0727 -0.0983,-0.0863 -0.0863,-0.0983 -0.0727,-0.10876 -0.0579,-0.11732 -0.042,-0.12386 -0.0341,-0.25882 v -12.5 l 0.0341,-0.25882 0.042,-0.12387 0.0579,-0.11731 0.0727,-0.10876 0.0863,-0.0983 0.0983,-0.0863 0.10876,-0.0727 0.11732,-0.0579 0.12387,-0.0421 0.25881,-0.0341 m -53.1450002,9.28 h 3.0000002 v 12 H 8.5520008 v -12 m 154.7509992,0 h 3 v 12 h -3 v -12"
     inkscape:connector-curvature="0" />
  <path
     id="face2-cut"
     style="fill:none;stroke:#ff0000;stroke-width:0.05;stroke-linecap:round;stroke-linejoin:round;stroke-miterlimit:4;stroke-dasharray:none;stroke-opacity:1"
     d="m 180.91187,248.2456 h 23.86667 v 3 h 10 v -3 h 18.86667 v 3 h 10 v -3 h 23.86666 V 96.494567 h -23.86666 v -3 h -10 v 3 h -18.86667 v -3 h -10 v 3 H 180.91187 V 248.2456 m 6.84207,-146.99103 0.0579,0.44 -0.0579,0.43999 -0.16983,0.41001 -0.27016,0.35208 -0.35208,0.27016 -0.41001,0.16983 -0.43999,0.0579 -0.43999,-0.0579 -0.41001,-0.16983 -0.35208,-0.27016 -0.27016,-0.35208 -0.16984,-0.41001 -0.0579,-0.43999 0.0579,-0.44 0.16984,-0.41 0.27016,-0.35209 0.35208,-0.27016 0.41001,-0.16983 0.43999,-0.0579 0.43999,0.0579 0.41001,0.16983 0.35208,0.27016 0.27016,0.35209 0.16983,0.41 m 74.99793,-1.20208 0.41,0.16983 0.35209,0.27016 0.27016,0.35209 0.16983,0.41 0.0579,0.44 -0.0579,0.43999 -0.16983,0.41001 -0.27016,0.35208 -0.35209,0.27016 -0.41,0.16983 -0.44,0.0579 -0.43999,-0.0579 -0.41001,-0.16983 -0.35208,-0.27016 -0.27016,-0.35208 -0.16983,-0.41001 -0.0579,-0.43999 0.0579,-0.44 0.16983,-0.41 0.27016,-0.35209 0.35208,-0.27016 0.41001,-0.16983 0.43999,-0.0579 0.44,0.0579 m -74.94,142.99311 -0.0579,0.43999 -0.16983,0.41001 -0.27016,0.35208 -0.35208,0.27016 -0.41001,0.16983 -0.43999,0.0579 -0.44,-0.0579 -0.41,-0.16983 -0.35209,-0.27016 -0.27016,-0.35208 -0.16983,-0.41001 -0.0579,-0.43999 0.0579,-0.44 0.16983,-0.41 0.27016,-0.35209 0.35209,-0.27016 0.41,-0.16983 0.44,-0.0579 0.43999,0.0579 0.41001,0.16983 0.35208,0.27016 0.27016,0.35209 0.16983,0.41 0.0579,0.44 m 73.65,-1.47225 0.41001,-0.16983 0.43999,-0.0579 0.44,0.0579 0.41,0.16983 0.35209,0.27016 0.27016,0.35209 0.16983,0.41 0.0579,0.44 -0.0579,0.43999 -0.16983,0.41001 -0.27016,0.35208 -0.35209,0.27016 -0.41,0.16983 -0.44,0.0579 -0.43999,-0.0579 -0.41001,-0.16983 -0.35208,-0.27016 -0.27016,-0.35208 -0.16983,-0.41001 -0.0579,-0.43999 0.0579,-0.44 0.16983,-0.41 0.27016,-0.35209 0.35208,-0.27016"
     inkscape:connector-curvature="0" />
  <path
     id="face3-cut"
     style="fill:none;stroke:#ff0000;stroke-width:0.05;stroke-linecap:round;stroke-linejoin:round;stroke-miterlimit:4;stroke-dasharray:none;stroke-opacity:1"
     d="m 160.1182,102.74422 0.13053,-0.009 0.12829,-0.0255 0.12386,-0.042 0.11732,-0.0579 0.10876,-0.0727 0.0983,-0.0863 0.0862,-0.0983 0.0727,-0.10877 0.0579,-0.11731 0.042,-0.12387 0.0255,-0.12829 0.009,-0.13053 v -2.000001 h -3 v -3 h 10.19615 l 1.10385,-29.999999 v -26.6 l -1.28166,-30 H 158.11856 V 7.1437501 h 3 v -2 l -0.009,-0.13052 -0.0255,-0.1283 -0.042,-0.12386 -0.0579,-0.11732 -0.0727,-0.10876 -0.0862,-0.0983 -0.0983,-0.0863 -0.10876,-0.0727 -0.11732,-0.0579 -0.12386,-0.042 -0.12829,-0.0255 -0.13053,-0.009 H 14.367188 l -0.13052,0.009 -0.12829,0.0255 -0.12387,0.042 -0.11732,0.0579 -0.10876,0.0727 -0.0984,0.0863 -0.0862,0.0983 -0.0727,0.10876 -0.0579,0.11732 -0.042,0.12386 -0.0255,0.1283 -0.009,0.13052 v 2 h 3 V 10.14375 H 6.3667776 l -1.3,30 v 26.6 l 1.3,29.999999 H 16.366778 v 3 h -3 v 2.000001 l 0.009,0.13053 0.0255,0.12829 0.0421,0.12387 0.0578,0.11731 0.0727,0.10877 0.0863,0.0983 0.0983,0.0863 0.10877,0.0727 0.11731,0.0579 0.12387,0.042 0.12829,0.0255 0.13053,0.009 H 160.1182 m -148.751012,-54.4 v 10.2 H 8.3671876 v -10.2 h 3.0000004 m 151.751012,10.2 v -10.2 h 3 v 10.2 h -3"
     inkscape:connector-curvature="0" />
  <path
     id="face4-cut"
     style="fill:none;stroke:#ff0000;stroke-width:0.05;stroke-linecap:round;stroke-linejoin:round;stroke-miterlimit:4;stroke-dasharray:none;stroke-opacity:1"
     d="m 11.194431,201.90024 7.26105,0.0171 12.12497,-0.91631 12.13639,-0.74994 12.14553,-0.58344 12.15239,-0.41681 12.156974,-0.25013 12.15925,-0.0834 12.159255,0.0834 12.15696,0.25013 12.15239,0.41681 12.14554,0.58344 12.13639,0.74994 12.12496,0.91631 7.26106,-0.0171 0.25658,-0.051 0.24773,-0.0841 0.23463,-0.1157 0.21753,-0.14535 0.19669,-0.17249 0.17249,-0.19669 0.14534,-0.21752 0.11571,-0.23464 0.0841,-0.24773 0.051,-0.25658 0.0175,-32.76105 -0.003,-0.0412 -0.0486,-0.74196 -0.15311,-0.76976 -0.25228,-0.74319 -0.34713,-0.70389 -0.43603,-0.65257 -0.51748,-0.59008 -0.59007,-0.51747 -0.65257,-0.43604 -0.7039,-0.34712 -0.74318,-0.25228 -0.76976,-0.15311 -0.78316,-0.0513 H 15.455571 l -0.78316,0.0513 -0.76975,0.15311 -0.74319,0.25228 -0.7039,0.34712 -0.65257,0.43604 -0.59007,0.51747 -0.51748,0.59008 -0.43603,0.65257 -0.3471302,0.70389 -0.25227,0.74319 -0.15312,0.76976 -0.0486,0.74196 -0.003,0.0412 0.0171,31.76105 0.0506,1.25658 0.0841,0.24773 0.11571,0.23464 0.14535,0.21752 0.1724902,0.19669 0.19669,0.17249 0.21752,0.14535 0.23464,0.1157 0.24772,0.0841 0.25659,0.051 M 162.40625,165.41736 h 3.3 v 3.1 H 16.955251 v -3.1 h 3.3 v -1 H 162.40625 v 1 m -146.951389,18.5 v 12 h -3 v -12 h 3 m 151.750999,0 h 3 v 12 h -3 v -12 m -142.550999,3.72 v -15 l 0.0341,-0.25882 0.042,-0.12387 0.0579,-0.11731 0.0727,-0.10877 0.0862,-0.0983 0.0983,-0.0863 0.10876,-0.0727 0.11732,-0.0579 0.12386,-0.042 0.46582,-0.0341 H 157.21282 l 0.25882,0.0341 0.12387,0.042 0.11731,0.0579 0.10876,0.0727 0.0983,0.0863 0.0863,0.0983 0.0727,0.10877 0.0578,0.11731 0.0421,0.12387 0.0341,0.25882 v 15 l -0.0341,0.25881 -0.0421,0.12387 -0.0578,0.11732 -0.0727,0.10876 -0.0863,0.0983 -0.0983,0.0863 -0.10876,0.0727 -0.11731,0.0578 -0.12387,0.0421 -0.25882,0.0341 H 25.654821 l -0.25882,-0.0341 -0.12386,-0.0421 -0.11732,-0.0578 -0.10876,-0.0727 -0.0983,-0.0863 -0.0862,-0.0983 -0.0727,-0.10876 -0.0579,-0.11732 -0.042,-0.12387 -0.0341,-0.25881"
     inkscape:connector-curvature="0" />
  <path
     id="face5-cut"
     style="fill:none;stroke:#ff0000;stroke-width:0.05;stroke-linecap:round;stroke-linejoin:round;stroke-miterlimit:4;stroke-dasharray:none;stroke-opacity:1"
     d="m 270.30941,28.272757 -0.59007,-0.51748 -0.65257,-0.43604 -0.7039,-0.34712 -0.74319,-0.25228 -0.76975,-0.15311 -0.78316,-0.0513 -7e-5,-15.5 -7.20218,-0.68426 -7.20959,-0.6010799 -7.21606,-0.51782 -7.22155,-0.4345 -7.22608,-0.35112 -2.22455,-0.0824 v -2.02886 h -10 l 1.7e-4,2.02886 -2.22471,0.0824 -7.22609,0.35111 -7.22154,0.4345 -7.21606,0.51783 -7.20959,0.6010799 -7.20218,0.68425 7e-5,15.5 -0.78316,0.0513 -0.76975,0.15312 -0.74319,0.25227 -0.7039,0.34713 -0.65257,0.43603 -0.59007,0.51748 -0.51748,0.59007 -0.43603,0.65257 -0.34713,0.7039 -0.25227,0.74319 -0.15312,0.76975 -0.0513,0.78316 0.0171,7.26105 0.051,0.25659 0.0841,0.24773 0.11571,0.23463 0.14534,0.21752 0.1725,0.19669 0.19669,0.1725 0.21752,0.14534 0.23463,0.11571 0.24773,0.0841 0.25659,0.051 1.26105,0.0171 v -3 l 0.009,-0.13053 0.0255,-0.12829 0.042,-0.12386 0.0579,-0.11732 0.0727,-0.10876 0.0863,-0.0983 0.0984,-0.0862 0.10876,-0.0727 0.11732,-0.0579 0.12386,-0.0421 0.1283,-0.0255 0.13052,-0.009 h 1 l 0.14515,0.007 0.14365,0.0221 0.14065,0.0366 0.13621,0.0507 0.13035,0.0643 0.12314,0.0772 0.11466,0.0893 0.10499,0.1005 0.0942,0.11065 0.0825,0.11966 0.0699,0.12742 0.0566,0.13387 1.11386,3.06031 h 83.68824 l 1.09877,-3.01885 0.13208,-0.27282 0.0861,-0.12493 0.0984,-0.11554 0.10962,-0.10494 0.11972,-0.0933 0.12857,-0.0806 0.1361,-0.0671 0.59062,-0.12195 h 0.95588 l 0.25882,0.0341 0.12386,0.0421 0.11732,0.0579 0.10876,0.0727 0.0983,0.0862 0.0862,0.0983 0.0727,0.10876 0.0579,0.11732 0.042,0.12386 0.0341,0.25882 v 3 l 0.39158,-0.0257 0.38488,-0.0766 0.37159,-0.12614 0.35195,-0.17356 0.32628,-0.21801 0.29504,-0.25874 0.25874,-0.29504 0.21801,-0.32628 0.17357,-0.35195 0.12614,-0.3716 0.0765,-0.38488 0.0257,-0.39157 v -6 l -0.0513,-0.78316 -0.15312,-0.76976 -0.25227,-0.74318 -0.34713,-0.7039 -0.43603,-0.65257 -0.51748,-0.59007 m -56.97601,10.24269 h -10 v -3 h 10 v 3 m 28.86667,0 h -10 v -3 h 10 v 3"
     inkscape:connector-curvature="0" />
  <path
     id="face0-interior"
     style="fill:none;stroke:#ff0000;stroke-width:0.05;stroke-linecap:round;stroke-linejoin:round;stroke-miterlimit:4;stroke-dasharray:none;stroke-opacity:1"
     d="m 361.58147,79.12588 m 6e-5,15.5 m -0.78315,0.0513 m -0.76976,0.15311 m -0.74319,0.25228 m -0.7039,0.34716 m -0.65257,0.43603 m -0.59007,0.51748 m -0.51748,0.590074 m -0.43603,0.65257 m -0.34712,0.7039 m -0.25228,0.74318 m -0.15312,0.76976 m -0.0513,0.783156 m 0,7 m 0.0171,0.26106 m 0.051,0.25658 m 0.0841,0.24773 m 0.11571,0.23463 m 0.14535,0.21753 m 0.17249,0.19669 m 0.19669,0.17249 m 0.21752,0.14534 m 0.23464,0.11571 m 0.24773,0.0841 m 0.25658,0.051 m 1.26105,0.0171 m 0,-3 m 0.009,-0.13052 m 0.0255,-0.1283 m 0.042,-0.12386 m 0.0579,-0.11732 m 0.0727,-0.10876 m 0.0862,-0.0983 m 0.0984,-0.0863 m 0.10871,-0.0727 m 0.11732,-0.0579 m 0.12386,-0.042 m 0.1283,-0.0255 m 0.13052,-0.009 m 1,0 m 0.14515,0.007 m 0.14365,0.0221 m 0.14066,0.0366 m 0.1362,0.0507 m 0.13035,0.0643 m 0.12315,0.0772 m 0.11465,0.0893 m 0.10499,0.10051 m 0.0942,0.11065 m 0.0825,0.11966 m 0.0699,0.12742 m 0.0566,0.13387 m 1.11386,3.0603 m 83.68825,0 m 1.09877,-3.01885 m 0.13208,-0.27281 m 0.0861,-0.12494 m 0.0984,-0.11553 m 0.10962,-0.10494 m 0.11972,-0.0932 m 0.12857,-0.0806 m 0.1361,-0.0671 m 0.59062,-0.12196 m 0.95588,0 m 0.25882,0.0341 m 0.12386,0.042 m 0.11732,0.0579 m 0.10876,0.0727 m 0.0983,0.0863 m 0.0862,0.0983 m 0.0727,0.10876 m 0.0579,0.11732 m 0.042,0.12386 m 0.0341,0.25882 m 0,3 m 0.39158,-0.0257 m 0.38488,-0.0766 m 0.37159,-0.12614 m 0.35201,-0.17322 m 0.32628,-0.21802 m 0.29504,-0.25874 m 0.25874,-0.29503 m 0.21802,-0.32629 m 0.17356,-0.35195 m 0.12614,-0.37159 m 0.0765,-0.38488 m 0.0257,-0.39158 m 0,-6 m -0.0513,-0.783156 m -0.15312,-0.76976 m -0.25227,-0.74318 m -0.34713,-0.7039 m -0.43603,-0.65257 m -0.51748,-0.590074 m -0.59007,-0.51748 m -0.65258,-0.43603 m -0.7039,-0.34713 m -0.74319,-0.25228 m -0.76975,-0.15311 m -0.78316,-0.0513 m -7e-5,-15.5 m -7.20217,-0.68426 m -7.2096,-0.60108 m -7.21605,-0.51783 m -7.22155,-0.43449 m -7.22608,-0.35112 m -2.22455,-0.0824 m 0,-2.02886 m -10,0 m 1.6e-4,2.02886 m -2.22471,0.0824 m -7.22608,0.35111 m -7.22155,0.4345 m -7.21605,0.51783 m -7.2096,0.60108 m 14.64079,20.111864 m -0.0862,-0.0983 m -0.0727,-0.10876 m -0.0579,-0.11732 m -0.042,-0.12386 m -0.0341,-0.25889 m 0,-8.000004 m 0.0341,-0.25882 m 0.042,-0.12387 m 0.0579,-0.11731 m 0.0727,-0.10876 m 0.0862,-0.0983 m 0.0984,-0.0862 m 0.10876,-0.0727 m 0.11731,-0.0579 m 0.12387,-0.0421 m 0.25882,-0.0341 m 11,0 m 0.25881,0.0341 m 0.12387,0.0421 m 0.11732,0.0579 m 0.10876,0.0727 m 0.0983,0.0862 m 0.0863,0.0983 m 0.0727,0.10876 m 0.0579,0.11732 m 0.0421,0.12386 m 0.0341,0.25882 m 0,8.000004 m -0.0341,0.25882 m -0.042,0.12386 m -0.0579,0.11732 m -0.0727,0.10876 m -0.0863,0.0983 m -0.0983,0.0863 m -0.10875,0.0727 m -0.11732,0.0579 m -0.12386,0.0421 m -0.25882,0.0341 m -11,0 m -0.25882,-0.0341 m -0.12387,-0.0421 m -0.11731,-0.0579 m -0.10877,-0.0727"
     inkscape:connector-curvature="0" />
  <path
     id="face1-interior"
     style="fill:none;stroke:#ff0000;stroke-width:0.05;stroke-linecap:round;stroke-linejoin:round;stroke-miterlimit:4;stroke-dasharray:none;stroke-opacity:1"
     d="m 5.5517208,113.00775 m 3.4e-4,32.5 m 0.0171,0.26105 m 0.051,0.25659 m 0.0841,0.24772 m 0.1157,0.23464 m 0.14535,0.21752 m 0.17249,0.19669 m 0.19669,0.17249 m 0.21752,0.14535 m 0.23464,0.11571 m 0.24773,0.0841 m 0.25658,0.051 m 0.26105,0.0171 m 7.0000002,0 m 12.12497,-0.91631 m 12.13639,-0.74994 m 12.14553,-0.58343 m 12.1524,-0.41682 m 12.156964,-0.25012 m 12.15925,-0.0834 m 12.15926,0.0834 m 12.156955,0.25012 m 12.1524,0.41682 m 12.14553,0.58343 m 12.13639,0.74994 m 12.12496,0.91631 m 7,0 m 0.26106,-0.0171 m 0.25658,-0.051 m 0.24773,-0.0841 m 0.23463,-0.11571 m 0.21753,-0.14535 m 0.19669,-0.17249 m 0.17249,-0.19669 m 0.14535,-0.21752 m 0.1157,-0.23464 m 0.0841,-0.24772 m 0.051,-0.25659 m 0.0171,-0.26105 m -3.4e-4,-32.5 m -0.0513,-0.78316 m -0.15311,-0.76976 m -0.25228,-0.74318 m -0.34712,-0.7039 m -0.43604,-0.65257 m -0.51748,-0.59007 m -0.59007,-0.51748 m -0.65257,-0.43602 m -0.7039,-0.34713 m -0.74318,-0.25228 m -0.76976,-0.15311 m -0.78316,-0.0513 m -151.750999,0 m -0.78315,0.0513 m -0.7697602,0.15311 m -0.74319,0.25228 m -0.7039,0.34713 m -0.65256,0.43602 m -0.59008,0.51748 m -0.51748,0.59007 m -0.43603,0.65257 m -0.34712,0.7039 m -0.25228,0.74318 m -0.15312,0.76976 m 10.7486702,-2.21684 m 142.150999,0 m 0,1 m 3.3,0 m 0,3.1 m -148.750999,0 m 0,-3.1 m 3.3,0 m 16.85534,9.22 m 14.8,0 m 0.13053,0.009 m 0.12829,0.0255 m 0.12387,0.0421 m 0.11731,0.0579 m 0.10877,0.0727 m 0.0983,0.0863 m 0.0863,0.0983 m 0.0727,0.10876 m 0.0579,0.11731 m 0.0421,0.12387 m 0.0255,0.12829 m 0.009,0.13053 m 0,12.5 m -0.009,0.13052 m -0.0255,0.1283 m -0.0421,0.12386 m -0.0579,0.11732 m -0.0727,0.10876 m -0.0863,0.0983 m -0.0983,0.0863 m -0.10877,0.0727 m -0.11731,0.0579 m -0.12387,0.042 m -0.12829,0.0255 m -0.13053,0.009 m -14.7,0 m -0.1,0 m -0.13052,-0.009 m -0.12829,-0.0255 m -0.12387,-0.042 m -0.11732,-0.0579 m -0.10876,-0.0727 m -0.0983,-0.0863 m -0.0862,-0.0983 m -0.0727,-0.10876 m -0.0579,-0.11732 m -0.042,-0.12386 m -0.0255,-0.1283 m -0.009,-0.13052 m 0,-12.5 m 0.009,-0.13053 m 0.0255,-0.12829 m 0.042,-0.12387 m 0.0579,-0.11731 m 0.0727,-0.10876 m 0.0862,-0.0983 m 0.0983,-0.0863 m 0.10876,-0.0727 m 0.11732,-0.0579 m 0.12387,-0.0421 m 0.12829,-0.0255 m 28.62052,-0.009 m 14.800004,0 m 0.25882,0.0341 m 0.12387,0.0421 m 0.11731,0.0579 m 0.10877,0.0727 m 0.0983,0.0863 m 0.0863,0.0983 m 0.0727,0.10876 m 0.0579,0.11731 m 0.042,0.12387 m 0.0341,0.25882 m 0,12.5 m -0.0341,0.25882 m -0.042,0.12386 m -0.0579,0.11732 m -0.0727,0.10876 m -0.0863,0.0983 m -0.0983,0.0863 m -0.10877,0.0727 m -0.11731,0.0579 m -0.12387,0.042 m -0.25882,0.0341 m -14.800004,0 m -0.25881,-0.0341 m -0.12387,-0.042 m -0.11732,-0.0579 m -0.10876,-0.0727 m -0.0983,-0.0863 m -0.0863,-0.0983 m -0.0727,-0.10876 m -0.0579,-0.11732 m -0.042,-0.12386 m -0.0341,-0.25882 m 0,-12.5 m 0.0341,-0.25882 m 0.042,-0.12387 m 0.0579,-0.11731 m 0.0727,-0.10876 m 0.0863,-0.0983 m 0.0983,-0.0863 m 0.10876,-0.0727 m 0.11732,-0.0579 m 0.12387,-0.0421 m -52.8861902,9.24593 m 3.0000002,0 m 0,12 m -3.0000002,0 m 154.7509992,-12 m 3,0 m 0,12 m -3,0"
     inkscape:connector-curvature="0" />
  <path
     id="face2-interior"
     style="fill:none;stroke:#ff0000;stroke-width:1;stroke-linecap:round;stroke-linejoin:round;stroke-miterlimit:4;stroke-dasharray:none"
     d="m 113.6,-482.37712 m -23.866667,0 m 0,-3 m -10,0 m 0,3 m -18.866666,0 m 0,-3 m -10,0 m 0,3 m -23.866667,0 m 0,151.751 m 23.866667,0 m 0,3 m 10,0 m 0,-3 m 18.866666,0 m 0,3 m 10,0 m 0,-3 m 23.866667,0 m -6.84207,-4.76001 m -0.0579,-0.43999 m 0.0579,-0.44 m 0.16983,-0.41 m 0.27016,-0.35209 m 0.35208,-0.27016 m 0.41001,-0.16983 m 0.43999,-0.0579 m 0.43999,0.0579 m 0.41001,0.16983 m 0.35208,0.27016 m 0.27016,0.35209 m 0.16983,0.41 m 0.0579,0.44 m -0.0579,0.43999 m -0.16983,0.41001 m -0.27016,0.35208 m -0.35208,0.27016 m -0.41001,0.16983 m -0.43999,0.0579 m -0.43999,-0.0579 m -0.40998,-0.16983 m -0.35208,-0.27016 m -0.27016,-0.35208 m -75.167752,0.79207 M 31.35,-334.35388 m -0.352082,-0.27016 m -0.270161,-0.35208 m -0.169831,-0.41001 M 30.5,-335.82612 m 0.05793,-0.44 m 0.169831,-0.41 m 0.270161,-0.35209 M 31.35,-337.29837 m 0.410008,-0.16983 M 32.2,-337.52612 m 0.439992,0.0579 m 0.410008,0.16985 m 0.352082,0.27016 m 0.270161,0.35209 m 0.169831,0.41 m 0.05793,0.44 m -0.05793,0.43999 m -0.169831,0.41001 m -0.270161,0.35208 M 33.05,-334.35388 m -0.410008,0.16983 M 32.2,-334.12612 m 74.5,-143.051 m 0.0579,-0.44 m 0.16983,-0.41 m 0.27016,-0.35209 m 0.35208,-0.27016 m 0.41001,-0.16983 m 0.43999,-0.0579 m 0.43999,0.0579 m 0.41001,0.16983 m 0.35208,0.27016 m 0.27016,0.35209 m 0.16983,0.41 m 0.0579,0.44 m -0.0579,0.43999 m -0.16983,0.41001 m -0.27016,0.35208 m -0.35208,0.27016 m -0.41001,0.16983 m -0.43999,0.0579 m -0.43999,-0.0579 m -0.40998,-0.16983 m -0.35208,-0.27016 m -0.27016,-0.35208 m -0.16983,-0.41001 M 33.05,-475.70488 m -0.410008,0.16983 M 32.2,-475.47712 m -0.439992,-0.0579 M 31.35,-475.70488 m -0.352082,-0.27016 m -0.270161,-0.35208 m -0.169831,-0.41001 M 30.5,-477.17712 m 0.05793,-0.44 m 0.169831,-0.41 m 0.270161,-0.35209 M 31.35,-478.64937 m 0.410008,-0.16983 M 32.2,-478.87712 m 0.439992,0.0579 m 0.410008,0.16985 m 0.352082,0.27016 m 0.270161,0.35209 m 0.169831,0.41 m 0.05793,0.44 m -0.05793,0.43999 m -0.169831,0.41001 m -0.270161,0.35208"
     inkscape:connector-curvature="0" />
  <path
     id="face3-interior"
     style="fill:none;stroke:#ff0000;stroke-width:1;stroke-linecap:round;stroke-linejoin:round;stroke-miterlimit:4;stroke-dasharray:none"
     d="m 13.1,-162.57512 m 0.0086,0.13052 m 0.02552,0.1283 m 0.04205,0.12386 m 0.05785,0.11732 m 0.07267,0.10876 m 0.08625,0.0983 m 0.09835,0.0863 m 0.10871,0.0727 m 0.117317,0.0579 m 0.123864,0.042 m 0.128293,0.0255 m 0.130526,0.009 m 2,0 m 0,-3 m 3,0 m 0,10.19615 m 30,1.10385 m 26.6,0 m 30,-1.28166 m 0,-10.01834 m 3,0 m 0,3 m 2,0 m 0.13053,-0.009 m 0.12829,-0.0255 m 0.12386,-0.042 m 0.11732,-0.0579 m 0.10876,-0.0727 m 0.0983,-0.0863 m 0.0862,-0.0983 m 0.0727,-0.10876 m 0.0579,-0.11732 m 0.0421,-0.12386 m 0.0255,-0.1283 m 0.009,-0.13052 m 0,-145.751 m -0.009,-0.13053 m -0.0255,-0.12829 m -0.0421,-0.12387 m -0.0579,-0.11731 m -0.0727,-0.10877 m -0.0862,-0.0983 m -0.0983,-0.0862 m -0.10876,-0.0727 m -0.11732,-0.0579 m -0.12386,-0.042 m -0.12829,-0.0255 m -0.13053,-0.009 m -2,0 m 0,3 m -3,0 m 0,-10 m -30,-1.3 m -26.6,0 m -30,1.3 m 0,10 m -3,0 m 0,-3 m -2,0 m -0.130526,0.009 m -0.128293,0.0255 m -0.123864,0.042 M 13.6,-309.19215 m -0.108761,0.0727 m -0.09835,0.0862 m -0.08625,0.0983 m -0.07267,0.10877 m -0.05785,0.11731 m -0.04205,0.12387 m -0.02552,0.12829 m -0.0085,0.13059 m 54.4,-3 m -10.2,0 m 0,-3 m 10.2,0 m -10.2,154.751 m 10.2,0 m 0,3 m -10.2,0"
     inkscape:connector-curvature="0" />
  <path
     id="face4-interior"
     style="fill:none;stroke:#ff0000;stroke-width:1;stroke-linecap:round;stroke-linejoin:round;stroke-miterlimit:4;stroke-dasharray:none"
     d="m 254.69404,-141.53656 m -0.0171,7.26105 m 0.9163,12.12496 m 0.74994,12.13639 m 0.58344,12.145543 m 0.41682,12.15239 m 0.25012,12.15697 m 0.0834,12.15925 m -0.0834,12.15925 m -0.25012,12.15697 m -0.41682,12.15239 m -0.58344,12.14553 m -0.74994,12.13639049 m -0.9163,12.12496951 m 0.0171,7.26105 m 0.051,0.25659 m 0.0841,0.24773 m 0.11571,0.23463 m 0.14534,0.21752 m 0.17249,0.19669 m 0.19669,0.17249 m 0.21753,0.14535 m 0.23463,0.11571 m 0.24773,0.0841 m 0.25658,0.051 m 32.76106,0.0175 m 0.0412,-0.003 m 0.74196,-0.0486 m 0.76976,-0.15312 m 0.74319,-0.25228 m 0.7039,-0.34712 m 0.65256,-0.43603 m 0.59008,-0.51748 m 0.51748,-0.59008 m 0.43603,-0.65256 m 0.34712,-0.7039 m 0.25228,-0.74319 m 0.15311,-0.76976 m 0.0513,-0.78315 m 0,-151.751003 m -0.0513,-0.78316 m -0.15311,-0.76976 m -0.25228,-0.74318 m -0.34712,-0.7039 m -0.43603,-0.65257 m -0.51748,-0.59007 m -0.59008,-0.51748 m -0.65256,-0.43604 m -0.7039,-0.34712 m -0.74319,-0.25228 m -0.76976,-0.15311 m -0.74196,-0.0486 m -0.0412,-0.003 m -31.76106,0.0171 m -1.25658,0.0507 m -0.24773,0.0841 m -0.23463,0.11571 m -0.21753,0.14534 m -0.19669,0.17249 m -0.17249,0.1967 m -0.14534,0.21752 m -0.11571,0.23463 m -0.0841,0.24773 M 291.1769,9.6753635 m 0,3.2999995 m -3.1,0 m 0,-148.751003 m 3.1,0 m 0,3.3 m 1,0 m 0,142.1510035 m -19.5,-146.9513935 m -12,0 m 0,-3 m 12,0 m 0,154.751003 m 0,3 m -12,0 m 0,-3 m 8.28,-142.551003 m 15,0 m 0.25881,0.0341 m 0.12387,0.0421 m 0.11732,0.0578 m 0.10876,0.0727 m 0.0983,0.0863 m 0.0862,0.0983 m 0.0727,0.10876 m 0.0579,0.11731 m 0.042,0.12387 m 0.0341,0.46582 m 0,131.3510035 m -0.0341,0.25882 m -0.042,0.12386 m -0.0579,0.11732 m -0.0727,0.10876 m -0.0862,0.0983 m -0.0983,0.0862 m -0.10876,0.0727 m -0.11732,0.0579 m -0.12387,0.042 m -0.25881,0.0341 m -15,0 m -0.25882,-0.0341 m -0.12387,-0.042 m -0.11731,-0.0579 m -0.10877,-0.0727 m -0.0983,-0.0862 m -0.0863,-0.0983 m -0.0727,-0.10876 m -0.0578,-0.11732 m -0.0421,-0.12386 m -0.0341,-0.25882 m 0,-131.5580035 m 0.0341,-0.25882 m 0.0421,-0.12387 m 0.0578,-0.11731 m 0.0727,-0.10876 m 0.0863,-0.0983 m 0.0983,-0.0863 m 0.10877,-0.0727 m 0.11731,-0.0578 m 0.12387,-0.0421"
     inkscape:connector-curvature="0" />
  <path
     id="face5-interior"
     style="fill:none;stroke:#ff0000;stroke-width:1;stroke-linecap:round;stroke-linejoin:round;stroke-miterlimit:4;stroke-dasharray:none"
     d="m 164.24178,229.73092 m -0.5175,0.59007 m -0.436,0.65257 m -0.3471,0.7039 m -0.2523,0.74319 m -0.1531,0.76975 m -0.051,0.78316 m -15.5,7e-5 m -0.6842,7.20218 m -0.6011,7.20959 m -0.5178,7.21605 m -0.4345,7.22155 m -0.3511,7.22608 m -0.082,2.22455 m -2.0289,0 m 0,10 m 2.0289,-1.7e-4 m 0.082,2.22472 m 0.3511,7.22608 m 0.4345,7.22155 m 0.5178,7.21605 m 0.6011,7.20959 m 0.6842,7.20218 m 15.5,-7e-5 m 0.051,0.78316 m 0.1531,0.76976 m 0.2523,0.74319 m 0.3471,0.70389 m 0.436,0.65257 m 0.5175,0.59008 m 0.5901,0.51747 m 0.6525,0.43604 m 0.7039,0.34712 m 0.7432,0.25228 m 0.7698,0.15311 m 0.7831,0.0513 m 7.2611,-0.0171 m 0.2566,-0.051 m 0.2477,-0.0841 m 0.2346,-0.1157 m 0.2176,-0.14535 m 0.1967,-0.17249 m 0.1725,-0.19669 m 0.1453,-0.21753 m 0.1157,-0.23463 m 0.084,-0.24773 m 0.051,-0.25658 m 0.0172,-1.26106 m -3,0 m -0.1305,-0.009 m -0.1283,-0.0255 m -0.1238,-0.0421 m -0.1174,-0.0578 m -0.1087,-0.0727 m -0.098,-0.0863 m -0.086,-0.0983 m -0.073,-0.10871 m -0.058,-0.11731 m -0.042,-0.12387 m -0.025,-0.12829 m -0.009,-0.13053 m 0,-1 m 0.01,-0.14515 m 0.022,-0.14364 m 0.036,-0.14066 m 0.051,-0.13621 m 0.064,-0.13035 m 0.077,-0.12314 m 0.089,-0.11466 m 0.1005,-0.10498 m 0.1107,-0.0942 m 0.1197,-0.0825 m 0.1274,-0.0699 m 0.1338,-0.0566 m 3.0603,-1.11386 m 0,-83.68825 m -3.0188,-1.09877 m -0.2728,-0.13208 m -0.125,-0.0861 m -0.1155,-0.0984 m -0.1049,-0.10962 m -0.093,-0.11972 m -0.081,-0.12857 m -0.067,-0.1361 m -0.122,-0.59062 m 0,-0.95588 m 0.034,-0.25882 m 0.042,-0.12386 m 0.058,-0.11732 m 0.073,-0.10876 m 0.086,-0.0983 m 0.098,-0.0862 m 0.1087,-0.0727 m 0.1174,-0.0579 m 0.1238,-0.042 m 0.2588,-0.0341 m 3,0 m -0.026,-0.39158 m -0.077,-0.38488 m -0.1261,-0.37159 m -0.1736,-0.35195 m -0.218,-0.32628 m -0.2587,-0.29504 m -0.2951,-0.25874 m -0.3263,-0.21802 m -0.3519,-0.17356 m -0.3716,-0.12614 m -0.3849,-0.0765 m -0.3916,-0.0257 m -6,0 m -0.7831,0.0513 m -0.7698,0.15312 m -0.7432,0.25227 m -0.7039,0.34713 m -0.6525,0.43603 m 9.6525,57.49346 m 0,10 m -3,0 m 0,-10 m 3,-28.86667 m 0,10 m -3,0 m 0,-10"
     inkscape:connector-curvature="0" />
  <path
     id="path16"
     style="fill:none;stroke:#ff0000;stroke-width:0.05;stroke-linecap:round;stroke-linejoin:round;stroke-miterlimit:4;stroke-dasharray:none;stroke-opacity:1"
     d="m 361.58147,79.12588 m 6e-5,15.5 m -0.78315,0.0513 m -0.76976,0.15311 m -0.74319,0.25228 m -0.7039,0.34716 m -0.65257,0.43603 m -0.59007,0.51748 m -0.51748,0.590074 m -0.43603,0.65257 m -0.34712,0.7039 m -0.25228,0.74318 m -0.15312,0.76976 m -0.0513,0.783156 m 0,7 m 0.0171,0.26106 m 0.051,0.25658 m 0.0841,0.24773 m 0.11571,0.23463 m 0.14535,0.21753 m 0.17249,0.19669 m 0.19669,0.17249 m 0.21752,0.14534 m 0.23464,0.11571 m 0.24773,0.0841 m 0.25658,0.051 m 1.26105,0.0171 m 0,-3 m 0.009,-0.13052 m 0.0255,-0.1283 m 0.042,-0.12386 m 0.0579,-0.11732 m 0.0727,-0.10876 m 0.0862,-0.0983 m 0.0984,-0.0863 m 0.10871,-0.0727 m 0.11732,-0.0579 m 0.12386,-0.042 m 0.1283,-0.0255 m 0.13052,-0.009 m 1,0 m 0.14515,0.007 m 0.14365,0.0221 m 0.14066,0.0366 m 0.1362,0.0507 m 0.13035,0.0643 m 0.12315,0.0772 m 0.11465,0.0893 m 0.10499,0.10051 m 0.0942,0.11065 m 0.0825,0.11966 m 0.0699,0.12742 m 0.0566,0.13387 m 1.11386,3.0603 m 83.68825,0 m 1.09877,-3.01885 m 0.13208,-0.27281 m 0.0861,-0.12494 m 0.0984,-0.11553 m 0.10962,-0.10494 m 0.11972,-0.0932 m 0.12857,-0.0806 m 0.1361,-0.0671 m 0.59062,-0.12196 m 0.95588,0 m 0.25882,0.0341 m 0.12386,0.042 m 0.11732,0.0579 m 0.10876,0.0727 m 0.0983,0.0863 m 0.0862,0.0983 m 0.0727,0.10876 m 0.0579,0.11732 m 0.042,0.12386 m 0.0341,0.25882 m 0,3 m 0.39158,-0.0257 m 0.38488,-0.0766 m 0.37159,-0.12614 m 0.35201,-0.17322 m 0.32628,-0.21802 m 0.29504,-0.25874 m 0.25874,-0.29503 m 0.21802,-0.32629 m 0.17356,-0.35195 m 0.12614,-0.37159 m 0.0765,-0.38488 m 0.0257,-0.39158 m 0,-6 m -0.0513,-0.783156 m -0.15312,-0.76976 m -0.25227,-0.74318 m -0.34713,-0.7039 m -0.43603,-0.65257 m -0.51748,-0.590074 m -0.59007,-0.51748 m -0.65258,-0.43603 m -0.7039,-0.34713 m -0.74319,-0.25228 m -0.76975,-0.15311 m -0.78316,-0.0513 m -7e-5,-15.5 m -7.20217,-0.68426 m -7.2096,-0.60108 m -7.21605,-0.51783 m -7.22155,-0.43449 m -7.22608,-0.35112 m -2.22455,-0.0824 m 0,-2.02886 m -10,0 m 1.6e-4,2.02886 m -2.22471,0.0824 m -7.22608,0.35111 m -7.22155,0.4345 m -7.21605,0.51783 m -7.2096,0.60108 m 14.64079,20.111864 m -0.0862,-0.0983 m -0.0727,-0.10876 m -0.0579,-0.11732 m -0.042,-0.12386 m -0.0341,-0.25889 m 0,-8.000004 m 0.0341,-0.25882 m 0.042,-0.12387 m 0.0579,-0.11731 m 0.0727,-0.10876 m 0.0862,-0.0983 m 0.0984,-0.0862 m 0.10876,-0.0727 m 0.11731,-0.0579 m 0.12387,-0.0421 m 0.25882,-0.0341 m 11,0 m 0.25881,0.0341 m 0.12387,0.0421 m 0.11732,0.0579 m 0.10876,0.0727 m 0.0983,0.0862 m 0.0863,0.0983 m 0.0727,0.10876 m 0.0579,0.11732 m 0.0421,0.12386 m 0.0341,0.25882 m 0,8.000004 m -0.0341,0.25882 m -0.042,0.12386 m -0.0579,0.11732 m -0.0727,0.10876 m -0.0863,0.0983 m -0.0983,0.0863 m -0.10875,0.0727 m -0.11732,0.0579 m -0.12386,0.0421 m -0.25882,0.0341 m -11,0 m -0.25882,-0.0341 m -0.12387,-0.0421 m -0.11731,-0.0579 m -0.10877,-0.0727"
     inkscape:connector-curvature="0" />
  <path
     id="path18"
     style="fill:none;stroke:#ff0000;stroke-width:0.05;stroke-linecap:round;stroke-linejoin:round;stroke-miterlimit:4;stroke-dasharray:none;stroke-opacity:1"
     d="m 5.5517208,113.00775 m 3.4e-4,32.5 m 0.0171,0.26105 m 0.051,0.25659 m 0.0841,0.24772 m 0.1157,0.23464 m 0.14535,0.21752 m 0.17249,0.19669 m 0.19669,0.17249 m 0.21752,0.14535 m 0.23464,0.11571 m 0.24773,0.0841 m 0.25658,0.051 m 0.26105,0.0171 m 7.0000002,0 m 12.12497,-0.91631 m 12.13639,-0.74994 m 12.14553,-0.58343 m 12.1524,-0.41682 m 12.156964,-0.25012 m 12.15925,-0.0834 m 12.15926,0.0834 m 12.156955,0.25012 m 12.1524,0.41682 m 12.14553,0.58343 m 12.13639,0.74994 m 12.12496,0.91631 m 7,0 m 0.26106,-0.0171 m 0.25658,-0.051 m 0.24773,-0.0841 m 0.23463,-0.11571 m 0.21753,-0.14535 m 0.19669,-0.17249 m 0.17249,-0.19669 m 0.14535,-0.21752 m 0.1157,-0.23464 m 0.0841,-0.24772 m 0.051,-0.25659 m 0.0171,-0.26105 m -3.4e-4,-32.5 m -0.0513,-0.78316 m -0.15311,-0.76976 m -0.25228,-0.74318 m -0.34712,-0.7039 m -0.43604,-0.65257 m -0.51748,-0.59007 m -0.59007,-0.51748 m -0.65257,-0.43602 m -0.7039,-0.34713 m -0.74318,-0.25228 m -0.76976,-0.15311 m -0.78316,-0.0513 m -151.750999,0 m -0.78315,0.0513 m -0.7697602,0.15311 m -0.74319,0.25228 m -0.7039,0.34713 m -0.65256,0.43602 m -0.59008,0.51748 m -0.51748,0.59007 m -0.43603,0.65257 m -0.34712,0.7039 m -0.25228,0.74318 m -0.15312,0.76976 m 10.7486702,-2.21684 m 142.150999,0 m 0,1 m 3.3,0 m 0,3.1 m -148.750999,0 m 0,-3.1 m 3.3,0 m 16.85534,9.22 m 14.8,0 m 0.13053,0.009 m 0.12829,0.0255 m 0.12387,0.0421 m 0.11731,0.0579 m 0.10877,0.0727 m 0.0983,0.0863 m 0.0863,0.0983 m 0.0727,0.10876 m 0.0579,0.11731 m 0.0421,0.12387 m 0.0255,0.12829 m 0.009,0.13053 m 0,12.5 m -0.009,0.13052 m -0.0255,0.1283 m -0.0421,0.12386 m -0.0579,0.11732 m -0.0727,0.10876 m -0.0863,0.0983 m -0.0983,0.0863 m -0.10877,0.0727 m -0.11731,0.0579 m -0.12387,0.042 m -0.12829,0.0255 m -0.13053,0.009 m -14.7,0 m -0.1,0 m -0.13052,-0.009 m -0.12829,-0.0255 m -0.12387,-0.042 m -0.11732,-0.0579 m -0.10876,-0.0727 m -0.0983,-0.0863 m -0.0862,-0.0983 m -0.0727,-0.10876 m -0.0579,-0.11732 m -0.042,-0.12386 m -0.0255,-0.1283 m -0.009,-0.13052 m 0,-12.5 m 0.009,-0.13053 m 0.0255,-0.12829 m 0.042,-0.12387 m 0.0579,-0.11731 m 0.0727,-0.10876 m 0.0862,-0.0983 m 0.0983,-0.0863 m 0.10876,-0.0727 m 0.11732,-0.0579 m 0.12387,-0.0421 m 0.12829,-0.0255 m 28.62052,-0.009 m 14.800004,0 m 0.25882,0.0341 m 0.12387,0.0421 m 0.11731,0.0579 m 0.10877,0.0727 m 0.0983,0.0863 m 0.0863,0.0983 m 0.0727,0.10876 m 0.0579,0.11731 m 0.042,0.12387 m 0.0341,0.25882 m 0,12.5 m -0.0341,0.25882 m -0.042,0.12386 m -0.0579,0.11732 m -0.0727,0.10876 m -0.0863,0.0983 m -0.0983,0.0863 m -0.10877,0.0727 m -0.11731,0.0579 m -0.12387,0.042 m -0.25882,0.0341 m -14.800004,0 m -0.25881,-0.0341 m -0.12387,-0.042 m -0.11732,-0.0579 m -0.10876,-0.0727 m -0.0983,-0.0863 m -0.0863,-0.0983 m -0.0727,-0.10876 m -0.0579,-0.11732 m -0.042,-0.12386 m -0.0341,-0.25882 m 0,-12.5 m 0.0341,-0.25882 m 0.042,-0.12387 m 0.0579,-0.11731 m 0.0727,-0.10876 m 0.0863,-0.0983 m 0.0983,-0.0863 m 0.10876,-0.0727 m 0.11732,-0.0579 m 0.12387,-0.0421 m -52.8861902,9.24593 m 3.0000002,0 m 0,12 m -3.0000002,0 m 154.7509992,-12 m 3,0 m 0,12 m -3,0"
     inkscape:connector-curvature="0" />
  <path
     id="path20"
     style="fill:none;stroke:#00ff00;stroke-width:1;stroke-linecap:round;stroke-linejoin:round;stroke-miterlimit:4;stroke-dasharray:none"
     d="m 113.6,-482.37712 m -23.866667,0 m 0,-3 m -10,0 m 0,3 m -18.866666,0 m 0,-3 m -10,0 m 0,3 m -23.866667,0 m 0,151.751 m 23.866667,0 m 0,3 m 10,0 m 0,-3 m 18.866666,0 m 0,3 m 10,0 m 0,-3 m 23.866667,0 m -6.84207,-4.76001 m -0.0579,-0.43999 m 0.0579,-0.44 m 0.16983,-0.41 m 0.27016,-0.35209 m 0.35208,-0.27016 m 0.41001,-0.16983 m 0.43999,-0.0579 m 0.43999,0.0579 m 0.41001,0.16983 m 0.35208,0.27016 m 0.27016,0.35209 m 0.16983,0.41 m 0.0579,0.44 m -0.0579,0.43999 m -0.16983,0.41001 m -0.27016,0.35208 m -0.35208,0.27016 m -0.41001,0.16983 m -0.43999,0.0579 m -0.43999,-0.0579 m -0.40998,-0.16983 m -0.35208,-0.27016 m -0.27016,-0.35208 m -75.167752,0.79207 M 31.35,-334.35388 m -0.352082,-0.27016 m -0.270161,-0.35208 m -0.169831,-0.41001 M 30.5,-335.82612 m 0.05793,-0.44 m 0.169831,-0.41 m 0.270161,-0.35209 M 31.35,-337.29837 m 0.410008,-0.16983 M 32.2,-337.52612 m 0.439992,0.0579 m 0.410008,0.16985 m 0.352082,0.27016 m 0.270161,0.35209 m 0.169831,0.41 m 0.05793,0.44 m -0.05793,0.43999 m -0.169831,0.41001 m -0.270161,0.35208 M 33.05,-334.35388 m -0.410008,0.16983 M 32.2,-334.12612 m 74.5,-143.051 m 0.0579,-0.44 m 0.16983,-0.41 m 0.27016,-0.35209 m 0.35208,-0.27016 m 0.41001,-0.16983 m 0.43999,-0.0579 m 0.43999,0.0579 m 0.41001,0.16983 m 0.35208,0.27016 m 0.27016,0.35209 m 0.16983,0.41 m 0.0579,0.44 m -0.0579,0.43999 m -0.16983,0.41001 m -0.27016,0.35208 m -0.35208,0.27016 m -0.41001,0.16983 m -0.43999,0.0579 m -0.43999,-0.0579 m -0.40998,-0.16983 m -0.35208,-0.27016 m -0.27016,-0.35208 m -0.16983,-0.41001 M 33.05,-475.70488 m -0.410008,0.16983 M 32.2,-475.47712 m -0.439992,-0.0579 M 31.35,-475.70488 m -0.352082,-0.27016 m -0.270161,-0.35208 m -0.169831,-0.41001 M 30.5,-477.17712 m 0.05793,-0.44 m 0.169831,-0.41 m 0.270161,-0.35209 M 31.35,-478.64937 m 0.410008,-0.16983 M 32.2,-478.87712 m 0.439992,0.0579 m 0.410008,0.16985 m 0.352082,0.27016 m 0.270161,0.35209 m 0.169831,0.41 m 0.05793,0.44 m -0.05793,0.43999 m -0.169831,0.41001 m -0.270161,0.35208"
     inkscape:connector-curvature="0" />
  <path
     id="path22"
     style="fill:none;stroke:#00ff00;stroke-width:1;stroke-linecap:round;stroke-linejoin:round;stroke-miterlimit:4;stroke-dasharray:none"
     d="m 13.1,-162.57512 m 0.0086,0.13052 m 0.02552,0.1283 m 0.04205,0.12386 m 0.05785,0.11732 m 0.07267,0.10876 m 0.08625,0.0983 m 0.09835,0.0863 m 0.10871,0.0727 m 0.117317,0.0579 m 0.123864,0.042 m 0.128293,0.0255 m 0.130526,0.009 m 2,0 m 0,-3 m 3,0 m 0,10.19615 m 30,1.10385 m 26.6,0 m 30,-1.28166 m 0,-10.01834 m 3,0 m 0,3 m 2,0 m 0.13053,-0.009 m 0.12829,-0.0255 m 0.12386,-0.042 m 0.11732,-0.0579 m 0.10876,-0.0727 m 0.0983,-0.0863 m 0.0862,-0.0983 m 0.0727,-0.10876 m 0.0579,-0.11732 m 0.0421,-0.12386 m 0.0255,-0.1283 m 0.009,-0.13052 m 0,-145.751 m -0.009,-0.13053 m -0.0255,-0.12829 m -0.0421,-0.12387 m -0.0579,-0.11731 m -0.0727,-0.10877 m -0.0862,-0.0983 m -0.0983,-0.0862 m -0.10876,-0.0727 m -0.11732,-0.0579 m -0.12386,-0.042 m -0.12829,-0.0255 m -0.13053,-0.009 m -2,0 m 0,3 m -3,0 m 0,-10 m -30,-1.3 m -26.6,0 m -30,1.3 m 0,10 m -3,0 m 0,-3 m -2,0 m -0.130526,0.009 m -0.128293,0.0255 m -0.123864,0.042 M 13.6,-309.19215 m -0.108761,0.0727 m -0.09835,0.0862 m -0.08625,0.0983 m -0.07267,0.10877 m -0.05785,0.11731 m -0.04205,0.12387 m -0.02552,0.12829 m -0.0085,0.13059 m 54.4,-3 m -10.2,0 m 0,-3 m 10.2,0 m -10.2,154.751 m 10.2,0 m 0,3 m -10.2,0"
     inkscape:connector-curvature="0" />
  <path
     id="path24"
     style="fill:none;stroke:#00ff00;stroke-width:1;stroke-linecap:round;stroke-linejoin:round;stroke-miterlimit:4;stroke-dasharray:none"
     d="m 254.69404,-141.53656 m -0.0171,7.26105 m 0.9163,12.12496 m 0.74994,12.13639 m 0.58344,12.145543 m 0.41682,12.15239 m 0.25012,12.15697 m 0.0834,12.15925 m -0.0834,12.15925 m -0.25012,12.15697 m -0.41682,12.15239 m -0.58344,12.14553 m -0.74994,12.13639049 m -0.9163,12.12496951 m 0.0171,7.26105 m 0.051,0.25659 m 0.0841,0.24773 m 0.11571,0.23463 m 0.14534,0.21752 m 0.17249,0.19669 m 0.19669,0.17249 m 0.21753,0.14535 m 0.23463,0.11571 m 0.24773,0.0841 m 0.25658,0.051 m 32.76106,0.0175 m 0.0412,-0.003 m 0.74196,-0.0486 m 0.76976,-0.15312 m 0.74319,-0.25228 m 0.7039,-0.34712 m 0.65256,-0.43603 m 0.59008,-0.51748 m 0.51748,-0.59008 m 0.43603,-0.65256 m 0.34712,-0.7039 m 0.25228,-0.74319 m 0.15311,-0.76976 m 0.0513,-0.78315 m 0,-151.751003 m -0.0513,-0.78316 m -0.15311,-0.76976 m -0.25228,-0.74318 m -0.34712,-0.7039 m -0.43603,-0.65257 m -0.51748,-0.59007 m -0.59008,-0.51748 m -0.65256,-0.43604 m -0.7039,-0.34712 m -0.74319,-0.25228 m -0.76976,-0.15311 m -0.74196,-0.0486 m -0.0412,-0.003 m -31.76106,0.0171 m -1.25658,0.0507 m -0.24773,0.0841 m -0.23463,0.11571 m -0.21753,0.14534 m -0.19669,0.17249 m -0.17249,0.1967 m -0.14534,0.21752 m -0.11571,0.23463 m -0.0841,0.24773 M 291.1769,9.6753635 m 0,3.2999995 m -3.1,0 m 0,-148.751003 m 3.1,0 m 0,3.3 m 1,0 m 0,142.1510035 m -19.5,-146.9513935 m -12,0 m 0,-3 m 12,0 m 0,154.751003 m 0,3 m -12,0 m 0,-3 m 8.28,-142.551003 m 15,0 m 0.25881,0.0341 m 0.12387,0.0421 m 0.11732,0.0578 m 0.10876,0.0727 m 0.0983,0.0863 m 0.0862,0.0983 m 0.0727,0.10876 m 0.0579,0.11731 m 0.042,0.12387 m 0.0341,0.46582 m 0,131.3510035 m -0.0341,0.25882 m -0.042,0.12386 m -0.0579,0.11732 m -0.0727,0.10876 m -0.0862,0.0983 m -0.0983,0.0862 m -0.10876,0.0727 m -0.11732,0.0579 m -0.12387,0.042 m -0.25881,0.0341 m -15,0 m -0.25882,-0.0341 m -0.12387,-0.042 m -0.11731,-0.0579 m -0.10877,-0.0727 m -0.0983,-0.0862 m -0.0863,-0.0983 m -0.0727,-0.10876 m -0.0578,-0.11732 m -0.0421,-0.12386 m -0.0341,-0.25882 m 0,-131.5580035 m 0.0341,-0.25882 m 0.0421,-0.12387 m 0.0578,-0.11731 m 0.0727,-0.10876 m 0.0863,-0.0983 m 0.0983,-0.0863 m 0.10877,-0.0727 m 0.11731,-0.0578 m 0.12387,-0.0421"
     inkscape:connector-curvature="0" />
  <path
     id="path26"
     style="fill:none;stroke:#00ff00;stroke-width:1;stroke-linecap:round;stroke-linejoin:round;stroke-miterlimit:4;stroke-dasharray:none"
     d="m 164.24178,229.73092 m -0.5175,0.59007 m -0.436,0.65257 m -0.3471,0.7039 m -0.2523,0.74319 m -0.1531,0.76975 m -0.051,0.78316 m -15.5,7e-5 m -0.6842,7.20218 m -0.6011,7.20959 m -0.5178,7.21605 m -0.4345,7.22155 m -0.3511,7.22608 m -0.082,2.22455 m -2.0289,0 m 0,10 m 2.0289,-1.7e-4 m 0.082,2.22472 m 0.3511,7.22608 m 0.4345,7.22155 m 0.5178,7.21605 m 0.6011,7.20959 m 0.6842,7.20218 m 15.5,-7e-5 m 0.051,0.78316 m 0.1531,0.76976 m 0.2523,0.74319 m 0.3471,0.70389 m 0.436,0.65257 m 0.5175,0.59008 m 0.5901,0.51747 m 0.6525,0.43604 m 0.7039,0.34712 m 0.7432,0.25228 m 0.7698,0.15311 m 0.7831,0.0513 m 7.2611,-0.0171 m 0.2566,-0.051 m 0.2477,-0.0841 m 0.2346,-0.1157 m 0.2176,-0.14535 m 0.1967,-0.17249 m 0.1725,-0.19669 m 0.1453,-0.21753 m 0.1157,-0.23463 m 0.084,-0.24773 m 0.051,-0.25658 m 0.0172,-1.26106 m -3,0 m -0.1305,-0.009 m -0.1283,-0.0255 m -0.1238,-0.0421 m -0.1174,-0.0578 m -0.1087,-0.0727 m -0.098,-0.0863 m -0.086,-0.0983 m -0.073,-0.10871 m -0.058,-0.11731 m -0.042,-0.12387 m -0.025,-0.12829 m -0.009,-0.13053 m 0,-1 m 0.01,-0.14515 m 0.022,-0.14364 m 0.036,-0.14066 m 0.051,-0.13621 m 0.064,-0.13035 m 0.077,-0.12314 m 0.089,-0.11466 m 0.1005,-0.10498 m 0.1107,-0.0942 m 0.1197,-0.0825 m 0.1274,-0.0699 m 0.1338,-0.0566 m 3.0603,-1.11386 m 0,-83.68825 m -3.0188,-1.09877 m -0.2728,-0.13208 m -0.125,-0.0861 m -0.1155,-0.0984 m -0.1049,-0.10962 m -0.093,-0.11972 m -0.081,-0.12857 m -0.067,-0.1361 m -0.122,-0.59062 m 0,-0.95588 m 0.034,-0.25882 m 0.042,-0.12386 m 0.058,-0.11732 m 0.073,-0.10876 m 0.086,-0.0983 m 0.098,-0.0862 m 0.1087,-0.0727 m 0.1174,-0.0579 m 0.1238,-0.042 m 0.2588,-0.0341 m 3,0 m -0.026,-0.39158 m -0.077,-0.38488 m -0.1261,-0.37159 m -0.1736,-0.35195 m -0.218,-0.32628 m -0.2587,-0.29504 m -0.2951,-0.25874 m -0.3263,-0.21802 m -0.3519,-0.17356 m -0.3716,-0.12614 m -0.3849,-0.0765 m -0.3916,-0.0257 m -6,0 m -0.7831,0.0513 m -0.7698,0.15312 m -0.7432,0.25227 m -0.7039,0.34713 m -0.6525,0.43603 m 9.6525,57.49346 m 0,10 m -3,0 m 0,-10 m 3,-28.86667 m 0,10 m -3,0 m 0,-10"
     inkscape:connector-curvature="0" />
  <g
     id="text4685"
     style="font-style:normal;font-variant:normal;font-weight:normal;font-stretch:normal;font-size:7.05555534px;line-height:6.61458302px;font-family:Aldrich;-inkscape-font-specification:Aldrich;letter-spacing:0px;word-spacing:0px;fill:#000000;fill-opacity:1;stroke:none;stroke-width:0.26458332px;stroke-linecap:butt;stroke-linejoin:miter;stroke-opacity:1"
     aria-label="Sanworks"
     transform="translate(403.74737,-122.08929)">
    <path
       inkscape:connector-curvature="0"
       id="path6417"
       style="font-size:6.3499999px;stroke-width:0.26458332px"
       d="m -195.72818,145.96863 q -0.13023,0 -0.24805,-0.0496 -0.11472,-0.0527 -0.20154,-0.13642 -0.0868,-0.0868 -0.13642,-0.20154 -0.0496,-0.11782 -0.0496,-0.24805 v -1.27124 q 0,-0.13022 0.0496,-0.24495 0.0496,-0.11782 0.13642,-0.20153 0.0868,-0.0868 0.20154,-0.13643 0.11782,-0.0527 0.24805,-0.0527 h 2.158 q 0.13023,0 0.24495,0.0527 0.11782,0.0496 0.20464,0.13643 0.0868,0.0837 0.13643,0.20153 0.0496,0.11473 0.0496,0.24495 h 0.003 l -0.63562,0.003 -0.003,-0.003 h -2.158 v 1.27124 h 2.158 q 0.13023,0 0.24495,0.0496 0.11782,0.0496 0.20464,0.13643 0.0868,0.0868 0.13643,0.20463 0.0496,0.11473 0.0496,0.24495 v 1.26814 q 0,0.13023 -0.0496,0.24805 -0.0496,0.11472 -0.13643,0.20154 -0.0868,0.0868 -0.20464,0.13642 -0.11472,0.0496 -0.24495,0.0496 h -2.22001 q -0.13023,0 -0.24805,-0.0496 -0.11472,-0.0496 -0.20154,-0.13642 -0.0868,-0.0868 -0.13643,-0.20154 -0.0496,-0.11782 -0.0496,-0.24805 v 0 l 0.63251,-0.006 0.003,0.006 h 2.22001 v -1.26814 z" />
    <path
       inkscape:connector-curvature="0"
       id="path6419"
       style="font-size:6.3499999px;stroke-width:0.26458332px"
       d="m -191.84935,146.43062 q 0,-0.12713 0.0465,-0.23565 0.0496,-0.11162 0.13022,-0.19533 0.0837,-0.0837 0.19534,-0.13023 0.11162,-0.0496 0.23564,-0.0496 h 1.5751 v -0.63872 h -1.99367 v -0.61081 h 1.99367 q 0.12713,0 0.23875,0.0496 0.11162,0.0465 0.19223,0.13022 0.0837,0.0806 0.13023,0.19224 0.0496,0.11162 0.0496,0.23874 v 2.69131 h -0.61082 l 0.0837,0.006 q -0.0806,0.006 -0.14573,0.003 -0.062,-0.003 -0.14573,-0.006 -0.0806,-0.003 -0.18293,-0.003 -0.0992,0 -0.21704,0 h -0.96739 q -0.12402,0 -0.23564,-0.0465 -0.11162,-0.0496 -0.19534,-0.13022 -0.0806,-0.0837 -0.13022,-0.19534 -0.0465,-0.11162 -0.0465,-0.23874 z m 0.60771,0.83096 h 1.5751 v -0.83096 h -1.5751 z" />
    <path
       inkscape:connector-curvature="0"
       id="path6421"
       style="font-size:6.3499999px;stroke-width:0.26458332px"
       d="m -185.12108,147.87239 h -0.61081 v -2.69131 h -1.70223 v 2.69131 h -0.60771 v -3.30212 h 0.60771 l 0.0496,0.003 q 0.0558,0 0.0837,0 0.0279,-0.003 0.0806,-0.003 0.0527,0 0.16123,0 0.11163,0 0.23565,0 h 1.09141 q 0.12712,0 0.23874,0.0496 0.11162,0.0465 0.19224,0.13022 0.0837,0.0806 0.13022,0.19224 0.0496,0.11162 0.0496,0.23874 z" />
    <path
       inkscape:connector-curvature="0"
       id="path6423"
       style="font-size:6.3499999px;stroke-width:0.26458332px"
       d="m -183.41266,147.87239 -1.0666,-3.30212 h 0.61702 l 0.78135,2.48977 0.72863,-2.48977 h 0.62322 l 0.72864,2.48977 0.78135,-2.48977 h 0.61701 l -1.0666,3.30212 h -0.63562 l -0.73794,-2.42466 -0.73484,2.42466 z" />
    <path
       inkscape:connector-curvature="0"
       id="path6425"
       style="font-size:6.3499999px;stroke-width:0.26458332px"
       d="m -176.10768,147.26158 q 0,0.12712 -0.0496,0.23874 -0.0465,0.11162 -0.13023,0.19534 -0.0806,0.0806 -0.19224,0.13022 -0.10852,0.0465 -0.23564,0.0465 h -1.64021 q -0.12402,0 -0.23564,-0.0465 -0.11163,-0.0496 -0.19534,-0.13022 -0.0806,-0.0837 -0.13023,-0.19534 -0.0465,-0.11162 -0.0465,-0.23874 v -2.0805 q 0,-0.12712 0.0465,-0.23874 0.0496,-0.11162 0.13023,-0.19224 0.0837,-0.0837 0.19534,-0.13022 0.11162,-0.0496 0.23564,-0.0496 h 1.64021 q 0.12712,0 0.23564,0.0496 0.11163,0.0465 0.19224,0.13022 0.0837,0.0806 0.13023,0.19224 0.0496,0.11162 0.0496,0.23874 z m -2.24792,-2.0805 v 2.0805 h 1.64021 v -2.0805 z" />
    <path
       inkscape:connector-curvature="0"
       id="path6427"
       style="font-size:6.3499999px;stroke-width:0.26458332px"
       d="m -174.48607,145.18108 v 2.69131 h -0.60771 v -3.30212 h 0.60771 l 0.0558,0.006 q 0.062,-0.003 0.0899,0 0.031,0 0.0837,0 0.0558,0 0.15503,-0.003 0.10232,-0.003 0.22635,-0.003 h 0.64802 q 0.12712,0 0.23564,0.0496 0.11162,0.0465 0.19534,0.13022 0.0837,0.0806 0.13023,0.19224 0.0496,0.11162 0.0496,0.23874 v 0.55811 h -0.61081 v -0.55811 z" />
    <path
       inkscape:connector-curvature="0"
       id="path6429"
       style="font-size:6.3499999px;stroke-width:0.26458332px"
       d="m -169.67396,147.87239 -1.5751,-1.41077 v 1.41077 h -0.60771 v -4.57336 h 0.60771 v 2.57348 l 1.44798,-1.30224 h 0.85886 l -1.77354,1.5937 1.90066,1.70842 z" />
    <path
       inkscape:connector-curvature="0"
       id="path6431"
       style="font-size:6.3499999px;stroke-width:0.26458332px"
       d="m -166.37804,147.26158 v -0.76585 h -1.44797 q -0.12713,0 -0.23875,-0.0465 -0.11162,-0.0496 -0.19533,-0.13022 -0.0806,-0.0837 -0.13023,-0.19534 -0.0465,-0.11162 -0.0465,-0.23874 v -0.70384 q 0,-0.12712 0.0465,-0.23874 0.0496,-0.11162 0.13023,-0.19224 0.0837,-0.0837 0.19533,-0.13022 0.11162,-0.0496 0.23875,-0.0496 h 1.93166 v 0.61081 h -1.93166 v 0.70384 h 1.44797 q 0.12713,0 0.23565,0.0496 0.11162,0.0465 0.19533,0.13023 0.0837,0.0806 0.13023,0.19224 0.0496,0.11162 0.0496,0.23874 v 0.76585 q 0,0.12712 -0.0496,0.23874 -0.0465,0.11162 -0.13023,0.19534 -0.0837,0.0806 -0.19533,0.13022 -0.10852,0.0465 -0.23565,0.0465 h -2.05879 v -0.61081 z" />
  </g>
  <g
     aria-label="Machine"
     style="font-style:normal;font-variant:normal;font-weight:normal;font-stretch:normal;font-size:10.58333302px;line-height:6.61458302px;font-family:Aldrich;-inkscape-font-specification:Aldrich;letter-spacing:0px;word-spacing:0px;fill:#000000;fill-opacity:1;stroke:none;stroke-width:0.26458332px;stroke-linecap:butt;stroke-linejoin:miter;stroke-opacity:1"
     id="text4669"
     transform="translate(43.424885,-61.436405)">
    <path
       d="m -9.8712186,207.47797 -1.1980324,-2.35352 v 2.35352 h -0.459058 v -3.21118 h 0.501605 l 1.2226648,2.41846 1.2249037,-2.41846 h 0.4993666 v 3.21118 h -0.4568197 v -2.35352 l -1.1980319,2.35352 z"
       style="font-size:4.58611107px;stroke-width:0.26458332px"
       id="path6441"
       inkscape:connector-curvature="0" />
    <path
       d="m -7.3004884,206.43669 q 0,-0.0918 0.03359,-0.17019 0.035829,-0.0806 0.094051,-0.14108 0.060461,-0.0605 0.1410766,-0.094 0.080615,-0.0358 0.1701878,-0.0358 h 1.1375705 v -0.4613 h -1.4398777 v -0.44114 h 1.4398777 q 0.091812,0 0.172427,0.0358 0.080615,0.0336 0.1388374,0.0941 0.060461,0.0582 0.094051,0.13884 0.035829,0.0806 0.035829,0.17242 v 1.94373 h -0.4411445 l 0.060461,0.004 q -0.058222,0.004 -0.1052477,0.002 -0.044786,-0.002 -0.1052476,-0.004 -0.058222,-0.002 -0.1321194,-0.002 -0.071658,0 -0.1567519,0 h -0.6986653 q -0.089573,0 -0.1701878,-0.0336 -0.080615,-0.0358 -0.1410766,-0.094 -0.058222,-0.0605 -0.094051,-0.14108 -0.03359,-0.0806 -0.03359,-0.17243 z m 0.4389052,0.60013 h 1.1375705 v -0.60013 h -1.1375705 z"
       style="font-size:4.58611107px;stroke-width:0.26458332px"
       id="path6443"
       inkscape:connector-curvature="0" />
    <path
       d="m -4.1117077,205.53424 v 1.50258 h 1.1375705 v -0.40307 h 0.4411445 v 0.40307 q 0,0.0918 -0.035829,0.17243 -0.03359,0.0806 -0.094051,0.14108 -0.058222,0.0582 -0.1388373,0.094 -0.080615,0.0336 -0.1724271,0.0336 h -1.1375705 q -0.089573,0 -0.1701877,-0.0336 -0.080615,-0.0358 -0.1410767,-0.094 -0.058222,-0.0605 -0.094051,-0.14108 -0.03359,-0.0806 -0.03359,-0.17243 v -1.50258 q 0,-0.0918 0.03359,-0.17242 0.035829,-0.0806 0.094051,-0.13884 0.060461,-0.0605 0.1410767,-0.0941 0.080615,-0.0358 0.1701877,-0.0358 h 1.1375705 q 0.091812,0 0.1724271,0.0358 0.080615,0.0336 0.1388373,0.0941 0.060461,0.0582 0.094051,0.13884 0.035829,0.0806 0.035829,0.17242 v 0.40308 h -0.4411445 v -0.40308 z"
       style="font-size:4.58611107px;stroke-width:0.26458332px"
       id="path6445"
       inkscape:connector-curvature="0" />
    <path
       d="m 0.30869416,207.47797 h -0.44114447 v -1.94373 H -1.3618326 v 1.94373 h -0.4389052 v -3.30299 h 0.4389052 v 1.33911 q 0.00448,-0.0873 0.040308,-0.16347 0.035829,-0.0784 0.094051,-0.13436 0.060461,-0.0582 0.1388373,-0.0896 0.078376,-0.0336 0.16794845,-0.0336 h 0.78823784 q 0.09181179,0 0.17242702,0.0358 0.08061524,0.0336 0.13883735,0.0941 0.0604614,0.0582 0.0940511,0.13884 0.035829,0.0806 0.035829,0.17242 z"
       style="font-size:4.58611107px;stroke-width:0.26458332px"
       id="path6447"
       inkscape:connector-curvature="0" />
    <path
       d="m 1.5112047,205.0931 v 2.38487 H 1.0700602 v -2.38487 z m -0.4635376,-0.91812 h 0.4859307 v 0.45906 H 1.0476671 Z"
       style="font-size:4.58611107px;stroke-width:0.26458332px"
       id="path6449"
       inkscape:connector-curvature="0" />
    <path
       d="M 4.3752845,207.47797 H 3.93414 v -1.94373 H 2.7047577 v 1.94373 H 2.2658525 v -2.38487 h 0.4389052 l 0.035829,0.002 q 0.040308,0 0.060461,0 0.020154,-0.002 0.058222,-0.002 0.038068,0 0.1164442,0 0.080615,0 0.1701878,0 H 3.93414 q 0.091812,0 0.172427,0.0358 0.080615,0.0336 0.1388374,0.0941 0.060461,0.0582 0.094051,0.13884 0.035829,0.0806 0.035829,0.17242 z"
       style="font-size:4.58611107px;stroke-width:0.26458332px"
       id="path6451"
       inkscape:connector-curvature="0" />
    <path
       d="m 7.1318776,206.51058 h -1.578715 v 0.52624 h 1.578715 v 0.44115 h -1.578715 q -0.089573,0 -0.1701877,-0.0336 -0.080615,-0.0358 -0.1410767,-0.094 -0.058222,-0.0605 -0.094051,-0.14108 -0.03359,-0.0806 -0.03359,-0.17243 v -1.50258 q 0,-0.0918 0.03359,-0.17242 0.035829,-0.0806 0.094051,-0.13884 0.060461,-0.0605 0.1410767,-0.0941 0.080615,-0.0358 0.1701877,-0.0358 h 1.1375705 q 0.091812,0 0.172427,0.0358 0.080615,0.0336 0.1388374,0.0941 0.060461,0.0582 0.094051,0.13884 0.035829,0.0806 0.035829,0.17242 z m -1.578715,-0.97634 v 0.5352 h 1.1375705 v -0.5352 z"
       style="font-size:4.58611107px;stroke-width:0.26458332px"
       id="path6453"
       inkscape:connector-curvature="0" />
  </g>
  <g
     aria-label="State"
     style="font-style:normal;font-variant:normal;font-weight:normal;font-stretch:normal;font-size:10.58333302px;line-height:6.61458349px;font-family:Aldrich;-inkscape-font-specification:Aldrich;letter-spacing:0px;word-spacing:0px;fill:#000000;fill-opacity:1;stroke:none;stroke-width:0.26458332px;stroke-linecap:butt;stroke-linejoin:miter;stroke-opacity:1"
     id="text4669-1"
     transform="translate(43.424885,-61.436405)">
    <path
       d="m -8.6986861,202.1992 q -0.094051,0 -0.1791449,-0.0358 -0.082855,-0.0381 -0.1455553,-0.0985 -0.062701,-0.0627 -0.09853,-0.14556 -0.035829,-0.0851 -0.035829,-0.17914 v -0.91812 q 0,-0.0941 0.035829,-0.17691 0.035829,-0.0851 0.09853,-0.14555 0.062701,-0.0627 0.1455553,-0.0985 0.085094,-0.0381 0.1791449,-0.0381 h 1.5585612 q 0.094051,0 0.1769057,0.0381 0.085094,0.0358 0.1477946,0.0985 0.062701,0.0605 0.09853,0.14555 0.035829,0.0829 0.035829,0.17691 h 0.00224 l -0.459059,0.002 -0.00224,-0.002 h -1.5585612 v 0.91812 h 1.5585612 q 0.094051,0 0.1769057,0.0358 0.085094,0.0358 0.1477946,0.0985 0.062701,0.0627 0.09853,0.1478 0.035829,0.0829 0.035829,0.1769 v 0.91588 q 0,0.094 -0.035829,0.17915 -0.035829,0.0829 -0.09853,0.14555 -0.062701,0.0627 -0.1477946,0.0985 -0.082855,0.0358 -0.1769057,0.0358 H -8.743472 q -0.094051,0 -0.179145,-0.0358 -0.082854,-0.0358 -0.1455552,-0.0985 -0.062701,-0.0627 -0.09853,-0.14555 -0.035829,-0.0851 -0.035829,-0.17915 v 0 l 0.4568197,-0.004 0.00224,0.004 h 1.6033474 v -0.91588 z"
       style="font-size:4.58611107px;stroke-width:0.26458332px"
       id="path6551"
       inkscape:connector-curvature="0" />
    <path
       d="m -6.036144,201.18928 h 0.5822212 v -0.7345 h 0.4411444 v 0.7345 h 0.7837593 v 0.44114 h -0.7837593 v 1.50258 h 0.7837593 v 0.44114 h -0.7837593 q -0.089572,0 -0.1701877,-0.0336 -0.080615,-0.0358 -0.1410766,-0.0941 -0.060462,-0.0605 -0.09629,-0.14107 -0.03359,-0.0806 -0.03359,-0.17243 v -1.50258 H -6.036144 Z"
       style="font-size:4.58611107px;stroke-width:0.26458332px"
       id="path6553"
       inkscape:connector-curvature="0" />
    <path
       d="m -3.4967641,202.53286 q 0,-0.0918 0.03359,-0.17019 0.035829,-0.0806 0.094051,-0.14107 0.060461,-0.0605 0.1410766,-0.094 0.080615,-0.0358 0.1701877,-0.0358 h 1.1375706 v -0.4613 h -1.4398777 v -0.44114 h 1.4398777 q 0.091812,0 0.172427,0.0358 0.080615,0.0336 0.1388373,0.0941 0.060462,0.0582 0.094051,0.13883 0.035829,0.0806 0.035829,0.17243 v 1.94372 h -0.4411444 l 0.060461,0.004 q -0.058222,0.004 -0.1052477,0.002 -0.044786,-0.002 -0.1052476,-0.004 -0.058222,-0.002 -0.1321195,-0.002 -0.071658,0 -0.1567518,0 H -3.057859 q -0.089572,0 -0.1701877,-0.0336 -0.080615,-0.0358 -0.1410766,-0.0941 -0.058222,-0.0605 -0.094051,-0.14107 -0.03359,-0.0806 -0.03359,-0.17243 z m 0.4389051,0.60014 h 1.1375706 v -0.60014 H -3.057859 Z"
       style="font-size:4.58611107px;stroke-width:0.26458332px"
       id="path6555"
       inkscape:connector-curvature="0" />
    <path
       d="m -0.88572591,201.18928 h 0.58222113 v -0.7345 h 0.44114447 v 0.7345 h 0.78375922 v 0.44114 H 0.13763969 v 1.50258 h 0.78375922 v 0.44114 H 0.13763969 q -0.08957248,0 -0.17018771,-0.0336 -0.08061524,-0.0358 -0.14107666,-0.0941 -0.0604614,-0.0605 -0.0962904,-0.14107 -0.0335897,-0.0806 -0.0335897,-0.17243 v -1.50258 h -0.58222113 z"
       style="font-size:4.58611107px;stroke-width:0.26458332px"
       id="path6557"
       inkscape:connector-curvature="0" />
    <path
       d="M 3.6712738,202.60676 H 2.0925589 v 0.52624 h 1.5787149 v 0.44114 H 2.0925589 q -0.089573,0 -0.1701878,-0.0336 -0.080615,-0.0358 -0.1410766,-0.0941 -0.058222,-0.0605 -0.094051,-0.14107 -0.03359,-0.0806 -0.03359,-0.17243 v -1.50258 q 0,-0.0918 0.03359,-0.17243 0.035829,-0.0806 0.094051,-0.13883 0.060461,-0.0605 0.1410766,-0.0941 0.080615,-0.0358 0.1701878,-0.0358 h 1.1375705 q 0.091812,0 0.172427,0.0358 0.080615,0.0336 0.1388373,0.0941 0.060462,0.0582 0.094051,0.13883 0.035829,0.0806 0.035829,0.17243 z m -1.5787149,-0.97634 v 0.5352 h 1.1375705 v -0.5352 z"
       style="font-size:4.58611107px;stroke-width:0.26458332px"
       id="path6559"
       inkscape:connector-curvature="0" />
  </g>
  <g
     transform="translate(47.663615,-64.149155)"
     aria-label="Input"
     style="font-style:normal;font-variant:normal;font-weight:normal;font-stretch:normal;font-size:7.05555534px;line-height:6.61458349px;font-family:Aldrich;-inkscape-font-specification:Aldrich;letter-spacing:0px;word-spacing:0px;fill:#000000;fill-opacity:1;stroke:none;stroke-width:0.26458332px;stroke-linecap:butt;stroke-linejoin:miter;stroke-opacity:1"
     id="text4658-7">
    <path
       inkscape:connector-curvature="0"
       d="m 16.106969,202.65401 v 3.45819 h -0.494371 v -3.45819 z"
       style="font-size:4.93888903px;stroke-width:0.26458332px"
       id="path4692" />
    <path
       inkscape:connector-curvature="0"
       d="m 19.215479,206.1122 h -0.475078 v -2.09324 H 17.41645 v 2.09324 h -0.472667 v -2.56832 h 0.472667 l 0.03858,0.002 q 0.04341,0 0.06511,0 0.0217,-0.002 0.0627,-0.002 0.041,0 0.125402,0 0.08682,0 0.183279,0 h 0.848872 q 0.09887,0 0.18569,0.0386 0.08682,0.0362 0.149517,0.10129 0.06511,0.0627 0.101286,0.14952 0.03858,0.0868 0.03858,0.18569 z"
       style="font-size:4.93888903px;stroke-width:0.26458332px"
       id="path4694" />
    <path
       inkscape:connector-curvature="0"
       d="m 22.282992,205.63712 q 0,0.0989 -0.03859,0.18569 -0.03617,0.0868 -0.101286,0.15193 -0.0627,0.0627 -0.149517,0.10128 -0.08682,0.0362 -0.185691,0.0362 h -1.32395 v 1.03697 h -0.472667 v -3.60529 h 0.472667 v 0.43408 q 0.0072,-0.0916 0.04823,-0.16881 0.041,-0.0796 0.103698,-0.13746 0.0627,-0.0603 0.144694,-0.0941 0.08441,-0.0338 0.178456,-0.0338 h 0.848871 q 0.09887,0 0.185691,0.0386 0.08682,0.0362 0.149517,0.10129 0.06511,0.0627 0.101286,0.14952 0.03859,0.0868 0.03859,0.18569 z m -0.475079,0 v -1.61816 h -1.32395 v 1.61816 z"
       style="font-size:4.93888903px;stroke-width:0.26458332px"
       id="path4696" />
    <path
       inkscape:connector-curvature="0"
       d="m 23.078809,203.54388 h 0.472668 v 2.09324 h 1.32395 v -2.09324 h 0.475078 v 2.56832 h -0.475078 v -0.43408 q -0.0072,0.0892 -0.04823,0.16881 -0.041,0.0796 -0.106109,0.13987 -0.0627,0.0579 -0.144694,0.0916 -0.08199,0.0338 -0.173632,0.0338 h -0.851283 q -0.09646,0 -0.18328,-0.0362 -0.08682,-0.0386 -0.151928,-0.10128 -0.0627,-0.0651 -0.101286,-0.15193 -0.03617,-0.0868 -0.03617,-0.18569 z"
       style="font-size:4.93888903px;stroke-width:0.26458332px"
       id="path4698" />
    <path
       inkscape:connector-curvature="0"
       d="m 25.996805,203.54388 h 0.627007 v -0.79099 h 0.475079 v 0.79099 h 0.844048 v 0.47508 h -0.844048 v 1.61816 h 0.844048 v 0.47508 h -0.844048 q -0.09646,0 -0.183279,-0.0362 -0.08682,-0.0386 -0.151929,-0.10128 -0.06511,-0.0651 -0.103697,-0.15193 -0.03617,-0.0868 -0.03617,-0.18569 v -1.61816 h -0.627007 z"
       style="font-size:4.93888903px;stroke-width:0.26458332px"
       id="path4700" />
  </g>
  <g
     aria-label="Stream"
     style="font-style:normal;font-variant:normal;font-weight:normal;font-stretch:normal;font-size:7.05555534px;line-height:6.61458302px;font-family:Aldrich;-inkscape-font-specification:Aldrich;letter-spacing:0px;word-spacing:0px;fill:#000000;fill-opacity:1;stroke:none;stroke-width:0.26458332px;stroke-linecap:butt;stroke-linejoin:miter;stroke-opacity:1"
     id="text4647">
    <path
       d="m 61.501235,144.6669 q -0.09405,0 -0.179145,-0.0358 -0.08286,-0.0381 -0.145556,-0.0985 -0.0627,-0.0627 -0.09853,-0.14555 -0.03583,-0.0851 -0.03583,-0.17915 v -0.91811 q 0,-0.0941 0.03583,-0.17691 0.03583,-0.0851 0.09853,-0.14556 0.0627,-0.0627 0.145556,-0.0985 0.08509,-0.0381 0.179145,-0.0381 h 1.558561 q 0.09405,0 0.176905,0.0381 0.08509,0.0358 0.147795,0.0985 0.0627,0.0605 0.09853,0.14556 0.03583,0.0829 0.03583,0.17691 h 0.0022 l -0.459059,0.002 -0.0022,-0.002 h -1.558561 v 0.91811 h 1.558561 q 0.09405,0 0.176905,0.0358 0.08509,0.0358 0.147795,0.0985 0.0627,0.0627 0.09853,0.1478 0.03583,0.0828 0.03583,0.1769 v 0.91588 q 0,0.094 -0.03583,0.17915 -0.03583,0.0828 -0.09853,0.14555 -0.0627,0.0627 -0.147795,0.0985 -0.08285,0.0358 -0.176905,0.0358 h -1.603348 q -0.09405,0 -0.179145,-0.0358 -0.08285,-0.0358 -0.145555,-0.0985 -0.0627,-0.0627 -0.09853,-0.14555 -0.03583,-0.0851 -0.03583,-0.17915 v 0 l 0.45682,-0.004 0.0022,0.004 h 1.603348 v -0.91588 z"
       style="font-size:4.58611107px;stroke-width:0.26458332px"
       id="path4649" />
    <path
       d="m 64.163777,143.65697 h 0.582221 v -0.73449 h 0.441144 v 0.73449 h 0.78376 v 0.44115 h -0.78376 v 1.50258 h 0.78376 v 0.44114 h -0.78376 q -0.08957,0 -0.170187,-0.0336 -0.08062,-0.0358 -0.141077,-0.0941 -0.06046,-0.0605 -0.09629,-0.14108 -0.03359,-0.0806 -0.03359,-0.17242 v -1.50258 h -0.582221 z"
       style="font-size:4.58611107px;stroke-width:0.26458332px"
       id="path4651" />
    <path
       d="m 67.142062,144.09812 v 1.94372 h -0.438905 v -2.38487 h 0.438905 l 0.04031,0.004 q 0.04479,-0.002 0.06494,0 0.02239,0 0.06046,0 0.04031,0 0.111965,-0.002 0.0739,-0.002 0.16347,-0.002 h 0.468016 q 0.09181,0 0.170188,0.0358 0.08061,0.0336 0.141077,0.094 0.06046,0.0582 0.09405,0.13884 0.03583,0.0806 0.03583,0.17243 v 0.40307 h -0.441145 v -0.40307 z"
       style="font-size:4.58611107px;stroke-width:0.26458332px"
       id="path4653" />
    <path
       d="m 71.058618,145.07446 h -1.578715 v 0.52624 h 1.578715 v 0.44114 h -1.578715 q -0.08957,0 -0.170188,-0.0336 -0.08061,-0.0358 -0.141076,-0.0941 -0.05822,-0.0605 -0.09405,-0.14108 -0.03359,-0.0806 -0.03359,-0.17242 v -1.50258 q 0,-0.0918 0.03359,-0.17243 0.03583,-0.0806 0.09405,-0.13884 0.06046,-0.0605 0.141076,-0.094 0.08062,-0.0358 0.170188,-0.0358 h 1.137571 q 0.09181,0 0.172427,0.0358 0.08061,0.0336 0.138837,0.094 0.06046,0.0582 0.09405,0.13884 0.03583,0.0806 0.03583,0.17243 z m -1.578715,-0.97634 v 0.53519 h 1.137571 v -0.53519 z"
       style="font-size:4.58611107px;stroke-width:0.26458332px"
       id="path4655" />
    <path
       d="m 71.790873,145.00056 q 0,-0.0918 0.03359,-0.17019 0.03583,-0.0806 0.09405,-0.14107 0.06046,-0.0605 0.141077,-0.0941 0.08062,-0.0358 0.170187,-0.0358 h 1.137571 v -0.4613 h -1.439878 v -0.44115 h 1.439878 q 0.09181,0 0.172427,0.0358 0.08061,0.0336 0.138837,0.094 0.06046,0.0582 0.09405,0.13884 0.03583,0.0806 0.03583,0.17243 v 1.94372 h -0.441144 l 0.06046,0.004 q -0.05822,0.004 -0.105247,0.002 -0.04479,-0.002 -0.105248,-0.004 -0.05822,-0.002 -0.13212,-0.002 -0.07166,0 -0.156751,0 h -0.698666 q -0.08957,0 -0.170187,-0.0336 -0.08062,-0.0358 -0.141077,-0.0941 -0.05822,-0.0605 -0.09405,-0.14108 -0.03359,-0.0806 -0.03359,-0.17242 z m 0.438905,0.60014 h 1.137571 v -0.60014 h -1.137571 z"
       style="font-size:4.58611107px;stroke-width:0.26458332px"
       id="path4657" />
    <path
       d="m 76.430729,144.09812 v 1.94372 h -0.441145 v -1.94372 h -1.00993 v 1.94372 h -0.438905 v -2.38487 h 0.438905 v 0.42099 q 0.0045,-0.0873 0.04031,-0.16347 0.03583,-0.0784 0.09405,-0.13436 0.06046,-0.0582 0.138837,-0.0896 0.07838,-0.0336 0.167949,-0.0336 h 0.568785 q 0.08733,0 0.165709,0.0336 0.07838,0.0314 0.138837,0.0896 0.06046,0.056 0.09629,0.13436 0.03807,0.0761 0.04031,0.16347 0.0045,-0.0873 0.03807,-0.16347 0.03583,-0.0784 0.09405,-0.13436 0.06046,-0.0582 0.138837,-0.0896 0.07838,-0.0336 0.167949,-0.0336 h 0.568785 q 0.09181,0 0.172427,0.0358 0.08062,0.0336 0.138837,0.094 0.06046,0.0582 0.09405,0.13884 0.03583,0.0806 0.03583,0.17243 v 1.94372 h -0.441144 v -1.94372 z"
       style="font-size:4.58611107px;stroke-width:0.26458332px"
       id="path4659" />
    <g
       aria-label="Ch1"
       transform="rotate(-90,29.114656,-126.49203)"
       style="font-style:normal;font-variant:normal;font-weight:normal;font-stretch:normal;font-size:7.05555534px;line-height:6.61458302px;font-family:Aldrich;-inkscape-font-specification:Aldrich;letter-spacing:0px;word-spacing:0px;fill:#000000;fill-opacity:1;stroke:none;stroke-width:0.26458332px;stroke-linecap:butt;stroke-linejoin:miter;stroke-opacity:1"
       id="text4624">
      <path
         inkscape:connector-curvature="0"
         d="m -281.69998,-136.12813 q 0,-0.11575 0.0441,-0.21773 0.0441,-0.10473 0.12127,-0.17914 0.0772,-0.0772 0.17914,-0.12127 0.10474,-0.0469 0.22049,-0.0469 h 2.14423 q 0.11575,0 0.21773,0.0469 0.10473,0.0441 0.1819,0.12127 0.0772,0.0744 0.12127,0.17914 0.0441,0.10198 0.0441,0.21773 v 0.50988 h -0.56499 v -0.50988 h -2.14423 v 2.82223 h 2.14423 v -0.50712 h 0.56499 v 0.50712 q 0,0.11575 -0.0441,0.22048 -0.0441,0.10198 -0.12127,0.17915 -0.0772,0.0772 -0.1819,0.12126 -0.10198,0.0441 -0.21773,0.0441 h -2.14423 q -0.11575,0 -0.22049,-0.0441 -0.10197,-0.0441 -0.17914,-0.12126 -0.0772,-0.0772 -0.12127,-0.17915 -0.0441,-0.10473 -0.0441,-0.22048 z"
         style="font-size:5.64444447px;stroke-width:0.26458332px"
         id="path4678" />
      <path
         d="m -274.98067,-132.74091 h -0.54295 v -2.39227 h -1.51308 v 2.39227 h -0.54019 v -0.9273 -3.13791 h 0.54019 v 1.64813 c 0.004,-0.0717 0.0205,-0.13872 0.0496,-0.20119 0.0294,-0.0643 0.068,-0.11943 0.11575,-0.16537 0.0496,-0.0478 0.10656,-0.0845 0.17088,-0.11024 0.0643,-0.0276 0.13323,-0.0413 0.2067,-0.0413 h 0.97014 c 0.0753,0 0.14607,0.0147 0.21222,0.0441 0.0661,0.0276 0.12309,0.0661 0.17088,0.11576 0.0496,0.0478 0.0882,0.10473 0.11575,0.17087 0.0294,0.0662 0.0441,0.13689 0.0441,0.21222 z"
         style="font-size:5.64444447px;stroke-width:0.26458332px"
         id="path4680"
         inkscape:connector-curvature="0"
         sodipodi:nodetypes="cccccccccccccssccccc" />
      <path
         inkscape:connector-curvature="0"
         d="m -273.11205,-136.69312 v 3.95221 h -0.565 v -3.38722 h -0.67799 v -0.56499 z"
         style="font-size:5.64444447px;stroke-width:0.26458332px"
         id="path4682" />
    </g>
    <g
       aria-label="Ch8"
       transform="rotate(-90,0.26458333,0.26458333)"
       style="font-style:normal;font-variant:normal;font-weight:normal;font-stretch:normal;font-size:5.64444447px;line-height:6.61458302px;font-family:Aldrich;-inkscape-font-specification:'Aldrich, Normal';font-variant-ligatures:normal;font-variant-caps:normal;font-variant-numeric:normal;font-feature-settings:normal;text-align:start;letter-spacing:0px;word-spacing:0px;writing-mode:lr-tb;text-anchor:start;fill:#000000;fill-opacity:1;stroke:none;stroke-width:0.26458332px;stroke-linecap:butt;stroke-linejoin:miter;stroke-opacity:1"
       id="text4684">
      <path
         d="m -185.15493,160.47689 q 0,-0.11576 0.0441,-0.21773 0.0441,-0.10473 0.12126,-0.17915 0.0772,-0.0772 0.17915,-0.12127 0.10473,-0.0469 0.22049,-0.0469 h 2.14422 q 0.11576,0 0.21773,0.0469 0.10473,0.0441 0.1819,0.12127 0.0772,0.0744 0.12127,0.17915 0.0441,0.10197 0.0441,0.21773 v 0.50987 h -0.565 v -0.50987 h -2.14422 v 2.82222 h 2.14422 v -0.50712 h 0.565 v 0.50712 q 0,0.11575 -0.0441,0.22049 -0.0441,0.10197 -0.12127,0.17914 -0.0772,0.0772 -0.1819,0.12127 -0.10197,0.0441 -0.21773,0.0441 h -2.14422 q -0.11576,0 -0.22049,-0.0441 -0.10198,-0.0441 -0.17915,-0.12127 -0.0772,-0.0772 -0.12126,-0.17914 -0.0441,-0.10474 -0.0441,-0.22049 z"
         style="font-style:normal;font-variant:normal;font-weight:normal;font-stretch:normal;font-size:5.64444447px;font-family:Aldrich;-inkscape-font-specification:'Aldrich, Normal';font-variant-ligatures:normal;font-variant-caps:normal;font-variant-numeric:normal;font-feature-settings:normal;text-align:start;writing-mode:lr-tb;text-anchor:start;stroke-width:0.26458332px"
         id="path4686"
         inkscape:connector-curvature="0" />
      <path
         d="m -178.43562,163.86411 h -0.54294 v -2.39228 h -1.51309 v 2.39228 h -0.54019 v -4.06522 h 0.54019 v 1.64814 q 0.006,-0.10749 0.0496,-0.2012 0.0441,-0.0965 0.11576,-0.16536 0.0744,-0.0717 0.17087,-0.11024 0.0965,-0.0413 0.20671,-0.0413 h 0.97014 q 0.113,0 0.21221,0.0441 0.0992,0.0413 0.17088,0.11576 0.0744,0.0717 0.11576,0.17087 0.0441,0.0992 0.0441,0.21222 z"
         style="font-style:normal;font-variant:normal;font-weight:normal;font-stretch:normal;font-size:5.64444447px;font-family:Aldrich;-inkscape-font-specification:'Aldrich, Normal';font-variant-ligatures:normal;font-variant-caps:normal;font-variant-numeric:normal;font-feature-settings:normal;text-align:start;writing-mode:lr-tb;text-anchor:start;stroke-width:0.26458332px"
         id="path4688"
         inkscape:connector-curvature="0" />
      <path
         d="m -175.48386,161.59034 q 0.20671,-0.008 0.2949,-0.11024 0.0882,-0.10473 0.0882,-0.31971 v -0.25907 q 0,-0.226 -0.0992,-0.33073 -0.0992,-0.10473 -0.32246,-0.10473 h -1.02802 q -0.22324,0 -0.32246,0.10473 -0.0992,0.10473 -0.0992,0.33073 v 0.25907 q 0,0.21498 0.0882,0.31971 0.091,0.10197 0.29491,0.11024 z m 0.0165,1.71979 q 0.226,0 0.32522,-0.10473 0.0992,-0.10473 0.0992,-0.32797 v -0.30592 q 0,-0.226 -0.0992,-0.32798 -0.0992,-0.10197 -0.32522,-0.10197 h -1.13826 q -0.226,0 -0.32522,0.10197 -0.0992,0.10198 -0.0992,0.32798 v 0.30592 q 0,0.22324 0.0992,0.32797 0.0992,0.10473 0.32522,0.10473 z m -1.1548,0.55398 q -0.96187,0 -0.96187,-0.95912 v -0.19844 q 0,-0.36931 0.13229,-0.59255 0.13229,-0.22325 0.3831,-0.29766 -0.22324,-0.10473 -0.34176,-0.3197 -0.11575,-0.21773 -0.11575,-0.55122 v -0.0717 q 0,-0.96187 0.95911,-0.96187 h 1.06109 q 0.95912,0 0.95912,0.96187 v 0.0717 q 0,0.33349 -0.11851,0.55122 -0.11576,0.21497 -0.339,0.3197 0.2508,0.0744 0.38309,0.29766 0.1323,0.22324 0.1323,0.59255 v 0.19844 q 0,0.95912 -0.95912,0.95912 z"
         style="font-style:normal;font-variant:normal;font-weight:normal;font-stretch:normal;font-size:5.64444447px;font-family:Aldrich;-inkscape-font-specification:'Aldrich, Normal';font-variant-ligatures:normal;font-variant-caps:normal;font-variant-numeric:normal;font-feature-settings:normal;text-align:start;writing-mode:lr-tb;text-anchor:start;stroke-width:0.26458332px"
         id="path4690"
         inkscape:connector-curvature="0" />
    </g>
    <g
       transform="translate(297.66572,-93.593314)"
       id="text4729"
       style="font-style:normal;font-variant:normal;font-weight:normal;font-stretch:normal;font-size:7.05555534px;line-height:6.61458302px;font-family:Aldrich;-inkscape-font-specification:Aldrich;letter-spacing:0px;word-spacing:0px;fill:#000000;fill-opacity:1;stroke:none;stroke-width:0.26458332px;stroke-linecap:butt;stroke-linejoin:miter;stroke-opacity:1"
       aria-label="USB">
      <path
         inkscape:connector-curvature="0"
         id="path6434"
         style="font-size:4.93888903px;stroke-width:0.26458332px"
         d="m -63.683722,154.149 h 0.494371 v 2.96381 h 1.975073 V 154.149 h 0.494372 v 2.96381 q 0,0.10129 -0.03858,0.19293 -0.03859,0.0892 -0.106109,0.15675 -0.06752,0.0675 -0.159164,0.10611 -0.08923,0.0386 -0.190514,0.0386 h -1.975073 q -0.101286,0 -0.192925,-0.0386 -0.08923,-0.0386 -0.156752,-0.10611 -0.06752,-0.0675 -0.106109,-0.15675 -0.03858,-0.0916 -0.03858,-0.19293 z" />
      <path
         inkscape:connector-curvature="0"
         id="path6436"
         style="font-size:4.93888903px;stroke-width:0.26458332px"
         d="m -59.34049,156.12648 q -0.101286,0 -0.192926,-0.0386 -0.08923,-0.041 -0.156751,-0.10611 -0.06752,-0.0675 -0.106109,-0.15675 -0.03858,-0.0916 -0.03858,-0.19293 v -0.98874 q 0,-0.10129 0.03858,-0.19051 0.03858,-0.0916 0.106109,-0.15676 0.06752,-0.0675 0.156751,-0.10611 0.09164,-0.041 0.192926,-0.041 h 1.67845 q 0.101286,0 0.190514,0.041 0.09164,0.0386 0.159164,0.10611 0.06752,0.0651 0.106109,0.15676 0.03858,0.0892 0.03858,0.19051 h 0.0024 l -0.494371,0.002 -0.0024,-0.002 h -1.67845 v 0.98874 h 1.67845 q 0.101286,0 0.190514,0.0386 0.09164,0.0386 0.159164,0.10611 0.06752,0.0675 0.106109,0.15916 0.03858,0.0892 0.03858,0.19051 v 0.98633 q 0,0.10129 -0.03858,0.19293 -0.03859,0.0892 -0.106109,0.15675 -0.06752,0.0675 -0.159164,0.10611 -0.08923,0.0386 -0.190514,0.0386 h -1.726682 q -0.101285,0 -0.192925,-0.0386 -0.08923,-0.0386 -0.156752,-0.10611 -0.06752,-0.0675 -0.106109,-0.15675 -0.03858,-0.0916 -0.03858,-0.19293 v 0 l 0.49196,-0.005 0.0024,0.005 h 1.726682 v -0.98633 z" />
      <path
         inkscape:connector-curvature="0"
         id="path6438"
         style="font-size:4.93888903px;stroke-width:0.26458332px"
         d="m -54.022985,155.80333 q 0.108521,0.0338 0.197749,0.0965 0.08923,0.0627 0.151928,0.16157 0.0627,0.0965 0.09646,0.2291 0.03376,0.13264 0.03376,0.30386 v 0.17363 q 0,0.83923 -0.839225,0.83923 h -1.89308 v -3.45819 h 1.794205 q 0.839226,0 0.839226,0.84164 v 0.0627 q 0,0.2918 -0.09405,0.47749 -0.09164,0.18328 -0.286977,0.2725 z m -1.767678,0.29663 v 1.0225 h 1.393885 q 0.195337,0 0.282154,-0.0916 0.08682,-0.0916 0.08682,-0.28698 v -0.26768 q 0,-0.19775 -0.08682,-0.28698 -0.08682,-0.0892 -0.282154,-0.0892 z m 0,-1.46624 v 0.98392 h 1.328773 q 0.178456,-0.007 0.255626,-0.0965 0.07958,-0.0916 0.07958,-0.27974 v -0.22669 q 0,-0.19775 -0.08682,-0.28939 -0.08682,-0.0916 -0.282153,-0.0916 z" />
    </g>
    <rect
       style="fill:#000000;fill-opacity:0;stroke:#000000;stroke-width:0.96212125;stroke-linecap:butt;stroke-linejoin:bevel;stroke-miterlimit:4;stroke-dasharray:none;stroke-opacity:1"
       id="rect6564"
       width="24.43788"
       height="24.43788"
       x="288.91974"
       y="10.779265" />
    <g
       transform="translate(315.08103,-127.53255)"
       aria-label="1x1&quot;"
       style="font-style:normal;font-variant:normal;font-weight:normal;font-stretch:normal;font-size:7.05555534px;line-height:6.61458302px;font-family:Aldrich;-inkscape-font-specification:Aldrich;letter-spacing:0px;word-spacing:0px;fill:#000000;fill-opacity:1;stroke:none;stroke-width:0.26458332px;stroke-linecap:butt;stroke-linejoin:miter;stroke-opacity:1"
       id="text6568">
      <path
         inkscape:connector-curvature="0"
         d="m -17.970595,147.06657 v 4.94027 h -0.706244 v -4.23403 h -0.847494 v -0.70624 z"
         style="stroke-width:0.26458332px"
         id="path6570" />
      <path
         inkscape:connector-curvature="0"
         d="m -13.505751,148.33781 -1.333252,1.79145 1.395264,1.87758 h -0.819933 l -0.985297,-1.32637 -0.988743,1.32637 h -0.819933 l 1.398709,-1.87758 -1.333252,-1.79145 h 0.816488 l 0.926731,1.24023 0.923285,-1.24023 z"
         style="stroke-width:0.26458332px"
         id="path6572" />
      <path
         inkscape:connector-curvature="0"
         d="m -11.466255,147.06657 v 4.94027 h -0.706244 v -4.23403 h -0.847494 v -0.70624 z"
         style="stroke-width:0.26458332px"
         id="path6574" />
      <path
         inkscape:connector-curvature="0"
         d="m -9.5059946,149.38167 h -0.468533 l -0.2239314,-1.56752 v -0.74758 h 0.9163956 v 0.74758 z m 1.409044,0 h -0.4650879 l -0.2273763,-1.56752 v -0.74758 h 0.9198405 v 0.74758 z"
         style="stroke-width:0.26458332px"
         id="path6576" />
    </g>
    <path
       inkscape:connector-curvature="0"
       id="face0-cut-0"
       style="fill:none;stroke:#ff0000;stroke-width:0.05;stroke-linecap:round;stroke-linejoin:round;stroke-miterlimit:4;stroke-dasharray:none;stroke-opacity:1"
       d="m 271.30302,72.527579 -0.65257,-0.436032 -0.70389,-0.347124 -0.74319,-0.252279 -0.76976,-0.153113 -0.78316,-0.05133 7e-5,-15.499999 -7.20218,-0.684255 -7.20959,-0.601079 -7.21605,-0.51782 -7.22155,-0.4345 -7.22608,-0.35112 -2.22471,-0.0824 1.6e-4,-2.02885 h -10 v 2.02885 l -2.22455,0.0824 -7.22608,0.35112 -7.22154,0.4345 -7.21606,0.51782 -7.20959,0.601089 -7.20217,0.68425 -7e-5,15.5 -0.78316,0.05133 -0.76975,0.153115 -0.74319,0.252277 -0.7039,0.347125 -0.65257,0.436032 -0.59007,0.517479 -0.51748,0.590072 -0.43603,0.652569 -0.34713,0.703899 -0.25227,0.743187 -0.15312,0.769757 -0.0513,0.783157 v 5.999996 l 0.0257,0.39158 0.0765,0.38488 0.12614,0.37159 0.17356,0.35195 0.21802,0.32629 0.25874,0.29503 0.29504,0.25874 0.32628,0.21802 0.35195,0.17356 0.37159,0.12614 0.38488,0.0766 0.39158,0.0257 v -3 l 0.0341,-0.25882 0.042,-0.12386 0.0579,-0.11732 0.0727,-0.10876 0.0862,-0.0983 0.0983,-0.0862 0.10876,-0.07267 0.11732,-0.05786 0.12386,-0.04205 0.25882,-0.03407 h 0.95588 l 0.59062,0.121953 0.1361,0.06712 0.12857,0.0806 0.11972,0.0932 0.10962,0.10494 0.0984,0.11554 0.0861,0.12493 0.13208,0.27282 1.09877,3.01885 h 83.68824 l 1.11386,-3.06031 0.0566,-0.13387 0.0699,-0.12742 0.0825,-0.11966 0.0942,-0.11065 0.10498,-0.1005 0.11466,-0.0893 0.12314,-0.0772 0.13035,-0.06428 0.13621,-0.0507 0.14066,-0.03659 0.14364,-0.02211 0.14515,-0.0074 h 1 l 0.13053,0.0086 0.12829,0.02552 0.12387,0.04205 0.11731,0.05786 0.10876,0.07267 0.0983,0.0863 0.0863,0.0983 0.0727,0.10876 0.0578,0.11732 0.0421,0.12386 0.0256,0.12824 0.009,0.13053 v 3 l 1.26107,-0.0171 0.25658,-0.051 0.24773,-0.0841 0.23463,-0.11571 0.21753,-0.14534 0.19669,-0.1725 0.17249,-0.19669 0.14535,-0.21752 0.1157,-0.23463 0.0841,-0.24773 0.051,-0.25659 0.0171,-7.26105 -0.0513,-0.783158 -0.15311,-0.769757 -0.25228,-0.743187 -0.34712,-0.703899 -0.43603,-0.652569 -0.51748,-0.590072 -0.59008,-0.517479 m -26.70257,2.98012 h -10.99999 l -0.25882,-0.03407 -0.12387,-0.04205 -0.11731,-0.05785 -0.10877,-0.07267 -0.0983,-0.08625 -0.0863,-0.09835 -0.0727,-0.108761 -0.0579,-0.117317 -0.042,-0.123864 -0.0341,-0.258819 v -7.999999 l 0.0341,-0.258819 0.042,-0.123864 0.0579,-0.117317 0.0727,-0.108761 0.0863,-0.09835 0.0983,-0.08625 0.10877,-0.07267 0.11731,-0.05786 0.12387,-0.04205 0.25882,-0.03407 h 10.99999 l 0.25883,0.03407 0.12386,0.04205 0.11732,0.05786 0.10876,0.07267 0.0983,0.08625 0.0863,0.09835 0.0727,0.108761 0.0578,0.117317 0.0421,0.123864 0.0341,0.25882 v 7.999999 l -0.0341,0.258819 -0.0421,0.123864 -0.0578,0.117317 -0.0727,0.108761 -0.0863,0.09835 -0.0983,0.08625 -0.10877,0.07267 -0.11731,0.05785 -0.12387,0.04205 -0.25882,0.03407 m -10.81666,4.78 h 10 v 3 h -10 v -3 m -18.86667,3 h -10 v -3 h 10 v 3" />
  </g>
  <g
     transform="matrix(0.08909041,0,0,-0.07045169,-67.202839,144.96593)"
     inkscape:label="IllustratorTemp"
     id="g4744">
    <g
       transform="translate(922.168,1146.2148)"
       id="g4746">
      <path
         inkscape:connector-curvature="0"
         id="path4748"
         style="fill:none;stroke:#231f20;stroke-width:10.01895809;stroke-linecap:butt;stroke-linejoin:round;stroke-miterlimit:10;stroke-dasharray:none;stroke-opacity:1"
         d="m 0,0 h 6.664 6.25 6.668 6.664 l 6.25,201.566 h 6.668 6.25 6.668 6.664 l 6.25,39.332 h 6.668 6.668 6.25 6.664 l 6.25,-89.722 h 6.668 6.668 6.25 6.664 l 6.668,-121.063 h 6.25 6.668 6.25 6.664 l 6.668,103.547 h 6.25 6.668 6.25 6.664 l 6.668,-81.73 h 6.25 6.668 6.664 6.25 l 6.668,-117.993 h 6.25 6.668 6.664 6.25 l 6.668,-97.097 h 6.668 6.25 6.664 6.25 l 6.668,-79.887 h 6.668 6.25 6.664 6.668 l 6.25,196.031 h 6.668 m 0,0 h 6.25 6.664 6.668 l 6.25,122.914 h 6.668 6.25 6.664 6.668 l 6.25,-7.07 h 6.668 6.664 6.25 6.668 l 6.25,115.227 h 6.668 6.664 6.25 6.668 l 6.668,-96.176 h 6.25 6.664 6.25 6.668 l 6.668,-39.637 h 6.25 6.664 6.25 6.668 l 6.668,95.25 h 6.25 6.664 6.668 6.25 l 6.668,67.602 h 6.25 6.664 6.668 6.25 l 6.668,16.285 h 6.664 6.25 6.668 6.25 l 6.668,14.137 h 6.664 6.25 6.668 6.668 l 6.25,108.461 h 6.664 6.25 6.668 6.668 l 6.25,-113.993 h 6.664 6.25 6.668 6.668 l 6.25,16.594 h 6.664 6.668 6.25 6.668 l 6.25,-226.461 h 6.664 6.668 6.25 6.668 l 6.664,58.688 h 6.25 6.672 6.25 6.664 l 6.664,12.906 h 6.25 6.672 6.25 6.664 l 6.664,109.695 h 6.25 6.672 6.664 6.25 l 6.664,56.231 h 6.25 6.672 6.664 6.25 l 6.664,-3.075 h 6.672 6.25 6.664 6.25 l 6.664,78.969 h 6.672 6.25 6.664 6.664 l 6.25,34.414 m -3.20427,-3.65987 9.87627,3.65987 h 6.25 6.664 6.664 l 6.25,-101.09 h 6.672 6.25 6.664 6.664 l 6.25,-35.949 h 6.672 6.664 6.25 6.664 l 6.25,282.071 h 6.672 6.664 6.25 6.664 l 6.672,-40.254 h 6.25 6.664 6.25 6.664 l 6.672,134.894 h 6.25 6.664 6.25 6.664 l 6.672,-131.203 h 6.25 6.664 6.664 6.25 l 6.672,-43.328 h 6.25 6.664 6.664 6.25 l 6.672,-12.902 h 6.664 6.25 6.664 6.25 l 6.672,-135.2 h 6.664 6.25 6.664 6.672 l 6.25,91.258 h 6.664 6.25 6.664 6.672 l 6.25,83.27 h 6.664 6.25 6.664 6.672 l 6.25,-181.903 h 6.664 6.664 6.25 6.672 l 6.25,40.559 h 6.664 6.664 6.25 6.672 l 6.664,-141.957 h 6.25 6.664 6.25 6.668 l 6.668,0.305 h 6.25 6.664 6.25 6.668 l 6.668,-80.5 h 6.25 6.664 6.668 6.25 l 6.668,57.148 h 6.25 6.664 6.668 6.25 l 6.668,-1.844 h 6.664 6.25 6.668 6.25 l 6.668,19.973 h 6.664 6.25 6.668 6.668"
         sodipodi:nodetypes="cccccccccccccccccccccccccccccccccccccccccccccccccccccccccccccccccccccccccccccccccccccccccccccccccccccccccccccccccccccccccccccccccccccccccccccccccccccccccccccccccccccccccccccccccccccccccccccccccccccccccccccccccccccccccccccccccccccccccccccccccccccccccccc" />
    </g>
  </g>
  <g
     aria-label="Bpod Analog"
     style="font-style:normal;font-variant:normal;font-weight:normal;font-stretch:normal;font-size:9.8777771px;line-height:6.61458302px;font-family:Aldrich;-inkscape-font-specification:Aldrich;letter-spacing:0px;word-spacing:0px;fill:#000000;fill-opacity:1;stroke:none;stroke-width:0.26458332px;stroke-linecap:butt;stroke-linejoin:miter;stroke-opacity:1"
     id="text4759">
    <path
       d="m 27.166856,23.227637 q 0.217041,0.06752 0.395497,0.192925 0.178456,0.125402 0.303858,0.32315 0.125401,0.192925 0.192925,0.458198 0.06752,0.265272 0.06752,0.607714 v 0.347266 q 0,1.67845 -1.67845,1.67845 h -3.78616 v -6.916373 h 3.588411 q 1.678451,0 1.678451,1.683274 v 0.125401 q 0,0.583599 -0.188103,0.954981 -0.183279,0.366558 -0.573953,0.545014 z M 23.6315,23.820882 v 2.045009 h 2.787771 q 0.390674,0 0.564306,-0.183279 0.173633,-0.183279 0.173633,-0.573953 v -0.535368 q 0,-0.395497 -0.173633,-0.573953 -0.173632,-0.178456 -0.564306,-0.178456 z m 0,-2.932465 v 1.967838 h 2.657546 q 0.356912,-0.01447 0.511252,-0.192925 0.159164,-0.183279 0.159164,-0.559483 v -0.453375 q 0,-0.395497 -0.173633,-0.578776 -0.173633,-0.183279 -0.564307,-0.183279 z"
       style="stroke-width:0.26458332px"
       id="path4765" />
    <path
       d="m 34.054291,25.885183 q 0,0.197749 -0.07717,0.371381 -0.07235,0.173633 -0.202572,0.303858 -0.125401,0.125401 -0.299034,0.202571 -0.173633,0.07235 -0.371381,0.07235 h -2.647901 v 2.073948 h -0.945334 v -7.210585 h 0.945334 v 0.868164 q 0.01447,-0.183279 0.09646,-0.337619 0.08199,-0.159163 0.207395,-0.274918 0.125401,-0.120579 0.289388,-0.188103 0.168809,-0.06752 0.356912,-0.06752 h 1.697743 q 0.197748,0 0.371381,0.07717 0.173633,0.07235 0.299034,0.202571 0.130225,0.125402 0.202572,0.299034 0.07717,0.173633 0.07717,0.371382 z m -0.950157,0 v -3.236322 h -2.647901 v 3.236322 z"
       style="stroke-width:0.26458332px"
       id="path4767" />
    <path
       d="m 40.088031,25.885183 q 0,0.197749 -0.07717,0.371381 -0.07235,0.173633 -0.202571,0.303858 -0.125402,0.125401 -0.299034,0.202571 -0.16881,0.07235 -0.366559,0.07235 h -2.551437 q -0.192925,0 -0.366558,-0.07235 -0.173633,-0.07717 -0.303858,-0.202571 -0.125401,-0.130225 -0.202571,-0.303858 -0.07235,-0.173632 -0.07235,-0.371381 v -3.236322 q 0,-0.197749 0.07235,-0.371382 0.07717,-0.173632 0.202571,-0.299034 0.130225,-0.130224 0.303858,-0.202571 0.173633,-0.07717 0.366558,-0.07717 h 2.551437 q 0.197749,0 0.366559,0.07717 0.173632,0.07235 0.299034,0.202571 0.130224,0.125402 0.202571,0.299034 0.07717,0.173633 0.07717,0.371382 z m -3.496772,-3.236322 v 3.236322 h 2.551437 v -3.236322 z"
       style="stroke-width:0.26458332px"
       id="path4769" />
    <path
       d="m 41.665195,22.648861 q 0,-0.197749 0.07235,-0.371382 0.07717,-0.173632 0.202571,-0.299034 0.130225,-0.130224 0.303858,-0.202571 0.173632,-0.07717 0.366558,-0.07717 h 2.6479 v -1.977484 h 0.950157 v 7.114121 h -0.950157 v -0.868164 q -0.01447,0.178456 -0.09646,0.33762 -0.08199,0.159163 -0.212217,0.279742 -0.125402,0.115755 -0.289388,0.183279 -0.163987,0.06752 -0.347266,0.06752 h -1.702566 q -0.192926,0 -0.366558,-0.07235 -0.173633,-0.07717 -0.303858,-0.202571 -0.125401,-0.130225 -0.202571,-0.303858 -0.07235,-0.173632 -0.07235,-0.371381 z m 0.945334,3.236322 h 2.6479 v -3.236322 h -2.6479 z"
       style="stroke-width:0.26458332px"
       id="path4771" />
    <path
       d="m 53.930424,19.918967 2.667193,6.916373 h -0.988742 l -0.612538,-1.591634 h -3.120568 l -0.612538,1.591634 h -0.988742 l 2.667193,-6.916373 z m -1.67845,4.335997 h 2.363335 l -1.176844,-3.04822 z"
       style="stroke-width:0.26458332px"
       id="path4773" />
    <path
       d="m 62.240681,26.83534 h -0.950157 v -4.186479 h -2.6479 V 26.83534 H 57.69729 v -5.136637 h 0.945334 l 0.07717,0.0048 q 0.08682,0 0.130225,0 0.04341,-0.0048 0.125401,-0.0048 0.08199,0 0.250803,0 0.173633,0 0.366558,0 h 1.697743 q 0.197748,0 0.371381,0.07717 0.173633,0.07235 0.299035,0.202571 0.130224,0.125402 0.202571,0.299034 0.07717,0.173633 0.07717,0.371382 z"
       style="stroke-width:0.26458332px"
       id="path4775" />
    <path
       d="m 63.832315,24.592583 q 0,-0.197748 0.07235,-0.366558 0.07717,-0.173632 0.202571,-0.303857 0.130225,-0.130225 0.303858,-0.202572 0.173632,-0.07717 0.366558,-0.07717 h 2.450152 v -0.993565 h -3.101275 v -0.950158 h 3.101275 q 0.197748,0 0.371381,0.07717 0.173633,0.07235 0.299034,0.202571 0.130225,0.125402 0.202572,0.299034 0.07717,0.173633 0.07717,0.371382 v 4.186479 h -0.950157 l 0.130224,0.0096 q -0.125401,0.0096 -0.226687,0.0048 -0.09646,-0.0048 -0.226687,-0.0096 -0.125402,-0.0048 -0.284565,-0.0048 -0.154341,0 -0.33762,0 h -1.504817 q -0.192926,0 -0.366558,-0.07235 -0.173633,-0.07717 -0.303858,-0.202571 -0.125401,-0.130225 -0.202571,-0.303858 -0.07235,-0.173632 -0.07235,-0.371381 z m 0.945334,1.2926 h 2.450152 v -1.2926 h -2.450152 z"
       style="stroke-width:0.26458332px"
       id="path4777" />
    <path
       d="M 70.700458,19.721219 V 26.83534 H 69.755124 V 19.721219 Z"
       style="stroke-width:0.26458332px"
       id="path4779" />
    <path
       d="m 76.724551,25.885183 q 0,0.197749 -0.07717,0.371381 -0.07235,0.173633 -0.202572,0.303858 -0.125401,0.125401 -0.299034,0.202571 -0.16881,0.07235 -0.366558,0.07235 h -2.551438 q -0.192925,0 -0.366558,-0.07235 -0.173633,-0.07717 -0.303857,-0.202571 -0.125402,-0.130225 -0.202572,-0.303858 -0.07235,-0.173632 -0.07235,-0.371381 v -3.236322 q 0,-0.197749 0.07235,-0.371382 0.07717,-0.173632 0.202572,-0.299034 0.130224,-0.130224 0.303857,-0.202571 0.173633,-0.07717 0.366558,-0.07717 h 2.551438 q 0.197748,0 0.366558,0.07717 0.173633,0.07235 0.299034,0.202571 0.130225,0.125402 0.202572,0.299034 0.07717,0.173633 0.07717,0.371382 z m -3.496772,-3.236322 v 3.236322 h 2.551438 v -3.236322 z"
       style="stroke-width:0.26458332px"
       id="path4781" />
    <path
       d="m 78.301717,22.648861 q 0,-0.197749 0.07235,-0.371382 0.07717,-0.173632 0.202572,-0.299034 0.130224,-0.130224 0.303857,-0.202571 0.173633,-0.07717 0.366558,-0.07717 h 1.702566 q 0.188102,0 0.356912,0.07235 0.16881,0.06752 0.294211,0.192926 0.130225,0.120578 0.207395,0.289388 0.08199,0.163986 0.08682,0.352089 v -0.90675 h 0.950158 v 6.260428 q 0,0.197748 -0.07717,0.371381 -0.07235,0.173633 -0.202571,0.299034 -0.125402,0.130225 -0.299034,0.202572 -0.173633,0.07717 -0.371382,0.07717 h -2.999989 v -0.950157 h 2.999989 v -1.321539 h -2.6479 q -0.192925,0 -0.366558,-0.07235 -0.173633,-0.07717 -0.303857,-0.202572 -0.125402,-0.130224 -0.202572,-0.303857 -0.07235,-0.173633 -0.07235,-0.371381 z m 3.593234,3.038574 v -3.038574 h -2.6479 v 3.038574 z"
       style="stroke-width:0.26458332px"
       id="path4783" />
  </g>
  <g
     aria-label="Output Module"
     style="font-style:normal;font-variant:normal;font-weight:normal;font-stretch:normal;font-size:9.8777771px;line-height:6.61458302px;font-family:Aldrich;-inkscape-font-specification:Aldrich;letter-spacing:0px;word-spacing:0px;fill:#000000;fill-opacity:1;stroke:none;stroke-width:0.26458332px;stroke-linecap:butt;stroke-linejoin:miter;stroke-opacity:1"
     id="text4763">
    <path
       d="m 82.453141,82.002118 q 0,0.202571 -0.07717,0.38585 -0.07717,0.178456 -0.212218,0.313504 -0.135047,0.135048 -0.318326,0.212218 -0.178456,0.07717 -0.381028,0.07717 h -3.950146 q -0.202572,0 -0.385851,-0.07717 -0.178456,-0.07717 -0.313504,-0.212218 -0.135047,-0.135048 -0.212217,-0.313504 -0.07717,-0.183279 -0.07717,-0.38585 v -4.938889 q 0,-0.202572 0.07717,-0.381027 0.07717,-0.18328 0.212217,-0.313504 0.135048,-0.135048 0.313504,-0.212218 0.183279,-0.08199 0.385851,-0.08199 h 3.950146 q 0.202572,0 0.381028,0.08199 0.183279,0.07717 0.318326,0.212218 0.135048,0.130224 0.212218,0.313504 0.07717,0.178455 0.07717,0.381027 z m -4.938888,-4.938889 v 4.938889 h 3.950146 v -4.938889 z"
       style="stroke-width:0.26458332px"
       id="path4786" />
    <path
       d="m 84.126769,77.854223 h 0.945334 v 4.18648 h 2.6479 v -4.18648 h 0.950157 v 5.136637 h -0.950157 v -0.868164 q -0.01447,0.178456 -0.09646,0.337619 -0.08199,0.159164 -0.212217,0.279742 -0.125402,0.115755 -0.289388,0.183279 -0.163987,0.06752 -0.347266,0.06752 h -1.702566 q -0.192925,0 -0.366558,-0.07235 -0.173633,-0.07717 -0.303858,-0.202572 -0.125401,-0.130224 -0.202571,-0.303857 -0.07235,-0.173633 -0.07235,-0.371381 z"
       style="stroke-width:0.26458332px"
       id="path4788" />
    <path
       d="m 89.96276,77.854223 h 1.254015 v -1.581988 h 0.950157 v 1.581988 h 1.688097 v 0.950157 h -1.688097 v 3.236323 h 1.688097 v 0.950157 h -1.688097 q -0.192925,0 -0.366558,-0.07235 -0.173633,-0.07717 -0.303858,-0.202572 -0.130224,-0.130224 -0.207394,-0.303857 -0.07235,-0.173633 -0.07235,-0.371381 V 78.80438 H 89.96276 Z"
       style="stroke-width:0.26458332px"
       id="path4790" />
    <path
       d="m 99.975585,82.040703 q 0,0.197748 -0.07717,0.371381 -0.07235,0.173633 -0.202571,0.303857 -0.125402,0.125402 -0.299034,0.202572 -0.173633,0.07235 -0.371382,0.07235 h -2.6479 v 2.073947 h -0.945334 v -7.210584 h 0.945334 v 0.868164 q 0.01447,-0.183279 0.09646,-0.337619 0.08199,-0.159164 0.207395,-0.274919 0.125401,-0.120578 0.289388,-0.188102 0.168809,-0.06752 0.356911,-0.06752 h 1.697743 q 0.197749,0 0.371382,0.07717 0.173632,0.07235 0.299034,0.202572 0.130224,0.125401 0.202571,0.299034 0.07717,0.173633 0.07717,0.371381 z m -0.950158,0 V 78.80438 h -2.6479 v 3.236323 z"
       style="stroke-width:0.26458332px"
       id="path4792" />
    <path
       d="m 101.56722,77.854223 h 0.94533 v 4.18648 h 2.6479 v -4.18648 h 0.95016 v 5.136637 h -0.95016 v -0.868164 q -0.0145,0.178456 -0.0965,0.337619 -0.082,0.159164 -0.21222,0.279742 -0.1254,0.115755 -0.28939,0.183279 -0.16398,0.06752 -0.34726,0.06752 h -1.70257 q -0.19292,0 -0.36656,-0.07235 -0.17363,-0.07717 -0.30385,-0.202572 -0.1254,-0.130224 -0.20257,-0.303857 -0.0724,-0.173633 -0.0724,-0.371381 z"
       style="stroke-width:0.26458332px"
       id="path4794" />
    <path
       d="m 107.40321,77.854223 h 1.25402 v -1.581988 h 0.95015 v 1.581988 h 1.6881 v 0.950157 h -1.6881 v 3.236323 h 1.6881 v 0.950157 h -1.6881 q -0.19292,0 -0.36656,-0.07235 -0.17363,-0.07717 -0.30385,-0.202572 -0.13023,-0.130224 -0.2074,-0.303857 -0.0723,-0.173633 -0.0723,-0.371381 V 78.80438 h -1.25402 z"
       style="stroke-width:0.26458332px"
       id="path4796" />
    <path
       d="m 119.50928,82.99086 -2.58038,-5.069113 v 5.069113 h -0.98874 v -6.916373 h 1.08038 l 2.63343,5.208984 2.63825,-5.208984 h 1.07556 v 6.916373 h -0.98392 v -5.069113 l -2.58037,5.069113 z"
       style="stroke-width:0.26458332px"
       id="path4798" />
    <path
       d="m 129.48834,82.040703 q 0,0.197748 -0.0772,0.371381 -0.0724,0.173633 -0.20257,0.303857 -0.12541,0.125402 -0.29904,0.202572 -0.16881,0.07235 -0.36656,0.07235 h -2.55143 q -0.19293,0 -0.36656,-0.07235 -0.17364,-0.07717 -0.30386,-0.202572 -0.1254,-0.130224 -0.20257,-0.303857 -0.0724,-0.173633 -0.0724,-0.371381 V 78.80438 q 0,-0.197748 0.0724,-0.371381 0.0772,-0.173633 0.20257,-0.299034 0.13022,-0.130225 0.30386,-0.202572 0.17363,-0.07717 0.36656,-0.07717 h 2.55143 q 0.19775,0 0.36656,0.07717 0.17363,0.07235 0.29904,0.202572 0.13022,0.125401 0.20257,0.299034 0.0772,0.173633 0.0772,0.371381 z m -3.49677,-3.236323 v 3.236323 H 128.543 V 78.80438 Z"
       style="stroke-width:0.26458332px"
       id="path4800" />
    <path
       d="m 131.0655,78.80438 q 0,-0.197748 0.0724,-0.371381 0.0772,-0.173633 0.20257,-0.299034 0.13023,-0.130225 0.30386,-0.202572 0.17363,-0.07717 0.36656,-0.07717 h 2.6479 v -1.977485 h 0.95015 v 7.114122 h -0.95015 v -0.868164 q -0.0145,0.178456 -0.0965,0.337619 -0.082,0.159164 -0.21221,0.279742 -0.1254,0.115755 -0.28939,0.183279 -0.16399,0.06752 -0.34727,0.06752 h -1.70256 q -0.19293,0 -0.36656,-0.07235 -0.17363,-0.07717 -0.30386,-0.202572 -0.1254,-0.130224 -0.20257,-0.303857 -0.0724,-0.173633 -0.0724,-0.371381 z m 0.94534,3.236323 h 2.6479 V 78.80438 h -2.6479 z"
       style="stroke-width:0.26458332px"
       id="path4802" />
    <path
       d="m 137.20053,77.854223 h 0.94533 v 4.18648 h 2.6479 v -4.18648 h 0.95016 v 5.136637 h -0.95016 v -0.868164 q -0.0145,0.178456 -0.0965,0.337619 -0.082,0.159164 -0.21222,0.279742 -0.1254,0.115755 -0.28939,0.183279 -0.16398,0.06752 -0.34726,0.06752 h -1.70257 q -0.19292,0 -0.36656,-0.07235 -0.17363,-0.07717 -0.30385,-0.202572 -0.1254,-0.130224 -0.20257,-0.303857 -0.0724,-0.173633 -0.0724,-0.371381 z"
       style="stroke-width:0.26458332px"
       id="path4804" />
    <path
       d="m 144.28088,75.876738 v 7.114122 h -0.94533 v -7.114122 z"
       style="stroke-width:0.26458332px"
       id="path4806" />
    <path
       d="m 150.20852,80.907266 h -3.40031 v 1.133437 h 3.40031 v 0.950157 h -3.40031 q -0.19292,0 -0.36656,-0.07235 -0.17363,-0.07717 -0.30385,-0.202572 -0.1254,-0.130224 -0.20257,-0.303857 -0.0724,-0.173633 -0.0724,-0.371381 V 78.80438 q 0,-0.197748 0.0724,-0.371381 0.0772,-0.173633 0.20257,-0.299034 0.13022,-0.130225 0.30385,-0.202572 0.17364,-0.07717 0.36656,-0.07717 h 2.45015 q 0.19775,0 0.37139,0.07717 0.17363,0.07235 0.29903,0.202572 0.13022,0.125401 0.20257,0.299034 0.0772,0.173633 0.0772,0.371381 z m -3.40031,-2.102886 v 1.152729 h 2.45015 V 78.80438 Z"
       style="stroke-width:0.26458332px"
       id="path4808" />
  </g>
</svg>
