solid Mousebox_v2
facet normal -4.96314100928431e-14 1.0 -8.20353885832116e-15
  outer loop
    vertex 12.195691232199186 459.6971482930672 19.99999999999993
    vertex 17.195691232199177 459.69714829306747 25.49999999999992
    vertex 17.195691232199177 459.69714829306747 19.999999999999925
  endloop
endfacet
facet normal -4.96314100928431e-14 1.0 -8.20353885832116e-15
  outer loop
    vertex 17.195691232199177 459.69714829306747 25.49999999999992
    vertex 12.195691232199186 459.6971482930672 19.99999999999993
    vertex 12.195691232199186 459.6971482930673 25.49999999999993
  endloop
endfacet
facet normal -2.1149748619109272e-15 1.5912838456515282e-29 -1.0
  outer loop
    vertex 10.54569123219883 442.00000000000074 13.999999999999927
    vertex 18.84569123219872 446.3978393858209 13.99999999999991
    vertex 18.84569123219884 442.00000000000034 13.99999999999991
  endloop
endfacet
facet normal -2.1149748619109272e-15 1.5912838456515282e-29 -1.0
  outer loop
    vertex 18.84569123219872 446.3978393858209 13.99999999999991
    vertex 10.54569123219883 442.00000000000074 13.999999999999927
    vertex 10.545691232198713 446.39783938582127 13.999999999999927
  endloop
endfacet
facet normal -1.0 3.251951741613712e-14 -3.4859450864861125e-16
  outer loop
    vertex 9.195691232198802 441.20000000000084 19.999999999999936
    vertex 9.195691232199298 456.6971482930674 25.499999999999943
    vertex 9.195691232199298 456.6971482930674 19.999999999999936
  endloop
endfacet
facet normal -1.0 3.251951741613712e-14 -3.4859450864861125e-16
  outer loop
    vertex 9.195691232199298 456.6971482930674 25.499999999999943
    vertex 9.195691232198802 441.20000000000084 19.999999999999936
    vertex 9.195691232198874 443.2000000000003 25.500000000000146
  endloop
endfacet
facet normal -1.0 3.251951741613712e-14 -3.4859450864861125e-16
  outer loop
    vertex 9.195691232198874 443.2000000000003 25.500000000000146
    vertex 9.195691232198802 441.20000000000084 19.999999999999936
    vertex 9.195691232198865 442.809819355968 25.46157056080659
  endloop
endfacet
facet normal -1.0 3.251951741613712e-14 -3.4859450864861125e-16
  outer loop
    vertex 9.195691232198865 442.809819355968 25.46157056080659
    vertex 9.195691232198802 441.20000000000084 19.999999999999936
    vertex 9.195691232198833 442.43463313527013 25.347759065022682
  endloop
endfacet
facet normal -1.0 3.251951741613712e-14 -3.4859450864861125e-16
  outer loop
    vertex 9.195691232198833 442.43463313527013 25.347759065022682
    vertex 9.195691232198802 441.20000000000084 19.999999999999936
    vertex 9.195691232198847 442.088859533961 25.162939224605186
  endloop
endfacet
facet normal -1.0 3.251951741613712e-14 -3.4859450864861125e-16
  outer loop
    vertex 9.195691232198847 442.088859533961 25.162939224605186
    vertex 9.195691232198802 441.20000000000084 19.999999999999936
    vertex 9.195691232198703 441.78578643762717 24.91421356237318
  endloop
endfacet
facet normal -1.0 3.251951741613712e-14 -3.4859450864861125e-16
  outer loop
    vertex 9.195691232198703 441.78578643762717 24.91421356237318
    vertex 9.195691232198802 441.20000000000084 19.999999999999936
    vertex 9.195691232198788 441.53706077539516 24.611140466039277
  endloop
endfacet
facet normal -1.0 3.251951741613712e-14 -3.4859450864861125e-16
  outer loop
    vertex 9.195691232198788 441.53706077539516 24.611140466039277
    vertex 9.195691232198802 441.20000000000084 19.999999999999936
    vertex 9.195691232198806 441.35224093497766 24.26536686473025
  endloop
endfacet
facet normal -1.0 3.251951741613712e-14 -3.4859450864861125e-16
  outer loop
    vertex 9.195691232198806 441.35224093497766 24.26536686473025
    vertex 9.195691232198802 441.20000000000084 19.999999999999936
    vertex 9.195691232198802 441.2384294391938 23.89018064403232
  endloop
endfacet
facet normal -1.0 3.251951741613712e-14 -3.4859450864861125e-16
  outer loop
    vertex 9.195691232198802 441.2384294391938 23.89018064403232
    vertex 9.195691232198802 441.20000000000084 19.999999999999936
    vertex 9.195691232198802 441.2000000000003 23.500000000000057
  endloop
endfacet
facet normal 0.06540312922998874 0.9978589232386137 -8.186051667800542e-15
  outer loop
    vertex 17.195691232199177 459.69714829306747 25.49999999999992
    vertex 17.587269808859322 459.67148287718896 19.999999999999925
    vertex 17.195691232199177 459.69714829306747 19.999999999999925
  endloop
endfacet
facet normal 0.06540312922998874 0.9978589232386137 -8.186051667800542e-15
  outer loop
    vertex 17.587269808859322 459.67148287718896 19.999999999999925
    vertex 17.195691232199177 459.69714829306747 25.49999999999992
    vertex 17.587269808859322 459.67148287718896 25.49999999999992
  endloop
endfacet
facet normal 0.19509032201731408 0.9807852804029946 -8.045571938176583e-15
  outer loop
    vertex 17.587269808859322 459.67148287718896 19.999999999999925
    vertex 17.972148367506733 459.59492577193424 25.49999999999992
    vertex 17.972148367506733 459.5949257719342 19.99999999999992
  endloop
endfacet
facet normal 0.19509032201731408 0.9807852804029946 -8.045571938176583e-15
  outer loop
    vertex 17.972148367506733 459.59492577193424 25.49999999999992
    vertex 17.587269808859322 459.67148287718896 19.999999999999925
    vertex 17.587269808859322 459.67148287718896 25.49999999999992
  endloop
endfacet
facet normal 0.32143946530333206 0.9469301294950478 -7.768798795272707e-15
  outer loop
    vertex 17.972148367506733 459.59492577193424 25.49999999999992
    vertex 18.34374152929462 459.46878689060077 19.99999999999992
    vertex 17.972148367506733 459.5949257719342 19.99999999999992
  endloop
endfacet
facet normal 0.32143946530333206 0.9469301294950478 -7.768798795272707e-15
  outer loop
    vertex 18.34374152929462 459.46878689060077 19.99999999999992
    vertex 17.972148367506733 459.59492577193424 25.49999999999992
    vertex 18.34374152929462 459.4687868906008 25.49999999999992
  endloop
endfacet
facet normal 0.4422886902188915 0.8968727415327427 -7.358118256991145e-15
  outer loop
    vertex 18.34374152929462 459.4687868906008 25.49999999999992
    vertex 18.695691232199344 459.2952245044202 19.99999999999992
    vertex 18.34374152929462 459.46878689060077 19.99999999999992
  endloop
endfacet
facet normal 0.4422886902188915 0.8968727415327427 -7.358118256991145e-15
  outer loop
    vertex 18.695691232199344 459.2952245044202 19.99999999999992
    vertex 18.34374152929462 459.4687868906008 25.49999999999992
    vertex 18.695691232199344 459.29522450442033 25.49999999999992
  endloop
endfacet
facet normal 0.5555702330199809 0.8314696123022924 -6.819615632016398e-15
  outer loop
    vertex 18.695691232199344 459.29522450442033 25.49999999999992
    vertex 19.021975519225087 459.0772083139407 19.99999999999992
    vertex 18.695691232199344 459.2952245044202 19.99999999999992
  endloop
endfacet
facet normal 0.5555702330199809 0.8314696123022924 -6.819615632016398e-15
  outer loop
    vertex 19.021975519225087 459.0772083139407 19.99999999999992
    vertex 18.695691232199344 459.29522450442033 25.49999999999992
    vertex 19.021975519225087 459.07720831394073 25.49999999999992
  endloop
endfacet
facet normal 0.6593458150997611 0.7518398074792474 -6.168239882384465e-15
  outer loop
    vertex 19.021975519225087 459.07720831394073 25.49999999999992
    vertex 19.31701157575878 458.8184686366267 19.99999999999992
    vertex 19.021975519225087 459.0772083139407 19.99999999999992
  endloop
endfacet
facet normal 0.6593458150997611 0.7518398074792474 -6.168239882384465e-15
  outer loop
    vertex 19.31701157575878 458.8184686366267 19.99999999999992
    vertex 19.021975519225087 459.07720831394073 25.49999999999992
    vertex 19.31701157575878 458.81846863662673 25.49999999999992
  endloop
endfacet
facet normal 0.751839807478791 0.6593458151002815 -5.4094011949441886e-15
  outer loop
    vertex 19.57575125307302 458.5234325800932 25.49999999999992
    vertex 19.31701157575878 458.8184686366267 19.99999999999992
    vertex 19.31701157575878 458.81846863662673 25.49999999999992
  endloop
endfacet
facet normal 0.751839807478791 0.6593458151002815 -5.4094011949441886e-15
  outer loop
    vertex 19.31701157575878 458.8184686366267 19.99999999999992
    vertex 19.57575125307302 458.5234325800932 25.49999999999992
    vertex 19.57575125307302 458.5234325800932 19.99999999999992
  endloop
endfacet
facet normal 0.831469612303081 0.5555702330188004 -4.558006153281243e-15
  outer loop
    vertex 19.793767443552216 458.1971482930669 25.49999999999992
    vertex 19.57575125307302 458.5234325800932 19.99999999999992
    vertex 19.57575125307302 458.5234325800932 25.49999999999992
  endloop
endfacet
facet normal 0.831469612303081 0.5555702330188004 -4.558006153281243e-15
  outer loop
    vertex 19.57575125307302 458.5234325800932 19.99999999999992
    vertex 19.793767443552216 458.1971482930669 25.49999999999992
    vertex 19.793767443552216 458.1971482930669 19.99999999999992
  endloop
endfacet
facet normal 0.896872741532503 0.4422886902193773 -3.62862236263548e-15
  outer loop
    vertex 19.96732982973299 457.84519859016217 25.49999999999992
    vertex 19.793767443552216 458.1971482930669 19.99999999999992
    vertex 19.793767443552216 458.1971482930669 25.49999999999992
  endloop
endfacet
facet normal 0.896872741532503 0.4422886902193773 -3.62862236263548e-15
  outer loop
    vertex 19.793767443552216 458.1971482930669 19.99999999999992
    vertex 19.96732982973299 457.84519859016217 25.49999999999992
    vertex 19.96732982973299 457.84519859016217 19.99999999999992
  endloop
endfacet
facet normal 0.9469301294950069 0.32143946530345263 -2.6364085588896436e-15
  outer loop
    vertex 20.093468711066507 457.4736054283743 25.49999999999992
    vertex 19.96732982973299 457.84519859016217 19.99999999999992
    vertex 19.96732982973299 457.84519859016217 25.49999999999992
  endloop
endfacet
facet normal 0.9469301294950069 0.32143946530345263 -2.6364085588896436e-15
  outer loop
    vertex 19.96732982973299 457.84519859016217 19.99999999999992
    vertex 20.093468711066507 457.4736054283743 25.49999999999992
    vertex 20.093468711066507 457.4736054283743 19.99999999999992
  endloop
endfacet
facet normal 0.9807852804034105 0.19509032201522328 -1.6005589128835052e-15
  outer loop
    vertex 20.170025816320308 457.08872686972705 25.49999999999992
    vertex 20.093468711066507 457.4736054283743 19.99999999999992
    vertex 20.093468711066507 457.4736054283743 25.49999999999992
  endloop
endfacet
facet normal 0.9807852804034105 0.19509032201522328 -1.6005589128835052e-15
  outer loop
    vertex 20.093468711066507 457.4736054283743 19.99999999999992
    vertex 20.170025816320308 457.08872686972705 25.49999999999992
    vertex 20.170025816320308 457.08872686972705 19.99999999999992
  endloop
endfacet
facet normal 0.9978589232385427 0.06540312923107261 -5.364287472298541e-16
  outer loop
    vertex 20.195691232199277 456.6971482930669 25.49999999999992
    vertex 20.170025816320308 457.08872686972705 19.99999999999992
    vertex 20.170025816320308 457.08872686972705 25.49999999999992
  endloop
endfacet
facet normal 0.9978589232385427 0.06540312923107261 -5.364287472298541e-16
  outer loop
    vertex 20.170025816320308 457.08872686972705 19.99999999999992
    vertex 20.195691232199277 456.6971482930669 25.49999999999992
    vertex 20.195691232199277 456.6971482930669 19.99999999999992
  endloop
endfacet
facet normal -0.9978589232386627 0.06540312922924081 -5.364287472148284e-16
  outer loop
    vertex 9.195691232199298 456.6971482930674 19.999999999999936
    vertex 9.221356648077478 457.08872686972757 25.499999999999943
    vertex 9.221356648077478 457.08872686972757 19.999999999999936
  endloop
endfacet
facet normal -0.9978589232386627 0.06540312922924081 -5.364287472148284e-16
  outer loop
    vertex 9.221356648077478 457.08872686972757 25.499999999999943
    vertex 9.195691232199298 456.6971482930674 19.999999999999936
    vertex 9.195691232199298 456.6971482930674 25.499999999999943
  endloop
endfacet
facet normal -0.9807852804030452 0.19509032201705956 -1.6005589128985707e-15
  outer loop
    vertex 9.221356648077478 457.08872686972757 19.999999999999936
    vertex 9.297913753332107 457.4736054283749 25.499999999999943
    vertex 9.297913753332107 457.4736054283749 19.999999999999936
  endloop
endfacet
facet normal -0.9807852804030452 0.19509032201705956 -1.6005589128985707e-15
  outer loop
    vertex 9.297913753332107 457.4736054283749 25.499999999999943
    vertex 9.221356648077478 457.08872686972757 19.999999999999936
    vertex 9.221356648077478 457.08872686972757 25.499999999999943
  endloop
endfacet
facet normal -0.9469301294952335 0.32143946530278533 -2.6371518373050527e-15
  outer loop
    vertex 9.297913753332107 457.4736054283749 19.999999999999936
    vertex 9.424052634665282 457.8451985901626 25.499999999999943
    vertex 9.424052634665282 457.8451985901626 19.999999999999936
  endloop
endfacet
facet normal -0.9469301294952335 0.32143946530278533 -2.6371518373050527e-15
  outer loop
    vertex 9.424052634665282 457.8451985901626 25.499999999999943
    vertex 9.297913753332107 457.4736054283749 19.999999999999936
    vertex 9.297913753332107 457.4736054283749 25.499999999999943
  endloop
endfacet
facet normal -0.8968727415328679 0.4422886902186374 -3.6286223626294025e-15
  outer loop
    vertex 9.424052634665282 457.8451985901626 19.999999999999936
    vertex 9.597615020845623 458.19714829306736 25.499999999999943
    vertex 9.597615020845623 458.19714829306736 19.999999999999936
  endloop
endfacet
facet normal -0.8968727415328679 0.4422886902186374 -3.6286223626294025e-15
  outer loop
    vertex 9.597615020845623 458.19714829306736 25.499999999999943
    vertex 9.424052634665282 457.8451985901626 19.999999999999936
    vertex 9.424052634665282 457.8451985901626 25.499999999999943
  endloop
endfacet
facet normal -0.8314696123024621 0.5555702330197269 -4.558006153288832e-15
  outer loop
    vertex 9.597615020845623 458.19714829306736 19.999999999999936
    vertex 9.815631211325648 458.523432580094 25.499999999999943
    vertex 9.815631211325648 458.523432580094 19.999999999999936
  endloop
endfacet
facet normal -0.8314696123024621 0.5555702330197269 -4.558006153288832e-15
  outer loop
    vertex 9.815631211325648 458.523432580094 25.499999999999943
    vertex 9.597615020845623 458.19714829306736 19.999999999999936
    vertex 9.597615020845623 458.19714829306736 25.499999999999943
  endloop
endfacet
facet normal -0.7518398074790219 0.6593458151000181 -5.4094011949420145e-15
  outer loop
    vertex 10.074370888639494 458.8184686366272 19.999999999999936
    vertex 9.815631211325648 458.523432580094 25.499999999999943
    vertex 10.074370888639494 458.8184686366273 25.499999999999943
  endloop
endfacet
facet normal -0.7518398074790219 0.6593458151000181 -5.4094011949420145e-15
  outer loop
    vertex 9.815631211325648 458.523432580094 25.499999999999943
    vertex 10.074370888639494 458.8184686366272 19.999999999999936
    vertex 9.815631211325648 458.523432580094 19.999999999999936
  endloop
endfacet
facet normal -0.6593458151003146 0.7518398074787621 -6.168239882380478e-15
  outer loop
    vertex 10.074370888639494 458.8184686366273 25.499999999999943
    vertex 10.369406945172793 459.0772083139414 19.999999999999936
    vertex 10.074370888639494 458.8184686366272 19.999999999999936
  endloop
endfacet
facet normal -0.6593458151003146 0.7518398074787621 -6.168239882380478e-15
  outer loop
    vertex 10.369406945172793 459.0772083139414 19.999999999999936
    vertex 10.074370888639494 458.8184686366273 25.499999999999943
    vertex 10.369406945172793 459.0772083139414 25.499999999999943
  endloop
endfacet
facet normal -0.5555702330186009 0.8314696123032143 -6.820576953652373e-15
  outer loop
    vertex 10.369406945172793 459.0772083139414 25.499999999999943
    vertex 10.69569123219936 459.2952245044206 19.999999999999936
    vertex 10.369406945172793 459.0772083139414 19.999999999999936
  endloop
endfacet
facet normal -0.5555702330186009 0.8314696123032143 -6.820576953652373e-15
  outer loop
    vertex 10.69569123219936 459.2952245044206 19.999999999999936
    vertex 10.369406945172793 459.0772083139414 25.499999999999943
    vertex 10.69569123219936 459.2952245044207 25.499999999999943
  endloop
endfacet
facet normal -0.44228869021903017 0.896872741532674 -7.35811825699057e-15
  outer loop
    vertex 10.69569123219936 459.2952245044207 25.499999999999943
    vertex 11.047640935104093 459.46878689060117 19.999999999999936
    vertex 10.69569123219936 459.2952245044206 19.999999999999936
  endloop
endfacet
facet normal -0.44228869021903017 0.896872741532674 -7.35811825699057e-15
  outer loop
    vertex 11.047640935104093 459.46878689060117 19.999999999999936
    vertex 10.69569123219936 459.2952245044207 25.499999999999943
    vertex 11.047640935104093 459.4687868906013 25.499999999999943
  endloop
endfacet
facet normal -0.3214394653033544 0.9469301294950403 -7.768798795272634e-15
  outer loop
    vertex 11.047640935104093 459.4687868906013 25.499999999999943
    vertex 11.419234096891628 459.5949257719345 19.999999999999936
    vertex 11.047640935104093 459.46878689060117 19.999999999999936
  endloop
endfacet
facet normal -0.3214394653033544 0.9469301294950403 -7.768798795272634e-15
  outer loop
    vertex 11.419234096891628 459.5949257719345 19.999999999999936
    vertex 11.047640935104093 459.4687868906013 25.499999999999943
    vertex 11.419234096891628 459.59492577193464 25.499999999999943
  endloop
endfacet
facet normal -0.19509032201571036 0.9807852804033137 -8.045192214305485e-15
  outer loop
    vertex 11.419234096891628 459.5949257719345 19.999999999999936
    vertex 11.80411265553904 459.6714828771886 25.49999999999993
    vertex 11.80411265553904 459.6714828771886 19.99999999999993
  endloop
endfacet
facet normal -0.19509032201571036 0.9807852804033137 -8.045192214305485e-15
  outer loop
    vertex 11.80411265553904 459.6714828771886 25.49999999999993
    vertex 11.419234096891628 459.5949257719345 19.999999999999936
    vertex 11.419234096891628 459.59492577193464 25.499999999999943
  endloop
endfacet
facet normal -0.06540312923016046 0.9978589232386025 -8.185763243740539e-15
  outer loop
    vertex 11.80411265553904 459.6714828771886 25.49999999999993
    vertex 12.195691232199186 459.6971482930672 19.99999999999993
    vertex 11.80411265553904 459.6714828771886 19.99999999999993
  endloop
endfacet
facet normal -0.06540312923016046 0.9978589232386025 -8.185763243740539e-15
  outer loop
    vertex 12.195691232199186 459.6971482930672 19.99999999999993
    vertex 11.80411265553904 459.6714828771886 25.49999999999993
    vertex 12.195691232199186 459.6971482930673 25.49999999999993
  endloop
endfacet
facet normal 4.229949723821854e-14 1.0 8.96953482608635e-31
  outer loop
    vertex 10.545691232198713 446.39783938582127 13.999999999999927
    vertex 18.84569123219872 446.3978393858209 19.99999999999992
    vertex 18.84569123219872 446.3978393858209 13.99999999999991
  endloop
endfacet
facet normal 4.229949723821854e-14 1.0 8.96953482608635e-31
  outer loop
    vertex 18.84569123219872 446.3978393858209 19.99999999999992
    vertex 10.545691232198713 446.39783938582127 13.999999999999927
    vertex 10.545691232198713 446.39783938582127 19.99999999999993
  endloop
endfacet
facet normal 1.0 -2.2575991195947996e-14 5.639932965095789e-15
  outer loop
    vertex 18.845691232198746 442.00000000000034 19.99999999999992
    vertex 18.84569123219872 446.3978393858209 13.99999999999991
    vertex 18.84569123219872 446.3978393858209 19.99999999999992
  endloop
endfacet
facet normal 1.0 -2.2575991195947996e-14 5.639932965095789e-15
  outer loop
    vertex 18.84569123219872 446.3978393858209 13.99999999999991
    vertex 18.845691232198746 442.00000000000034 19.99999999999992
    vertex 18.84569123219884 442.00000000000034 13.99999999999991
  endloop
endfacet
facet normal -1.0 2.6338656395273455e-14 -7.049916206369741e-15
  outer loop
    vertex 10.54569123219883 442.00000000000074 13.999999999999927
    vertex 10.545691232198713 446.39783938582127 19.99999999999993
    vertex 10.545691232198713 446.39783938582127 13.999999999999927
  endloop
endfacet
facet normal -1.0 2.6338656395273455e-14 -7.049916206369741e-15
  outer loop
    vertex 10.545691232198713 446.39783938582127 19.99999999999993
    vertex 10.54569123219883 442.00000000000074 13.999999999999927
    vertex 10.545691232198719 442.00000000000074 19.99999999999993
  endloop
endfacet
facet normal -4.401898899586965e-14 -1.0 -5.578427501238293e-28
  outer loop
    vertex 18.845691232198746 442.00000000000034 19.99999999999992
    vertex 10.54569123219883 442.00000000000074 13.999999999999927
    vertex 18.84569123219884 442.00000000000034 13.99999999999991
  endloop
endfacet
facet normal -4.401898899586965e-14 -1.0 -5.578427501238293e-28
  outer loop
    vertex 10.54569123219883 442.00000000000074 13.999999999999927
    vertex 18.845691232198746 442.00000000000034 19.99999999999992
    vertex 10.545691232198719 442.00000000000074 19.99999999999993
  endloop
endfacet
facet normal -1.375593406120926e-15 3.493320596251542e-29 -1.0
  outer loop
    vertex 10.545691232198719 442.00000000000074 19.99999999999993
    vertex 18.84569123219872 446.3978393858209 19.99999999999992
    vertex 18.845691232198746 442.00000000000034 19.99999999999992
  endloop
endfacet
facet normal -1.375593406120926e-15 3.493320596251542e-29 -1.0
  outer loop
    vertex 18.84569123219872 446.3978393858209 19.99999999999992
    vertex 10.545691232198719 442.00000000000074 19.99999999999993
    vertex 10.545691232198713 446.39783938582127 19.99999999999993
  endloop
endfacet
facet normal -2.4610616574964043e-14 -1.0 -6.4456376743952e-14
  outer loop
    vertex 20.195691232198758 441.2000000000003 23.49999999999992
    vertex 9.195691232198802 441.20000000000084 19.999999999999936
    vertex 20.195691232198737 441.2000000000003 19.99999999999991
  endloop
endfacet
facet normal -2.4610616574964043e-14 -1.0 -6.4456376743952e-14
  outer loop
    vertex 9.195691232198802 441.20000000000084 19.999999999999936
    vertex 20.195691232198758 441.2000000000003 23.49999999999992
    vertex 9.195691232198802 441.2000000000003 23.500000000000057
  endloop
endfacet
facet normal -1.6894557412345009e-15 1.864057889319104e-16 -1.0
  outer loop
    vertex 20.195691232198737 441.2000000000003 19.99999999999991
    vertex 20.170025816320308 457.08872686972705 19.99999999999992
    vertex 20.195691232199277 456.6971482930669 19.99999999999992
  endloop
endfacet
facet normal -1.6894557412345009e-15 1.864057889319104e-16 -1.0
  outer loop
    vertex 20.170025816320308 457.08872686972705 19.99999999999992
    vertex 20.195691232198737 441.2000000000003 19.99999999999991
    vertex 18.845691232198746 442.00000000000034 19.99999999999992
  endloop
endfacet
facet normal -1.6894557412345009e-15 1.864057889319104e-16 -1.0
  outer loop
    vertex 18.845691232198746 442.00000000000034 19.99999999999992
    vertex 20.195691232198737 441.2000000000003 19.99999999999991
    vertex 9.195691232198802 441.20000000000084 19.999999999999936
  endloop
endfacet
facet normal -1.6894557412345009e-15 1.864057889319104e-16 -1.0
  outer loop
    vertex 20.170025816320308 457.08872686972705 19.99999999999992
    vertex 18.845691232198746 442.00000000000034 19.99999999999992
    vertex 20.093468711066507 457.4736054283743 19.99999999999992
  endloop
endfacet
facet normal -1.6894557412345009e-15 1.864057889319104e-16 -1.0
  outer loop
    vertex 20.093468711066507 457.4736054283743 19.99999999999992
    vertex 18.845691232198746 442.00000000000034 19.99999999999992
    vertex 19.96732982973299 457.84519859016217 19.99999999999992
  endloop
endfacet
facet normal -1.6894557412345009e-15 1.864057889319104e-16 -1.0
  outer loop
    vertex 19.96732982973299 457.84519859016217 19.99999999999992
    vertex 18.845691232198746 442.00000000000034 19.99999999999992
    vertex 19.793767443552216 458.1971482930669 19.99999999999992
  endloop
endfacet
facet normal -1.6894557412345009e-15 1.864057889319104e-16 -1.0
  outer loop
    vertex 19.793767443552216 458.1971482930669 19.99999999999992
    vertex 18.845691232198746 442.00000000000034 19.99999999999992
    vertex 19.57575125307302 458.5234325800932 19.99999999999992
  endloop
endfacet
facet normal -1.6894557412345009e-15 1.864057889319104e-16 -1.0
  outer loop
    vertex 19.57575125307302 458.5234325800932 19.99999999999992
    vertex 18.845691232198746 442.00000000000034 19.99999999999992
    vertex 19.31701157575878 458.8184686366267 19.99999999999992
  endloop
endfacet
facet normal -1.6894557412345009e-15 1.864057889319104e-16 -1.0
  outer loop
    vertex 19.31701157575878 458.8184686366267 19.99999999999992
    vertex 18.845691232198746 442.00000000000034 19.99999999999992
    vertex 19.021975519225087 459.0772083139407 19.99999999999992
  endloop
endfacet
facet normal -1.6894557412345009e-15 1.864057889319104e-16 -1.0
  outer loop
    vertex 18.845691232198746 442.00000000000034 19.99999999999992
    vertex 9.195691232198802 441.20000000000084 19.999999999999936
    vertex 10.545691232198719 442.00000000000074 19.99999999999993
  endloop
endfacet
facet normal -1.6894557412345009e-15 1.864057889319104e-16 -1.0
  outer loop
    vertex 10.545691232198719 442.00000000000074 19.99999999999993
    vertex 9.195691232198802 441.20000000000084 19.999999999999936
    vertex 10.545691232198713 446.39783938582127 19.99999999999993
  endloop
endfacet
facet normal -1.6894557412345009e-15 1.864057889319104e-16 -1.0
  outer loop
    vertex 10.545691232198713 446.39783938582127 19.99999999999993
    vertex 9.195691232198802 441.20000000000084 19.999999999999936
    vertex 10.369406945172793 459.0772083139414 19.999999999999936
  endloop
endfacet
facet normal -1.6894557412345009e-15 1.864057889319104e-16 -1.0
  outer loop
    vertex 10.369406945172793 459.0772083139414 19.999999999999936
    vertex 9.195691232198802 441.20000000000084 19.999999999999936
    vertex 10.074370888639494 458.8184686366272 19.999999999999936
  endloop
endfacet
facet normal -1.6894557412345009e-15 1.864057889319104e-16 -1.0
  outer loop
    vertex 10.074370888639494 458.8184686366272 19.999999999999936
    vertex 9.195691232198802 441.20000000000084 19.999999999999936
    vertex 9.815631211325648 458.523432580094 19.999999999999936
  endloop
endfacet
facet normal -1.6894557412345009e-15 1.864057889319104e-16 -1.0
  outer loop
    vertex 9.815631211325648 458.523432580094 19.999999999999936
    vertex 9.195691232198802 441.20000000000084 19.999999999999936
    vertex 9.597615020845623 458.19714829306736 19.999999999999936
  endloop
endfacet
facet normal -1.6894557412345009e-15 1.864057889319104e-16 -1.0
  outer loop
    vertex 9.597615020845623 458.19714829306736 19.999999999999936
    vertex 9.195691232198802 441.20000000000084 19.999999999999936
    vertex 9.424052634665282 457.8451985901626 19.999999999999936
  endloop
endfacet
facet normal -1.6894557412345009e-15 1.864057889319104e-16 -1.0
  outer loop
    vertex 9.424052634665282 457.8451985901626 19.999999999999936
    vertex 9.195691232198802 441.20000000000084 19.999999999999936
    vertex 9.297913753332107 457.4736054283749 19.999999999999936
  endloop
endfacet
facet normal -1.6894557412345009e-15 1.864057889319104e-16 -1.0
  outer loop
    vertex 9.297913753332107 457.4736054283749 19.999999999999936
    vertex 9.195691232198802 441.20000000000084 19.999999999999936
    vertex 9.221356648077478 457.08872686972757 19.999999999999936
  endloop
endfacet
facet normal -1.6894557412345009e-15 1.864057889319104e-16 -1.0
  outer loop
    vertex 9.221356648077478 457.08872686972757 19.999999999999936
    vertex 9.195691232198802 441.20000000000084 19.999999999999936
    vertex 9.195691232199298 456.6971482930674 19.999999999999936
  endloop
endfacet
facet normal -1.6894557412345009e-15 1.864057889319104e-16 -1.0
  outer loop
    vertex 19.021975519225087 459.0772083139407 19.99999999999992
    vertex 18.84569123219872 446.3978393858209 19.99999999999992
    vertex 18.695691232199344 459.2952245044202 19.99999999999992
  endloop
endfacet
facet normal -1.6894557412345009e-15 1.864057889319104e-16 -1.0
  outer loop
    vertex 18.84569123219872 446.3978393858209 19.99999999999992
    vertex 19.021975519225087 459.0772083139407 19.99999999999992
    vertex 18.845691232198746 442.00000000000034 19.99999999999992
  endloop
endfacet
facet normal -1.6894557412345009e-15 1.864057889319104e-16 -1.0
  outer loop
    vertex 18.695691232199344 459.2952245044202 19.99999999999992
    vertex 18.84569123219872 446.3978393858209 19.99999999999992
    vertex 10.545691232198713 446.39783938582127 19.99999999999993
  endloop
endfacet
facet normal -1.6894557412345009e-15 1.864057889319104e-16 -1.0
  outer loop
    vertex 18.695691232199344 459.2952245044202 19.99999999999992
    vertex 10.545691232198713 446.39783938582127 19.99999999999993
    vertex 18.34374152929462 459.46878689060077 19.99999999999992
  endloop
endfacet
facet normal -1.6894557412345009e-15 1.864057889319104e-16 -1.0
  outer loop
    vertex 18.34374152929462 459.46878689060077 19.99999999999992
    vertex 10.545691232198713 446.39783938582127 19.99999999999993
    vertex 17.972148367506733 459.5949257719342 19.99999999999992
  endloop
endfacet
facet normal -1.6894557412345009e-15 1.864057889319104e-16 -1.0
  outer loop
    vertex 17.972148367506733 459.5949257719342 19.99999999999992
    vertex 10.545691232198713 446.39783938582127 19.99999999999993
    vertex 17.587269808859322 459.67148287718896 19.999999999999925
  endloop
endfacet
facet normal -1.6894557412345009e-15 1.864057889319104e-16 -1.0
  outer loop
    vertex 17.587269808859322 459.67148287718896 19.999999999999925
    vertex 10.545691232198713 446.39783938582127 19.99999999999993
    vertex 17.195691232199177 459.69714829306747 19.999999999999925
  endloop
endfacet
facet normal -1.6894557412345009e-15 1.864057889319104e-16 -1.0
  outer loop
    vertex 17.195691232199177 459.69714829306747 19.999999999999925
    vertex 10.545691232198713 446.39783938582127 19.99999999999993
    vertex 12.195691232199186 459.6971482930672 19.99999999999993
  endloop
endfacet
facet normal -1.6894557412345009e-15 1.864057889319104e-16 -1.0
  outer loop
    vertex 12.195691232199186 459.6971482930672 19.99999999999993
    vertex 10.545691232198713 446.39783938582127 19.99999999999993
    vertex 11.80411265553904 459.6714828771886 19.99999999999993
  endloop
endfacet
facet normal -1.6894557412345009e-15 1.864057889319104e-16 -1.0
  outer loop
    vertex 11.80411265553904 459.6714828771886 19.99999999999993
    vertex 10.545691232198713 446.39783938582127 19.99999999999993
    vertex 11.419234096891628 459.5949257719345 19.999999999999936
  endloop
endfacet
facet normal -1.6894557412345009e-15 1.864057889319104e-16 -1.0
  outer loop
    vertex 11.419234096891628 459.5949257719345 19.999999999999936
    vertex 10.545691232198713 446.39783938582127 19.99999999999993
    vertex 11.047640935104093 459.46878689060117 19.999999999999936
  endloop
endfacet
facet normal -1.6894557412345009e-15 1.864057889319104e-16 -1.0
  outer loop
    vertex 11.047640935104093 459.46878689060117 19.999999999999936
    vertex 10.545691232198713 446.39783938582127 19.99999999999993
    vertex 10.69569123219936 459.2952245044206 19.999999999999936
  endloop
endfacet
facet normal -1.6894557412345009e-15 1.864057889319104e-16 -1.0
  outer loop
    vertex 10.69569123219936 459.2952245044206 19.999999999999936
    vertex 10.545691232198713 446.39783938582127 19.99999999999993
    vertex 10.369406945172793 459.0772083139414 19.999999999999936
  endloop
endfacet
facet normal 1.0 -3.4386261381483324e-14 -1.734610123049305e-15
  outer loop
    vertex 20.195691232198833 443.2000000000003 25.500000000000004
    vertex 20.195691232199277 456.6971482930669 19.99999999999992
    vertex 20.195691232199277 456.6971482930669 25.49999999999992
  endloop
endfacet
facet normal 1.0 -3.4386261381483324e-14 -1.734610123049305e-15
  outer loop
    vertex 20.195691232199277 456.6971482930669 19.99999999999992
    vertex 20.195691232198833 443.2000000000003 25.500000000000004
    vertex 20.195691232198737 441.2000000000003 19.99999999999991
  endloop
endfacet
facet normal 1.0 -3.4386261381483324e-14 -1.734610123049305e-15
  outer loop
    vertex 20.195691232198737 441.2000000000003 19.99999999999991
    vertex 20.195691232198833 443.2000000000003 25.500000000000004
    vertex 20.195691232198822 442.809819355968 25.461570560806447
  endloop
endfacet
facet normal 1.0 -3.4386261381483324e-14 -1.734610123049305e-15
  outer loop
    vertex 20.195691232198737 441.2000000000003 19.99999999999991
    vertex 20.195691232198822 442.809819355968 25.461570560806447
    vertex 20.19569123219879 442.43463313527013 25.347759065022547
  endloop
endfacet
facet normal 1.0 -3.4386261381483324e-14 -1.734610123049305e-15
  outer loop
    vertex 20.195691232198737 441.2000000000003 19.99999999999991
    vertex 20.19569123219879 442.43463313527013 25.347759065022547
    vertex 20.195691232198804 442.088859533961 25.16293922460505
  endloop
endfacet
facet normal 1.0 -3.4386261381483324e-14 -1.734610123049305e-15
  outer loop
    vertex 20.195691232198737 441.2000000000003 19.99999999999991
    vertex 20.195691232198804 442.088859533961 25.16293922460505
    vertex 20.19569123219866 441.78578643762717 24.914213562373043
  endloop
endfacet
facet normal 1.0 -3.4386261381483324e-14 -1.734610123049305e-15
  outer loop
    vertex 20.195691232198737 441.2000000000003 19.99999999999991
    vertex 20.19569123219866 441.78578643762717 24.914213562373043
    vertex 20.195691232198744 441.53706077539516 24.61114046603914
  endloop
endfacet
facet normal 1.0 -3.4386261381483324e-14 -1.734610123049305e-15
  outer loop
    vertex 20.195691232198737 441.2000000000003 19.99999999999991
    vertex 20.195691232198744 441.53706077539516 24.61114046603914
    vertex 20.195691232198765 441.35224093497766 24.26536686473011
  endloop
endfacet
facet normal 1.0 -3.4386261381483324e-14 -1.734610123049305e-15
  outer loop
    vertex 20.195691232198737 441.2000000000003 19.99999999999991
    vertex 20.195691232198765 441.35224093497766 24.26536686473011
    vertex 20.19569123219876 441.2384294391938 23.890180644032178
  endloop
endfacet
facet normal 1.0 -3.4386261381483324e-14 -1.734610123049305e-15
  outer loop
    vertex 20.195691232198737 441.2000000000003 19.99999999999991
    vertex 20.19569123219876 441.2384294391938 23.890180644032178
    vertex 20.195691232198758 441.2000000000003 23.49999999999992
  endloop
endfacet
facet normal 3.4220743538065316e-15 8.9486289698538e-15 1.0
  outer loop
    vertex 20.170025816320308 457.08872686972705 25.49999999999992
    vertex 20.195691232198833 443.2000000000003 25.500000000000004
    vertex 20.195691232199277 456.6971482930669 25.49999999999992
  endloop
endfacet
facet normal 3.4220743538065316e-15 8.9486289698538e-15 1.0
  outer loop
    vertex 20.195691232198833 443.2000000000003 25.500000000000004
    vertex 20.170025816320308 457.08872686972705 25.49999999999992
    vertex 9.195691232198874 443.2000000000003 25.500000000000146
  endloop
endfacet
facet normal 3.4220743538065316e-15 8.9486289698538e-15 1.0
  outer loop
    vertex 9.195691232198874 443.2000000000003 25.500000000000146
    vertex 20.170025816320308 457.08872686972705 25.49999999999992
    vertex 20.093468711066507 457.4736054283743 25.49999999999992
  endloop
endfacet
facet normal 3.4220743538065316e-15 8.9486289698538e-15 1.0
  outer loop
    vertex 9.195691232198874 443.2000000000003 25.500000000000146
    vertex 20.093468711066507 457.4736054283743 25.49999999999992
    vertex 19.96732982973299 457.84519859016217 25.49999999999992
  endloop
endfacet
facet normal 3.4220743538065316e-15 8.9486289698538e-15 1.0
  outer loop
    vertex 9.195691232198874 443.2000000000003 25.500000000000146
    vertex 19.96732982973299 457.84519859016217 25.49999999999992
    vertex 19.793767443552216 458.1971482930669 25.49999999999992
  endloop
endfacet
facet normal 3.4220743538065316e-15 8.9486289698538e-15 1.0
  outer loop
    vertex 9.195691232198874 443.2000000000003 25.500000000000146
    vertex 19.793767443552216 458.1971482930669 25.49999999999992
    vertex 19.57575125307302 458.5234325800932 25.49999999999992
  endloop
endfacet
facet normal 3.4220743538065316e-15 8.9486289698538e-15 1.0
  outer loop
    vertex 9.195691232198874 443.2000000000003 25.500000000000146
    vertex 19.57575125307302 458.5234325800932 25.49999999999992
    vertex 19.31701157575878 458.81846863662673 25.49999999999992
  endloop
endfacet
facet normal 3.4220743538065316e-15 8.9486289698538e-15 1.0
  outer loop
    vertex 9.195691232198874 443.2000000000003 25.500000000000146
    vertex 19.31701157575878 458.81846863662673 25.49999999999992
    vertex 19.021975519225087 459.07720831394073 25.49999999999992
  endloop
endfacet
facet normal 3.4220743538065316e-15 8.9486289698538e-15 1.0
  outer loop
    vertex 9.195691232198874 443.2000000000003 25.500000000000146
    vertex 19.021975519225087 459.07720831394073 25.49999999999992
    vertex 18.695691232199344 459.29522450442033 25.49999999999992
  endloop
endfacet
facet normal 3.4220743538065316e-15 8.9486289698538e-15 1.0
  outer loop
    vertex 9.195691232198874 443.2000000000003 25.500000000000146
    vertex 18.695691232199344 459.29522450442033 25.49999999999992
    vertex 18.34374152929462 459.4687868906008 25.49999999999992
  endloop
endfacet
facet normal 3.4220743538065316e-15 8.9486289698538e-15 1.0
  outer loop
    vertex 9.195691232198874 443.2000000000003 25.500000000000146
    vertex 18.34374152929462 459.4687868906008 25.49999999999992
    vertex 17.972148367506733 459.59492577193424 25.49999999999992
  endloop
endfacet
facet normal 3.4220743538065316e-15 8.9486289698538e-15 1.0
  outer loop
    vertex 9.195691232198874 443.2000000000003 25.500000000000146
    vertex 17.972148367506733 459.59492577193424 25.49999999999992
    vertex 17.587269808859322 459.67148287718896 25.49999999999992
  endloop
endfacet
facet normal 3.4220743538065316e-15 8.9486289698538e-15 1.0
  outer loop
    vertex 9.195691232198874 443.2000000000003 25.500000000000146
    vertex 17.587269808859322 459.67148287718896 25.49999999999992
    vertex 17.195691232199177 459.69714829306747 25.49999999999992
  endloop
endfacet
facet normal 3.4220743538065316e-15 8.9486289698538e-15 1.0
  outer loop
    vertex 9.195691232198874 443.2000000000003 25.500000000000146
    vertex 17.195691232199177 459.69714829306747 25.49999999999992
    vertex 12.195691232199186 459.6971482930673 25.49999999999993
  endloop
endfacet
facet normal 3.4220743538065316e-15 8.9486289698538e-15 1.0
  outer loop
    vertex 9.195691232198874 443.2000000000003 25.500000000000146
    vertex 12.195691232199186 459.6971482930673 25.49999999999993
    vertex 11.80411265553904 459.6714828771886 25.49999999999993
  endloop
endfacet
facet normal 3.4220743538065316e-15 8.9486289698538e-15 1.0
  outer loop
    vertex 9.195691232198874 443.2000000000003 25.500000000000146
    vertex 11.80411265553904 459.6714828771886 25.49999999999993
    vertex 11.419234096891628 459.59492577193464 25.499999999999943
  endloop
endfacet
facet normal 3.4220743538065316e-15 8.9486289698538e-15 1.0
  outer loop
    vertex 9.195691232198874 443.2000000000003 25.500000000000146
    vertex 11.419234096891628 459.59492577193464 25.499999999999943
    vertex 11.047640935104093 459.4687868906013 25.499999999999943
  endloop
endfacet
facet normal 3.4220743538065316e-15 8.9486289698538e-15 1.0
  outer loop
    vertex 9.195691232198874 443.2000000000003 25.500000000000146
    vertex 11.047640935104093 459.4687868906013 25.499999999999943
    vertex 10.69569123219936 459.2952245044207 25.499999999999943
  endloop
endfacet
facet normal 3.4220743538065316e-15 8.9486289698538e-15 1.0
  outer loop
    vertex 9.195691232198874 443.2000000000003 25.500000000000146
    vertex 10.69569123219936 459.2952245044207 25.499999999999943
    vertex 10.369406945172793 459.0772083139414 25.499999999999943
  endloop
endfacet
facet normal 3.4220743538065316e-15 8.9486289698538e-15 1.0
  outer loop
    vertex 9.195691232198874 443.2000000000003 25.500000000000146
    vertex 10.369406945172793 459.0772083139414 25.499999999999943
    vertex 10.074370888639494 458.8184686366273 25.499999999999943
  endloop
endfacet
facet normal 3.4220743538065316e-15 8.9486289698538e-15 1.0
  outer loop
    vertex 9.195691232198874 443.2000000000003 25.500000000000146
    vertex 10.074370888639494 458.8184686366273 25.499999999999943
    vertex 9.815631211325648 458.523432580094 25.499999999999943
  endloop
endfacet
facet normal 3.4220743538065316e-15 8.9486289698538e-15 1.0
  outer loop
    vertex 9.195691232198874 443.2000000000003 25.500000000000146
    vertex 9.815631211325648 458.523432580094 25.499999999999943
    vertex 9.597615020845623 458.19714829306736 25.499999999999943
  endloop
endfacet
facet normal 3.4220743538065316e-15 8.9486289698538e-15 1.0
  outer loop
    vertex 9.195691232198874 443.2000000000003 25.500000000000146
    vertex 9.597615020845623 458.19714829306736 25.499999999999943
    vertex 9.424052634665282 457.8451985901626 25.499999999999943
  endloop
endfacet
facet normal 3.4220743538065316e-15 8.9486289698538e-15 1.0
  outer loop
    vertex 9.195691232198874 443.2000000000003 25.500000000000146
    vertex 9.424052634665282 457.8451985901626 25.499999999999943
    vertex 9.297913753332107 457.4736054283749 25.499999999999943
  endloop
endfacet
facet normal 3.4220743538065316e-15 8.9486289698538e-15 1.0
  outer loop
    vertex 9.195691232198874 443.2000000000003 25.500000000000146
    vertex 9.297913753332107 457.4736054283749 25.499999999999943
    vertex 9.221356648077478 457.08872686972757 25.499999999999943
  endloop
endfacet
facet normal 3.4220743538065316e-15 8.9486289698538e-15 1.0
  outer loop
    vertex 9.195691232198874 443.2000000000003 25.500000000000146
    vertex 9.221356648077478 457.08872686972757 25.499999999999943
    vertex 9.195691232199298 456.6971482930674 25.499999999999943
  endloop
endfacet
facet normal 1.2564303166099063e-15 -0.995184726672205 0.09801714032947914
  outer loop
    vertex 20.19569123219876 441.2384294391938 23.890180644032178
    vertex 9.195691232198802 441.2000000000003 23.500000000000057
    vertex 20.195691232198758 441.2000000000003 23.49999999999992
  endloop
endfacet
facet normal 1.2564303166099063e-15 -0.995184726672205 0.09801714032947914
  outer loop
    vertex 9.195691232198802 441.2000000000003 23.500000000000057
    vertex 20.19569123219876 441.2384294391938 23.890180644032178
    vertex 9.195691232198802 441.2384294391938 23.89018064403232
  endloop
endfacet
facet normal 3.720671418453177e-15 -0.9569403357322117 0.29028467725445317
  outer loop
    vertex 20.195691232198765 441.35224093497766 24.26536686473011
    vertex 9.195691232198802 441.2384294391938 23.89018064403232
    vertex 20.19569123219876 441.2384294391938 23.890180644032178
  endloop
endfacet
facet normal 3.720671418453177e-15 -0.9569403357322117 0.29028467725445317
  outer loop
    vertex 9.195691232198802 441.2384294391938 23.89018064403232
    vertex 20.195691232198765 441.35224093497766 24.26536686473011
    vertex 9.195691232198806 441.35224093497766 24.26536686473025
  endloop
endfacet
facet normal 6.042042528904908e-15 -0.8819212643483181 0.47139673682606686
  outer loop
    vertex 20.195691232198744 441.53706077539516 24.61114046603914
    vertex 9.195691232198806 441.35224093497766 24.26536686473025
    vertex 20.195691232198765 441.35224093497766 24.26536686473011
  endloop
endfacet
facet normal 6.042042528904908e-15 -0.8819212643483181 0.47139673682606686
  outer loop
    vertex 9.195691232198806 441.35224093497766 24.26536686473025
    vertex 20.195691232198744 441.53706077539516 24.61114046603914
    vertex 9.195691232198788 441.53706077539516 24.611140466039277
  endloop
endfacet
facet normal 7.968963330187142e-15 -0.7730104533627634 0.6343932841636132
  outer loop
    vertex 20.19569123219866 441.78578643762717 24.914213562373043
    vertex 9.195691232198788 441.53706077539516 24.611140466039277
    vertex 20.195691232198744 441.53706077539516 24.61114046603914
  endloop
endfacet
facet normal 7.968963330187142e-15 -0.7730104533627634 0.6343932841636132
  outer loop
    vertex 9.195691232198788 441.53706077539516 24.611140466039277
    vertex 20.19569123219866 441.78578643762717 24.914213562373043
    vertex 9.195691232198703 441.78578643762717 24.91421356237318
  endloop
endfacet
facet normal 9.511324020299064e-15 -0.6343932841637145 0.7730104533626805
  outer loop
    vertex 9.195691232198847 442.088859533961 25.162939224605186
    vertex 20.19569123219866 441.78578643762717 24.914213562373043
    vertex 20.195691232198804 442.088859533961 25.16293922460505
  endloop
endfacet
facet normal 9.511324020299064e-15 -0.6343932841637145 0.7730104533626805
  outer loop
    vertex 20.19569123219866 441.78578643762717 24.914213562373043
    vertex 9.195691232198847 442.088859533961 25.162939224605186
    vertex 9.195691232198703 441.78578643762717 24.91421356237318
  endloop
endfacet
facet normal 1.0852670322870685e-14 -0.4713967368259444 0.8819212643483836
  outer loop
    vertex 20.19569123219879 442.43463313527013 25.347759065022547
    vertex 9.195691232198847 442.088859533961 25.162939224605186
    vertex 20.195691232198804 442.088859533961 25.16293922460505
  endloop
endfacet
facet normal 1.0852670322870685e-14 -0.4713967368259444 0.8819212643483836
  outer loop
    vertex 9.195691232198847 442.088859533961 25.162939224605186
    vertex 20.19569123219879 442.43463313527013 25.347759065022547
    vertex 9.195691232198833 442.43463313527013 25.347759065022682
  endloop
endfacet
facet normal 1.2020843874862365e-14 -0.29028467725453816 0.956940335732186
  outer loop
    vertex 9.195691232198865 442.809819355968 25.46157056080659
    vertex 20.19569123219879 442.43463313527013 25.347759065022547
    vertex 20.195691232198822 442.809819355968 25.461570560806447
  endloop
endfacet
facet normal 1.2020843874862365e-14 -0.29028467725453816 0.956940335732186
  outer loop
    vertex 20.19569123219879 442.43463313527013 25.347759065022547
    vertex 9.195691232198865 442.809819355968 25.46157056080659
    vertex 9.195691232198833 442.43463313527013 25.347759065022682
  endloop
endfacet
facet normal 1.2756463433605976e-14 -0.09801714032960038 0.9951847266721932
  outer loop
    vertex 9.195691232198874 443.2000000000003 25.500000000000146
    vertex 20.195691232198822 442.809819355968 25.461570560806447
    vertex 20.195691232198833 443.2000000000003 25.500000000000004
  endloop
endfacet
facet normal 1.2756463433605976e-14 -0.09801714032960038 0.9951847266721932
  outer loop
    vertex 20.195691232198822 442.809819355968 25.461570560806447
    vertex 9.195691232198874 443.2000000000003 25.500000000000146
    vertex 9.195691232198865 442.809819355968 25.46157056080659
  endloop
endfacet
endsolid Mousebox_v2
