solid Mousebox_v2
facet normal -0.9999999590472258 -1.2523835828977623e-10 -0.0002861914511961896
  outer loop
    vertex -2.7671703254772004 263.69998882119125 6.499159998937223
    vertex -2.770948049359103 263.6999978417852 19.69916001527278
    vertex -2.7671703255684545 285.3999888211941 6.499162818256996
  endloop
endfacet
facet normal -0.9999999590472258 -1.2523835828977623e-10 -0.0002861914511961896
  outer loop
    vertex -2.770948048851938 285.40010406604983 19.69913675071461
    vertex -2.7671703255684545 285.3999888211941 6.499162818256996
    vertex -2.770948049359103 263.6999978417852 19.69916001527278
  endloop
endfacet
facet normal 1.0 -2.5990473988467946e-16 0.0
  outer loop
    vertex 23.828479376047092 263.699999999914 21.699984450206557
    vertex 23.828479375956334 271.7999999999531 20.19998726953063
    vertex 23.828495984653976 277.5499999965211 21.69979056661722
  endloop
endfacet
facet normal 1.0 -2.5990473988467946e-16 0.0
  outer loop
    vertex 23.828495984653976 277.5499999965211 20.19979056661722
    vertex 23.828495984653976 277.5499999965211 21.69979056661722
    vertex 23.828479375956334 271.7999999999531 20.19998726953063
  endloop
endfacet
facet normal 1.0 -2.5990473988467946e-16 0.0
  outer loop
    vertex 23.828551912925352 285.3999888351358 6.4999872705809585
    vertex 23.828479375956334 271.7999999999557 10.999987269530632
    vertex 23.828551913016607 263.699988835133 6.499984451261185
  endloop
endfacet
facet normal 1.0 -2.5990473988467946e-16 0.0
  outer loop
    vertex 23.828479376047092 263.699999999914 21.699984450206557
    vertex 23.828551913016607 263.699988835133 6.499984451261185
    vertex 23.828479375956334 271.7999999999557 10.999987269530632
  endloop
endfacet
facet normal 1.0 -2.5990473988467946e-16 0.0
  outer loop
    vertex 23.828479375956334 271.7999999999531 20.19998726953063
    vertex 23.828479376047092 263.699999999914 21.699984450206557
    vertex 23.828479375956334 271.7999999999557 10.999987269530632
  endloop
endfacet
facet normal 1.0 -2.5990473988467946e-16 0.0
  outer loop
    vertex 23.82847937595584 285.3999999999193 10.999987269526331
    vertex 23.828479375956334 271.7999999999557 10.999987269530632
    vertex 23.828551912925352 285.3999888351358 6.4999872705809585
  endloop
endfacet
facet normal -0.38268343236283725 -0.9238795325122198 -3.4753288413863807e-15
  outer loop
    vertex 4.192589858840958 268.7454813048435 20.199860507149864
    vertex 4.578479386677309 268.58564062883704 20.199860507149864
    vertex 4.192589858840958 268.7454813048435 21.699860507149864
  endloop
endfacet
facet normal -0.38268343236283725 -0.9238795325122198 -3.4753288413863807e-15
  outer loop
    vertex 4.578479386677309 268.58564062883704 21.699860507149864
    vertex 4.192589858840958 268.7454813048435 21.699860507149864
    vertex 4.578479386677309 268.58564062883704 20.199860507149864
  endloop
endfacet
facet normal -0.9238795325122171 0.38268343236284413 1.4365541076917168e-15
  outer loop
    vertex 5.164120032737741 266.39999998278336 20.199860507149864
    vertex 5.164120032737741 266.39999998278336 21.699860507149864
    vertex 5.3239607087442105 266.7858895106197 20.199860507149864
  endloop
endfacet
facet normal -0.9238795325122171 0.38268343236284413 1.4365541076917168e-15
  outer loop
    vertex 5.3239607087442105 266.7858895106197 21.699860507149864
    vertex 5.3239607087442105 266.7858895106197 20.199860507149864
    vertex 5.164120032737741 266.39999998278336 21.699860507149864
  endloop
endfacet
facet normal -0.923879532510357 -0.38268343236733404 0.0
  outer loop
    vertex 5.32396070874218 267.61411045494776 20.199860507149864
    vertex 5.32396070874218 267.61411045494776 21.699860507149864
    vertex 5.164120032733838 267.9999999827834 20.199860507149864
  endloop
endfacet
facet normal -0.923879532510357 -0.38268343236733404 0.0
  outer loop
    vertex 5.164120032733838 267.9999999827834 21.699860507149864
    vertex 5.164120032733838 267.9999999827834 20.199860507149864
    vertex 5.32396070874218 267.61411045494776 21.699860507149864
  endloop
endfacet
facet normal -0.6087614290106808 0.7933533402897311 0.0
  outer loop
    vertex 4.909850236581915 266.06862913288427 20.199860507149864
    vertex 4.5784793866840765 265.81435933672685 20.199860507149864
    vertex 4.909850236581915 266.06862913288427 21.699860507149864
  endloop
endfacet
facet normal -0.6087614290106808 0.7933533402897311 0.0
  outer loop
    vertex 4.5784793866840765 265.81435933672685 21.699860507149864
    vertex 4.909850236581915 266.06862913288427 21.699860507149864
    vertex 4.5784793866840765 265.81435933672685 20.199860507149864
  endloop
endfacet
facet normal -0.7933533402897643 -0.6087614290106377 0.0
  outer loop
    vertex 5.164120032733838 267.9999999827834 20.199860507149864
    vertex 5.164120032733838 267.9999999827834 21.699860507149864
    vertex 4.909850236576411 268.3313708326813 20.199860507149864
  endloop
endfacet
facet normal -0.7933533402897643 -0.6087614290106377 0.0
  outer loop
    vertex 4.909850236576411 268.3313708326813 21.699860507149864
    vertex 4.909850236576411 268.3313708326813 20.199860507149864
    vertex 5.164120032733838 267.9999999827834 21.699860507149864
  endloop
endfacet
facet normal -0.38268343236732455 0.923879532510361 0.0
  outer loop
    vertex 4.5784793866840765 265.81435933672685 20.199860507149864
    vertex 4.192589858848493 265.6545186607185 20.199860507149864
    vertex 4.5784793866840765 265.81435933672685 21.699860507149864
  endloop
endfacet
facet normal -0.38268343236732455 0.923879532510361 0.0
  outer loop
    vertex 4.192589858848493 265.6545186607185 21.699860507149864
    vertex 4.5784793866840765 265.81435933672685 21.699860507149864
    vertex 4.192589858848493 265.6545186607185 20.199860507149864
  endloop
endfacet
facet normal -0.7933533402927072 0.6087614290068023 -6.165976306711711e-18
  outer loop
    vertex 4.909850236581915 266.06862913288427 20.199860507149864
    vertex 4.909850236581915 266.06862913288427 21.699860507149864
    vertex 5.164120032737741 266.39999998278336 20.199860507149864
  endloop
endfacet
facet normal -0.7933533402927072 0.6087614290068023 -6.165976306711711e-18
  outer loop
    vertex 5.164120032737741 266.39999998278336 21.699860507149864
    vertex 5.164120032737741 266.39999998278336 20.199860507149864
    vertex 4.909850236581915 266.06862913288427 21.699860507149864
  endloop
endfacet
facet normal -0.9914448613741288 0.13052619221763345 4.90996308941701e-16
  outer loop
    vertex 5.3239607087442105 266.7858895106197 21.699860507149864
    vertex 5.378479386680691 267.19999998278394 21.699860507149864
    vertex 5.3239607087442105 266.7858895106197 20.199860507149864
  endloop
endfacet
facet normal -0.9914448613741288 0.13052619221763345 4.90996308941701e-16
  outer loop
    vertex 5.378479386680691 267.19999998278394 20.199860507149864
    vertex 5.3239607087442105 266.7858895106197 20.199860507149864
    vertex 5.378479386680691 267.19999998278394 21.699860507149864
  endloop
endfacet
facet normal -0.1305261922176317 -0.991444861374129 -7.456136145210733e-15
  outer loop
    vertex 3.778479386676791 268.79999998278 20.199860507149864
    vertex 4.192589858840958 268.7454813048435 20.199860507149864
    vertex 3.778479386676791 268.79999998278 21.699860507149864
  endloop
endfacet
facet normal -0.1305261922176317 -0.991444861374129 -7.456136145210733e-15
  outer loop
    vertex 4.192589858840958 268.7454813048435 21.699860507149864
    vertex 3.778479386676791 268.79999998278 21.699860507149864
    vertex 4.192589858840958 268.7454813048435 20.199860507149864
  endloop
endfacet
facet normal -0.9914448613734894 -0.13052619222249032 0.0
  outer loop
    vertex 5.378479386680691 267.19999998278394 20.199860507149864
    vertex 5.378479386680691 267.19999998278394 21.699860507149864
    vertex 5.32396070874218 267.61411045494776 20.199860507149864
  endloop
endfacet
facet normal -0.9914448613734894 -0.13052619222249032 0.0
  outer loop
    vertex 5.32396070874218 267.61411045494776 21.699860507149864
    vertex 5.32396070874218 267.61411045494776 20.199860507149864
    vertex 5.378479386680691 267.19999998278394 21.699860507149864
  endloop
endfacet
facet normal -0.6087614290067723 -0.7933533402927301 4.7313200273031714e-18
  outer loop
    vertex 4.578479386677309 268.58564062883704 20.199860507149864
    vertex 4.909850236576411 268.3313708326813 20.199860507149864
    vertex 4.578479386677309 268.58564062883704 21.699860507149864
  endloop
endfacet
facet normal -0.6087614290067723 -0.7933533402927301 4.7313200273031714e-18
  outer loop
    vertex 4.909850236576411 268.3313708326813 21.699860507149864
    vertex 4.578479386677309 268.58564062883704 21.699860507149864
    vertex 4.909850236576411 268.3313708326813 20.199860507149864
  endloop
endfacet
facet normal 0.13052619222245399 -0.9914448613734941 -3.730501688228494e-15
  outer loop
    vertex 3.364368914512894 268.7454813048415 20.199860507149864
    vertex 3.778479386676791 268.79999998278 20.199860507149864
    vertex 3.364368914512894 268.7454813048415 21.699860507149864
  endloop
endfacet
facet normal 0.13052619222245399 -0.9914448613734941 -3.730501688228494e-15
  outer loop
    vertex 3.778479386676791 268.79999998278 21.699860507149864
    vertex 3.364368914512894 268.7454813048415 21.699860507149864
    vertex 3.778479386676791 268.79999998278 20.199860507149864
  endloop
endfacet
facet normal 0.13052619221764497 0.9914448613741272 3.728472777863318e-15
  outer loop
    vertex 3.7784793866845967 265.59999998278 20.199860507149864
    vertex 3.3643689145204294 265.65451866071646 20.199860507149864
    vertex 3.7784793866845967 265.59999998278 21.699860507149864
  endloop
endfacet
facet normal 0.13052619221764497 0.9914448613741272 3.728472777863318e-15
  outer loop
    vertex 3.3643689145204294 265.65451866071646 21.699860507149864
    vertex 3.7784793866845967 265.59999998278 21.699860507149864
    vertex 3.3643689145204294 265.65451866071646 20.199860507149864
  endloop
endfacet
facet normal 0.991444861373489 0.13052619222249381 0.0
  outer loop
    vertex 2.232998064619207 266.7858895106122 21.699860507149864
    vertex 2.232998064619207 266.7858895106122 20.199860507149864
    vertex 2.1784793866806966 267.1999999827761 21.699860507149864
  endloop
endfacet
facet normal 0.991444861373489 0.13052619222249381 0.0
  outer loop
    vertex 2.1784793866806966 267.1999999827761 20.199860507149864
    vertex 2.1784793866806966 267.1999999827761 21.699860507149864
    vertex 2.232998064619207 266.7858895106122 20.199860507149864
  endloop
endfacet
facet normal 0.6087614290067893 0.7933533402927171 -4.731320027303304e-18
  outer loop
    vertex 2.978479386684079 265.81435933672293 20.199860507149864
    vertex 2.6471085367849763 266.06862913287875 20.199860507149864
    vertex 2.978479386684079 265.81435933672293 21.699860507149864
  endloop
endfacet
facet normal 0.6087614290067893 0.7933533402927171 -4.731320027303304e-18
  outer loop
    vertex 2.6471085367849763 266.06862913287875 21.699860507149864
    vertex 2.978479386684079 265.81435933672293 21.699860507149864
    vertex 2.6471085367849763 266.06862913287875 20.199860507149864
  endloop
endfacet
facet normal 0.38268343236734764 -0.9238795325103516 0.0
  outer loop
    vertex 2.978479386677311 268.5856406288331 20.199860507149864
    vertex 3.364368914512894 268.7454813048415 20.199860507149864
    vertex 2.978479386677311 268.5856406288331 21.699860507149864
  endloop
endfacet
facet normal 0.38268343236734764 -0.9238795325103516 0.0
  outer loop
    vertex 3.364368914512894 268.7454813048415 21.699860507149864
    vertex 2.978479386677311 268.5856406288331 21.699860507149864
    vertex 3.364368914512894 268.7454813048415 20.199860507149864
  endloop
endfacet
facet normal 0.6087614290106548 -0.7933533402897512 -4.731320027350559e-18
  outer loop
    vertex 2.647108536779449 268.3313708326757 20.199860507149864
    vertex 2.978479386677311 268.5856406288331 20.199860507149864
    vertex 2.647108536779449 268.3313708326757 21.699860507149864
  endloop
endfacet
facet normal 0.6087614290106548 -0.7933533402897512 -4.731320027350559e-18
  outer loop
    vertex 2.978479386677311 268.5856406288331 21.699860507149864
    vertex 2.647108536779449 268.3313708326757 21.699860507149864
    vertex 2.978479386677311 268.5856406288331 20.199860507149864
  endloop
endfacet
facet normal -0.13052619222249381 0.991444861373489 -1.0144551837979296e-18
  outer loop
    vertex 4.192589858848493 265.6545186607185 20.199860507149864
    vertex 3.7784793866845967 265.59999998278 20.199860507149864
    vertex 4.192589858848493 265.6545186607185 21.699860507149864
  endloop
endfacet
facet normal -0.13052619222249381 0.991444861373489 -1.0144551837979296e-18
  outer loop
    vertex 3.7784793866845967 265.59999998278 21.699860507149864
    vertex 4.192589858848493 265.6545186607185 21.699860507149864
    vertex 3.7784793866845967 265.59999998278 20.199860507149864
  endloop
endfacet
facet normal 0.7933533402927332 -0.6087614290067683 0.0
  outer loop
    vertex 2.392838740623646 267.9999999827766 21.699860507149864
    vertex 2.392838740623646 267.9999999827766 20.199860507149864
    vertex 2.647108536779449 268.3313708326757 21.699860507149864
  endloop
endfacet
facet normal 0.7933533402927332 -0.6087614290067683 0.0
  outer loop
    vertex 2.647108536779449 268.3313708326757 20.199860507149864
    vertex 2.647108536779449 268.3313708326757 21.699860507149864
    vertex 2.392838740623646 267.9999999827766 20.199860507149864
  endloop
endfacet
facet normal 0.991444861374129 -0.1305261922176317 0.0
  outer loop
    vertex 2.1784793866806966 267.1999999827761 21.699860507149864
    vertex 2.1784793866806966 267.1999999827761 20.199860507149864
    vertex 2.2329980646171768 267.61411045494026 21.699860507149864
  endloop
endfacet
facet normal 0.991444861374129 -0.1305261922176317 0.0
  outer loop
    vertex 2.2329980646171768 267.61411045494026 20.199860507149864
    vertex 2.2329980646171768 267.61411045494026 21.699860507149864
    vertex 2.1784793866806966 267.1999999827761 20.199860507149864
  endloop
endfacet
facet normal 0.923879532512219 -0.3826834323628394 2.612225758809554e-29
  outer loop
    vertex 2.2329980646171768 267.61411045494026 21.699860507149864
    vertex 2.2329980646171768 267.61411045494026 20.199860507149864
    vertex 2.392838740623646 267.9999999827766 21.699860507149864
  endloop
endfacet
facet normal 0.923879532512219 -0.3826834323628394 2.612225758809554e-29
  outer loop
    vertex 2.392838740623646 267.9999999827766 20.199860507149864
    vertex 2.392838740623646 267.9999999827766 21.699860507149864
    vertex 2.2329980646171768 267.61411045494026 20.199860507149864
  endloop
endfacet
facet normal 0.923879532510357 0.38268343236733404 0.0
  outer loop
    vertex 2.3928387406275493 266.3999999827766 21.699860507149864
    vertex 2.3928387406275493 266.3999999827766 20.199860507149864
    vertex 2.232998064619207 266.7858895106122 21.699860507149864
  endloop
endfacet
facet normal 0.923879532510357 0.38268343236733404 0.0
  outer loop
    vertex 2.232998064619207 266.7858895106122 20.199860507149864
    vertex 2.232998064619207 266.7858895106122 21.699860507149864
    vertex 2.3928387406275493 266.3999999827766 20.199860507149864
  endloop
endfacet
facet normal 0.7933533402897541 0.6087614290106507 0.0
  outer loop
    vertex 2.6471085367849763 266.06862913287875 21.699860507149864
    vertex 2.6471085367849763 266.06862913287875 20.199860507149864
    vertex 2.3928387406275493 266.3999999827766 21.699860507149864
  endloop
endfacet
facet normal 0.7933533402897541 0.6087614290106507 0.0
  outer loop
    vertex 2.3928387406275493 266.3999999827766 20.199860507149864
    vertex 2.3928387406275493 266.3999999827766 21.699860507149864
    vertex 2.6471085367849763 266.06862913287875 20.199860507149864
  endloop
endfacet
facet normal 0.3826834323628373 0.9238795325122198 3.471738625641147e-15
  outer loop
    vertex 3.3643689145204294 265.65451866071646 20.199860507149864
    vertex 2.978479386684079 265.81435933672293 20.199860507149864
    vertex 3.3643689145204294 265.65451866071646 21.699860507149864
  endloop
endfacet
facet normal 0.3826834323628373 0.9238795325122198 3.471738625641147e-15
  outer loop
    vertex 2.978479386684079 265.81435933672293 21.699860507149864
    vertex 3.3643689145204294 265.65451866071646 21.699860507149864
    vertex 2.978479386684079 265.81435933672293 20.199860507149864
  endloop
endfacet
facet normal 0.6087614290067553 0.7933533402927432 0.0
  outer loop
    vertex 14.978479386684215 265.81435933675317 20.199860507149864
    vertex 14.647108536785112 266.068629132909 20.199860507149864
    vertex 14.978479386684215 265.81435933675317 21.699860507149864
  endloop
endfacet
facet normal 0.6087614290067553 0.7933533402927432 0.0
  outer loop
    vertex 14.647108536785112 266.068629132909 21.699860507149864
    vertex 14.978479386684215 265.81435933675317 21.699860507149864
    vertex 14.647108536785112 266.068629132909 20.199860507149864
  endloop
endfacet
facet normal 0.3826834323627837 0.923879532512242 2.9742321070324836e-18
  outer loop
    vertex 15.364368914520588 265.65451866074676 20.199860507149864
    vertex 14.978479386684215 265.81435933675317 20.199860507149864
    vertex 15.364368914520588 265.65451866074676 21.699860507149864
  endloop
endfacet
facet normal 0.3826834323627837 0.923879532512242 2.9742321070324836e-18
  outer loop
    vertex 14.978479386684215 265.81435933675317 21.699860507149864
    vertex 15.364368914520588 265.65451866074676 21.699860507149864
    vertex 14.978479386684215 265.81435933675317 20.199860507149864
  endloop
endfacet
facet normal 0.13052619221757863 0.9914448613741361 -1.0144551837597284e-18
  outer loop
    vertex 15.778479386684754 265.5999999828103 20.199860507149864
    vertex 15.364368914520588 265.65451866074676 20.199860507149864
    vertex 15.778479386684754 265.5999999828103 21.699860507149864
  endloop
endfacet
facet normal 0.13052619221757863 0.9914448613741361 -1.0144551837597284e-18
  outer loop
    vertex 15.364368914520588 265.65451866074676 21.699860507149864
    vertex 15.778479386684754 265.5999999828103 21.699860507149864
    vertex 15.364368914520588 265.65451866074676 20.199860507149864
  endloop
endfacet
facet normal -0.13052619222254688 0.9914448613734821 -1.014455183798342e-18
  outer loop
    vertex 16.192589858848653 265.6545186607488 20.199860507149864
    vertex 15.778479386684754 265.5999999828103 20.199860507149864
    vertex 16.192589858848653 265.6545186607488 21.699860507149864
  endloop
endfacet
facet normal -0.13052619222254688 0.9914448613734821 -1.014455183798342e-18
  outer loop
    vertex 15.778479386684754 265.5999999828103 21.699860507149864
    vertex 16.192589858848653 265.6545186607488 21.699860507149864
    vertex 15.778479386684754 265.5999999828103 20.199860507149864
  endloop
endfacet
facet normal 0.92387953251224 -0.38268343236278846 -1.439528339798503e-15
  outer loop
    vertex 14.232998064617222 267.6141104549705 21.699860507149864
    vertex 14.232998064617222 267.6141104549705 20.199860507149864
    vertex 14.39283874062367 267.99999998280686 21.699860507149864
  endloop
endfacet
facet normal 0.92387953251224 -0.38268343236278846 -1.439528339798503e-15
  outer loop
    vertex 14.39283874062367 267.99999998280686 20.199860507149864
    vertex 14.39283874062367 267.99999998280686 21.699860507149864
    vertex 14.232998064617222 267.6141104549705 20.199860507149864
  endloop
endfacet
facet normal 0.7933533402897183 0.6087614290106977 6.165976306688481e-18
  outer loop
    vertex 14.647108536785112 266.068629132909 21.699860507149864
    vertex 14.647108536785112 266.068629132909 20.199860507149864
    vertex 14.392838740627662 266.39999998280683 21.699860507149864
  endloop
endfacet
facet normal 0.7933533402897183 0.6087614290106977 6.165976306688481e-18
  outer loop
    vertex 14.392838740627662 266.39999998280683 20.199860507149864
    vertex 14.392838740627662 266.39999998280683 21.699860507149864
    vertex 14.647108536785112 266.068629132909 20.199860507149864
  endloop
endfacet
facet normal 0.9914448613741363 -0.13052619221757691 -4.890699209078614e-16
  outer loop
    vertex 14.178479386680765 267.1999999828063 21.699860507149864
    vertex 14.178479386680765 267.1999999828063 20.199860507149864
    vertex 14.232998064617222 267.6141104549705 21.699860507149864
  endloop
endfacet
facet normal 0.9914448613741363 -0.13052619221757691 -4.890699209078614e-16
  outer loop
    vertex 14.232998064617222 267.6141104549705 20.199860507149864
    vertex 14.232998064617222 267.6141104549705 21.699860507149864
    vertex 14.178479386680765 267.1999999828063 20.199860507149864
  endloop
endfacet
facet normal 0.9914448613734821 0.13052619222254688 1.9263880336254762e-18
  outer loop
    vertex 14.232998064619299 266.7858895106424 21.699860507149864
    vertex 14.232998064619299 266.7858895106424 20.199860507149864
    vertex 14.178479386680765 267.1999999828063 21.699860507149864
  endloop
endfacet
facet normal 0.9914448613734821 0.13052619222254688 1.9263880336254762e-18
  outer loop
    vertex 14.178479386680765 267.1999999828063 20.199860507149864
    vertex 14.178479386680765 267.1999999828063 21.699860507149864
    vertex 14.232998064619299 266.7858895106424 20.199860507149864
  endloop
endfacet
facet normal 0.9238795325103342 0.3826834323673898 -2.6122257588042246e-29
  outer loop
    vertex 14.392838740627662 266.39999998280683 21.699860507149864
    vertex 14.392838740627662 266.39999998280683 20.199860507149864
    vertex 14.232998064619299 266.7858895106424 21.699860507149864
  endloop
endfacet
facet normal 0.9238795325103342 0.3826834323673898 -2.6122257588042246e-29
  outer loop
    vertex 14.232998064619299 266.7858895106424 20.199860507149864
    vertex 14.232998064619299 266.7858895106424 21.699860507149864
    vertex 14.392838740627662 266.39999998280683 20.199860507149864
  endloop
endfacet
facet normal -0.38268343236277214 -0.9238795325122469 -3.47235460927945e-15
  outer loop
    vertex 16.192589858840936 268.7454813048738 20.199860507149864
    vertex 16.57847938667731 268.5856406288674 20.199860507149864
    vertex 16.192589858840936 268.7454813048738 21.699860507149864
  endloop
endfacet
facet normal -0.38268343236277214 -0.9238795325122469 -3.47235460927945e-15
  outer loop
    vertex 16.57847938667731 268.5856406288674 21.699860507149864
    vertex 16.192589858840936 268.7454813048738 21.699860507149864
    vertex 16.57847938667731 268.5856406288674 20.199860507149864
  endloop
endfacet
facet normal -0.13052619221757863 -0.9914448613741361 -7.456136145210785e-15
  outer loop
    vertex 15.77847938667677 268.7999999828103 20.199860507149864
    vertex 16.192589858840936 268.7454813048738 20.199860507149864
    vertex 15.77847938667677 268.7999999828103 21.699860507149864
  endloop
endfacet
facet normal -0.13052619221757863 -0.9914448613741361 -7.456136145210785e-15
  outer loop
    vertex 16.192589858840936 268.7454813048738 21.699860507149864
    vertex 15.77847938667677 268.7999999828103 21.699860507149864
    vertex 16.192589858840936 268.7454813048738 20.199860507149864
  endloop
endfacet
facet normal 0.7933533402927533 -0.6087614290067421 0.0
  outer loop
    vertex 14.39283874062367 267.99999998280686 21.699860507149864
    vertex 14.39283874062367 267.99999998280686 20.199860507149864
    vertex 14.647108536779472 268.33137083270594 21.699860507149864
  endloop
endfacet
facet normal 0.7933533402927533 -0.6087614290067421 0.0
  outer loop
    vertex 14.647108536779472 268.33137083270594 20.199860507149864
    vertex 14.647108536779472 268.33137083270594 21.699860507149864
    vertex 14.39283874062367 267.99999998280686 20.199860507149864
  endloop
endfacet
facet normal -0.6087614290106977 0.793353340289718 0.0
  outer loop
    vertex 16.909850236582052 266.0686291329146 20.199860507149864
    vertex 16.57847938668421 265.8143593367572 20.199860507149864
    vertex 16.909850236582052 266.0686291329146 21.699860507149864
  endloop
endfacet
facet normal -0.6087614290106977 0.793353340289718 0.0
  outer loop
    vertex 16.57847938668421 265.8143593367572 21.699860507149864
    vertex 16.909850236582052 266.0686291329146 21.699860507149864
    vertex 16.57847938668421 265.8143593367572 20.199860507149864
  endloop
endfacet
facet normal -0.9914448613734821 -0.13052619222254688 1.9263880336254762e-18
  outer loop
    vertex 17.37847938668076 267.1999999828143 20.199860507149864
    vertex 17.37847938668076 267.1999999828143 21.699860507149864
    vertex 17.323960708742227 267.6141104549782 20.199860507149864
  endloop
endfacet
facet normal -0.9914448613734821 -0.13052619222254688 1.9263880336254762e-18
  outer loop
    vertex 17.323960708742227 267.6141104549782 21.699860507149864
    vertex 17.323960708742227 267.6141104549782 20.199860507149864
    vertex 17.37847938668076 267.1999999828143 21.699860507149864
  endloop
endfacet
facet normal -0.9238795325122361 0.38268343236279795 1.439528339798539e-15
  outer loop
    vertex 17.164120032737856 266.3999999828137 21.699860507149864
    vertex 17.323960708744302 266.7858895106501 21.699860507149864
    vertex 17.164120032737856 266.39999998281377 20.199860507149864
  endloop
endfacet
facet normal -0.9238795325122361 0.38268343236279795 1.439528339798539e-15
  outer loop
    vertex 17.323960708744302 266.7858895106501 20.199860507149864
    vertex 17.164120032737856 266.39999998281377 20.199860507149864
    vertex 17.323960708744302 266.7858895106501 21.699860507149864
  endloop
endfacet
facet normal -0.6087614290067467 -0.7933533402927498 -2.9843325324377716e-15
  outer loop
    vertex 16.57847938667731 268.5856406288674 20.199860507149864
    vertex 16.90985023657641 268.3313708327116 20.199860507149864
    vertex 16.57847938667731 268.5856406288674 21.699860507149864
  endloop
endfacet
facet normal -0.6087614290067467 -0.7933533402927498 -2.9843325324377716e-15
  outer loop
    vertex 16.90985023657641 268.33137083271157 21.699860507149864
    vertex 16.57847938667731 268.5856406288674 21.699860507149864
    vertex 16.90985023657641 268.3313708327116 20.199860507149864
  endloop
endfacet
facet normal 0.38268343236741276 -0.9238795325103245 1.082019337284743e-29
  outer loop
    vertex 14.978479386677312 268.5856406288634 20.199860507149864
    vertex 15.364368914512871 268.7454813048718 20.199860507149864
    vertex 14.978479386677312 268.5856406288634 21.699860507149864
  endloop
endfacet
facet normal 0.38268343236741276 -0.9238795325103245 1.082019337284743e-29
  outer loop
    vertex 15.364368914512871 268.7454813048718 21.699860507149864
    vertex 14.978479386677312 268.5856406288634 21.699860507149864
    vertex 15.364368914512871 268.7454813048718 20.199860507149864
  endloop
endfacet
facet normal -0.92387953251034 -0.38268343236737545 -1.4395283398157839e-15
  outer loop
    vertex 17.323960708742227 267.6141104549782 20.199860507149864
    vertex 17.323960708742227 267.6141104549782 21.699860507149864
    vertex 17.164120032733862 267.9999999828138 20.199860507149864
  endloop
endfacet
facet normal -0.92387953251034 -0.38268343236737545 -1.4395283398157839e-15
  outer loop
    vertex 17.164120032733862 267.99999998281373 21.699860507149864
    vertex 17.164120032733862 267.9999999828138 20.199860507149864
    vertex 17.323960708742227 267.6141104549782 21.699860507149864
  endloop
endfacet
facet normal 0.6087614290106977 -0.793353340289718 0.0
  outer loop
    vertex 14.647108536779472 268.33137083270594 20.199860507149864
    vertex 14.978479386677312 268.5856406288634 20.199860507149864
    vertex 14.647108536779472 268.33137083270594 21.699860507149864
  endloop
endfacet
facet normal 0.6087614290106977 -0.793353340289718 0.0
  outer loop
    vertex 14.978479386677312 268.5856406288634 21.699860507149864
    vertex 14.647108536779472 268.33137083270594 21.699860507149864
    vertex 14.978479386677312 268.5856406288634 20.199860507149864
  endloop
endfacet
facet normal -0.3826834323673898 0.9238795325103342 1.082019337284678e-29
  outer loop
    vertex 16.57847938668421 265.8143593367572 20.199860507149864
    vertex 16.192589858848653 265.6545186607488 20.199860507149864
    vertex 16.57847938668421 265.8143593367572 21.699860507149864
  endloop
endfacet
facet normal -0.3826834323673898 0.9238795325103342 1.082019337284678e-29
  outer loop
    vertex 16.192589858848653 265.6545186607488 21.699860507149864
    vertex 16.57847938668421 265.8143593367572 21.699860507149864
    vertex 16.192589858848653 265.6545186607488 20.199860507149864
  endloop
endfacet
facet normal -0.7933533402897183 -0.6087614290106977 -4.56902049015827e-15
  outer loop
    vertex 17.164120032733862 267.99999998281373 21.699860507149864
    vertex 16.90985023657641 268.33137083271157 21.699860507149864
    vertex 17.164120032733862 267.9999999828138 20.199860507149864
  endloop
endfacet
facet normal -0.7933533402897183 -0.6087614290106977 -4.56902049015827e-15
  outer loop
    vertex 16.90985023657641 268.3313708327116 20.199860507149864
    vertex 17.164120032733862 267.9999999828138 20.199860507149864
    vertex 16.90985023657641 268.33137083271157 21.699860507149864
  endloop
endfacet
facet normal 0.13052619222250708 -0.9914448613734871 -3.730501688228468e-15
  outer loop
    vertex 15.364368914512871 268.7454813048718 20.199860507149864
    vertex 15.77847938667677 268.7999999828103 20.199860507149864
    vertex 15.364368914512871 268.7454813048718 21.699860507149864
  endloop
endfacet
facet normal 0.13052619222250708 -0.9914448613734871 -3.730501688228468e-15
  outer loop
    vertex 15.77847938667677 268.7999999828103 21.699860507149864
    vertex 15.364368914512871 268.7454813048718 21.699860507149864
    vertex 15.77847938667677 268.7999999828103 20.199860507149864
  endloop
endfacet
facet normal -0.7933533402927582 0.6087614290067357 2.2899588932312595e-15
  outer loop
    vertex 16.909850236582052 266.0686291329146 20.199860507149864
    vertex 16.909850236582052 266.0686291329146 21.699860507149864
    vertex 17.164120032737856 266.39999998281377 20.199860507149864
  endloop
endfacet
facet normal -0.7933533402927582 0.6087614290067357 2.2899588932312595e-15
  outer loop
    vertex 17.164120032737856 266.3999999828137 21.699860507149864
    vertex 17.164120032737856 266.39999998281377 20.199860507149864
    vertex 16.909850236582052 266.0686291329146 21.699860507149864
  endloop
endfacet
facet normal -0.9914448613741361 0.13052619221757863 1.9263880336267477e-18
  outer loop
    vertex 17.323960708744302 266.7858895106501 20.199860507149864
    vertex 17.323960708744302 266.7858895106501 21.699860507149864
    vertex 17.37847938668076 267.1999999828143 20.199860507149864
  endloop
endfacet
facet normal -0.9914448613741361 0.13052619221757863 1.9263880336267477e-18
  outer loop
    vertex 17.37847938668076 267.1999999828143 21.699860507149864
    vertex 17.37847938668076 267.1999999828143 20.199860507149864
    vertex 17.323960708744302 266.7858895106501 21.699860507149864
  endloop
endfacet
facet normal 3.8584857284164944e-09 0.9999999999585878 -9.100790380625563e-06
  outer loop
    vertex 23.828551912925352 285.3999888351358 6.4999872705809585
    vertex -1.2651042086449527 285.39999998597517 10.999518234589996
    vertex 23.82847937595584 285.3999999999193 10.999987269526331
  endloop
endfacet
facet normal 3.8584857284164944e-09 0.9999999999585878 -9.100790380625563e-06
  outer loop
    vertex 2.9807335547766574 285.4001426231933 20.19370938877053
    vertex -1.2715205730357035 285.40010449261763 20.19982821682793
    vertex 2.981243925156654 285.40011891816914 21.693583829038044
  endloop
endfacet
facet normal 3.8584857284164944e-09 0.9999999999585878 -9.100790380625563e-06
  outer loop
    vertex -2.618916206489867 285.4001048865626 20.464470104341814
    vertex 2.981243925156654 285.40011891816914 21.693583829038044
    vertex -1.2715205730357035 285.40010449261763 20.19982821682793
  endloop
endfacet
facet normal 3.8584857284164944e-09 0.9999999999585878 -9.100790380625563e-06
  outer loop
    vertex -2.434185025298738 285.40010525726854 20.810249832292293
    vertex 2.981243925156654 285.40011891816914 21.693583829038044
    vertex -2.618916206489867 285.4001048865626 20.464470104341814
  endloop
endfacet
facet normal 3.8584857284164944e-09 0.9999999999585878 -9.100790380625563e-06
  outer loop
    vertex -2.185535500276217 285.40010558220274 21.113338339616284
    vertex 2.981243925156654 285.40011891816914 21.693583829038044
    vertex -2.434185025298738 285.40010525726854 20.810249832292293
  endloop
endfacet
facet normal 3.8584857284164944e-09 0.9999999999585878 -9.100790380625563e-06
  outer loop
    vertex -1.8825261738060057 285.4001058488742 21.36208434991175
    vertex 2.981243925156654 285.40011891816914 21.693583829038044
    vertex -2.185535500276217 285.40010558220274 21.113338339616284
  endloop
endfacet
facet normal 3.8584857284164944e-09 0.9999999999585878 -9.100790380625563e-06
  outer loop
    vertex -1.536805278433321 285.4001060470316 21.54692561172469
    vertex 2.981243925156654 285.40011891816914 21.693583829038044
    vertex -1.8825261738060057 285.4001058488742 21.36208434991175
  endloop
endfacet
facet normal 3.8584857284164944e-09 0.9999999999585878 -9.100790380625563e-06
  outer loop
    vertex -1.161662957507775 285.4001061690573 21.660756488979022
    vertex 2.981243925156654 285.40011891816914 21.693583829038044
    vertex -1.536805278433321 285.4001060470316 21.54692561172469
  endloop
endfacet
facet normal 3.8584857284164944e-09 0.9999999999585878 -9.100790380625563e-06
  outer loop
    vertex -0.7715203677726002 285.40010621026056 21.699201114619665
    vertex 2.981243925156654 285.40011891816914 21.693583829038044
    vertex -1.161662957507775 285.4001061690573 21.660756488979022
  endloop
endfacet
facet normal 3.8584857284164944e-09 0.9999999999585878 -9.100790380625563e-06
  outer loop
    vertex -2.770948048851938 285.40010406604983 19.69913675071461
    vertex -1.2651042086449527 285.39999998597517 10.999518234589996
    vertex -2.7671703255684545 285.3999888211941 6.499162818256996
  endloop
endfacet
facet normal 3.8584857284164944e-09 0.9999999999585878 -9.100790380625563e-06
  outer loop
    vertex 23.828551912925352 285.3999888351358 6.4999872705809585
    vertex -2.7671703255684545 285.3999888211941 6.499162818256996
    vertex -1.2651042086449527 285.39999998597517 10.999518234589996
  endloop
endfacet
facet normal 3.8584857284164944e-09 0.9999999999585878 -9.100790380625563e-06
  outer loop
    vertex -1.2715205730357035 285.40010449261763 20.19982821682793
    vertex -1.2651042086449527 285.39999998597517 10.999518234589996
    vertex -2.770948048851938 285.40010406604983 19.69913675071461
  endloop
endfacet
facet normal 3.8584857284164944e-09 0.9999999999585878 -9.100790380625563e-06
  outer loop
    vertex -2.7326276394739257 285.4001044843356 20.089291560746272
    vertex -1.2715205730357035 285.40010449261763 20.19982821682793
    vertex -2.770948048851938 285.40010406604983 19.69913675071461
  endloop
endfacet
facet normal 3.8584857284164944e-09 0.9999999999585878 -9.100790380625563e-06
  outer loop
    vertex -2.618916206489867 285.4001048865626 20.464470104341814
    vertex -1.2715205730357035 285.40010449261763 20.19982821682793
    vertex -2.7326276394739257 285.4001044843356 20.089291560746272
  endloop
endfacet
facet normal 0.9999999995819691 1.0464639088289351e-09 2.8914737941187006e-05
  outer loop
    vertex 0.5785077628256149 263.6999738279997 8.499466837008912
    vertex 0.5785077477334701 270.6999738280249 8.499662748582429
    vertex 0.5784295132485625 263.6999891976665 10.999619178624764
  endloop
endfacet
facet normal 0.9999999995819691 1.0464639088289351e-09 2.8914737941187006e-05
  outer loop
    vertex 0.5784294981564178 270.69998919769176 10.99981509019828
    vertex 0.5784295132485625 263.6999891976665 10.999619178624764
    vertex 0.5785077477334701 270.6999738280249 8.499662748582429
  endloop
endfacet
facet normal 2.3037539129990522e-11 -0.9999999999811 6.148195801473655e-06
  outer loop
    vertex 0.5785077477334701 270.6999738280249 8.499662748582429
    vertex 6.9785077520800645 270.69997383010826 8.499677887807607
    vertex 0.5784294981564178 270.69998919769176 10.99981509019828
  endloop
endfacet
facet normal 2.3037539129990522e-11 -0.9999999999811 6.148195801473655e-06
  outer loop
    vertex 6.978429502503012 270.69998919977513 10.99983022942346
    vertex 0.5784294981564178 270.69998919769176 10.99981509019828
    vertex 6.9785077520800645 270.69997383010826 8.499677887807607
  endloop
endfacet
facet normal -0.9999999995819691 1.820834341629152e-10 -2.8914737943419744e-05
  outer loop
    vertex 6.978507747759334 263.6999738298425 8.499770962037278
    vertex 6.978429498182282 263.6999891995094 10.99992330365313
    vertex 6.9785077520800645 270.69997383010826 8.499677887807607
  endloop
endfacet
facet normal -0.9999999995819691 1.820834341629152e-10 -2.8914737943419744e-05
  outer loop
    vertex 6.978429502503012 270.69998919977513 10.99983022942346
    vertex 6.9785077520800645 270.69997383010826 8.499677887807607
    vertex 6.978429498182282 263.6999891995094 10.99992330365313
  endloop
endfacet
facet normal 0.9999999998387905 -2.5350743660775258e-11 1.79560283654939e-05
  outer loop
    vertex 12.578566184015624 263.699972889212 8.499957517383862
    vertex 12.578566183924686 270.6999728867921 8.499973053170951
    vertex 12.578487938279006 263.69998825964586 10.999966985899853
  endloop
endfacet
facet normal 0.9999999998387905 -2.5350743660775258e-11 1.79560283654939e-05
  outer loop
    vertex 12.578487938188067 270.69998825722604 10.999982521686942
    vertex 12.578487938279006 263.69998825964586 10.999966985899853
    vertex 12.578566183924686 270.6999728867921 8.499973053170951
  endloop
endfacet
facet normal 3.6982542574953125e-10 -0.9999999999811 6.14819581232753e-06
  outer loop
    vertex 12.578566183924686 270.6999728867921 8.499973053170951
    vertex 18.978566182984025 270.69997288890426 8.499985769635492
    vertex 12.578487938188067 270.69998825722604 10.999982521686942
  endloop
endfacet
facet normal 3.6982542574953125e-10 -0.9999999999811 6.14819581232753e-06
  outer loop
    vertex 18.978487937247404 270.69998825933817 10.999995238151481
    vertex 12.578487938188067 270.69998825722604 10.999982521686942
    vertex 18.978566182984025 270.69997288890426 8.499985769635492
  endloop
endfacet
facet normal -0.9999999998387905 -1.9660406358872036e-10 -1.79560283651296e-05
  outer loop
    vertex 18.978566186513156 263.699972888879 8.49989000451932
    vertex 18.978487940776535 263.69998825931293 10.999899473035311
    vertex 18.978566182984025 270.69997288890426 8.499985769635492
  endloop
endfacet
facet normal -0.9999999998387905 -1.9660406358872036e-10 -1.79560283651296e-05
  outer loop
    vertex 18.978487937247404 270.69998825933817 10.999995238151481
    vertex 18.978566182984025 270.69997288890426 8.499985769635492
    vertex 18.978487940776535 263.69998825931293 10.999899473035311
  endloop
endfacet
facet normal 4.280968752256346e-06 -5.8701252851578235e-06 0.9999999999736076
  outer loop
    vertex 18.978566186513156 263.699972888879 8.49989000451932
    vertex 18.978566182984025 270.69997288890426 8.499985769635492
    vertex 12.578566184015624 263.699972889212 8.499957517383862
  endloop
endfacet
facet normal 4.280968752256346e-06 -5.8701252851578235e-06 0.9999999999736076
  outer loop
    vertex 12.578566183924686 270.6999728867921 8.499973053170951
    vertex 12.578566184015624 263.699972889212 8.499957517383862
    vertex 18.978566182984025 270.69997288890426 8.499985769635492
  endloop
endfacet
facet normal -2.4942519787238834e-05 -5.399927552266933e-06 0.9999999996743558
  outer loop
    vertex 6.9785077520800645 270.69997383010826 8.499677887807607
    vertex 0.5785077477334701 270.6999738280249 8.499662748582429
    vertex 6.978507747759334 263.6999738298425 8.499770962037278
  endloop
endfacet
facet normal -2.4942519787238834e-05 -5.399927552266933e-06 0.9999999996743558
  outer loop
    vertex 0.5785077628256149 263.6999738279997 8.499466837008912
    vertex 6.978507747759334 263.6999738298425 8.499770962037278
    vertex 0.5785077477334701 270.6999738280249 8.499662748582429
  endloop
endfacet
facet normal 3.0999433524363454e-05 1.2992257023310208e-07 -0.9999999995195092
  outer loop
    vertex 23.828551913016607 263.699988835133 6.499984451261185
    vertex -2.7671703254772004 263.69998882119125 6.499159998937223
    vertex 23.828551912925352 285.3999888351358 6.4999872705809585
  endloop
endfacet
facet normal 3.0999433524363454e-05 1.2992257023310208e-07 -0.9999999995195092
  outer loop
    vertex -2.7671703255684545 285.3999888211941 6.499162818256996
    vertex 23.828551912925352 285.3999888351358 6.4999872705809585
    vertex -2.7671703254772004 263.69998882119125 6.499159998937223
  endloop
endfacet
facet normal -1.0 3.8985707833861813e-16 0.0
  outer loop
    vertex 22.328479376047095 263.699999999914 10.999984450206558
    vertex 22.328479376047095 263.699999999914 20.199984450206554
    vertex 22.328479375956338 271.7999999999531 10.999987269530632
  endloop
endfacet
facet normal -1.0 3.8985707833861813e-16 0.0
  outer loop
    vertex 22.328479375956338 271.7999999999531 20.19998726953063
    vertex 22.328479375956338 271.7999999999531 10.999987269530632
    vertex 22.328479376047095 263.699999999914 20.199984450206554
  endloop
endfacet
facet normal -1.202857411025333e-05 6.216015492746977e-06 0.9999999999083373
  outer loop
    vertex 22.328479376047095 263.699999999914 10.999984450206558
    vertex 22.328479375956338 271.7999999999531 10.999987269530632
    vertex 18.978487940776535 263.69998825931293 10.999899473035311
  endloop
endfacet
facet normal -1.202857411025333e-05 6.216015492746977e-06 0.9999999999083373
  outer loop
    vertex 12.578487938279006 263.69998825964586 10.999966985899853
    vertex 12.578487938188067 270.69998825722604 10.999982521686942
    vertex 6.978429498182282 263.6999891995094 10.99992330365313
  endloop
endfacet
facet normal -1.202857411025333e-05 6.216015492746977e-06 0.9999999999083373
  outer loop
    vertex 6.978429502503012 270.69998919977513 10.99983022942346
    vertex 6.978429498182282 263.6999891995094 10.99992330365313
    vertex 12.578487938188067 270.69998825722604 10.999982521686942
  endloop
endfacet
facet normal -1.202857411025333e-05 6.216015492746977e-06 0.9999999999083373
  outer loop
    vertex 0.5784295132485625 263.6999891976665 10.999619178624764
    vertex 0.5784294981564178 270.69998919769176 10.99981509019828
    vertex -1.2651042184922983 263.6999999859723 10.999824380970802
  endloop
endfacet
facet normal -1.202857411025333e-05 6.216015492746977e-06 0.9999999999083373
  outer loop
    vertex -1.2651042086449527 285.39999998597517 10.999518234589996
    vertex -1.2651042184922983 263.6999999859723 10.999824380970802
    vertex 0.5784294981564178 270.69998919769176 10.99981509019828
  endloop
endfacet
facet normal -1.202857411025333e-05 6.216015492746977e-06 0.9999999999083373
  outer loop
    vertex 23.828479375956334 271.7999999999557 10.999987269530632
    vertex 23.82847937595584 285.3999999999193 10.999987269526331
    vertex 22.328479375956338 271.7999999999531 10.999987269530632
  endloop
endfacet
facet normal -1.202857411025333e-05 6.216015492746977e-06 0.9999999999083373
  outer loop
    vertex -1.2651042086449527 285.39999998597517 10.999518234589996
    vertex 22.328479375956338 271.7999999999531 10.999987269530632
    vertex 23.82847937595584 285.3999999999193 10.999987269526331
  endloop
endfacet
facet normal -1.202857411025333e-05 6.216015492746977e-06 0.9999999999083373
  outer loop
    vertex 18.978487937247404 270.69998825933817 10.999995238151481
    vertex 22.328479375956338 271.7999999999531 10.999987269530632
    vertex -1.2651042086449527 285.39999998597517 10.999518234589996
  endloop
endfacet
facet normal -1.202857411025333e-05 6.216015492746977e-06 0.9999999999083373
  outer loop
    vertex 18.978487940776535 263.69998825931293 10.999899473035311
    vertex 22.328479375956338 271.7999999999531 10.999987269530632
    vertex 18.978487937247404 270.69998825933817 10.999995238151481
  endloop
endfacet
facet normal -1.202857411025333e-05 6.216015492746977e-06 0.9999999999083373
  outer loop
    vertex 12.578487938188067 270.69998825722604 10.999982521686942
    vertex 18.978487937247404 270.69998825933817 10.999995238151481
    vertex -1.2651042086449527 285.39999998597517 10.999518234589996
  endloop
endfacet
facet normal -1.202857411025333e-05 6.216015492746977e-06 0.9999999999083373
  outer loop
    vertex 6.978429502503012 270.69998919977513 10.99983022942346
    vertex 12.578487938188067 270.69998825722604 10.999982521686942
    vertex -1.2651042086449527 285.39999998597517 10.999518234589996
  endloop
endfacet
facet normal -1.202857411025333e-05 6.216015492746977e-06 0.9999999999083373
  outer loop
    vertex 0.5784294981564178 270.69998919769176 10.99981509019828
    vertex 6.978429502503012 270.69998919977513 10.99983022942346
    vertex -1.2651042086449527 285.39999998597517 10.999518234589996
  endloop
endfacet
facet normal 0.9999997568037483 4.649500201148239e-09 0.0006974184142566575
  outer loop
    vertex -1.271520572944946 263.6999999859723 20.199825397503858
    vertex -1.2651042184922983 263.6999999859723 10.999824380970802
    vertex -1.2715205730357035 285.40010449261763 20.19982821682793
  endloop
endfacet
facet normal 0.9999997568037483 4.649500201148239e-09 0.0006974184142566575
  outer loop
    vertex -1.2651042086449527 285.39999998597517 10.999518234589996
    vertex -1.2715205730357035 285.40010449261763 20.19982821682793
    vertex -1.2651042184922983 263.6999999859723 10.999824380970802
  endloop
endfacet
facet normal -8.422299894543069e-13 1.0 1.3732010697624544e-13
  outer loop
    vertex 23.828479375956334 271.7999999999557 10.999987269530632
    vertex 22.328479375956338 271.7999999999531 10.999987269530632
    vertex 23.828479375956334 271.7999999999531 20.19998726953063
  endloop
endfacet
facet normal -8.422299894543069e-13 1.0 1.3732010697624544e-13
  outer loop
    vertex 22.328479375956338 271.7999999999531 20.19998726953063
    vertex 23.828479375956334 271.7999999999531 20.19998726953063
    vertex 22.328479375956338 271.7999999999531 10.999987269530632
  endloop
endfacet
facet normal 9.216132608553242e-09 -0.9999999999997347 7.28615448927847e-07
  outer loop
    vertex 18.978566186513156 263.699972888879 8.49989000451932
    vertex 12.578566184015624 263.699972889212 8.499957517383862
    vertex 6.978507747759334 263.6999738298425 8.499770962037278
  endloop
endfacet
facet normal 9.216132608553242e-09 -0.9999999999997347 7.28615448927847e-07
  outer loop
    vertex 6.978429498182282 263.6999891995094 10.99992330365313
    vertex 6.978507747759334 263.6999738298425 8.499770962037278
    vertex 12.578566184015624 263.699972889212 8.499957517383862
  endloop
endfacet
facet normal 9.216132608553242e-09 -0.9999999999997347 7.28615448927847e-07
  outer loop
    vertex 12.578487938279006 263.69998825964586 10.999966985899853
    vertex 6.978429498182282 263.6999891995094 10.99992330365313
    vertex 12.578566184015624 263.699972889212 8.499957517383862
  endloop
endfacet
facet normal 9.216132608553242e-09 -0.9999999999997347 7.28615448927847e-07
  outer loop
    vertex 23.828551913016607 263.699988835133 6.499984451261185
    vertex 0.5785077628256149 263.6999738279997 8.499466837008912
    vertex -2.7671703254772004 263.69998882119125 6.499159998937223
  endloop
endfacet
facet normal 9.216132608553242e-09 -0.9999999999997347 7.28615448927847e-07
  outer loop
    vertex -1.2651042184922983 263.6999999859723 10.999824380970802
    vertex -2.7671703254772004 263.69998882119125 6.499159998937223
    vertex 0.5785077628256149 263.6999738279997 8.499466837008912
  endloop
endfacet
facet normal 9.216132608553242e-09 -0.9999999999997347 7.28615448927847e-07
  outer loop
    vertex -2.770948049359103 263.6999978417852 19.69916001527278
    vertex -2.7671703254772004 263.69998882119125 6.499159998937223
    vertex -1.2651042184922983 263.6999999859723 10.999824380970802
  endloop
endfacet
facet normal 9.216132608553242e-09 -0.9999999999997347 7.28615448927847e-07
  outer loop
    vertex 0.5784295132485625 263.6999891976665 10.999619178624764
    vertex -1.2651042184922983 263.6999999859723 10.999824380970802
    vertex 0.5785077628256149 263.6999738279997 8.499466837008912
  endloop
endfacet
facet normal 9.216132608553242e-09 -0.9999999999997347 7.28615448927847e-07
  outer loop
    vertex -1.271520572944946 263.6999999859723 20.199825397503858
    vertex -2.770948049359103 263.6999978417852 19.69916001527278
    vertex -1.2651042184922983 263.6999999859723 10.999824380970802
  endloop
endfacet
facet normal 9.216132608553242e-09 -0.9999999999997347 7.28615448927847e-07
  outer loop
    vertex -2.732627639981091 263.6999982600709 20.08931482530444
    vertex -2.770948049359103 263.6999978417852 19.69916001527278
    vertex -1.271520572944946 263.6999999859723 20.199825397503858
  endloop
endfacet
facet normal 9.216132608553242e-09 -0.9999999999997347 7.28615448927847e-07
  outer loop
    vertex -2.6189162069970324 263.69999866229796 20.46449336889998
    vertex -2.732627639981091 263.6999982600709 20.08931482530444
    vertex -1.271520572944946 263.6999999859723 20.199825397503858
  endloop
endfacet
facet normal 9.216132608553242e-09 -0.9999999999997347 7.28615448927847e-07
  outer loop
    vertex 22.328479376047095 263.699999999914 20.199984450206554
    vertex -2.6189162069970324 263.69999866229796 20.46449336889998
    vertex -1.271520572944946 263.6999999859723 20.199825397503858
  endloop
endfacet
facet normal 9.216132608553242e-09 -0.9999999999997347 7.28615448927847e-07
  outer loop
    vertex 23.828479376047092 263.699999999914 21.699984450206557
    vertex 22.328479376047095 263.699999999914 10.999984450206558
    vertex 23.828551913016607 263.699988835133 6.499984451261185
  endloop
endfacet
facet normal 9.216132608553242e-09 -0.9999999999997347 7.28615448927847e-07
  outer loop
    vertex 18.978566186513156 263.699972888879 8.49989000451932
    vertex 23.828551913016607 263.699988835133 6.499984451261185
    vertex 22.328479376047095 263.699999999914 10.999984450206558
  endloop
endfacet
facet normal 9.216132608553242e-09 -0.9999999999997347 7.28615448927847e-07
  outer loop
    vertex 0.5785077628256149 263.6999738279997 8.499466837008912
    vertex 23.828551913016607 263.699988835133 6.499984451261185
    vertex 18.978566186513156 263.699972888879 8.49989000451932
  endloop
endfacet
facet normal 9.216132608553242e-09 -0.9999999999997347 7.28615448927847e-07
  outer loop
    vertex 6.978507747759334 263.6999738298425 8.499770962037278
    vertex 0.5785077628256149 263.6999738279997 8.499466837008912
    vertex 18.978566186513156 263.699972888879 8.49989000451932
  endloop
endfacet
facet normal 9.216132608553242e-09 -0.9999999999997347 7.28615448927847e-07
  outer loop
    vertex 18.978487940776535 263.69998825931293 10.999899473035311
    vertex 18.978566186513156 263.699972888879 8.49989000451932
    vertex 22.328479376047095 263.699999999914 10.999984450206558
  endloop
endfacet
facet normal 9.216132608553242e-09 -0.9999999999997347 7.28615448927847e-07
  outer loop
    vertex 22.328479376047095 263.699999999914 20.199984450206554
    vertex 22.328479376047095 263.699999999914 10.999984450206558
    vertex 23.828479376047092 263.699999999914 21.699984450206557
  endloop
endfacet
facet normal 9.216132608553242e-09 -0.9999999999997347 7.28615448927847e-07
  outer loop
    vertex -2.6189162069970324 263.69999866229796 20.46449336889998
    vertex 22.328479376047095 263.699999999914 20.199984450206554
    vertex 23.828479376047092 263.699999999914 21.699984450206557
  endloop
endfacet
facet normal 9.216132608553242e-09 -0.9999999999997347 7.28615448927847e-07
  outer loop
    vertex -2.434185025805903 263.69999903300385 20.810273096850462
    vertex -2.6189162069970324 263.69999866229796 20.46449336889998
    vertex 23.828479376047092 263.699999999914 21.699984450206557
  endloop
endfacet
facet normal 9.216132608553242e-09 -0.9999999999997347 7.28615448927847e-07
  outer loop
    vertex -2.1855355007833825 263.69999935793805 21.113361604174454
    vertex -2.434185025805903 263.69999903300385 20.810273096850462
    vertex 23.828479376047092 263.699999999914 21.699984450206557
  endloop
endfacet
facet normal 9.216132608553242e-09 -0.9999999999997347 7.28615448927847e-07
  outer loop
    vertex -1.882526174313171 263.6999996246095 21.36210761446992
    vertex -2.1855355007833825 263.69999935793805 21.113361604174454
    vertex 23.828479376047092 263.699999999914 21.699984450206557
  endloop
endfacet
facet normal 9.216132608553242e-09 -0.9999999999997347 7.28615448927847e-07
  outer loop
    vertex -1.5368052789404865 263.6999998227669 21.54694887628286
    vertex -1.882526174313171 263.6999996246095 21.36210761446992
    vertex 23.828479376047092 263.699999999914 21.699984450206557
  endloop
endfacet
facet normal 9.216132608553242e-09 -0.9999999999997347 7.28615448927847e-07
  outer loop
    vertex -1.1616629580149405 263.6999999447927 21.660779753537188
    vertex -1.5368052789404865 263.6999998227669 21.54694887628286
    vertex 23.828479376047092 263.699999999914 21.699984450206557
  endloop
endfacet
facet normal 9.216132608553242e-09 -0.9999999999997347 7.28615448927847e-07
  outer loop
    vertex -0.7715203682797656 263.6999999859959 21.69922437917783
    vertex -1.1616629580149405 263.6999999447927 21.660779753537188
    vertex 23.828479376047092 263.699999999914 21.699984450206557
  endloop
endfacet
facet normal -0.0980649744477931 1.0669290198969044e-06 0.9951800142614479
  outer loop
    vertex -0.7715203677726002 285.40010621026056 21.699201114619665
    vertex -1.161662957507775 285.4001061690573 21.660756488979022
    vertex -0.7715203682797656 263.6999999859959 21.69922437917783
  endloop
endfacet
facet normal -0.0980649744477931 1.0669290198969044e-06 0.9951800142614479
  outer loop
    vertex -1.1616629580149405 263.6999999447927 21.660779753537188
    vertex -0.7715203682797656 263.6999999859959 21.69922437917783
    vertex -1.161662957507775 285.4001061690573 21.660756488979022
  endloop
endfacet
facet normal -0.2903610552397955 1.0259121334078037e-06 0.9569171633945021
  outer loop
    vertex -1.161662957507775 285.4001061690573 21.660756488979022
    vertex -1.536805278433321 285.4001060470316 21.54692561172469
    vertex -1.1616629580149405 263.6999999447927 21.660779753537188
  endloop
endfacet
facet normal -0.2903610552397955 1.0259121334078037e-06 0.9569171633945021
  outer loop
    vertex -1.5368052789404865 263.6999998227669 21.54694887628286
    vertex -1.1616629580149405 263.6999999447927 21.660779753537188
    vertex -1.536805278433321 285.4001060470316 21.54692561172469
  endloop
endfacet
facet normal -0.47149512615931705 9.454573086872594e-07 0.8818686670968165
  outer loop
    vertex -1.536805278433321 285.4001060470316 21.54692561172469
    vertex -1.8825261738060057 285.4001058488742 21.36208434991175
    vertex -1.5368052789404865 263.6999998227669 21.54694887628286
  endloop
endfacet
facet normal -0.47149512615931705 9.454573086872594e-07 0.8818686670968165
  outer loop
    vertex -1.882526174313171 263.6999996246095 21.36210761446992
    vertex -1.5368052789404865 263.6999998227669 21.54694887628286
    vertex -1.8825261738060057 285.4001058488742 21.36208434991175
  endloop
endfacet
facet normal -0.6345040623266563 8.286573763045353e-07 0.7729195267880636
  outer loop
    vertex -1.8825261738060057 285.4001058488742 21.36208434991175
    vertex -2.185535500276217 285.40010558220274 21.113338339616284
    vertex -1.882526174313171 263.6999996246095 21.36210761446992
  endloop
endfacet
facet normal -0.6345040623266563 8.286573763045353e-07 0.7729195267880636
  outer loop
    vertex -2.1855355007833825 263.69999935793805 21.113361604174454
    vertex -1.882526174313171 263.6999996246095 21.36210761446992
    vertex -2.185535500276217 285.40010558220274 21.113338339616284
  endloop
endfacet
facet normal -0.7731215021827345 6.800023392229972e-07 0.6342579466291691
  outer loop
    vertex -2.434185025805903 263.69999903300385 20.810273096850462
    vertex -2.1855355007833825 263.69999935793805 21.113361604174454
    vertex -2.434185025298738 285.40010525726854 20.810249832292293
  endloop
endfacet
facet normal -0.7731215021827345 6.800023392229972e-07 0.6342579466291691
  outer loop
    vertex -2.185535500276217 285.40010558220274 21.113338339616284
    vertex -2.434185025298738 285.40010525726854 20.810249832292293
    vertex -2.1855355007833825 263.69999935793805 21.113361604174454
  endloop
endfacet
facet normal -0.8820187378851921 5.052067688754674e-07 0.47121433129644696
  outer loop
    vertex -2.6189162069970324 263.69999866229796 20.46449336889998
    vertex -2.434185025805903 263.69999903300385 20.810273096850462
    vertex -2.618916206489867 285.4001048865626 20.464470104341814
  endloop
endfacet
facet normal -0.8820187378851921 5.052067688754674e-07 0.47121433129644696
  outer loop
    vertex -2.434185025298738 285.40010525726854 20.810249832292293
    vertex -2.618916206489867 285.4001048865626 20.464470104341814
    vertex -2.434185025805903 263.69999903300385 20.810273096850462
  endloop
endfacet
facet normal -0.9570095605810878 3.109901265893648e-07 0.29005637547948643
  outer loop
    vertex -2.732627639981091 263.6999982600709 20.08931482530444
    vertex -2.6189162069970324 263.69999866229796 20.46449336889998
    vertex -2.7326276394739257 285.4001044843356 20.089291560746272
  endloop
endfacet
facet normal -0.9570095605810878 3.109901265893648e-07 0.29005637547948643
  outer loop
    vertex -2.618916206489867 285.4001048865626 20.464470104341814
    vertex -2.7326276394739257 285.4001044843356 20.089291560746272
    vertex -2.6189162069970324 263.69999866229796 20.46449336889998
  endloop
endfacet
facet normal -0.9952111859294582 1.0481845520915674e-07 0.09774812223705491
  outer loop
    vertex -2.770948049359103 263.6999978417852 19.69916001527278
    vertex -2.732627639981091 263.6999982600709 20.08931482530444
    vertex -2.770948048851938 285.40010406604983 19.69913675071461
  endloop
endfacet
facet normal -0.9952111859294582 1.0481845520915674e-07 0.09774812223705491
  outer loop
    vertex -2.7326276394739257 285.4001044843356 20.089291560746272
    vertex -2.770948048851938 285.40010406604983 19.69913675071461
    vertex -2.732627639981091 263.6999982600709 20.08931482530444
  endloop
endfacet
facet normal 4.804747863816358e-06 0.9999999997518665 -2.1752738242280642e-05
  outer loop
    vertex 2.9807494591910983 277.55014389341005 20.19331142576781
    vertex 2.9812598295710946 277.5501201883859 21.693185866035325
    vertex 23.828495984653976 277.5499999965211 20.19979056661722
  endloop
endfacet
facet normal 4.804747863816358e-06 0.9999999997518665 -2.1752738242280642e-05
  outer loop
    vertex 23.828495984653976 277.5499999965211 21.69979056661722
    vertex 23.828495984653976 277.5499999965211 20.19979056661722
    vertex 2.9812598295710946 277.5501201883859 21.693185866035325
  endloop
endfacet
facet normal -0.00011073722439293736 0.00011965960728818618 0.9999999867094227
  outer loop
    vertex 17.37847938668076 267.1999999828143 21.699860507149864
    vertex 17.323960708744302 266.7858895106501 21.699860507149864
    vertex 23.828479376047092 263.699999999914 21.699984450206557
  endloop
endfacet
facet normal -0.00011073722439293736 0.00011965960728818618 0.9999999867094227
  outer loop
    vertex 17.164120032737856 266.3999999828137 21.699860507149864
    vertex 23.828479376047092 263.699999999914 21.699984450206557
    vertex 17.323960708744302 266.7858895106501 21.699860507149864
  endloop
endfacet
facet normal -0.00011073722439293736 0.00011965960728818618 0.9999999867094227
  outer loop
    vertex 16.909850236582052 266.0686291329146 21.699860507149864
    vertex 23.828479376047092 263.699999999914 21.699984450206557
    vertex 17.164120032737856 266.3999999828137 21.699860507149864
  endloop
endfacet
facet normal -0.00011073722439293736 0.00011965960728818618 0.9999999867094227
  outer loop
    vertex 16.57847938668421 265.8143593367572 21.699860507149864
    vertex 23.828479376047092 263.699999999914 21.699984450206557
    vertex 16.909850236582052 266.0686291329146 21.699860507149864
  endloop
endfacet
facet normal -0.00011073722439293736 0.00011965960728818618 0.9999999867094227
  outer loop
    vertex 16.192589858848653 265.6545186607488 21.699860507149864
    vertex 23.828479376047092 263.699999999914 21.699984450206557
    vertex 16.57847938668421 265.8143593367572 21.699860507149864
  endloop
endfacet
facet normal -0.00011073722439293736 0.00011965960728818618 0.9999999867094227
  outer loop
    vertex 15.778479386684754 265.5999999828103 21.699860507149864
    vertex 23.828479376047092 263.699999999914 21.699984450206557
    vertex 16.192589858848653 265.6545186607488 21.699860507149864
  endloop
endfacet
facet normal -0.00011073722439293736 0.00011965960728818618 0.9999999867094227
  outer loop
    vertex -0.7715203682797656 263.6999999859959 21.69922437917783
    vertex 23.828479376047092 263.699999999914 21.699984450206557
    vertex 15.778479386684754 265.5999999828103 21.699860507149864
  endloop
endfacet
facet normal -0.00011073722439293736 0.00011965960728818618 0.9999999867094227
  outer loop
    vertex 15.364368914520588 265.65451866074676 21.699860507149864
    vertex -0.7715203682797656 263.6999999859959 21.69922437917783
    vertex 15.778479386684754 265.5999999828103 21.699860507149864
  endloop
endfacet
facet normal -0.00011073722439293736 0.00011965960728818618 0.9999999867094227
  outer loop
    vertex 14.978479386684215 265.81435933675317 21.699860507149864
    vertex -0.7715203682797656 263.6999999859959 21.69922437917783
    vertex 15.364368914520588 265.65451866074676 21.699860507149864
  endloop
endfacet
facet normal -0.00011073722439293736 0.00011965960728818618 0.9999999867094227
  outer loop
    vertex 14.647108536785112 266.068629132909 21.699860507149864
    vertex -0.7715203682797656 263.6999999859959 21.69922437917783
    vertex 14.978479386684215 265.81435933675317 21.699860507149864
  endloop
endfacet
facet normal -0.00011073722439293736 0.00011965960728818618 0.9999999867094227
  outer loop
    vertex 14.392838740627662 266.39999998280683 21.699860507149864
    vertex -0.7715203682797656 263.6999999859959 21.69922437917783
    vertex 14.647108536785112 266.068629132909 21.699860507149864
  endloop
endfacet
facet normal -0.00011073722439293736 0.00011965960728818618 0.9999999867094227
  outer loop
    vertex 14.232998064619299 266.7858895106424 21.699860507149864
    vertex -0.7715203682797656 263.6999999859959 21.69922437917783
    vertex 14.392838740627662 266.39999998280683 21.699860507149864
  endloop
endfacet
facet normal -0.00011073722439293736 0.00011965960728818618 0.9999999867094227
  outer loop
    vertex 14.178479386680765 267.1999999828063 21.699860507149864
    vertex -0.7715203682797656 263.6999999859959 21.69922437917783
    vertex 14.232998064619299 266.7858895106424 21.699860507149864
  endloop
endfacet
facet normal -0.00011073722439293736 0.00011965960728818618 0.9999999867094227
  outer loop
    vertex 4.192589858848493 265.6545186607185 21.699860507149864
    vertex -0.7715203682797656 263.6999999859959 21.69922437917783
    vertex 14.178479386680765 267.1999999828063 21.699860507149864
  endloop
endfacet
facet normal -0.00011073722439293736 0.00011965960728818618 0.9999999867094227
  outer loop
    vertex 4.5784793866840765 265.81435933672685 21.699860507149864
    vertex 4.192589858848493 265.6545186607185 21.699860507149864
    vertex 14.178479386680765 267.1999999828063 21.699860507149864
  endloop
endfacet
facet normal -0.00011073722439293736 0.00011965960728818618 0.9999999867094227
  outer loop
    vertex 4.909850236581915 266.06862913288427 21.699860507149864
    vertex 4.5784793866840765 265.81435933672685 21.699860507149864
    vertex 14.178479386680765 267.1999999828063 21.699860507149864
  endloop
endfacet
facet normal -0.00011073722439293736 0.00011965960728818618 0.9999999867094227
  outer loop
    vertex 5.164120032737741 266.39999998278336 21.699860507149864
    vertex 4.909850236581915 266.06862913288427 21.699860507149864
    vertex 14.178479386680765 267.1999999828063 21.699860507149864
  endloop
endfacet
facet normal -0.00011073722439293736 0.00011965960728818618 0.9999999867094227
  outer loop
    vertex 5.3239607087442105 266.7858895106197 21.699860507149864
    vertex 5.164120032737741 266.39999998278336 21.699860507149864
    vertex 14.178479386680765 267.1999999828063 21.699860507149864
  endloop
endfacet
facet normal -0.00011073722439293736 0.00011965960728818618 0.9999999867094227
  outer loop
    vertex 5.378479386680691 267.19999998278394 21.699860507149864
    vertex 5.3239607087442105 266.7858895106197 21.699860507149864
    vertex 14.178479386680765 267.1999999828063 21.699860507149864
  endloop
endfacet
facet normal -0.00011073722439293736 0.00011965960728818618 0.9999999867094227
  outer loop
    vertex 3.7784793866845967 265.59999998278 21.699860507149864
    vertex -0.7715203682797656 263.6999999859959 21.69922437917783
    vertex 4.192589858848493 265.6545186607185 21.699860507149864
  endloop
endfacet
facet normal -0.00011073722439293736 0.00011965960728818618 0.9999999867094227
  outer loop
    vertex 3.3643689145204294 265.65451866071646 21.699860507149864
    vertex -0.7715203682797656 263.6999999859959 21.69922437917783
    vertex 3.7784793866845967 265.59999998278 21.699860507149864
  endloop
endfacet
facet normal -0.00011073722439293736 0.00011965960728818618 0.9999999867094227
  outer loop
    vertex 2.978479386684079 265.81435933672293 21.699860507149864
    vertex -0.7715203682797656 263.6999999859959 21.69922437917783
    vertex 3.3643689145204294 265.65451866071646 21.699860507149864
  endloop
endfacet
facet normal -0.00011073722439293736 0.00011965960728818618 0.9999999867094227
  outer loop
    vertex 2.6471085367849763 266.06862913287875 21.699860507149864
    vertex -0.7715203682797656 263.6999999859959 21.69922437917783
    vertex 2.978479386684079 265.81435933672293 21.699860507149864
  endloop
endfacet
facet normal -0.00011073722439293736 0.00011965960728818618 0.9999999867094227
  outer loop
    vertex 2.3928387406275493 266.3999999827766 21.699860507149864
    vertex -0.7715203682797656 263.6999999859959 21.69922437917783
    vertex 2.6471085367849763 266.06862913287875 21.699860507149864
  endloop
endfacet
facet normal -0.00011073722439293736 0.00011965960728818618 0.9999999867094227
  outer loop
    vertex 2.232998064619207 266.7858895106122 21.699860507149864
    vertex -0.7715203682797656 263.6999999859959 21.69922437917783
    vertex 2.3928387406275493 266.3999999827766 21.699860507149864
  endloop
endfacet
facet normal -0.00011073722439293736 0.00011965960728818618 0.9999999867094227
  outer loop
    vertex 2.1784793866806966 267.1999999827761 21.699860507149864
    vertex -0.7715203682797656 263.6999999859959 21.69922437917783
    vertex 2.232998064619207 266.7858895106122 21.699860507149864
  endloop
endfacet
facet normal -0.00011073722439293736 0.00011965960728818618 0.9999999867094227
  outer loop
    vertex -0.7715203677726002 285.40010621026056 21.699201114619665
    vertex -0.7715203682797656 263.6999999859959 21.69922437917783
    vertex 2.1784793866806966 267.1999999827761 21.699860507149864
  endloop
endfacet
facet normal -0.00011073722439293736 0.00011965960728818618 0.9999999867094227
  outer loop
    vertex 2.9812598295710946 277.5501201883859 21.693185866035325
    vertex 16.57847938667731 268.5856406288674 21.699860507149864
    vertex 23.828495984653976 277.5499999965211 21.69979056661722
  endloop
endfacet
facet normal -0.00011073722439293736 0.00011965960728818618 0.9999999867094227
  outer loop
    vertex 23.828479376047092 263.699999999914 21.699984450206557
    vertex 23.828495984653976 277.5499999965211 21.69979056661722
    vertex 16.57847938667731 268.5856406288674 21.699860507149864
  endloop
endfacet
facet normal -0.00011073722439293736 0.00011965960728818618 0.9999999867094227
  outer loop
    vertex 16.90985023657641 268.33137083271157 21.699860507149864
    vertex 23.828479376047092 263.699999999914 21.699984450206557
    vertex 16.57847938667731 268.5856406288674 21.699860507149864
  endloop
endfacet
facet normal -0.00011073722439293736 0.00011965960728818618 0.9999999867094227
  outer loop
    vertex 17.164120032733862 267.99999998281373 21.699860507149864
    vertex 23.828479376047092 263.699999999914 21.699984450206557
    vertex 16.90985023657641 268.33137083271157 21.699860507149864
  endloop
endfacet
facet normal -0.00011073722439293736 0.00011965960728818618 0.9999999867094227
  outer loop
    vertex 17.323960708742227 267.6141104549782 21.699860507149864
    vertex 23.828479376047092 263.699999999914 21.699984450206557
    vertex 17.164120032733862 267.99999998281373 21.699860507149864
  endloop
endfacet
facet normal -0.00011073722439293736 0.00011965960728818618 0.9999999867094227
  outer loop
    vertex 17.37847938668076 267.1999999828143 21.699860507149864
    vertex 23.828479376047092 263.699999999914 21.699984450206557
    vertex 17.323960708742227 267.6141104549782 21.699860507149864
  endloop
endfacet
facet normal -0.00011073722439293736 0.00011965960728818618 0.9999999867094227
  outer loop
    vertex 16.192589858840936 268.7454813048738 21.699860507149864
    vertex 16.57847938667731 268.5856406288674 21.699860507149864
    vertex 2.9812598295710946 277.5501201883859 21.693185866035325
  endloop
endfacet
facet normal -0.00011073722439293736 0.00011965960728818618 0.9999999867094227
  outer loop
    vertex 15.77847938667677 268.7999999828103 21.699860507149864
    vertex 16.192589858840936 268.7454813048738 21.699860507149864
    vertex 2.9812598295710946 277.5501201883859 21.693185866035325
  endloop
endfacet
facet normal -0.00011073722439293736 0.00011965960728818618 0.9999999867094227
  outer loop
    vertex 15.364368914512871 268.7454813048718 21.699860507149864
    vertex 15.77847938667677 268.7999999828103 21.699860507149864
    vertex 2.9812598295710946 277.5501201883859 21.693185866035325
  endloop
endfacet
facet normal -0.00011073722439293736 0.00011965960728818618 0.9999999867094227
  outer loop
    vertex 14.978479386677312 268.5856406288634 21.699860507149864
    vertex 15.364368914512871 268.7454813048718 21.699860507149864
    vertex 2.9812598295710946 277.5501201883859 21.693185866035325
  endloop
endfacet
facet normal -0.00011073722439293736 0.00011965960728818618 0.9999999867094227
  outer loop
    vertex 14.647108536779472 268.33137083270594 21.699860507149864
    vertex 14.978479386677312 268.5856406288634 21.699860507149864
    vertex 2.9812598295710946 277.5501201883859 21.693185866035325
  endloop
endfacet
facet normal -0.00011073722439293736 0.00011965960728818618 0.9999999867094227
  outer loop
    vertex 14.39283874062367 267.99999998280686 21.699860507149864
    vertex 14.647108536779472 268.33137083270594 21.699860507149864
    vertex 2.9812598295710946 277.5501201883859 21.693185866035325
  endloop
endfacet
facet normal -0.00011073722439293736 0.00011965960728818618 0.9999999867094227
  outer loop
    vertex 14.232998064617222 267.6141104549705 21.699860507149864
    vertex 14.39283874062367 267.99999998280686 21.699860507149864
    vertex 2.9812598295710946 277.5501201883859 21.693185866035325
  endloop
endfacet
facet normal -0.00011073722439293736 0.00011965960728818618 0.9999999867094227
  outer loop
    vertex 14.178479386680765 267.1999999828063 21.699860507149864
    vertex 14.232998064617222 267.6141104549705 21.699860507149864
    vertex 2.9812598295710946 277.5501201883859 21.693185866035325
  endloop
endfacet
facet normal -0.00011073722439293736 0.00011965960728818618 0.9999999867094227
  outer loop
    vertex 5.32396070874218 267.61411045494776 21.699860507149864
    vertex 14.178479386680765 267.1999999828063 21.699860507149864
    vertex 2.9812598295710946 277.5501201883859 21.693185866035325
  endloop
endfacet
facet normal -0.00011073722439293736 0.00011965960728818618 0.9999999867094227
  outer loop
    vertex 5.378479386680691 267.19999998278394 21.699860507149864
    vertex 14.178479386680765 267.1999999828063 21.699860507149864
    vertex 5.32396070874218 267.61411045494776 21.699860507149864
  endloop
endfacet
facet normal -0.00011073722439293736 0.00011965960728818618 0.9999999867094227
  outer loop
    vertex 5.164120032733838 267.9999999827834 21.699860507149864
    vertex 5.32396070874218 267.61411045494776 21.699860507149864
    vertex 2.9812598295710946 277.5501201883859 21.693185866035325
  endloop
endfacet
facet normal -0.00011073722439293736 0.00011965960728818618 0.9999999867094227
  outer loop
    vertex 4.909850236576411 268.3313708326813 21.699860507149864
    vertex 5.164120032733838 267.9999999827834 21.699860507149864
    vertex 2.9812598295710946 277.5501201883859 21.693185866035325
  endloop
endfacet
facet normal -0.00011073722439293736 0.00011965960728818618 0.9999999867094227
  outer loop
    vertex 4.578479386677309 268.58564062883704 21.699860507149864
    vertex 4.909850236576411 268.3313708326813 21.699860507149864
    vertex 2.9812598295710946 277.5501201883859 21.693185866035325
  endloop
endfacet
facet normal -0.00011073722439293736 0.00011965960728818618 0.9999999867094227
  outer loop
    vertex 4.192589858840958 268.7454813048435 21.699860507149864
    vertex 4.578479386677309 268.58564062883704 21.699860507149864
    vertex 2.9812598295710946 277.5501201883859 21.693185866035325
  endloop
endfacet
facet normal -0.00011073722439293736 0.00011965960728818618 0.9999999867094227
  outer loop
    vertex 3.778479386676791 268.79999998278 21.699860507149864
    vertex 4.192589858840958 268.7454813048435 21.699860507149864
    vertex 2.9812598295710946 277.5501201883859 21.693185866035325
  endloop
endfacet
facet normal -0.00011073722439293736 0.00011965960728818618 0.9999999867094227
  outer loop
    vertex 3.364368914512894 268.7454813048415 21.699860507149864
    vertex 3.778479386676791 268.79999998278 21.699860507149864
    vertex 2.9812598295710946 277.5501201883859 21.693185866035325
  endloop
endfacet
facet normal -0.00011073722439293736 0.00011965960728818618 0.9999999867094227
  outer loop
    vertex 2.978479386677311 268.5856406288331 21.699860507149864
    vertex 3.364368914512894 268.7454813048415 21.699860507149864
    vertex 2.9812598295710946 277.5501201883859 21.693185866035325
  endloop
endfacet
facet normal -0.00011073722439293736 0.00011965960728818618 0.9999999867094227
  outer loop
    vertex 2.981243925156654 285.40011891816914 21.693583829038044
    vertex 2.978479386677311 268.5856406288331 21.699860507149864
    vertex 2.9812598295710946 277.5501201883859 21.693185866035325
  endloop
endfacet
facet normal -0.00011073722439293736 0.00011965960728818618 0.9999999867094227
  outer loop
    vertex -0.7715203677726002 285.40010621026056 21.699201114619665
    vertex 2.978479386677311 268.5856406288331 21.699860507149864
    vertex 2.981243925156654 285.40011891816914 21.693583829038044
  endloop
endfacet
facet normal -0.00011073722439293736 0.00011965960728818618 0.9999999867094227
  outer loop
    vertex 2.647108536779449 268.3313708326757 21.699860507149864
    vertex 2.978479386677311 268.5856406288331 21.699860507149864
    vertex -0.7715203677726002 285.40010621026056 21.699201114619665
  endloop
endfacet
facet normal -0.00011073722439293736 0.00011965960728818618 0.9999999867094227
  outer loop
    vertex 2.392838740623646 267.9999999827766 21.699860507149864
    vertex 2.647108536779449 268.3313708326757 21.699860507149864
    vertex -0.7715203677726002 285.40010621026056 21.699201114619665
  endloop
endfacet
facet normal -0.00011073722439293736 0.00011965960728818618 0.9999999867094227
  outer loop
    vertex 2.2329980646171768 267.61411045494026 21.699860507149864
    vertex 2.392838740623646 267.9999999827766 21.699860507149864
    vertex -0.7715203677726002 285.40010621026056 21.699201114619665
  endloop
endfacet
facet normal -0.00011073722439293736 0.00011965960728818618 0.9999999867094227
  outer loop
    vertex 2.1784793866806966 267.1999999827761 21.699860507149864
    vertex 2.2329980646171768 267.61411045494026 21.699860507149864
    vertex -0.7715203677726002 285.40010621026056 21.699201114619665
  endloop
endfacet
facet normal 0.9999999421050059 1.632785370621919e-06 -0.0003402753577509186
  outer loop
    vertex 2.9812598295710946 277.5501201883859 21.693185866035325
    vertex 2.9807494591910983 277.55014389341005 20.19331142576781
    vertex 2.981243925156654 285.40011891816914 21.693583829038044
  endloop
endfacet
facet normal 0.9999999421050059 1.632785370621919e-06 -0.0003402753577509186
  outer loop
    vertex 2.9807335547766574 285.4001426231933 20.19370938877053
    vertex 2.981243925156654 285.40011891816914 21.693583829038044
    vertex 2.9807494591910983 277.55014389341005 20.19331142576781
  endloop
endfacet
facet normal 0.00011098923887059944 -0.0001314531979146905 -0.9999999852007226
  outer loop
    vertex 23.828495984653976 277.5499999965211 20.19979056661722
    vertex 23.828479375956334 271.7999999999531 20.19998726953063
    vertex 2.9807494591910983 277.55014389341005 20.19331142576781
  endloop
endfacet
facet normal 0.00011098923887059944 -0.0001314531979146905 -0.9999999852007226
  outer loop
    vertex 22.328479375956338 271.7999999999531 20.19998726953063
    vertex 2.9807494591910983 277.55014389341005 20.19331142576781
    vertex 23.828479375956334 271.7999999999531 20.19998726953063
  endloop
endfacet
facet normal 0.00011098923887059944 -0.0001314531979146905 -0.9999999852007226
  outer loop
    vertex 16.57847938667731 268.5856406288674 20.199860507149864
    vertex 2.9807494591910983 277.55014389341005 20.19331142576781
    vertex 22.328479375956338 271.7999999999531 20.19998726953063
  endloop
endfacet
facet normal 0.00011098923887059944 -0.0001314531979146905 -0.9999999852007226
  outer loop
    vertex 16.90985023657641 268.3313708327116 20.199860507149864
    vertex 16.57847938667731 268.5856406288674 20.199860507149864
    vertex 22.328479375956338 271.7999999999531 20.19998726953063
  endloop
endfacet
facet normal 0.00011098923887059944 -0.0001314531979146905 -0.9999999852007226
  outer loop
    vertex 17.164120032733862 267.9999999828138 20.199860507149864
    vertex 16.90985023657641 268.3313708327116 20.199860507149864
    vertex 22.328479375956338 271.7999999999531 20.19998726953063
  endloop
endfacet
facet normal 0.00011098923887059944 -0.0001314531979146905 -0.9999999852007226
  outer loop
    vertex 17.323960708742227 267.6141104549782 20.199860507149864
    vertex 17.164120032733862 267.9999999828138 20.199860507149864
    vertex 22.328479375956338 271.7999999999531 20.19998726953063
  endloop
endfacet
facet normal 0.00011098923887059944 -0.0001314531979146905 -0.9999999852007226
  outer loop
    vertex 17.37847938668076 267.1999999828143 20.199860507149864
    vertex 17.323960708742227 267.6141104549782 20.199860507149864
    vertex 22.328479375956338 271.7999999999531 20.19998726953063
  endloop
endfacet
facet normal 0.00011098923887059944 -0.0001314531979146905 -0.9999999852007226
  outer loop
    vertex 16.192589858840936 268.7454813048738 20.199860507149864
    vertex 2.9807494591910983 277.55014389341005 20.19331142576781
    vertex 16.57847938667731 268.5856406288674 20.199860507149864
  endloop
endfacet
facet normal 0.00011098923887059944 -0.0001314531979146905 -0.9999999852007226
  outer loop
    vertex 15.77847938667677 268.7999999828103 20.199860507149864
    vertex 2.9807494591910983 277.55014389341005 20.19331142576781
    vertex 16.192589858840936 268.7454813048738 20.199860507149864
  endloop
endfacet
facet normal 0.00011098923887059944 -0.0001314531979146905 -0.9999999852007226
  outer loop
    vertex 15.364368914512871 268.7454813048718 20.199860507149864
    vertex 2.9807494591910983 277.55014389341005 20.19331142576781
    vertex 15.77847938667677 268.7999999828103 20.199860507149864
  endloop
endfacet
facet normal 0.00011098923887059944 -0.0001314531979146905 -0.9999999852007226
  outer loop
    vertex 14.978479386677312 268.5856406288634 20.199860507149864
    vertex 2.9807494591910983 277.55014389341005 20.19331142576781
    vertex 15.364368914512871 268.7454813048718 20.199860507149864
  endloop
endfacet
facet normal 0.00011098923887059944 -0.0001314531979146905 -0.9999999852007226
  outer loop
    vertex 14.647108536779472 268.33137083270594 20.199860507149864
    vertex 2.9807494591910983 277.55014389341005 20.19331142576781
    vertex 14.978479386677312 268.5856406288634 20.199860507149864
  endloop
endfacet
facet normal 0.00011098923887059944 -0.0001314531979146905 -0.9999999852007226
  outer loop
    vertex 14.39283874062367 267.99999998280686 20.199860507149864
    vertex 2.9807494591910983 277.55014389341005 20.19331142576781
    vertex 14.647108536779472 268.33137083270594 20.199860507149864
  endloop
endfacet
facet normal 0.00011098923887059944 -0.0001314531979146905 -0.9999999852007226
  outer loop
    vertex 14.232998064617222 267.6141104549705 20.199860507149864
    vertex 2.9807494591910983 277.55014389341005 20.19331142576781
    vertex 14.39283874062367 267.99999998280686 20.199860507149864
  endloop
endfacet
facet normal 0.00011098923887059944 -0.0001314531979146905 -0.9999999852007226
  outer loop
    vertex 14.178479386680765 267.1999999828063 20.199860507149864
    vertex 2.9807494591910983 277.55014389341005 20.19331142576781
    vertex 14.232998064617222 267.6141104549705 20.199860507149864
  endloop
endfacet
facet normal 0.00011098923887059944 -0.0001314531979146905 -0.9999999852007226
  outer loop
    vertex 5.32396070874218 267.61411045494776 20.199860507149864
    vertex 2.9807494591910983 277.55014389341005 20.19331142576781
    vertex 14.178479386680765 267.1999999828063 20.199860507149864
  endloop
endfacet
facet normal 0.00011098923887059944 -0.0001314531979146905 -0.9999999852007226
  outer loop
    vertex 5.378479386680691 267.19999998278394 20.199860507149864
    vertex 5.32396070874218 267.61411045494776 20.199860507149864
    vertex 14.178479386680765 267.1999999828063 20.199860507149864
  endloop
endfacet
facet normal 0.00011098923887059944 -0.0001314531979146905 -0.9999999852007226
  outer loop
    vertex 5.164120032733838 267.9999999827834 20.199860507149864
    vertex 2.9807494591910983 277.55014389341005 20.19331142576781
    vertex 5.32396070874218 267.61411045494776 20.199860507149864
  endloop
endfacet
facet normal 0.00011098923887059944 -0.0001314531979146905 -0.9999999852007226
  outer loop
    vertex 4.909850236576411 268.3313708326813 20.199860507149864
    vertex 2.9807494591910983 277.55014389341005 20.19331142576781
    vertex 5.164120032733838 267.9999999827834 20.199860507149864
  endloop
endfacet
facet normal 0.00011098923887059944 -0.0001314531979146905 -0.9999999852007226
  outer loop
    vertex 4.578479386677309 268.58564062883704 20.199860507149864
    vertex 2.9807494591910983 277.55014389341005 20.19331142576781
    vertex 4.909850236576411 268.3313708326813 20.199860507149864
  endloop
endfacet
facet normal 0.00011098923887059944 -0.0001314531979146905 -0.9999999852007226
  outer loop
    vertex 4.192589858840958 268.7454813048435 20.199860507149864
    vertex 2.9807494591910983 277.55014389341005 20.19331142576781
    vertex 4.578479386677309 268.58564062883704 20.199860507149864
  endloop
endfacet
facet normal 0.00011098923887059944 -0.0001314531979146905 -0.9999999852007226
  outer loop
    vertex 3.778479386676791 268.79999998278 20.199860507149864
    vertex 2.9807494591910983 277.55014389341005 20.19331142576781
    vertex 4.192589858840958 268.7454813048435 20.199860507149864
  endloop
endfacet
facet normal 0.00011098923887059944 -0.0001314531979146905 -0.9999999852007226
  outer loop
    vertex 3.364368914512894 268.7454813048415 20.199860507149864
    vertex 2.9807494591910983 277.55014389341005 20.19331142576781
    vertex 3.778479386676791 268.79999998278 20.199860507149864
  endloop
endfacet
facet normal 0.00011098923887059944 -0.0001314531979146905 -0.9999999852007226
  outer loop
    vertex 2.978479386677311 268.5856406288331 20.199860507149864
    vertex 2.9807494591910983 277.55014389341005 20.19331142576781
    vertex 3.364368914512894 268.7454813048415 20.199860507149864
  endloop
endfacet
facet normal 0.00011098923887059944 -0.0001314531979146905 -0.9999999852007226
  outer loop
    vertex 2.9807335547766574 285.4001426231933 20.19370938877053
    vertex 2.9807494591910983 277.55014389341005 20.19331142576781
    vertex 2.978479386677311 268.5856406288331 20.199860507149864
  endloop
endfacet
facet normal 0.00011098923887059944 -0.0001314531979146905 -0.9999999852007226
  outer loop
    vertex -1.2715205730357035 285.40010449261763 20.19982821682793
    vertex 2.9807335547766574 285.4001426231933 20.19370938877053
    vertex 2.978479386677311 268.5856406288331 20.199860507149864
  endloop
endfacet
facet normal 0.00011098923887059944 -0.0001314531979146905 -0.9999999852007226
  outer loop
    vertex 2.647108536779449 268.3313708326757 20.199860507149864
    vertex -1.2715205730357035 285.40010449261763 20.19982821682793
    vertex 2.978479386677311 268.5856406288331 20.199860507149864
  endloop
endfacet
facet normal 0.00011098923887059944 -0.0001314531979146905 -0.9999999852007226
  outer loop
    vertex 2.392838740623646 267.9999999827766 20.199860507149864
    vertex -1.2715205730357035 285.40010449261763 20.19982821682793
    vertex 2.647108536779449 268.3313708326757 20.199860507149864
  endloop
endfacet
facet normal 0.00011098923887059944 -0.0001314531979146905 -0.9999999852007226
  outer loop
    vertex 2.2329980646171768 267.61411045494026 20.199860507149864
    vertex -1.2715205730357035 285.40010449261763 20.19982821682793
    vertex 2.392838740623646 267.9999999827766 20.199860507149864
  endloop
endfacet
facet normal 0.00011098923887059944 -0.0001314531979146905 -0.9999999852007226
  outer loop
    vertex 2.1784793866806966 267.1999999827761 20.199860507149864
    vertex -1.2715205730357035 285.40010449261763 20.19982821682793
    vertex 2.2329980646171768 267.61411045494026 20.199860507149864
  endloop
endfacet
facet normal 0.00011098923887059944 -0.0001314531979146905 -0.9999999852007226
  outer loop
    vertex -1.271520572944946 263.6999999859723 20.199825397503858
    vertex -1.2715205730357035 285.40010449261763 20.19982821682793
    vertex 2.1784793866806966 267.1999999827761 20.199860507149864
  endloop
endfacet
facet normal 0.00011098923887059944 -0.0001314531979146905 -0.9999999852007226
  outer loop
    vertex -1.271520572944946 263.6999999859723 20.199825397503858
    vertex 15.778479386684754 265.5999999828103 20.199860507149864
    vertex 22.328479376047095 263.699999999914 20.199984450206554
  endloop
endfacet
facet normal 0.00011098923887059944 -0.0001314531979146905 -0.9999999852007226
  outer loop
    vertex 16.192589858848653 265.6545186607488 20.199860507149864
    vertex 22.328479376047095 263.699999999914 20.199984450206554
    vertex 15.778479386684754 265.5999999828103 20.199860507149864
  endloop
endfacet
facet normal 0.00011098923887059944 -0.0001314531979146905 -0.9999999852007226
  outer loop
    vertex 16.57847938668421 265.8143593367572 20.199860507149864
    vertex 22.328479376047095 263.699999999914 20.199984450206554
    vertex 16.192589858848653 265.6545186607488 20.199860507149864
  endloop
endfacet
facet normal 0.00011098923887059944 -0.0001314531979146905 -0.9999999852007226
  outer loop
    vertex 16.909850236582052 266.0686291329146 20.199860507149864
    vertex 22.328479376047095 263.699999999914 20.199984450206554
    vertex 16.57847938668421 265.8143593367572 20.199860507149864
  endloop
endfacet
facet normal 0.00011098923887059944 -0.0001314531979146905 -0.9999999852007226
  outer loop
    vertex 22.328479375956338 271.7999999999531 20.19998726953063
    vertex 22.328479376047095 263.699999999914 20.199984450206554
    vertex 16.909850236582052 266.0686291329146 20.199860507149864
  endloop
endfacet
facet normal 0.00011098923887059944 -0.0001314531979146905 -0.9999999852007226
  outer loop
    vertex 17.164120032737856 266.39999998281377 20.199860507149864
    vertex 22.328479375956338 271.7999999999531 20.19998726953063
    vertex 16.909850236582052 266.0686291329146 20.199860507149864
  endloop
endfacet
facet normal 0.00011098923887059944 -0.0001314531979146905 -0.9999999852007226
  outer loop
    vertex 17.323960708744302 266.7858895106501 20.199860507149864
    vertex 22.328479375956338 271.7999999999531 20.19998726953063
    vertex 17.164120032737856 266.39999998281377 20.199860507149864
  endloop
endfacet
facet normal 0.00011098923887059944 -0.0001314531979146905 -0.9999999852007226
  outer loop
    vertex 17.37847938668076 267.1999999828143 20.199860507149864
    vertex 22.328479375956338 271.7999999999531 20.19998726953063
    vertex 17.323960708744302 266.7858895106501 20.199860507149864
  endloop
endfacet
facet normal 0.00011098923887059944 -0.0001314531979146905 -0.9999999852007226
  outer loop
    vertex 15.364368914520588 265.65451866074676 20.199860507149864
    vertex 15.778479386684754 265.5999999828103 20.199860507149864
    vertex -1.271520572944946 263.6999999859723 20.199825397503858
  endloop
endfacet
facet normal 0.00011098923887059944 -0.0001314531979146905 -0.9999999852007226
  outer loop
    vertex 14.978479386684215 265.81435933675317 20.199860507149864
    vertex 15.364368914520588 265.65451866074676 20.199860507149864
    vertex -1.271520572944946 263.6999999859723 20.199825397503858
  endloop
endfacet
facet normal 0.00011098923887059944 -0.0001314531979146905 -0.9999999852007226
  outer loop
    vertex 14.647108536785112 266.068629132909 20.199860507149864
    vertex 14.978479386684215 265.81435933675317 20.199860507149864
    vertex -1.271520572944946 263.6999999859723 20.199825397503858
  endloop
endfacet
facet normal 0.00011098923887059944 -0.0001314531979146905 -0.9999999852007226
  outer loop
    vertex 14.392838740627662 266.39999998280683 20.199860507149864
    vertex 14.647108536785112 266.068629132909 20.199860507149864
    vertex -1.271520572944946 263.6999999859723 20.199825397503858
  endloop
endfacet
facet normal 0.00011098923887059944 -0.0001314531979146905 -0.9999999852007226
  outer loop
    vertex 14.232998064619299 266.7858895106424 20.199860507149864
    vertex 14.392838740627662 266.39999998280683 20.199860507149864
    vertex -1.271520572944946 263.6999999859723 20.199825397503858
  endloop
endfacet
facet normal 0.00011098923887059944 -0.0001314531979146905 -0.9999999852007226
  outer loop
    vertex 14.178479386680765 267.1999999828063 20.199860507149864
    vertex 14.232998064619299 266.7858895106424 20.199860507149864
    vertex -1.271520572944946 263.6999999859723 20.199825397503858
  endloop
endfacet
facet normal 0.00011098923887059944 -0.0001314531979146905 -0.9999999852007226
  outer loop
    vertex 4.192589858848493 265.6545186607185 20.199860507149864
    vertex 14.178479386680765 267.1999999828063 20.199860507149864
    vertex -1.271520572944946 263.6999999859723 20.199825397503858
  endloop
endfacet
facet normal 0.00011098923887059944 -0.0001314531979146905 -0.9999999852007226
  outer loop
    vertex 4.5784793866840765 265.81435933672685 20.199860507149864
    vertex 14.178479386680765 267.1999999828063 20.199860507149864
    vertex 4.192589858848493 265.6545186607185 20.199860507149864
  endloop
endfacet
facet normal 0.00011098923887059944 -0.0001314531979146905 -0.9999999852007226
  outer loop
    vertex 4.909850236581915 266.06862913288427 20.199860507149864
    vertex 14.178479386680765 267.1999999828063 20.199860507149864
    vertex 4.5784793866840765 265.81435933672685 20.199860507149864
  endloop
endfacet
facet normal 0.00011098923887059944 -0.0001314531979146905 -0.9999999852007226
  outer loop
    vertex 5.164120032737741 266.39999998278336 20.199860507149864
    vertex 14.178479386680765 267.1999999828063 20.199860507149864
    vertex 4.909850236581915 266.06862913288427 20.199860507149864
  endloop
endfacet
facet normal 0.00011098923887059944 -0.0001314531979146905 -0.9999999852007226
  outer loop
    vertex 5.3239607087442105 266.7858895106197 20.199860507149864
    vertex 14.178479386680765 267.1999999828063 20.199860507149864
    vertex 5.164120032737741 266.39999998278336 20.199860507149864
  endloop
endfacet
facet normal 0.00011098923887059944 -0.0001314531979146905 -0.9999999852007226
  outer loop
    vertex 5.378479386680691 267.19999998278394 20.199860507149864
    vertex 14.178479386680765 267.1999999828063 20.199860507149864
    vertex 5.3239607087442105 266.7858895106197 20.199860507149864
  endloop
endfacet
facet normal 0.00011098923887059944 -0.0001314531979146905 -0.9999999852007226
  outer loop
    vertex 3.7784793866845967 265.59999998278 20.199860507149864
    vertex 4.192589858848493 265.6545186607185 20.199860507149864
    vertex -1.271520572944946 263.6999999859723 20.199825397503858
  endloop
endfacet
facet normal 0.00011098923887059944 -0.0001314531979146905 -0.9999999852007226
  outer loop
    vertex 3.3643689145204294 265.65451866071646 20.199860507149864
    vertex 3.7784793866845967 265.59999998278 20.199860507149864
    vertex -1.271520572944946 263.6999999859723 20.199825397503858
  endloop
endfacet
facet normal 0.00011098923887059944 -0.0001314531979146905 -0.9999999852007226
  outer loop
    vertex 2.978479386684079 265.81435933672293 20.199860507149864
    vertex 3.3643689145204294 265.65451866071646 20.199860507149864
    vertex -1.271520572944946 263.6999999859723 20.199825397503858
  endloop
endfacet
facet normal 0.00011098923887059944 -0.0001314531979146905 -0.9999999852007226
  outer loop
    vertex 2.6471085367849763 266.06862913287875 20.199860507149864
    vertex 2.978479386684079 265.81435933672293 20.199860507149864
    vertex -1.271520572944946 263.6999999859723 20.199825397503858
  endloop
endfacet
facet normal 0.00011098923887059944 -0.0001314531979146905 -0.9999999852007226
  outer loop
    vertex 2.3928387406275493 266.3999999827766 20.199860507149864
    vertex 2.6471085367849763 266.06862913287875 20.199860507149864
    vertex -1.271520572944946 263.6999999859723 20.199825397503858
  endloop
endfacet
facet normal 0.00011098923887059944 -0.0001314531979146905 -0.9999999852007226
  outer loop
    vertex 2.232998064619207 266.7858895106122 20.199860507149864
    vertex 2.3928387406275493 266.3999999827766 20.199860507149864
    vertex -1.271520572944946 263.6999999859723 20.199825397503858
  endloop
endfacet
facet normal 0.00011098923887059944 -0.0001314531979146905 -0.9999999852007226
  outer loop
    vertex 2.1784793866806966 267.1999999827761 20.199860507149864
    vertex 2.232998064619207 266.7858895106122 20.199860507149864
    vertex -1.271520572944946 263.6999999859723 20.199825397503858
  endloop
endfacet
endsolid Mousebox_v2
