solid Mousebox_v2
facet normal 0.9999999590472258 -1.2523835828977623e-10 -0.0002861914511961896
  outer loop
    vertex 144.61477418922593 285.3999888211941 6.499162818256996
    vertex 144.61855191301657 263.6999978417852 19.69916001527278
    vertex 144.61477418913466 263.69998882119125 6.499159998937223
  endloop
endfacet
facet normal 0.9999999590472258 -1.2523835828977623e-10 -0.0002861914511961896
  outer loop
    vertex 144.61855191301657 263.6999978417852 19.69916001527278
    vertex 144.61477418922593 285.3999888211941 6.499162818256996
    vertex 144.6185519125094 285.40010406604983 19.69913675071461
  endloop
endfacet
facet normal -1.0 -2.5990473988467946e-16 0.0
  outer loop
    vertex 118.01910787900353 277.5499999965211 21.699790566617217
    vertex 118.01912448770112 271.7999999999531 20.19998726953063
    vertex 118.01912448761037 263.699999999914 21.699984450206557
  endloop
endfacet
facet normal -1.0 -2.5990473988467946e-16 0.0
  outer loop
    vertex 118.01912448770112 271.7999999999531 20.19998726953063
    vertex 118.01910787900353 277.5499999965211 21.699790566617217
    vertex 118.01910787900353 277.5499999965211 20.199790566617217
  endloop
endfacet
facet normal -1.0 -2.5990473988467946e-16 0.0
  outer loop
    vertex 118.01905195064086 263.699988835133 6.499984451261185
    vertex 118.01912448770112 271.7999999999557 10.999987269530632
    vertex 118.0190519507321 285.3999888351358 6.4999872705809585
  endloop
endfacet
facet normal -1.0 -2.5990473988467946e-16 0.0
  outer loop
    vertex 118.01912448770112 271.7999999999557 10.999987269530632
    vertex 118.01905195064086 263.699988835133 6.499984451261185
    vertex 118.01912448761037 263.699999999914 21.699984450206557
  endloop
endfacet
facet normal -1.0 -2.5990473988467946e-16 0.0
  outer loop
    vertex 118.01912448770112 271.7999999999557 10.999987269530632
    vertex 118.01912448761037 263.699999999914 21.699984450206557
    vertex 118.01912448770112 271.7999999999531 20.19998726953063
  endloop
endfacet
facet normal -1.0 -2.5990473988467946e-16 0.0
  outer loop
    vertex 118.0190519507321 285.3999888351358 6.4999872705809585
    vertex 118.01912448770112 271.7999999999557 10.999987269530632
    vertex 118.01912448770162 285.3999999999193 10.999987269526331
  endloop
endfacet
facet normal 0.38268343236283725 -0.9238795325122198 -3.4753288413863807e-15
  outer loop
    vertex 137.6550140048165 268.7454813048435 21.699860507149864
    vertex 137.26912447698015 268.58564062883704 20.199860507149864
    vertex 137.6550140048165 268.7454813048435 20.199860507149864
  endloop
endfacet
facet normal 0.38268343236283725 -0.9238795325122198 -3.4753288413863807e-15
  outer loop
    vertex 137.26912447698015 268.58564062883704 20.199860507149864
    vertex 137.6550140048165 268.7454813048435 21.699860507149864
    vertex 137.26912447698015 268.58564062883704 21.699860507149864
  endloop
endfacet
facet normal 0.9238795325122171 0.38268343236284413 1.4365541076917168e-15
  outer loop
    vertex 136.52364315491326 266.7858895106197 20.199860507149864
    vertex 136.68348383091973 266.39999998278336 21.699860507149864
    vertex 136.68348383091973 266.39999998278336 20.199860507149864
  endloop
endfacet
facet normal 0.9238795325122171 0.38268343236284413 1.4365541076917168e-15
  outer loop
    vertex 136.68348383091973 266.39999998278336 21.699860507149864
    vertex 136.52364315491326 266.7858895106197 20.199860507149864
    vertex 136.52364315491326 266.7858895106197 21.699860507149864
  endloop
endfacet
facet normal 0.9238795325103573 -0.38268343236733415 0.0
  outer loop
    vertex 136.68348383092362 267.9999999827834 20.199860507149864
    vertex 136.52364315491528 267.61411045494776 21.699860507149864
    vertex 136.52364315491528 267.61411045494776 20.199860507149864
  endloop
endfacet
facet normal 0.9238795325103573 -0.38268343236733415 0.0
  outer loop
    vertex 136.52364315491528 267.61411045494776 21.699860507149864
    vertex 136.68348383092362 267.9999999827834 20.199860507149864
    vertex 136.68348383092362 267.9999999827834 21.699860507149864
  endloop
endfacet
facet normal 0.6087614290106808 0.7933533402897311 0.0
  outer loop
    vertex 136.93775362707555 266.06862913288427 21.699860507149864
    vertex 137.2691244769734 265.81435933672685 20.199860507149864
    vertex 136.93775362707555 266.06862913288427 20.199860507149864
  endloop
endfacet
facet normal 0.6087614290106808 0.7933533402897311 0.0
  outer loop
    vertex 137.2691244769734 265.81435933672685 20.199860507149864
    vertex 136.93775362707555 266.06862913288427 21.699860507149864
    vertex 137.2691244769734 265.81435933672685 21.699860507149864
  endloop
endfacet
facet normal 0.7933533402897643 -0.6087614290106377 0.0
  outer loop
    vertex 136.93775362708104 268.3313708326813 20.199860507149864
    vertex 136.68348383092362 267.9999999827834 21.699860507149864
    vertex 136.68348383092362 267.9999999827834 20.199860507149864
  endloop
endfacet
facet normal 0.7933533402897643 -0.6087614290106377 0.0
  outer loop
    vertex 136.68348383092362 267.9999999827834 21.699860507149864
    vertex 136.93775362708104 268.3313708326813 20.199860507149864
    vertex 136.93775362708104 268.3313708326813 21.699860507149864
  endloop
endfacet
facet normal 0.38268343236732466 0.9238795325103613 0.0
  outer loop
    vertex 137.2691244769734 265.81435933672685 21.699860507149864
    vertex 137.65501400480898 265.6545186607185 20.199860507149864
    vertex 137.2691244769734 265.81435933672685 20.199860507149864
  endloop
endfacet
facet normal 0.38268343236732466 0.9238795325103613 0.0
  outer loop
    vertex 137.65501400480898 265.6545186607185 20.199860507149864
    vertex 137.2691244769734 265.81435933672685 21.699860507149864
    vertex 137.65501400480898 265.6545186607185 21.699860507149864
  endloop
endfacet
facet normal 0.7933533402927072 0.6087614290068023 -6.165976306711711e-18
  outer loop
    vertex 136.68348383091973 266.39999998278336 20.199860507149864
    vertex 136.93775362707555 266.06862913288427 21.699860507149864
    vertex 136.93775362707555 266.06862913288427 20.199860507149864
  endloop
endfacet
facet normal 0.7933533402927072 0.6087614290068023 -6.165976306711711e-18
  outer loop
    vertex 136.93775362707555 266.06862913288427 21.699860507149864
    vertex 136.68348383091973 266.39999998278336 20.199860507149864
    vertex 136.68348383091973 266.39999998278336 21.699860507149864
  endloop
endfacet
facet normal 0.9914448613741288 0.13052619221763345 4.90996308941701e-16
  outer loop
    vertex 136.52364315491326 266.7858895106197 20.199860507149864
    vertex 136.46912447697676 267.19999998278394 21.699860507149864
    vertex 136.52364315491326 266.7858895106197 21.699860507149864
  endloop
endfacet
facet normal 0.9914448613741288 0.13052619221763345 4.90996308941701e-16
  outer loop
    vertex 136.46912447697676 267.19999998278394 21.699860507149864
    vertex 136.52364315491326 266.7858895106197 20.199860507149864
    vertex 136.46912447697676 267.19999998278394 20.199860507149864
  endloop
endfacet
facet normal 0.1305261922176317 -0.991444861374129 -7.456136145210733e-15
  outer loop
    vertex 138.06912447698068 268.79999998278 21.699860507149864
    vertex 137.6550140048165 268.7454813048435 20.199860507149864
    vertex 138.06912447698068 268.79999998278 20.199860507149864
  endloop
endfacet
facet normal 0.1305261922176317 -0.991444861374129 -7.456136145210733e-15
  outer loop
    vertex 137.6550140048165 268.7454813048435 20.199860507149864
    vertex 138.06912447698068 268.79999998278 21.699860507149864
    vertex 137.6550140048165 268.7454813048435 21.699860507149864
  endloop
endfacet
facet normal 0.9914448613734894 -0.13052619222249032 0.0
  outer loop
    vertex 136.52364315491528 267.61411045494776 20.199860507149864
    vertex 136.46912447697676 267.19999998278394 21.699860507149864
    vertex 136.46912447697676 267.19999998278394 20.199860507149864
  endloop
endfacet
facet normal 0.9914448613734894 -0.13052619222249032 0.0
  outer loop
    vertex 136.46912447697676 267.19999998278394 21.699860507149864
    vertex 136.52364315491528 267.61411045494776 20.199860507149864
    vertex 136.52364315491528 267.61411045494776 21.699860507149864
  endloop
endfacet
facet normal 0.6087614290067724 -0.7933533402927303 4.731320027303172e-18
  outer loop
    vertex 137.26912447698015 268.58564062883704 21.699860507149864
    vertex 136.93775362708104 268.3313708326813 20.199860507149864
    vertex 137.26912447698015 268.58564062883704 20.199860507149864
  endloop
endfacet
facet normal 0.6087614290067724 -0.7933533402927303 4.731320027303172e-18
  outer loop
    vertex 136.93775362708104 268.3313708326813 20.199860507149864
    vertex 137.26912447698015 268.58564062883704 21.699860507149864
    vertex 136.93775362708104 268.3313708326813 21.699860507149864
  endloop
endfacet
facet normal -0.13052619222245399 -0.9914448613734941 -3.730501688228494e-15
  outer loop
    vertex 138.48323494914456 268.7454813048415 21.699860507149864
    vertex 138.06912447698068 268.79999998278 20.199860507149864
    vertex 138.48323494914456 268.7454813048415 20.199860507149864
  endloop
endfacet
facet normal -0.13052619222245399 -0.9914448613734941 -3.730501688228494e-15
  outer loop
    vertex 138.06912447698068 268.79999998278 20.199860507149864
    vertex 138.48323494914456 268.7454813048415 21.699860507149864
    vertex 138.06912447698068 268.79999998278 21.699860507149864
  endloop
endfacet
facet normal -0.13052619221764497 0.9914448613741272 3.728472777863318e-15
  outer loop
    vertex 138.06912447697286 265.59999998278 21.699860507149864
    vertex 138.48323494913703 265.65451866071646 20.199860507149864
    vertex 138.06912447697286 265.59999998278 20.199860507149864
  endloop
endfacet
facet normal -0.13052619221764497 0.9914448613741272 3.728472777863318e-15
  outer loop
    vertex 138.48323494913703 265.65451866071646 20.199860507149864
    vertex 138.06912447697286 265.59999998278 21.699860507149864
    vertex 138.48323494913703 265.65451866071646 21.699860507149864
  endloop
endfacet
facet normal -0.991444861373489 0.13052619222249381 0.0
  outer loop
    vertex 139.66912447697675 267.1999999827761 21.699860507149864
    vertex 139.61460579903826 266.7858895106122 20.199860507149864
    vertex 139.61460579903826 266.7858895106122 21.699860507149864
  endloop
endfacet
facet normal -0.991444861373489 0.13052619222249381 0.0
  outer loop
    vertex 139.61460579903826 266.7858895106122 20.199860507149864
    vertex 139.66912447697675 267.1999999827761 21.699860507149864
    vertex 139.66912447697675 267.1999999827761 20.199860507149864
  endloop
endfacet
facet normal -0.6087614290067894 0.7933533402927173 -4.731320027303305e-18
  outer loop
    vertex 138.86912447697338 265.81435933672293 21.699860507149864
    vertex 139.20049532687247 266.06862913287875 20.199860507149864
    vertex 138.86912447697338 265.81435933672293 20.199860507149864
  endloop
endfacet
facet normal -0.6087614290067894 0.7933533402927173 -4.731320027303305e-18
  outer loop
    vertex 139.20049532687247 266.06862913287875 20.199860507149864
    vertex 138.86912447697338 265.81435933672293 21.699860507149864
    vertex 139.20049532687247 266.06862913287875 21.699860507149864
  endloop
endfacet
facet normal -0.38268343236734764 -0.9238795325103516 0.0
  outer loop
    vertex 138.86912447698015 268.5856406288331 21.699860507149864
    vertex 138.48323494914456 268.7454813048415 20.199860507149864
    vertex 138.86912447698015 268.5856406288331 20.199860507149864
  endloop
endfacet
facet normal -0.38268343236734764 -0.9238795325103516 0.0
  outer loop
    vertex 138.48323494914456 268.7454813048415 20.199860507149864
    vertex 138.86912447698015 268.5856406288331 21.699860507149864
    vertex 138.48323494914456 268.7454813048415 21.699860507149864
  endloop
endfacet
facet normal -0.6087614290106548 -0.7933533402897512 -4.731320027350559e-18
  outer loop
    vertex 139.200495326878 268.3313708326757 21.699860507149864
    vertex 138.86912447698015 268.5856406288331 20.199860507149864
    vertex 139.200495326878 268.3313708326757 20.199860507149864
  endloop
endfacet
facet normal -0.6087614290106548 -0.7933533402897512 -4.731320027350559e-18
  outer loop
    vertex 138.86912447698015 268.5856406288331 20.199860507149864
    vertex 139.200495326878 268.3313708326757 21.699860507149864
    vertex 138.86912447698015 268.5856406288331 21.699860507149864
  endloop
endfacet
facet normal 0.13052619222249381 0.991444861373489 -1.0144551837979296e-18
  outer loop
    vertex 137.65501400480898 265.6545186607185 21.699860507149864
    vertex 138.06912447697286 265.59999998278 20.199860507149864
    vertex 137.65501400480898 265.6545186607185 20.199860507149864
  endloop
endfacet
facet normal 0.13052619222249381 0.991444861373489 -1.0144551837979296e-18
  outer loop
    vertex 138.06912447697286 265.59999998278 20.199860507149864
    vertex 137.65501400480898 265.6545186607185 21.699860507149864
    vertex 138.06912447697286 265.59999998278 21.699860507149864
  endloop
endfacet
facet normal -0.7933533402927332 -0.6087614290067683 0.0
  outer loop
    vertex 139.200495326878 268.3313708326757 21.699860507149864
    vertex 139.4547651230338 267.9999999827766 20.199860507149864
    vertex 139.4547651230338 267.9999999827766 21.699860507149864
  endloop
endfacet
facet normal -0.7933533402927332 -0.6087614290067683 0.0
  outer loop
    vertex 139.4547651230338 267.9999999827766 20.199860507149864
    vertex 139.200495326878 268.3313708326757 21.699860507149864
    vertex 139.200495326878 268.3313708326757 20.199860507149864
  endloop
endfacet
facet normal -0.991444861374129 -0.1305261922176317 0.0
  outer loop
    vertex 139.61460579904028 267.61411045494026 21.699860507149864
    vertex 139.66912447697675 267.1999999827761 20.199860507149864
    vertex 139.66912447697675 267.1999999827761 21.699860507149864
  endloop
endfacet
facet normal -0.991444861374129 -0.1305261922176317 0.0
  outer loop
    vertex 139.66912447697675 267.1999999827761 20.199860507149864
    vertex 139.61460579904028 267.61411045494026 21.699860507149864
    vertex 139.61460579904028 267.61411045494026 20.199860507149864
  endloop
endfacet
facet normal -0.923879532512219 -0.3826834323628394 2.612225758809554e-29
  outer loop
    vertex 139.4547651230338 267.9999999827766 21.699860507149864
    vertex 139.61460579904028 267.61411045494026 20.199860507149864
    vertex 139.61460579904028 267.61411045494026 21.699860507149864
  endloop
endfacet
facet normal -0.923879532512219 -0.3826834323628394 2.612225758809554e-29
  outer loop
    vertex 139.61460579904028 267.61411045494026 20.199860507149864
    vertex 139.4547651230338 267.9999999827766 21.699860507149864
    vertex 139.4547651230338 267.9999999827766 20.199860507149864
  endloop
endfacet
facet normal -0.9238795325103573 0.38268343236733415 0.0
  outer loop
    vertex 139.61460579903826 266.7858895106122 21.699860507149864
    vertex 139.45476512302992 266.3999999827766 20.199860507149864
    vertex 139.45476512302992 266.3999999827766 21.699860507149864
  endloop
endfacet
facet normal -0.9238795325103573 0.38268343236733415 0.0
  outer loop
    vertex 139.45476512302992 266.3999999827766 20.199860507149864
    vertex 139.61460579903826 266.7858895106122 21.699860507149864
    vertex 139.61460579903826 266.7858895106122 20.199860507149864
  endloop
endfacet
facet normal -0.7933533402897543 0.6087614290106508 0.0
  outer loop
    vertex 139.45476512302992 266.3999999827766 21.699860507149864
    vertex 139.20049532687247 266.06862913287875 20.199860507149864
    vertex 139.20049532687247 266.06862913287875 21.699860507149864
  endloop
endfacet
facet normal -0.7933533402897543 0.6087614290106508 0.0
  outer loop
    vertex 139.20049532687247 266.06862913287875 20.199860507149864
    vertex 139.45476512302992 266.3999999827766 21.699860507149864
    vertex 139.45476512302992 266.3999999827766 20.199860507149864
  endloop
endfacet
facet normal -0.3826834323628373 0.9238795325122198 3.471738625641147e-15
  outer loop
    vertex 138.48323494913703 265.65451866071646 21.699860507149864
    vertex 138.86912447697338 265.81435933672293 20.199860507149864
    vertex 138.48323494913703 265.65451866071646 20.199860507149864
  endloop
endfacet
facet normal -0.3826834323628373 0.9238795325122198 3.471738625641147e-15
  outer loop
    vertex 138.86912447697338 265.81435933672293 20.199860507149864
    vertex 138.48323494913703 265.65451866071646 21.699860507149864
    vertex 138.86912447697338 265.81435933672293 21.699860507149864
  endloop
endfacet
facet normal -0.6087614290067553 0.7933533402927432 0.0
  outer loop
    vertex 126.86912447697324 265.81435933675317 21.699860507149864
    vertex 127.20049532687234 266.068629132909 20.199860507149864
    vertex 126.86912447697324 265.81435933675317 20.199860507149864
  endloop
endfacet
facet normal -0.6087614290067553 0.7933533402927432 0.0
  outer loop
    vertex 127.20049532687234 266.068629132909 20.199860507149864
    vertex 126.86912447697324 265.81435933675317 21.699860507149864
    vertex 127.20049532687234 266.068629132909 21.699860507149864
  endloop
endfacet
facet normal -0.3826834323627837 0.923879532512242 2.9742321070324836e-18
  outer loop
    vertex 126.48323494913687 265.65451866074676 21.699860507149864
    vertex 126.86912447697324 265.81435933675317 20.199860507149864
    vertex 126.48323494913687 265.65451866074676 20.199860507149864
  endloop
endfacet
facet normal -0.3826834323627837 0.923879532512242 2.9742321070324836e-18
  outer loop
    vertex 126.86912447697324 265.81435933675317 20.199860507149864
    vertex 126.48323494913687 265.65451866074676 21.699860507149864
    vertex 126.86912447697324 265.81435933675317 21.699860507149864
  endloop
endfacet
facet normal -0.13052619221757863 0.9914448613741361 -1.0144551837597284e-18
  outer loop
    vertex 126.0691244769727 265.5999999828103 21.699860507149864
    vertex 126.48323494913687 265.65451866074676 20.199860507149864
    vertex 126.0691244769727 265.5999999828103 20.199860507149864
  endloop
endfacet
facet normal -0.13052619221757863 0.9914448613741361 -1.0144551837597284e-18
  outer loop
    vertex 126.48323494913687 265.65451866074676 20.199860507149864
    vertex 126.0691244769727 265.5999999828103 21.699860507149864
    vertex 126.48323494913687 265.65451866074676 21.699860507149864
  endloop
endfacet
facet normal 0.13052619222254688 0.9914448613734821 -1.014455183798342e-18
  outer loop
    vertex 125.6550140048088 265.6545186607488 21.699860507149864
    vertex 126.0691244769727 265.5999999828103 20.199860507149864
    vertex 125.6550140048088 265.6545186607488 20.199860507149864
  endloop
endfacet
facet normal 0.13052619222254688 0.9914448613734821 -1.014455183798342e-18
  outer loop
    vertex 126.0691244769727 265.5999999828103 20.199860507149864
    vertex 125.6550140048088 265.6545186607488 21.699860507149864
    vertex 126.0691244769727 265.5999999828103 21.699860507149864
  endloop
endfacet
facet normal -0.92387953251224 -0.38268343236278846 -1.439528339798503e-15
  outer loop
    vertex 127.4547651230338 267.99999998280686 21.699860507149864
    vertex 127.61460579904023 267.6141104549705 20.199860507149864
    vertex 127.61460579904023 267.6141104549705 21.699860507149864
  endloop
endfacet
facet normal -0.92387953251224 -0.38268343236278846 -1.439528339798503e-15
  outer loop
    vertex 127.61460579904023 267.6141104549705 20.199860507149864
    vertex 127.4547651230338 267.99999998280686 21.699860507149864
    vertex 127.4547651230338 267.99999998280686 20.199860507149864
  endloop
endfacet
facet normal -0.7933533402897183 0.6087614290106977 6.165976306688481e-18
  outer loop
    vertex 127.4547651230298 266.39999998280683 21.699860507149864
    vertex 127.20049532687234 266.068629132909 20.199860507149864
    vertex 127.20049532687234 266.068629132909 21.699860507149864
  endloop
endfacet
facet normal -0.7933533402897183 0.6087614290106977 6.165976306688481e-18
  outer loop
    vertex 127.20049532687234 266.068629132909 20.199860507149864
    vertex 127.4547651230298 266.39999998280683 21.699860507149864
    vertex 127.4547651230298 266.39999998280683 20.199860507149864
  endloop
endfacet
facet normal -0.9914448613741363 -0.13052619221757691 -4.890699209078614e-16
  outer loop
    vertex 127.61460579904023 267.6141104549705 21.699860507149864
    vertex 127.66912447697669 267.1999999828063 20.199860507149864
    vertex 127.66912447697669 267.1999999828063 21.699860507149864
  endloop
endfacet
facet normal -0.9914448613741363 -0.13052619221757691 -4.890699209078614e-16
  outer loop
    vertex 127.66912447697669 267.1999999828063 20.199860507149864
    vertex 127.61460579904023 267.6141104549705 21.699860507149864
    vertex 127.61460579904023 267.6141104549705 20.199860507149864
  endloop
endfacet
facet normal -0.9914448613734821 0.13052619222254688 1.9263880336254762e-18
  outer loop
    vertex 127.66912447697669 267.1999999828063 21.699860507149864
    vertex 127.61460579903816 266.7858895106424 20.199860507149864
    vertex 127.61460579903816 266.7858895106424 21.699860507149864
  endloop
endfacet
facet normal -0.9914448613734821 0.13052619222254688 1.9263880336254762e-18
  outer loop
    vertex 127.61460579903816 266.7858895106424 20.199860507149864
    vertex 127.66912447697669 267.1999999828063 21.699860507149864
    vertex 127.66912447697669 267.1999999828063 20.199860507149864
  endloop
endfacet
facet normal -0.9238795325103342 0.3826834323673898 -2.6122257588042246e-29
  outer loop
    vertex 127.61460579903816 266.7858895106424 21.699860507149864
    vertex 127.4547651230298 266.39999998280683 20.199860507149864
    vertex 127.4547651230298 266.39999998280683 21.699860507149864
  endloop
endfacet
facet normal -0.9238795325103342 0.3826834323673898 -2.6122257588042246e-29
  outer loop
    vertex 127.4547651230298 266.39999998280683 20.199860507149864
    vertex 127.61460579903816 266.7858895106424 21.699860507149864
    vertex 127.61460579903816 266.7858895106424 20.199860507149864
  endloop
endfacet
facet normal 0.38268343236277214 -0.9238795325122469 -3.47235460927945e-15
  outer loop
    vertex 125.65501400481652 268.7454813048738 21.699860507149864
    vertex 125.26912447698015 268.5856406288674 20.199860507149864
    vertex 125.65501400481652 268.7454813048738 20.199860507149864
  endloop
endfacet
facet normal 0.38268343236277214 -0.9238795325122469 -3.47235460927945e-15
  outer loop
    vertex 125.26912447698015 268.5856406288674 20.199860507149864
    vertex 125.65501400481652 268.7454813048738 21.699860507149864
    vertex 125.26912447698015 268.5856406288674 21.699860507149864
  endloop
endfacet
facet normal 0.13052619221757863 -0.9914448613741361 -7.456136145210785e-15
  outer loop
    vertex 126.06912447698069 268.7999999828103 21.699860507149864
    vertex 125.65501400481652 268.7454813048738 20.199860507149864
    vertex 126.06912447698069 268.7999999828103 20.199860507149864
  endloop
endfacet
facet normal 0.13052619221757863 -0.9914448613741361 -7.456136145210785e-15
  outer loop
    vertex 125.65501400481652 268.7454813048738 20.199860507149864
    vertex 126.06912447698069 268.7999999828103 21.699860507149864
    vertex 125.65501400481652 268.7454813048738 21.699860507149864
  endloop
endfacet
facet normal -0.7933533402927533 -0.6087614290067421 0.0
  outer loop
    vertex 127.20049532687798 268.33137083270594 21.699860507149864
    vertex 127.4547651230338 267.99999998280686 20.199860507149864
    vertex 127.4547651230338 267.99999998280686 21.699860507149864
  endloop
endfacet
facet normal -0.7933533402927533 -0.6087614290067421 0.0
  outer loop
    vertex 127.4547651230338 267.99999998280686 20.199860507149864
    vertex 127.20049532687798 268.33137083270594 21.699860507149864
    vertex 127.20049532687798 268.33137083270594 20.199860507149864
  endloop
endfacet
facet normal 0.6087614290106977 0.793353340289718 0.0
  outer loop
    vertex 124.93775362707541 266.0686291329146 21.699860507149864
    vertex 125.26912447697325 265.8143593367572 20.199860507149864
    vertex 124.93775362707541 266.0686291329146 20.199860507149864
  endloop
endfacet
facet normal 0.6087614290106977 0.793353340289718 0.0
  outer loop
    vertex 125.26912447697325 265.8143593367572 20.199860507149864
    vertex 124.93775362707541 266.0686291329146 21.699860507149864
    vertex 125.26912447697325 265.8143593367572 21.699860507149864
  endloop
endfacet
facet normal 0.9914448613734821 -0.13052619222254688 1.9263880336254762e-18
  outer loop
    vertex 124.52364315491523 267.6141104549782 20.199860507149864
    vertex 124.4691244769767 267.1999999828143 21.699860507149864
    vertex 124.4691244769767 267.1999999828143 20.199860507149864
  endloop
endfacet
facet normal 0.9914448613734821 -0.13052619222254688 1.9263880336254762e-18
  outer loop
    vertex 124.4691244769767 267.1999999828143 21.699860507149864
    vertex 124.52364315491523 267.6141104549782 20.199860507149864
    vertex 124.52364315491523 267.6141104549782 21.699860507149864
  endloop
endfacet
facet normal 0.9238795325122361 0.38268343236279795 1.439528339798539e-15
  outer loop
    vertex 124.6834838309196 266.39999998281377 20.199860507149864
    vertex 124.52364315491316 266.7858895106501 21.699860507149864
    vertex 124.6834838309196 266.3999999828137 21.699860507149864
  endloop
endfacet
facet normal 0.9238795325122361 0.38268343236279795 1.439528339798539e-15
  outer loop
    vertex 124.52364315491316 266.7858895106501 21.699860507149864
    vertex 124.6834838309196 266.39999998281377 20.199860507149864
    vertex 124.52364315491316 266.7858895106501 20.199860507149864
  endloop
endfacet
facet normal 0.6087614290067467 -0.7933533402927498 -2.9843325324377716e-15
  outer loop
    vertex 125.26912447698015 268.5856406288674 21.699860507149864
    vertex 124.93775362708105 268.3313708327116 20.199860507149864
    vertex 125.26912447698015 268.5856406288674 20.199860507149864
  endloop
endfacet
facet normal 0.6087614290067467 -0.7933533402927498 -2.9843325324377716e-15
  outer loop
    vertex 124.93775362708105 268.3313708327116 20.199860507149864
    vertex 125.26912447698015 268.5856406288674 21.699860507149864
    vertex 124.93775362708105 268.33137083271157 21.699860507149864
  endloop
endfacet
facet normal -0.38268343236741287 -0.9238795325103247 1.0820193372847433e-29
  outer loop
    vertex 126.86912447698015 268.5856406288634 21.699860507149864
    vertex 126.48323494914459 268.7454813048718 20.199860507149864
    vertex 126.86912447698015 268.5856406288634 20.199860507149864
  endloop
endfacet
facet normal -0.38268343236741287 -0.9238795325103247 1.0820193372847433e-29
  outer loop
    vertex 126.48323494914459 268.7454813048718 20.199860507149864
    vertex 126.86912447698015 268.5856406288634 21.699860507149864
    vertex 126.48323494914459 268.7454813048718 21.699860507149864
  endloop
endfacet
facet normal 0.92387953251034 -0.38268343236737545 -1.4395283398157839e-15
  outer loop
    vertex 124.68348383092359 267.9999999828138 20.199860507149864
    vertex 124.52364315491523 267.6141104549782 21.699860507149864
    vertex 124.52364315491523 267.6141104549782 20.199860507149864
  endloop
endfacet
facet normal 0.92387953251034 -0.38268343236737545 -1.4395283398157839e-15
  outer loop
    vertex 124.52364315491523 267.6141104549782 21.699860507149864
    vertex 124.68348383092359 267.9999999828138 20.199860507149864
    vertex 124.68348383092359 267.99999998281373 21.699860507149864
  endloop
endfacet
facet normal -0.6087614290106977 -0.793353340289718 0.0
  outer loop
    vertex 127.20049532687798 268.33137083270594 21.699860507149864
    vertex 126.86912447698015 268.5856406288634 20.199860507149864
    vertex 127.20049532687798 268.33137083270594 20.199860507149864
  endloop
endfacet
facet normal -0.6087614290106977 -0.793353340289718 0.0
  outer loop
    vertex 126.86912447698015 268.5856406288634 20.199860507149864
    vertex 127.20049532687798 268.33137083270594 21.699860507149864
    vertex 126.86912447698015 268.5856406288634 21.699860507149864
  endloop
endfacet
facet normal 0.3826834323673898 0.9238795325103342 1.082019337284678e-29
  outer loop
    vertex 125.26912447697325 265.8143593367572 21.699860507149864
    vertex 125.6550140048088 265.6545186607488 20.199860507149864
    vertex 125.26912447697325 265.8143593367572 20.199860507149864
  endloop
endfacet
facet normal 0.3826834323673898 0.9238795325103342 1.082019337284678e-29
  outer loop
    vertex 125.6550140048088 265.6545186607488 20.199860507149864
    vertex 125.26912447697325 265.8143593367572 21.699860507149864
    vertex 125.6550140048088 265.6545186607488 21.699860507149864
  endloop
endfacet
facet normal 0.7933533402897183 -0.6087614290106977 -4.56902049015827e-15
  outer loop
    vertex 124.68348383092359 267.9999999828138 20.199860507149864
    vertex 124.93775362708105 268.33137083271157 21.699860507149864
    vertex 124.68348383092359 267.99999998281373 21.699860507149864
  endloop
endfacet
facet normal 0.7933533402897183 -0.6087614290106977 -4.56902049015827e-15
  outer loop
    vertex 124.93775362708105 268.33137083271157 21.699860507149864
    vertex 124.68348383092359 267.9999999828138 20.199860507149864
    vertex 124.93775362708105 268.3313708327116 20.199860507149864
  endloop
endfacet
facet normal -0.1305261922225071 -0.9914448613734873 -3.730501688228469e-15
  outer loop
    vertex 126.48323494914459 268.7454813048718 21.699860507149864
    vertex 126.06912447698069 268.7999999828103 20.199860507149864
    vertex 126.48323494914459 268.7454813048718 20.199860507149864
  endloop
endfacet
facet normal -0.1305261922225071 -0.9914448613734873 -3.730501688228469e-15
  outer loop
    vertex 126.06912447698069 268.7999999828103 20.199860507149864
    vertex 126.48323494914459 268.7454813048718 21.699860507149864
    vertex 126.06912447698069 268.7999999828103 21.699860507149864
  endloop
endfacet
facet normal 0.7933533402927584 0.6087614290067358 2.28995889323126e-15
  outer loop
    vertex 124.6834838309196 266.39999998281377 20.199860507149864
    vertex 124.93775362707541 266.0686291329146 21.699860507149864
    vertex 124.93775362707541 266.0686291329146 20.199860507149864
  endloop
endfacet
facet normal 0.7933533402927584 0.6087614290067358 2.28995889323126e-15
  outer loop
    vertex 124.93775362707541 266.0686291329146 21.699860507149864
    vertex 124.6834838309196 266.39999998281377 20.199860507149864
    vertex 124.6834838309196 266.3999999828137 21.699860507149864
  endloop
endfacet
facet normal 0.9914448613741361 0.13052619221757863 1.9263880336267477e-18
  outer loop
    vertex 124.4691244769767 267.1999999828143 20.199860507149864
    vertex 124.52364315491316 266.7858895106501 21.699860507149864
    vertex 124.52364315491316 266.7858895106501 20.199860507149864
  endloop
endfacet
facet normal 0.9914448613741361 0.13052619221757863 1.9263880336267477e-18
  outer loop
    vertex 124.52364315491316 266.7858895106501 21.699860507149864
    vertex 124.4691244769767 267.1999999828143 20.199860507149864
    vertex 124.4691244769767 267.1999999828143 21.699860507149864
  endloop
endfacet
facet normal -3.8584857284164944e-09 0.9999999999585878 -9.100790380625563e-06
  outer loop
    vertex 118.01912448770162 285.3999999999193 10.999987269526331
    vertex 143.1127080723024 285.39999998597517 10.999518234589996
    vertex 118.0190519507321 285.3999888351358 6.4999872705809585
  endloop
endfacet
facet normal -3.8584857284164944e-09 0.9999999999585878 -9.100790380625563e-06
  outer loop
    vertex 138.8663599385008 285.40011891816914 21.693583829038044
    vertex 143.11912443669317 285.40010449261763 20.19982821682793
    vertex 138.8668703088808 285.4001426231933 20.19370938877053
  endloop
endfacet
facet normal -3.8584857284164944e-09 0.9999999999585878 -9.100790380625563e-06
  outer loop
    vertex 143.11912443669317 285.40010449261763 20.19982821682793
    vertex 138.8663599385008 285.40011891816914 21.693583829038044
    vertex 144.4665200701473 285.4001048865626 20.464470104341814
  endloop
endfacet
facet normal -3.8584857284164944e-09 0.9999999999585878 -9.100790380625563e-06
  outer loop
    vertex 144.4665200701473 285.4001048865626 20.464470104341814
    vertex 138.8663599385008 285.40011891816914 21.693583829038044
    vertex 144.28178888895619 285.40010525726854 20.810249832292293
  endloop
endfacet
facet normal -3.8584857284164944e-09 0.9999999999585878 -9.100790380625563e-06
  outer loop
    vertex 144.28178888895619 285.40010525726854 20.810249832292293
    vertex 138.8663599385008 285.40011891816914 21.693583829038044
    vertex 144.03313936393369 285.40010558220274 21.113338339616284
  endloop
endfacet
facet normal -3.8584857284164944e-09 0.9999999999585878 -9.100790380625563e-06
  outer loop
    vertex 144.03313936393369 285.40010558220274 21.113338339616284
    vertex 138.8663599385008 285.40011891816914 21.693583829038044
    vertex 143.73013003746345 285.4001058488742 21.36208434991175
  endloop
endfacet
facet normal -3.8584857284164944e-09 0.9999999999585878 -9.100790380625563e-06
  outer loop
    vertex 143.73013003746345 285.4001058488742 21.36208434991175
    vertex 138.8663599385008 285.40011891816914 21.693583829038044
    vertex 143.3844091420908 285.4001060470316 21.54692561172469
  endloop
endfacet
facet normal -3.8584857284164944e-09 0.9999999999585878 -9.100790380625563e-06
  outer loop
    vertex 143.3844091420908 285.4001060470316 21.54692561172469
    vertex 138.8663599385008 285.40011891816914 21.693583829038044
    vertex 143.00926682116523 285.4001061690573 21.660756488979022
  endloop
endfacet
facet normal -3.8584857284164944e-09 0.9999999999585878 -9.100790380625563e-06
  outer loop
    vertex 143.00926682116523 285.4001061690573 21.660756488979022
    vertex 138.8663599385008 285.40011891816914 21.693583829038044
    vertex 142.61912423143005 285.40010621026056 21.699201114619665
  endloop
endfacet
facet normal -3.8584857284164944e-09 0.9999999999585878 -9.100790380625563e-06
  outer loop
    vertex 144.61477418922593 285.3999888211941 6.499162818256996
    vertex 143.1127080723024 285.39999998597517 10.999518234589996
    vertex 144.6185519125094 285.40010406604983 19.69913675071461
  endloop
endfacet
facet normal -3.8584857284164944e-09 0.9999999999585878 -9.100790380625563e-06
  outer loop
    vertex 143.1127080723024 285.39999998597517 10.999518234589996
    vertex 144.61477418922593 285.3999888211941 6.499162818256996
    vertex 118.0190519507321 285.3999888351358 6.4999872705809585
  endloop
endfacet
facet normal -3.8584857284164944e-09 0.9999999999585878 -9.100790380625563e-06
  outer loop
    vertex 144.6185519125094 285.40010406604983 19.69913675071461
    vertex 143.1127080723024 285.39999998597517 10.999518234589996
    vertex 143.11912443669317 285.40010449261763 20.19982821682793
  endloop
endfacet
facet normal -3.8584857284164944e-09 0.9999999999585878 -9.100790380625563e-06
  outer loop
    vertex 144.6185519125094 285.40010406604983 19.69913675071461
    vertex 143.11912443669317 285.40010449261763 20.19982821682793
    vertex 144.5802315031314 285.4001044843356 20.089291560746272
  endloop
endfacet
facet normal -3.8584857284164944e-09 0.9999999999585878 -9.100790380625563e-06
  outer loop
    vertex 144.5802315031314 285.4001044843356 20.089291560746272
    vertex 143.11912443669317 285.40010449261763 20.19982821682793
    vertex 144.4665200701473 285.4001048865626 20.464470104341814
  endloop
endfacet
facet normal -0.9999999995819691 1.0464639088289351e-09 2.8914737941187006e-05
  outer loop
    vertex 141.2691743504089 263.6999891976665 10.999619178624764
    vertex 141.269096115924 270.6999738280249 8.499662748582429
    vertex 141.26909610083183 263.6999738279997 8.499466837008912
  endloop
endfacet
facet normal -0.9999999995819691 1.0464639088289351e-09 2.8914737941187006e-05
  outer loop
    vertex 141.269096115924 270.6999738280249 8.499662748582429
    vertex 141.2691743504089 263.6999891976665 10.999619178624764
    vertex 141.26917436550104 270.69998919769176 10.99981509019828
  endloop
endfacet
facet normal -2.3037539129990522e-11 -0.9999999999811 6.148195801473655e-06
  outer loop
    vertex 141.26917436550104 270.69998919769176 10.99981509019828
    vertex 134.8690961115774 270.69997383010826 8.499677887807607
    vertex 141.269096115924 270.6999738280249 8.499662748582429
  endloop
endfacet
facet normal -2.3037539129990522e-11 -0.9999999999811 6.148195801473655e-06
  outer loop
    vertex 134.8690961115774 270.69997383010826 8.499677887807607
    vertex 141.26917436550104 270.69998919769176 10.99981509019828
    vertex 134.86917436115445 270.69998919977513 10.99983022942346
  endloop
endfacet
facet normal 0.9999999995819691 1.820834341629152e-10 -2.8914737943419744e-05
  outer loop
    vertex 134.8690961115774 270.69997383010826 8.499677887807607
    vertex 134.86917436547517 263.6999891995094 10.99992330365313
    vertex 134.86909611589812 263.6999738298425 8.499770962037278
  endloop
endfacet
facet normal 0.9999999995819691 1.820834341629152e-10 -2.8914737943419744e-05
  outer loop
    vertex 134.86917436547517 263.6999891995094 10.99992330365313
    vertex 134.8690961115774 270.69997383010826 8.499677887807607
    vertex 134.86917436115445 270.69998919977513 10.99983022942346
  endloop
endfacet
facet normal -0.9999999998387905 -2.5350743660775258e-11 1.79560283654939e-05
  outer loop
    vertex 129.26911592537846 263.69998825964586 10.999966985899853
    vertex 129.26903767973278 270.6999728867921 8.499973053170951
    vertex 129.26903767964183 263.699972889212 8.499957517383862
  endloop
endfacet
facet normal -0.9999999998387905 -2.5350743660775258e-11 1.79560283654939e-05
  outer loop
    vertex 129.26903767973278 270.6999728867921 8.499973053170951
    vertex 129.26911592537846 263.69998825964586 10.999966985899853
    vertex 129.26911592546938 270.69998825722604 10.999982521686942
  endloop
endfacet
facet normal -3.6982542574953125e-10 -0.9999999999811 6.14819581232753e-06
  outer loop
    vertex 129.26911592546938 270.69998825722604 10.999982521686942
    vertex 122.86903768067343 270.69997288890426 8.499985769635492
    vertex 129.26903767973278 270.6999728867921 8.499973053170951
  endloop
endfacet
facet normal -3.6982542574953125e-10 -0.9999999999811 6.14819581232753e-06
  outer loop
    vertex 122.86903768067343 270.69997288890426 8.499985769635492
    vertex 129.26911592546938 270.69998825722604 10.999982521686942
    vertex 122.86911592641005 270.69998825933817 10.999995238151481
  endloop
endfacet
facet normal 0.9999999998387905 -1.9660406358872036e-10 -1.79560283651296e-05
  outer loop
    vertex 122.86903768067343 270.69997288890426 8.499985769635492
    vertex 122.86911592288092 263.69998825931293 10.999899473035311
    vertex 122.8690376771443 263.699972888879 8.49989000451932
  endloop
endfacet
facet normal 0.9999999998387905 -1.9660406358872036e-10 -1.79560283651296e-05
  outer loop
    vertex 122.86911592288092 263.69998825931293 10.999899473035311
    vertex 122.86903768067343 270.69997288890426 8.499985769635492
    vertex 122.86911592641005 270.69998825933817 10.999995238151481
  endloop
endfacet
facet normal -4.280968752256346e-06 -5.8701252851578235e-06 0.9999999999736076
  outer loop
    vertex 129.26903767964183 263.699972889212 8.499957517383862
    vertex 122.86903768067343 270.69997288890426 8.499985769635492
    vertex 122.8690376771443 263.699972888879 8.49989000451932
  endloop
endfacet
facet normal -4.280968752256346e-06 -5.8701252851578235e-06 0.9999999999736076
  outer loop
    vertex 122.86903768067343 270.69997288890426 8.499985769635492
    vertex 129.26903767964183 263.699972889212 8.499957517383862
    vertex 129.26903767973278 270.6999728867921 8.499973053170951
  endloop
endfacet
facet normal 2.4942519787238834e-05 -5.399927552266933e-06 0.9999999996743558
  outer loop
    vertex 134.86909611589812 263.6999738298425 8.499770962037278
    vertex 141.269096115924 270.6999738280249 8.499662748582429
    vertex 134.8690961115774 270.69997383010826 8.499677887807607
  endloop
endfacet
facet normal 2.4942519787238834e-05 -5.399927552266933e-06 0.9999999996743558
  outer loop
    vertex 141.269096115924 270.6999738280249 8.499662748582429
    vertex 134.86909611589812 263.6999738298425 8.499770962037278
    vertex 141.26909610083183 263.6999738279997 8.499466837008912
  endloop
endfacet
facet normal -3.0999433524363454e-05 1.2992257023310208e-07 -0.9999999995195092
  outer loop
    vertex 118.0190519507321 285.3999888351358 6.4999872705809585
    vertex 144.61477418913466 263.69998882119125 6.499159998937223
    vertex 118.01905195064086 263.699988835133 6.499984451261185
  endloop
endfacet
facet normal -3.0999433524363454e-05 1.2992257023310208e-07 -0.9999999995195092
  outer loop
    vertex 144.61477418913466 263.69998882119125 6.499159998937223
    vertex 118.0190519507321 285.3999888351358 6.4999872705809585
    vertex 144.61477418922593 285.3999888211941 6.499162818256996
  endloop
endfacet
facet normal 1.0 3.8985707833861813e-16 0.0
  outer loop
    vertex 119.51912448770112 271.7999999999531 10.999987269530632
    vertex 119.51912448761036 263.699999999914 20.199984450206554
    vertex 119.51912448761036 263.699999999914 10.999984450206558
  endloop
endfacet
facet normal 1.0 3.8985707833861813e-16 0.0
  outer loop
    vertex 119.51912448761036 263.699999999914 20.199984450206554
    vertex 119.51912448770112 271.7999999999531 10.999987269530632
    vertex 119.51912448770112 271.7999999999531 20.19998726953063
  endloop
endfacet
facet normal 1.202857411025333e-05 6.216015492746977e-06 0.9999999999083373
  outer loop
    vertex 122.86911592288092 263.69998825931293 10.999899473035311
    vertex 119.51912448770112 271.7999999999531 10.999987269530632
    vertex 119.51912448761036 263.699999999914 10.999984450206558
  endloop
endfacet
facet normal 1.202857411025333e-05 6.216015492746977e-06 0.9999999999083373
  outer loop
    vertex 134.86917436547517 263.6999891995094 10.99992330365313
    vertex 129.26911592546938 270.69998825722604 10.999982521686942
    vertex 129.26911592537846 263.69998825964586 10.999966985899853
  endloop
endfacet
facet normal 1.202857411025333e-05 6.216015492746977e-06 0.9999999999083373
  outer loop
    vertex 129.26911592546938 270.69998825722604 10.999982521686942
    vertex 134.86917436547517 263.6999891995094 10.99992330365313
    vertex 134.86917436115445 270.69998919977513 10.99983022942346
  endloop
endfacet
facet normal 1.202857411025333e-05 6.216015492746977e-06 0.9999999999083373
  outer loop
    vertex 143.11270808214977 263.6999999859723 10.999824380970802
    vertex 141.26917436550104 270.69998919769176 10.99981509019828
    vertex 141.2691743504089 263.6999891976665 10.999619178624764
  endloop
endfacet
facet normal 1.202857411025333e-05 6.216015492746977e-06 0.9999999999083373
  outer loop
    vertex 141.26917436550104 270.69998919769176 10.99981509019828
    vertex 143.11270808214977 263.6999999859723 10.999824380970802
    vertex 143.1127080723024 285.39999998597517 10.999518234589996
  endloop
endfacet
facet normal 1.202857411025333e-05 6.216015492746977e-06 0.9999999999083373
  outer loop
    vertex 119.51912448770112 271.7999999999531 10.999987269530632
    vertex 118.01912448770162 285.3999999999193 10.999987269526331
    vertex 118.01912448770112 271.7999999999557 10.999987269530632
  endloop
endfacet
facet normal 1.202857411025333e-05 6.216015492746977e-06 0.9999999999083373
  outer loop
    vertex 118.01912448770162 285.3999999999193 10.999987269526331
    vertex 119.51912448770112 271.7999999999531 10.999987269530632
    vertex 143.1127080723024 285.39999998597517 10.999518234589996
  endloop
endfacet
facet normal 1.202857411025333e-05 6.216015492746977e-06 0.9999999999083373
  outer loop
    vertex 143.1127080723024 285.39999998597517 10.999518234589996
    vertex 119.51912448770112 271.7999999999531 10.999987269530632
    vertex 122.86911592641005 270.69998825933817 10.999995238151481
  endloop
endfacet
facet normal 1.202857411025333e-05 6.216015492746977e-06 0.9999999999083373
  outer loop
    vertex 122.86911592641005 270.69998825933817 10.999995238151481
    vertex 119.51912448770112 271.7999999999531 10.999987269530632
    vertex 122.86911592288092 263.69998825931293 10.999899473035311
  endloop
endfacet
facet normal 1.202857411025333e-05 6.216015492746977e-06 0.9999999999083373
  outer loop
    vertex 143.1127080723024 285.39999998597517 10.999518234589996
    vertex 122.86911592641005 270.69998825933817 10.999995238151481
    vertex 129.26911592546938 270.69998825722604 10.999982521686942
  endloop
endfacet
facet normal 1.202857411025333e-05 6.216015492746977e-06 0.9999999999083373
  outer loop
    vertex 143.1127080723024 285.39999998597517 10.999518234589996
    vertex 129.26911592546938 270.69998825722604 10.999982521686942
    vertex 134.86917436115445 270.69998919977513 10.99983022942346
  endloop
endfacet
facet normal 1.202857411025333e-05 6.216015492746977e-06 0.9999999999083373
  outer loop
    vertex 143.1127080723024 285.39999998597517 10.999518234589996
    vertex 134.86917436115445 270.69998919977513 10.99983022942346
    vertex 141.26917436550104 270.69998919769176 10.99981509019828
  endloop
endfacet
facet normal -0.9999997568037481 4.649500201148238e-09 0.0006974184142566574
  outer loop
    vertex 143.11912443669317 285.40010449261763 20.19982821682793
    vertex 143.11270808214977 263.6999999859723 10.999824380970802
    vertex 143.1191244366024 263.6999999859723 20.199825397503858
  endloop
endfacet
facet normal -0.9999997568037481 4.649500201148238e-09 0.0006974184142566574
  outer loop
    vertex 143.11270808214977 263.6999999859723 10.999824380970802
    vertex 143.11912443669317 285.40010449261763 20.19982821682793
    vertex 143.1127080723024 285.39999998597517 10.999518234589996
  endloop
endfacet
facet normal 8.422299894543069e-13 1.0 1.3732010697624544e-13
  outer loop
    vertex 118.01912448770112 271.7999999999531 20.19998726953063
    vertex 119.51912448770112 271.7999999999531 10.999987269530632
    vertex 118.01912448770112 271.7999999999557 10.999987269530632
  endloop
endfacet
facet normal 8.422299894543069e-13 1.0 1.3732010697624544e-13
  outer loop
    vertex 119.51912448770112 271.7999999999531 10.999987269530632
    vertex 118.01912448770112 271.7999999999531 20.19998726953063
    vertex 119.51912448770112 271.7999999999531 20.19998726953063
  endloop
endfacet
facet normal -9.216132608553242e-09 -0.9999999999997347 7.28615448927847e-07
  outer loop
    vertex 134.86909611589812 263.6999738298425 8.499770962037278
    vertex 129.26903767964183 263.699972889212 8.499957517383862
    vertex 122.8690376771443 263.699972888879 8.49989000451932
  endloop
endfacet
facet normal -9.216132608553242e-09 -0.9999999999997347 7.28615448927847e-07
  outer loop
    vertex 129.26903767964183 263.699972889212 8.499957517383862
    vertex 134.86909611589812 263.6999738298425 8.499770962037278
    vertex 134.86917436547517 263.6999891995094 10.99992330365313
  endloop
endfacet
facet normal -9.216132608553242e-09 -0.9999999999997347 7.28615448927847e-07
  outer loop
    vertex 129.26903767964183 263.699972889212 8.499957517383862
    vertex 134.86917436547517 263.6999891995094 10.99992330365313
    vertex 129.26911592537846 263.69998825964586 10.999966985899853
  endloop
endfacet
facet normal -9.216132608553242e-09 -0.9999999999997347 7.28615448927847e-07
  outer loop
    vertex 144.61477418913466 263.69998882119125 6.499159998937223
    vertex 141.26909610083183 263.6999738279997 8.499466837008912
    vertex 118.01905195064086 263.699988835133 6.499984451261185
  endloop
endfacet
facet normal -9.216132608553242e-09 -0.9999999999997347 7.28615448927847e-07
  outer loop
    vertex 141.26909610083183 263.6999738279997 8.499466837008912
    vertex 144.61477418913466 263.69998882119125 6.499159998937223
    vertex 143.11270808214977 263.6999999859723 10.999824380970802
  endloop
endfacet
facet normal -9.216132608553242e-09 -0.9999999999997347 7.28615448927847e-07
  outer loop
    vertex 143.11270808214977 263.6999999859723 10.999824380970802
    vertex 144.61477418913466 263.69998882119125 6.499159998937223
    vertex 144.61855191301657 263.6999978417852 19.69916001527278
  endloop
endfacet
facet normal -9.216132608553242e-09 -0.9999999999997347 7.28615448927847e-07
  outer loop
    vertex 141.26909610083183 263.6999738279997 8.499466837008912
    vertex 143.11270808214977 263.6999999859723 10.999824380970802
    vertex 141.2691743504089 263.6999891976665 10.999619178624764
  endloop
endfacet
facet normal -9.216132608553242e-09 -0.9999999999997347 7.28615448927847e-07
  outer loop
    vertex 143.11270808214977 263.6999999859723 10.999824380970802
    vertex 144.61855191301657 263.6999978417852 19.69916001527278
    vertex 143.1191244366024 263.6999999859723 20.199825397503858
  endloop
endfacet
facet normal -9.216132608553242e-09 -0.9999999999997347 7.28615448927847e-07
  outer loop
    vertex 143.1191244366024 263.6999999859723 20.199825397503858
    vertex 144.61855191301657 263.6999978417852 19.69916001527278
    vertex 144.58023150363854 263.6999982600709 20.08931482530444
  endloop
endfacet
facet normal -9.216132608553242e-09 -0.9999999999997347 7.28615448927847e-07
  outer loop
    vertex 143.1191244366024 263.6999999859723 20.199825397503858
    vertex 144.58023150363854 263.6999982600709 20.08931482530444
    vertex 144.4665200706545 263.69999866229796 20.46449336889998
  endloop
endfacet
facet normal -9.216132608553242e-09 -0.9999999999997347 7.28615448927847e-07
  outer loop
    vertex 143.1191244366024 263.6999999859723 20.199825397503858
    vertex 144.4665200706545 263.69999866229796 20.46449336889998
    vertex 119.51912448761036 263.699999999914 20.199984450206554
  endloop
endfacet
facet normal -9.216132608553242e-09 -0.9999999999997347 7.28615448927847e-07
  outer loop
    vertex 118.01905195064086 263.699988835133 6.499984451261185
    vertex 119.51912448761036 263.699999999914 10.999984450206558
    vertex 118.01912448761037 263.699999999914 21.699984450206557
  endloop
endfacet
facet normal -9.216132608553242e-09 -0.9999999999997347 7.28615448927847e-07
  outer loop
    vertex 119.51912448761036 263.699999999914 10.999984450206558
    vertex 118.01905195064086 263.699988835133 6.499984451261185
    vertex 122.8690376771443 263.699972888879 8.49989000451932
  endloop
endfacet
facet normal -9.216132608553242e-09 -0.9999999999997347 7.28615448927847e-07
  outer loop
    vertex 122.8690376771443 263.699972888879 8.49989000451932
    vertex 118.01905195064086 263.699988835133 6.499984451261185
    vertex 141.26909610083183 263.6999738279997 8.499466837008912
  endloop
endfacet
facet normal -9.216132608553242e-09 -0.9999999999997347 7.28615448927847e-07
  outer loop
    vertex 122.8690376771443 263.699972888879 8.49989000451932
    vertex 141.26909610083183 263.6999738279997 8.499466837008912
    vertex 134.86909611589812 263.6999738298425 8.499770962037278
  endloop
endfacet
facet normal -9.216132608553242e-09 -0.9999999999997347 7.28615448927847e-07
  outer loop
    vertex 119.51912448761036 263.699999999914 10.999984450206558
    vertex 122.8690376771443 263.699972888879 8.49989000451932
    vertex 122.86911592288092 263.69998825931293 10.999899473035311
  endloop
endfacet
facet normal -9.216132608553242e-09 -0.9999999999997347 7.28615448927847e-07
  outer loop
    vertex 118.01912448761037 263.699999999914 21.699984450206557
    vertex 119.51912448761036 263.699999999914 10.999984450206558
    vertex 119.51912448761036 263.699999999914 20.199984450206554
  endloop
endfacet
facet normal -9.216132608553242e-09 -0.9999999999997347 7.28615448927847e-07
  outer loop
    vertex 118.01912448761037 263.699999999914 21.699984450206557
    vertex 119.51912448761036 263.699999999914 20.199984450206554
    vertex 144.4665200706545 263.69999866229796 20.46449336889998
  endloop
endfacet
facet normal -9.216132608553242e-09 -0.9999999999997347 7.28615448927847e-07
  outer loop
    vertex 118.01912448761037 263.699999999914 21.699984450206557
    vertex 144.4665200706545 263.69999866229796 20.46449336889998
    vertex 144.28178888946337 263.69999903300385 20.810273096850462
  endloop
endfacet
facet normal -9.216132608553242e-09 -0.9999999999997347 7.28615448927847e-07
  outer loop
    vertex 118.01912448761037 263.699999999914 21.699984450206557
    vertex 144.28178888946337 263.69999903300385 20.810273096850462
    vertex 144.03313936444084 263.69999935793805 21.113361604174454
  endloop
endfacet
facet normal -9.216132608553242e-09 -0.9999999999997347 7.28615448927847e-07
  outer loop
    vertex 118.01912448761037 263.699999999914 21.699984450206557
    vertex 144.03313936444084 263.69999935793805 21.113361604174454
    vertex 143.73013003797064 263.6999996246095 21.36210761446992
  endloop
endfacet
facet normal -9.216132608553242e-09 -0.9999999999997347 7.28615448927847e-07
  outer loop
    vertex 118.01912448761037 263.699999999914 21.699984450206557
    vertex 143.73013003797064 263.6999996246095 21.36210761446992
    vertex 143.38440914259795 263.6999998227669 21.54694887628286
  endloop
endfacet
facet normal -9.216132608553242e-09 -0.9999999999997347 7.28615448927847e-07
  outer loop
    vertex 118.01912448761037 263.699999999914 21.699984450206557
    vertex 143.38440914259795 263.6999998227669 21.54694887628286
    vertex 143.0092668216724 263.6999999447927 21.660779753537188
  endloop
endfacet
facet normal -9.216132608553242e-09 -0.9999999999997347 7.28615448927847e-07
  outer loop
    vertex 118.01912448761037 263.699999999914 21.699984450206557
    vertex 143.0092668216724 263.6999999447927 21.660779753537188
    vertex 142.61912423193723 263.6999999859959 21.69922437917783
  endloop
endfacet
facet normal 0.0980649744477931 1.0669290198969044e-06 0.9951800142614479
  outer loop
    vertex 142.61912423193723 263.6999999859959 21.69922437917783
    vertex 143.00926682116523 285.4001061690573 21.660756488979022
    vertex 142.61912423143005 285.40010621026056 21.699201114619665
  endloop
endfacet
facet normal 0.0980649744477931 1.0669290198969044e-06 0.9951800142614479
  outer loop
    vertex 143.00926682116523 285.4001061690573 21.660756488979022
    vertex 142.61912423193723 263.6999999859959 21.69922437917783
    vertex 143.0092668216724 263.6999999447927 21.660779753537188
  endloop
endfacet
facet normal 0.2903610552397955 1.0259121334078037e-06 0.9569171633945021
  outer loop
    vertex 143.0092668216724 263.6999999447927 21.660779753537188
    vertex 143.3844091420908 285.4001060470316 21.54692561172469
    vertex 143.00926682116523 285.4001061690573 21.660756488979022
  endloop
endfacet
facet normal 0.2903610552397955 1.0259121334078037e-06 0.9569171633945021
  outer loop
    vertex 143.3844091420908 285.4001060470316 21.54692561172469
    vertex 143.0092668216724 263.6999999447927 21.660779753537188
    vertex 143.38440914259795 263.6999998227669 21.54694887628286
  endloop
endfacet
facet normal 0.47149512615931705 9.454573086872594e-07 0.8818686670968165
  outer loop
    vertex 143.38440914259795 263.6999998227669 21.54694887628286
    vertex 143.73013003746345 285.4001058488742 21.36208434991175
    vertex 143.3844091420908 285.4001060470316 21.54692561172469
  endloop
endfacet
facet normal 0.47149512615931705 9.454573086872594e-07 0.8818686670968165
  outer loop
    vertex 143.73013003746345 285.4001058488742 21.36208434991175
    vertex 143.38440914259795 263.6999998227669 21.54694887628286
    vertex 143.73013003797064 263.6999996246095 21.36210761446992
  endloop
endfacet
facet normal 0.6345040623266563 8.286573763045353e-07 0.7729195267880636
  outer loop
    vertex 143.73013003797064 263.6999996246095 21.36210761446992
    vertex 144.03313936393369 285.40010558220274 21.113338339616284
    vertex 143.73013003746345 285.4001058488742 21.36208434991175
  endloop
endfacet
facet normal 0.6345040623266563 8.286573763045353e-07 0.7729195267880636
  outer loop
    vertex 144.03313936393369 285.40010558220274 21.113338339616284
    vertex 143.73013003797064 263.6999996246095 21.36210761446992
    vertex 144.03313936444084 263.69999935793805 21.113361604174454
  endloop
endfacet
facet normal 0.7731215021827345 6.800023392229972e-07 0.6342579466291691
  outer loop
    vertex 144.28178888895619 285.40010525726854 20.810249832292293
    vertex 144.03313936444084 263.69999935793805 21.113361604174454
    vertex 144.28178888946337 263.69999903300385 20.810273096850462
  endloop
endfacet
facet normal 0.7731215021827345 6.800023392229972e-07 0.6342579466291691
  outer loop
    vertex 144.03313936444084 263.69999935793805 21.113361604174454
    vertex 144.28178888895619 285.40010525726854 20.810249832292293
    vertex 144.03313936393369 285.40010558220274 21.113338339616284
  endloop
endfacet
facet normal 0.8820187378851921 5.052067688754674e-07 0.47121433129644696
  outer loop
    vertex 144.4665200701473 285.4001048865626 20.464470104341814
    vertex 144.28178888946337 263.69999903300385 20.810273096850462
    vertex 144.4665200706545 263.69999866229796 20.46449336889998
  endloop
endfacet
facet normal 0.8820187378851921 5.052067688754674e-07 0.47121433129644696
  outer loop
    vertex 144.28178888946337 263.69999903300385 20.810273096850462
    vertex 144.4665200701473 285.4001048865626 20.464470104341814
    vertex 144.28178888895619 285.40010525726854 20.810249832292293
  endloop
endfacet
facet normal 0.9570095605810878 3.109901265893648e-07 0.29005637547948643
  outer loop
    vertex 144.5802315031314 285.4001044843356 20.089291560746272
    vertex 144.4665200706545 263.69999866229796 20.46449336889998
    vertex 144.58023150363854 263.6999982600709 20.08931482530444
  endloop
endfacet
facet normal 0.9570095605810878 3.109901265893648e-07 0.29005637547948643
  outer loop
    vertex 144.4665200706545 263.69999866229796 20.46449336889998
    vertex 144.5802315031314 285.4001044843356 20.089291560746272
    vertex 144.4665200701473 285.4001048865626 20.464470104341814
  endloop
endfacet
facet normal 0.9952111859294582 1.0481845520915674e-07 0.09774812223705491
  outer loop
    vertex 144.6185519125094 285.40010406604983 19.69913675071461
    vertex 144.58023150363854 263.6999982600709 20.08931482530444
    vertex 144.61855191301657 263.6999978417852 19.69916001527278
  endloop
endfacet
facet normal 0.9952111859294582 1.0481845520915674e-07 0.09774812223705491
  outer loop
    vertex 144.58023150363854 263.6999982600709 20.08931482530444
    vertex 144.6185519125094 285.40010406604983 19.69913675071461
    vertex 144.5802315031314 285.4001044843356 20.089291560746272
  endloop
endfacet
facet normal -4.804747863816358e-06 0.9999999997518665 -2.1752738242280642e-05
  outer loop
    vertex 118.01910787900353 277.5499999965211 20.199790566617217
    vertex 138.8663440340864 277.5501201883859 21.693185866035325
    vertex 138.8668544044664 277.55014389341005 20.19331142576781
  endloop
endfacet
facet normal -4.804747863816358e-06 0.9999999997518665 -2.1752738242280642e-05
  outer loop
    vertex 138.8663440340864 277.5501201883859 21.693185866035325
    vertex 118.01910787900353 277.5499999965211 20.199790566617217
    vertex 118.01910787900353 277.5499999965211 21.699790566617217
  endloop
endfacet
facet normal 0.00011073722439293736 0.00011965960728818618 0.9999999867094227
  outer loop
    vertex 118.01912448761037 263.699999999914 21.699984450206557
    vertex 124.52364315491316 266.7858895106501 21.699860507149864
    vertex 124.4691244769767 267.1999999828143 21.699860507149864
  endloop
endfacet
facet normal 0.00011073722439293736 0.00011965960728818618 0.9999999867094227
  outer loop
    vertex 124.52364315491316 266.7858895106501 21.699860507149864
    vertex 118.01912448761037 263.699999999914 21.699984450206557
    vertex 124.6834838309196 266.3999999828137 21.699860507149864
  endloop
endfacet
facet normal 0.00011073722439293736 0.00011965960728818618 0.9999999867094227
  outer loop
    vertex 124.6834838309196 266.3999999828137 21.699860507149864
    vertex 118.01912448761037 263.699999999914 21.699984450206557
    vertex 124.93775362707541 266.0686291329146 21.699860507149864
  endloop
endfacet
facet normal 0.00011073722439293736 0.00011965960728818618 0.9999999867094227
  outer loop
    vertex 124.93775362707541 266.0686291329146 21.699860507149864
    vertex 118.01912448761037 263.699999999914 21.699984450206557
    vertex 125.26912447697325 265.8143593367572 21.699860507149864
  endloop
endfacet
facet normal 0.00011073722439293736 0.00011965960728818618 0.9999999867094227
  outer loop
    vertex 125.26912447697325 265.8143593367572 21.699860507149864
    vertex 118.01912448761037 263.699999999914 21.699984450206557
    vertex 125.6550140048088 265.6545186607488 21.699860507149864
  endloop
endfacet
facet normal 0.00011073722439293736 0.00011965960728818618 0.9999999867094227
  outer loop
    vertex 125.6550140048088 265.6545186607488 21.699860507149864
    vertex 118.01912448761037 263.699999999914 21.699984450206557
    vertex 126.0691244769727 265.5999999828103 21.699860507149864
  endloop
endfacet
facet normal 0.00011073722439293736 0.00011965960728818618 0.9999999867094227
  outer loop
    vertex 126.0691244769727 265.5999999828103 21.699860507149864
    vertex 118.01912448761037 263.699999999914 21.699984450206557
    vertex 142.61912423193723 263.6999999859959 21.69922437917783
  endloop
endfacet
facet normal 0.00011073722439293736 0.00011965960728818618 0.9999999867094227
  outer loop
    vertex 126.0691244769727 265.5999999828103 21.699860507149864
    vertex 142.61912423193723 263.6999999859959 21.69922437917783
    vertex 126.48323494913687 265.65451866074676 21.699860507149864
  endloop
endfacet
facet normal 0.00011073722439293736 0.00011965960728818618 0.9999999867094227
  outer loop
    vertex 126.48323494913687 265.65451866074676 21.699860507149864
    vertex 142.61912423193723 263.6999999859959 21.69922437917783
    vertex 126.86912447697324 265.81435933675317 21.699860507149864
  endloop
endfacet
facet normal 0.00011073722439293736 0.00011965960728818618 0.9999999867094227
  outer loop
    vertex 126.86912447697324 265.81435933675317 21.699860507149864
    vertex 142.61912423193723 263.6999999859959 21.69922437917783
    vertex 127.20049532687234 266.068629132909 21.699860507149864
  endloop
endfacet
facet normal 0.00011073722439293736 0.00011965960728818618 0.9999999867094227
  outer loop
    vertex 127.20049532687234 266.068629132909 21.699860507149864
    vertex 142.61912423193723 263.6999999859959 21.69922437917783
    vertex 127.4547651230298 266.39999998280683 21.699860507149864
  endloop
endfacet
facet normal 0.00011073722439293736 0.00011965960728818618 0.9999999867094227
  outer loop
    vertex 127.4547651230298 266.39999998280683 21.699860507149864
    vertex 142.61912423193723 263.6999999859959 21.69922437917783
    vertex 127.61460579903816 266.7858895106424 21.699860507149864
  endloop
endfacet
facet normal 0.00011073722439293736 0.00011965960728818618 0.9999999867094227
  outer loop
    vertex 127.61460579903816 266.7858895106424 21.699860507149864
    vertex 142.61912423193723 263.6999999859959 21.69922437917783
    vertex 127.66912447697669 267.1999999828063 21.699860507149864
  endloop
endfacet
facet normal 0.00011073722439293736 0.00011965960728818618 0.9999999867094227
  outer loop
    vertex 127.66912447697669 267.1999999828063 21.699860507149864
    vertex 142.61912423193723 263.6999999859959 21.69922437917783
    vertex 137.65501400480898 265.6545186607185 21.699860507149864
  endloop
endfacet
facet normal 0.00011073722439293736 0.00011965960728818618 0.9999999867094227
  outer loop
    vertex 127.66912447697669 267.1999999828063 21.699860507149864
    vertex 137.65501400480898 265.6545186607185 21.699860507149864
    vertex 137.2691244769734 265.81435933672685 21.699860507149864
  endloop
endfacet
facet normal 0.00011073722439293736 0.00011965960728818618 0.9999999867094227
  outer loop
    vertex 127.66912447697669 267.1999999828063 21.699860507149864
    vertex 137.2691244769734 265.81435933672685 21.699860507149864
    vertex 136.93775362707555 266.06862913288427 21.699860507149864
  endloop
endfacet
facet normal 0.00011073722439293736 0.00011965960728818618 0.9999999867094227
  outer loop
    vertex 127.66912447697669 267.1999999828063 21.699860507149864
    vertex 136.93775362707555 266.06862913288427 21.699860507149864
    vertex 136.68348383091973 266.39999998278336 21.699860507149864
  endloop
endfacet
facet normal 0.00011073722439293736 0.00011965960728818618 0.9999999867094227
  outer loop
    vertex 127.66912447697669 267.1999999828063 21.699860507149864
    vertex 136.68348383091973 266.39999998278336 21.699860507149864
    vertex 136.52364315491326 266.7858895106197 21.699860507149864
  endloop
endfacet
facet normal 0.00011073722439293736 0.00011965960728818618 0.9999999867094227
  outer loop
    vertex 127.66912447697669 267.1999999828063 21.699860507149864
    vertex 136.52364315491326 266.7858895106197 21.699860507149864
    vertex 136.46912447697676 267.19999998278394 21.699860507149864
  endloop
endfacet
facet normal 0.00011073722439293736 0.00011965960728818618 0.9999999867094227
  outer loop
    vertex 137.65501400480898 265.6545186607185 21.699860507149864
    vertex 142.61912423193723 263.6999999859959 21.69922437917783
    vertex 138.06912447697286 265.59999998278 21.699860507149864
  endloop
endfacet
facet normal 0.00011073722439293736 0.00011965960728818618 0.9999999867094227
  outer loop
    vertex 138.06912447697286 265.59999998278 21.699860507149864
    vertex 142.61912423193723 263.6999999859959 21.69922437917783
    vertex 138.48323494913703 265.65451866071646 21.699860507149864
  endloop
endfacet
facet normal 0.00011073722439293736 0.00011965960728818618 0.9999999867094227
  outer loop
    vertex 138.48323494913703 265.65451866071646 21.699860507149864
    vertex 142.61912423193723 263.6999999859959 21.69922437917783
    vertex 138.86912447697338 265.81435933672293 21.699860507149864
  endloop
endfacet
facet normal 0.00011073722439293736 0.00011965960728818618 0.9999999867094227
  outer loop
    vertex 138.86912447697338 265.81435933672293 21.699860507149864
    vertex 142.61912423193723 263.6999999859959 21.69922437917783
    vertex 139.20049532687247 266.06862913287875 21.699860507149864
  endloop
endfacet
facet normal 0.00011073722439293736 0.00011965960728818618 0.9999999867094227
  outer loop
    vertex 139.20049532687247 266.06862913287875 21.699860507149864
    vertex 142.61912423193723 263.6999999859959 21.69922437917783
    vertex 139.45476512302992 266.3999999827766 21.699860507149864
  endloop
endfacet
facet normal 0.00011073722439293736 0.00011965960728818618 0.9999999867094227
  outer loop
    vertex 139.45476512302992 266.3999999827766 21.699860507149864
    vertex 142.61912423193723 263.6999999859959 21.69922437917783
    vertex 139.61460579903826 266.7858895106122 21.699860507149864
  endloop
endfacet
facet normal 0.00011073722439293736 0.00011965960728818618 0.9999999867094227
  outer loop
    vertex 139.61460579903826 266.7858895106122 21.699860507149864
    vertex 142.61912423193723 263.6999999859959 21.69922437917783
    vertex 139.66912447697675 267.1999999827761 21.699860507149864
  endloop
endfacet
facet normal 0.00011073722439293736 0.00011965960728818618 0.9999999867094227
  outer loop
    vertex 139.66912447697675 267.1999999827761 21.699860507149864
    vertex 142.61912423193723 263.6999999859959 21.69922437917783
    vertex 142.61912423143005 285.40010621026056 21.699201114619665
  endloop
endfacet
facet normal 0.00011073722439293736 0.00011965960728818618 0.9999999867094227
  outer loop
    vertex 118.01910787900353 277.5499999965211 21.699790566617217
    vertex 125.26912447698015 268.5856406288674 21.699860507149864
    vertex 138.8663440340864 277.5501201883859 21.693185866035325
  endloop
endfacet
facet normal 0.00011073722439293736 0.00011965960728818618 0.9999999867094227
  outer loop
    vertex 125.26912447698015 268.5856406288674 21.699860507149864
    vertex 118.01910787900353 277.5499999965211 21.699790566617217
    vertex 118.01912448761037 263.699999999914 21.699984450206557
  endloop
endfacet
facet normal 0.00011073722439293736 0.00011965960728818618 0.9999999867094227
  outer loop
    vertex 125.26912447698015 268.5856406288674 21.699860507149864
    vertex 118.01912448761037 263.699999999914 21.699984450206557
    vertex 124.93775362708105 268.33137083271157 21.699860507149864
  endloop
endfacet
facet normal 0.00011073722439293736 0.00011965960728818618 0.9999999867094227
  outer loop
    vertex 124.93775362708105 268.33137083271157 21.699860507149864
    vertex 118.01912448761037 263.699999999914 21.699984450206557
    vertex 124.68348383092359 267.99999998281373 21.699860507149864
  endloop
endfacet
facet normal 0.00011073722439293736 0.00011965960728818618 0.9999999867094227
  outer loop
    vertex 124.68348383092359 267.99999998281373 21.699860507149864
    vertex 118.01912448761037 263.699999999914 21.699984450206557
    vertex 124.52364315491523 267.6141104549782 21.699860507149864
  endloop
endfacet
facet normal 0.00011073722439293736 0.00011965960728818618 0.9999999867094227
  outer loop
    vertex 124.52364315491523 267.6141104549782 21.699860507149864
    vertex 118.01912448761037 263.699999999914 21.699984450206557
    vertex 124.4691244769767 267.1999999828143 21.699860507149864
  endloop
endfacet
facet normal 0.00011073722439293736 0.00011965960728818618 0.9999999867094227
  outer loop
    vertex 138.8663440340864 277.5501201883859 21.693185866035325
    vertex 125.26912447698015 268.5856406288674 21.699860507149864
    vertex 125.65501400481652 268.7454813048738 21.699860507149864
  endloop
endfacet
facet normal 0.00011073722439293736 0.00011965960728818618 0.9999999867094227
  outer loop
    vertex 138.8663440340864 277.5501201883859 21.693185866035325
    vertex 125.65501400481652 268.7454813048738 21.699860507149864
    vertex 126.06912447698069 268.7999999828103 21.699860507149864
  endloop
endfacet
facet normal 0.00011073722439293736 0.00011965960728818618 0.9999999867094227
  outer loop
    vertex 138.8663440340864 277.5501201883859 21.693185866035325
    vertex 126.06912447698069 268.7999999828103 21.699860507149864
    vertex 126.48323494914459 268.7454813048718 21.699860507149864
  endloop
endfacet
facet normal 0.00011073722439293736 0.00011965960728818618 0.9999999867094227
  outer loop
    vertex 138.8663440340864 277.5501201883859 21.693185866035325
    vertex 126.48323494914459 268.7454813048718 21.699860507149864
    vertex 126.86912447698015 268.5856406288634 21.699860507149864
  endloop
endfacet
facet normal 0.00011073722439293736 0.00011965960728818618 0.9999999867094227
  outer loop
    vertex 138.8663440340864 277.5501201883859 21.693185866035325
    vertex 126.86912447698015 268.5856406288634 21.699860507149864
    vertex 127.20049532687798 268.33137083270594 21.699860507149864
  endloop
endfacet
facet normal 0.00011073722439293736 0.00011965960728818618 0.9999999867094227
  outer loop
    vertex 138.8663440340864 277.5501201883859 21.693185866035325
    vertex 127.20049532687798 268.33137083270594 21.699860507149864
    vertex 127.4547651230338 267.99999998280686 21.699860507149864
  endloop
endfacet
facet normal 0.00011073722439293736 0.00011965960728818618 0.9999999867094227
  outer loop
    vertex 138.8663440340864 277.5501201883859 21.693185866035325
    vertex 127.4547651230338 267.99999998280686 21.699860507149864
    vertex 127.61460579904023 267.6141104549705 21.699860507149864
  endloop
endfacet
facet normal 0.00011073722439293736 0.00011965960728818618 0.9999999867094227
  outer loop
    vertex 138.8663440340864 277.5501201883859 21.693185866035325
    vertex 127.61460579904023 267.6141104549705 21.699860507149864
    vertex 127.66912447697669 267.1999999828063 21.699860507149864
  endloop
endfacet
facet normal 0.00011073722439293736 0.00011965960728818618 0.9999999867094227
  outer loop
    vertex 138.8663440340864 277.5501201883859 21.693185866035325
    vertex 127.66912447697669 267.1999999828063 21.699860507149864
    vertex 136.52364315491528 267.61411045494776 21.699860507149864
  endloop
endfacet
facet normal 0.00011073722439293736 0.00011965960728818618 0.9999999867094227
  outer loop
    vertex 136.52364315491528 267.61411045494776 21.699860507149864
    vertex 127.66912447697669 267.1999999828063 21.699860507149864
    vertex 136.46912447697676 267.19999998278394 21.699860507149864
  endloop
endfacet
facet normal 0.00011073722439293736 0.00011965960728818618 0.9999999867094227
  outer loop
    vertex 138.8663440340864 277.5501201883859 21.693185866035325
    vertex 136.52364315491528 267.61411045494776 21.699860507149864
    vertex 136.68348383092362 267.9999999827834 21.699860507149864
  endloop
endfacet
facet normal 0.00011073722439293736 0.00011965960728818618 0.9999999867094227
  outer loop
    vertex 138.8663440340864 277.5501201883859 21.693185866035325
    vertex 136.68348383092362 267.9999999827834 21.699860507149864
    vertex 136.93775362708104 268.3313708326813 21.699860507149864
  endloop
endfacet
facet normal 0.00011073722439293736 0.00011965960728818618 0.9999999867094227
  outer loop
    vertex 138.8663440340864 277.5501201883859 21.693185866035325
    vertex 136.93775362708104 268.3313708326813 21.699860507149864
    vertex 137.26912447698015 268.58564062883704 21.699860507149864
  endloop
endfacet
facet normal 0.00011073722439293736 0.00011965960728818618 0.9999999867094227
  outer loop
    vertex 138.8663440340864 277.5501201883859 21.693185866035325
    vertex 137.26912447698015 268.58564062883704 21.699860507149864
    vertex 137.6550140048165 268.7454813048435 21.699860507149864
  endloop
endfacet
facet normal 0.00011073722439293736 0.00011965960728818618 0.9999999867094227
  outer loop
    vertex 138.8663440340864 277.5501201883859 21.693185866035325
    vertex 137.6550140048165 268.7454813048435 21.699860507149864
    vertex 138.06912447698068 268.79999998278 21.699860507149864
  endloop
endfacet
facet normal 0.00011073722439293736 0.00011965960728818618 0.9999999867094227
  outer loop
    vertex 138.8663440340864 277.5501201883859 21.693185866035325
    vertex 138.06912447698068 268.79999998278 21.699860507149864
    vertex 138.48323494914456 268.7454813048415 21.699860507149864
  endloop
endfacet
facet normal 0.00011073722439293736 0.00011965960728818618 0.9999999867094227
  outer loop
    vertex 138.8663440340864 277.5501201883859 21.693185866035325
    vertex 138.48323494914456 268.7454813048415 21.699860507149864
    vertex 138.86912447698015 268.5856406288331 21.699860507149864
  endloop
endfacet
facet normal 0.00011073722439293736 0.00011965960728818618 0.9999999867094227
  outer loop
    vertex 138.8663440340864 277.5501201883859 21.693185866035325
    vertex 138.86912447698015 268.5856406288331 21.699860507149864
    vertex 138.8663599385008 285.40011891816914 21.693583829038044
  endloop
endfacet
facet normal 0.00011073722439293736 0.00011965960728818618 0.9999999867094227
  outer loop
    vertex 138.8663599385008 285.40011891816914 21.693583829038044
    vertex 138.86912447698015 268.5856406288331 21.699860507149864
    vertex 142.61912423143005 285.40010621026056 21.699201114619665
  endloop
endfacet
facet normal 0.00011073722439293736 0.00011965960728818618 0.9999999867094227
  outer loop
    vertex 142.61912423143005 285.40010621026056 21.699201114619665
    vertex 138.86912447698015 268.5856406288331 21.699860507149864
    vertex 139.200495326878 268.3313708326757 21.699860507149864
  endloop
endfacet
facet normal 0.00011073722439293736 0.00011965960728818618 0.9999999867094227
  outer loop
    vertex 142.61912423143005 285.40010621026056 21.699201114619665
    vertex 139.200495326878 268.3313708326757 21.699860507149864
    vertex 139.4547651230338 267.9999999827766 21.699860507149864
  endloop
endfacet
facet normal 0.00011073722439293736 0.00011965960728818618 0.9999999867094227
  outer loop
    vertex 142.61912423143005 285.40010621026056 21.699201114619665
    vertex 139.4547651230338 267.9999999827766 21.699860507149864
    vertex 139.61460579904028 267.61411045494026 21.699860507149864
  endloop
endfacet
facet normal 0.00011073722439293736 0.00011965960728818618 0.9999999867094227
  outer loop
    vertex 142.61912423143005 285.40010621026056 21.699201114619665
    vertex 139.61460579904028 267.61411045494026 21.699860507149864
    vertex 139.66912447697675 267.1999999827761 21.699860507149864
  endloop
endfacet
facet normal -0.9999999421050059 1.632785370621919e-06 -0.0003402753577509186
  outer loop
    vertex 138.8663599385008 285.40011891816914 21.693583829038044
    vertex 138.8668544044664 277.55014389341005 20.19331142576781
    vertex 138.8663440340864 277.5501201883859 21.693185866035325
  endloop
endfacet
facet normal -0.9999999421050059 1.632785370621919e-06 -0.0003402753577509186
  outer loop
    vertex 138.8668544044664 277.55014389341005 20.19331142576781
    vertex 138.8663599385008 285.40011891816914 21.693583829038044
    vertex 138.8668703088808 285.4001426231933 20.19370938877053
  endloop
endfacet
facet normal -0.00011098923887059947 -0.00013145319791469054 -0.9999999852007229
  outer loop
    vertex 138.8668544044664 277.55014389341005 20.19331142576781
    vertex 118.01912448770112 271.7999999999531 20.19998726953063
    vertex 118.01910787900353 277.5499999965211 20.199790566617217
  endloop
endfacet
facet normal -0.00011098923887059947 -0.00013145319791469054 -0.9999999852007229
  outer loop
    vertex 118.01912448770112 271.7999999999531 20.19998726953063
    vertex 138.8668544044664 277.55014389341005 20.19331142576781
    vertex 119.51912448770112 271.7999999999531 20.19998726953063
  endloop
endfacet
facet normal -0.00011098923887059947 -0.00013145319791469054 -0.9999999852007229
  outer loop
    vertex 119.51912448770112 271.7999999999531 20.19998726953063
    vertex 138.8668544044664 277.55014389341005 20.19331142576781
    vertex 125.26912447698015 268.5856406288674 20.199860507149864
  endloop
endfacet
facet normal -0.00011098923887059947 -0.00013145319791469054 -0.9999999852007229
  outer loop
    vertex 119.51912448770112 271.7999999999531 20.19998726953063
    vertex 125.26912447698015 268.5856406288674 20.199860507149864
    vertex 124.93775362708105 268.3313708327116 20.199860507149864
  endloop
endfacet
facet normal -0.00011098923887059947 -0.00013145319791469054 -0.9999999852007229
  outer loop
    vertex 119.51912448770112 271.7999999999531 20.19998726953063
    vertex 124.93775362708105 268.3313708327116 20.199860507149864
    vertex 124.68348383092359 267.9999999828138 20.199860507149864
  endloop
endfacet
facet normal -0.00011098923887059947 -0.00013145319791469054 -0.9999999852007229
  outer loop
    vertex 119.51912448770112 271.7999999999531 20.19998726953063
    vertex 124.68348383092359 267.9999999828138 20.199860507149864
    vertex 124.52364315491523 267.6141104549782 20.199860507149864
  endloop
endfacet
facet normal -0.00011098923887059947 -0.00013145319791469054 -0.9999999852007229
  outer loop
    vertex 119.51912448770112 271.7999999999531 20.19998726953063
    vertex 124.52364315491523 267.6141104549782 20.199860507149864
    vertex 124.4691244769767 267.1999999828143 20.199860507149864
  endloop
endfacet
facet normal -0.00011098923887059947 -0.00013145319791469054 -0.9999999852007229
  outer loop
    vertex 125.26912447698015 268.5856406288674 20.199860507149864
    vertex 138.8668544044664 277.55014389341005 20.19331142576781
    vertex 125.65501400481652 268.7454813048738 20.199860507149864
  endloop
endfacet
facet normal -0.00011098923887059947 -0.00013145319791469054 -0.9999999852007229
  outer loop
    vertex 125.65501400481652 268.7454813048738 20.199860507149864
    vertex 138.8668544044664 277.55014389341005 20.19331142576781
    vertex 126.06912447698069 268.7999999828103 20.199860507149864
  endloop
endfacet
facet normal -0.00011098923887059947 -0.00013145319791469054 -0.9999999852007229
  outer loop
    vertex 126.06912447698069 268.7999999828103 20.199860507149864
    vertex 138.8668544044664 277.55014389341005 20.19331142576781
    vertex 126.48323494914459 268.7454813048718 20.199860507149864
  endloop
endfacet
facet normal -0.00011098923887059947 -0.00013145319791469054 -0.9999999852007229
  outer loop
    vertex 126.48323494914459 268.7454813048718 20.199860507149864
    vertex 138.8668544044664 277.55014389341005 20.19331142576781
    vertex 126.86912447698015 268.5856406288634 20.199860507149864
  endloop
endfacet
facet normal -0.00011098923887059947 -0.00013145319791469054 -0.9999999852007229
  outer loop
    vertex 126.86912447698015 268.5856406288634 20.199860507149864
    vertex 138.8668544044664 277.55014389341005 20.19331142576781
    vertex 127.20049532687798 268.33137083270594 20.199860507149864
  endloop
endfacet
facet normal -0.00011098923887059947 -0.00013145319791469054 -0.9999999852007229
  outer loop
    vertex 127.20049532687798 268.33137083270594 20.199860507149864
    vertex 138.8668544044664 277.55014389341005 20.19331142576781
    vertex 127.4547651230338 267.99999998280686 20.199860507149864
  endloop
endfacet
facet normal -0.00011098923887059947 -0.00013145319791469054 -0.9999999852007229
  outer loop
    vertex 127.4547651230338 267.99999998280686 20.199860507149864
    vertex 138.8668544044664 277.55014389341005 20.19331142576781
    vertex 127.61460579904023 267.6141104549705 20.199860507149864
  endloop
endfacet
facet normal -0.00011098923887059947 -0.00013145319791469054 -0.9999999852007229
  outer loop
    vertex 127.61460579904023 267.6141104549705 20.199860507149864
    vertex 138.8668544044664 277.55014389341005 20.19331142576781
    vertex 127.66912447697669 267.1999999828063 20.199860507149864
  endloop
endfacet
facet normal -0.00011098923887059947 -0.00013145319791469054 -0.9999999852007229
  outer loop
    vertex 127.66912447697669 267.1999999828063 20.199860507149864
    vertex 138.8668544044664 277.55014389341005 20.19331142576781
    vertex 136.52364315491528 267.61411045494776 20.199860507149864
  endloop
endfacet
facet normal -0.00011098923887059947 -0.00013145319791469054 -0.9999999852007229
  outer loop
    vertex 127.66912447697669 267.1999999828063 20.199860507149864
    vertex 136.52364315491528 267.61411045494776 20.199860507149864
    vertex 136.46912447697676 267.19999998278394 20.199860507149864
  endloop
endfacet
facet normal -0.00011098923887059947 -0.00013145319791469054 -0.9999999852007229
  outer loop
    vertex 136.52364315491528 267.61411045494776 20.199860507149864
    vertex 138.8668544044664 277.55014389341005 20.19331142576781
    vertex 136.68348383092362 267.9999999827834 20.199860507149864
  endloop
endfacet
facet normal -0.00011098923887059947 -0.00013145319791469054 -0.9999999852007229
  outer loop
    vertex 136.68348383092362 267.9999999827834 20.199860507149864
    vertex 138.8668544044664 277.55014389341005 20.19331142576781
    vertex 136.93775362708104 268.3313708326813 20.199860507149864
  endloop
endfacet
facet normal -0.00011098923887059947 -0.00013145319791469054 -0.9999999852007229
  outer loop
    vertex 136.93775362708104 268.3313708326813 20.199860507149864
    vertex 138.8668544044664 277.55014389341005 20.19331142576781
    vertex 137.26912447698015 268.58564062883704 20.199860507149864
  endloop
endfacet
facet normal -0.00011098923887059947 -0.00013145319791469054 -0.9999999852007229
  outer loop
    vertex 137.26912447698015 268.58564062883704 20.199860507149864
    vertex 138.8668544044664 277.55014389341005 20.19331142576781
    vertex 137.6550140048165 268.7454813048435 20.199860507149864
  endloop
endfacet
facet normal -0.00011098923887059947 -0.00013145319791469054 -0.9999999852007229
  outer loop
    vertex 137.6550140048165 268.7454813048435 20.199860507149864
    vertex 138.8668544044664 277.55014389341005 20.19331142576781
    vertex 138.06912447698068 268.79999998278 20.199860507149864
  endloop
endfacet
facet normal -0.00011098923887059947 -0.00013145319791469054 -0.9999999852007229
  outer loop
    vertex 138.06912447698068 268.79999998278 20.199860507149864
    vertex 138.8668544044664 277.55014389341005 20.19331142576781
    vertex 138.48323494914456 268.7454813048415 20.199860507149864
  endloop
endfacet
facet normal -0.00011098923887059947 -0.00013145319791469054 -0.9999999852007229
  outer loop
    vertex 138.48323494914456 268.7454813048415 20.199860507149864
    vertex 138.8668544044664 277.55014389341005 20.19331142576781
    vertex 138.86912447698015 268.5856406288331 20.199860507149864
  endloop
endfacet
facet normal -0.00011098923887059947 -0.00013145319791469054 -0.9999999852007229
  outer loop
    vertex 138.86912447698015 268.5856406288331 20.199860507149864
    vertex 138.8668544044664 277.55014389341005 20.19331142576781
    vertex 138.8668703088808 285.4001426231933 20.19370938877053
  endloop
endfacet
facet normal -0.00011098923887059947 -0.00013145319791469054 -0.9999999852007229
  outer loop
    vertex 138.86912447698015 268.5856406288331 20.199860507149864
    vertex 138.8668703088808 285.4001426231933 20.19370938877053
    vertex 143.11912443669317 285.40010449261763 20.19982821682793
  endloop
endfacet
facet normal -0.00011098923887059947 -0.00013145319791469054 -0.9999999852007229
  outer loop
    vertex 138.86912447698015 268.5856406288331 20.199860507149864
    vertex 143.11912443669317 285.40010449261763 20.19982821682793
    vertex 139.200495326878 268.3313708326757 20.199860507149864
  endloop
endfacet
facet normal -0.00011098923887059947 -0.00013145319791469054 -0.9999999852007229
  outer loop
    vertex 139.200495326878 268.3313708326757 20.199860507149864
    vertex 143.11912443669317 285.40010449261763 20.19982821682793
    vertex 139.4547651230338 267.9999999827766 20.199860507149864
  endloop
endfacet
facet normal -0.00011098923887059947 -0.00013145319791469054 -0.9999999852007229
  outer loop
    vertex 139.4547651230338 267.9999999827766 20.199860507149864
    vertex 143.11912443669317 285.40010449261763 20.19982821682793
    vertex 139.61460579904028 267.61411045494026 20.199860507149864
  endloop
endfacet
facet normal -0.00011098923887059947 -0.00013145319791469054 -0.9999999852007229
  outer loop
    vertex 139.61460579904028 267.61411045494026 20.199860507149864
    vertex 143.11912443669317 285.40010449261763 20.19982821682793
    vertex 139.66912447697675 267.1999999827761 20.199860507149864
  endloop
endfacet
facet normal -0.00011098923887059947 -0.00013145319791469054 -0.9999999852007229
  outer loop
    vertex 139.66912447697675 267.1999999827761 20.199860507149864
    vertex 143.11912443669317 285.40010449261763 20.19982821682793
    vertex 143.1191244366024 263.6999999859723 20.199825397503858
  endloop
endfacet
facet normal -0.00011098923887059947 -0.00013145319791469054 -0.9999999852007229
  outer loop
    vertex 119.51912448761036 263.699999999914 20.199984450206554
    vertex 126.0691244769727 265.5999999828103 20.199860507149864
    vertex 143.1191244366024 263.6999999859723 20.199825397503858
  endloop
endfacet
facet normal -0.00011098923887059947 -0.00013145319791469054 -0.9999999852007229
  outer loop
    vertex 126.0691244769727 265.5999999828103 20.199860507149864
    vertex 119.51912448761036 263.699999999914 20.199984450206554
    vertex 125.6550140048088 265.6545186607488 20.199860507149864
  endloop
endfacet
facet normal -0.00011098923887059947 -0.00013145319791469054 -0.9999999852007229
  outer loop
    vertex 125.6550140048088 265.6545186607488 20.199860507149864
    vertex 119.51912448761036 263.699999999914 20.199984450206554
    vertex 125.26912447697325 265.8143593367572 20.199860507149864
  endloop
endfacet
facet normal -0.00011098923887059947 -0.00013145319791469054 -0.9999999852007229
  outer loop
    vertex 125.26912447697325 265.8143593367572 20.199860507149864
    vertex 119.51912448761036 263.699999999914 20.199984450206554
    vertex 124.93775362707541 266.0686291329146 20.199860507149864
  endloop
endfacet
facet normal -0.00011098923887059947 -0.00013145319791469054 -0.9999999852007229
  outer loop
    vertex 124.93775362707541 266.0686291329146 20.199860507149864
    vertex 119.51912448761036 263.699999999914 20.199984450206554
    vertex 119.51912448770112 271.7999999999531 20.19998726953063
  endloop
endfacet
facet normal -0.00011098923887059947 -0.00013145319791469054 -0.9999999852007229
  outer loop
    vertex 124.93775362707541 266.0686291329146 20.199860507149864
    vertex 119.51912448770112 271.7999999999531 20.19998726953063
    vertex 124.6834838309196 266.39999998281377 20.199860507149864
  endloop
endfacet
facet normal -0.00011098923887059947 -0.00013145319791469054 -0.9999999852007229
  outer loop
    vertex 124.6834838309196 266.39999998281377 20.199860507149864
    vertex 119.51912448770112 271.7999999999531 20.19998726953063
    vertex 124.52364315491316 266.7858895106501 20.199860507149864
  endloop
endfacet
facet normal -0.00011098923887059947 -0.00013145319791469054 -0.9999999852007229
  outer loop
    vertex 124.52364315491316 266.7858895106501 20.199860507149864
    vertex 119.51912448770112 271.7999999999531 20.19998726953063
    vertex 124.4691244769767 267.1999999828143 20.199860507149864
  endloop
endfacet
facet normal -0.00011098923887059947 -0.00013145319791469054 -0.9999999852007229
  outer loop
    vertex 143.1191244366024 263.6999999859723 20.199825397503858
    vertex 126.0691244769727 265.5999999828103 20.199860507149864
    vertex 126.48323494913687 265.65451866074676 20.199860507149864
  endloop
endfacet
facet normal -0.00011098923887059947 -0.00013145319791469054 -0.9999999852007229
  outer loop
    vertex 143.1191244366024 263.6999999859723 20.199825397503858
    vertex 126.48323494913687 265.65451866074676 20.199860507149864
    vertex 126.86912447697324 265.81435933675317 20.199860507149864
  endloop
endfacet
facet normal -0.00011098923887059947 -0.00013145319791469054 -0.9999999852007229
  outer loop
    vertex 143.1191244366024 263.6999999859723 20.199825397503858
    vertex 126.86912447697324 265.81435933675317 20.199860507149864
    vertex 127.20049532687234 266.068629132909 20.199860507149864
  endloop
endfacet
facet normal -0.00011098923887059947 -0.00013145319791469054 -0.9999999852007229
  outer loop
    vertex 143.1191244366024 263.6999999859723 20.199825397503858
    vertex 127.20049532687234 266.068629132909 20.199860507149864
    vertex 127.4547651230298 266.39999998280683 20.199860507149864
  endloop
endfacet
facet normal -0.00011098923887059947 -0.00013145319791469054 -0.9999999852007229
  outer loop
    vertex 143.1191244366024 263.6999999859723 20.199825397503858
    vertex 127.4547651230298 266.39999998280683 20.199860507149864
    vertex 127.61460579903816 266.7858895106424 20.199860507149864
  endloop
endfacet
facet normal -0.00011098923887059947 -0.00013145319791469054 -0.9999999852007229
  outer loop
    vertex 143.1191244366024 263.6999999859723 20.199825397503858
    vertex 127.61460579903816 266.7858895106424 20.199860507149864
    vertex 127.66912447697669 267.1999999828063 20.199860507149864
  endloop
endfacet
facet normal -0.00011098923887059947 -0.00013145319791469054 -0.9999999852007229
  outer loop
    vertex 143.1191244366024 263.6999999859723 20.199825397503858
    vertex 127.66912447697669 267.1999999828063 20.199860507149864
    vertex 137.65501400480898 265.6545186607185 20.199860507149864
  endloop
endfacet
facet normal -0.00011098923887059947 -0.00013145319791469054 -0.9999999852007229
  outer loop
    vertex 137.65501400480898 265.6545186607185 20.199860507149864
    vertex 127.66912447697669 267.1999999828063 20.199860507149864
    vertex 137.2691244769734 265.81435933672685 20.199860507149864
  endloop
endfacet
facet normal -0.00011098923887059947 -0.00013145319791469054 -0.9999999852007229
  outer loop
    vertex 137.2691244769734 265.81435933672685 20.199860507149864
    vertex 127.66912447697669 267.1999999828063 20.199860507149864
    vertex 136.93775362707555 266.06862913288427 20.199860507149864
  endloop
endfacet
facet normal -0.00011098923887059947 -0.00013145319791469054 -0.9999999852007229
  outer loop
    vertex 136.93775362707555 266.06862913288427 20.199860507149864
    vertex 127.66912447697669 267.1999999828063 20.199860507149864
    vertex 136.68348383091973 266.39999998278336 20.199860507149864
  endloop
endfacet
facet normal -0.00011098923887059947 -0.00013145319791469054 -0.9999999852007229
  outer loop
    vertex 136.68348383091973 266.39999998278336 20.199860507149864
    vertex 127.66912447697669 267.1999999828063 20.199860507149864
    vertex 136.52364315491326 266.7858895106197 20.199860507149864
  endloop
endfacet
facet normal -0.00011098923887059947 -0.00013145319791469054 -0.9999999852007229
  outer loop
    vertex 136.52364315491326 266.7858895106197 20.199860507149864
    vertex 127.66912447697669 267.1999999828063 20.199860507149864
    vertex 136.46912447697676 267.19999998278394 20.199860507149864
  endloop
endfacet
facet normal -0.00011098923887059947 -0.00013145319791469054 -0.9999999852007229
  outer loop
    vertex 143.1191244366024 263.6999999859723 20.199825397503858
    vertex 137.65501400480898 265.6545186607185 20.199860507149864
    vertex 138.06912447697286 265.59999998278 20.199860507149864
  endloop
endfacet
facet normal -0.00011098923887059947 -0.00013145319791469054 -0.9999999852007229
  outer loop
    vertex 143.1191244366024 263.6999999859723 20.199825397503858
    vertex 138.06912447697286 265.59999998278 20.199860507149864
    vertex 138.48323494913703 265.65451866071646 20.199860507149864
  endloop
endfacet
facet normal -0.00011098923887059947 -0.00013145319791469054 -0.9999999852007229
  outer loop
    vertex 143.1191244366024 263.6999999859723 20.199825397503858
    vertex 138.48323494913703 265.65451866071646 20.199860507149864
    vertex 138.86912447697338 265.81435933672293 20.199860507149864
  endloop
endfacet
facet normal -0.00011098923887059947 -0.00013145319791469054 -0.9999999852007229
  outer loop
    vertex 143.1191244366024 263.6999999859723 20.199825397503858
    vertex 138.86912447697338 265.81435933672293 20.199860507149864
    vertex 139.20049532687247 266.06862913287875 20.199860507149864
  endloop
endfacet
facet normal -0.00011098923887059947 -0.00013145319791469054 -0.9999999852007229
  outer loop
    vertex 143.1191244366024 263.6999999859723 20.199825397503858
    vertex 139.20049532687247 266.06862913287875 20.199860507149864
    vertex 139.45476512302992 266.3999999827766 20.199860507149864
  endloop
endfacet
facet normal -0.00011098923887059947 -0.00013145319791469054 -0.9999999852007229
  outer loop
    vertex 143.1191244366024 263.6999999859723 20.199825397503858
    vertex 139.45476512302992 266.3999999827766 20.199860507149864
    vertex 139.61460579903826 266.7858895106122 20.199860507149864
  endloop
endfacet
facet normal -0.00011098923887059947 -0.00013145319791469054 -0.9999999852007229
  outer loop
    vertex 143.1191244366024 263.6999999859723 20.199825397503858
    vertex 139.61460579903826 266.7858895106122 20.199860507149864
    vertex 139.66912447697675 267.1999999827761 20.199860507149864
  endloop
endfacet
endsolid Mousebox_v2
