solid Lickometer_15ga
facet normal 7.78754250615298e-05 1.2509803135449325e-06 -0.9999999969669267
  outer loop
    vertex 29.43979726516181 24.699998945788735 5.685000051808011
    vertex 31.61979723305146 -0.7999541540496142 5.685000021250691
    vertex 29.41979726516181 -0.8000010542112534 5.68500004482245
  endloop
endfacet
facet normal 7.78754250615298e-05 1.2509803135449325e-06 -0.9999999969669267
  outer loop
    vertex 31.61979723305146 -0.7999541540496142 5.685000021250691
    vertex 29.43979726516181 24.699998945788735 5.685000051808011
    vertex 31.61988395025968 10.699934159445467 5.686877191235947
  endloop
endfacet
facet normal 7.78754250615298e-05 1.2509803135449325e-06 -0.9999999969669267
  outer loop
    vertex 31.61988395025968 10.699934159445467 5.686877191235947
    vertex 29.43979726516181 24.699998945788735 5.685000051808011
    vertex 31.688032078854786 11.217575438703564 5.686482733208921
  endloop
endfacet
facet normal 7.78754250615298e-05 1.2509803135449325e-06 -0.9999999969669267
  outer loop
    vertex 31.688032078854786 11.217575438703564 5.686482733208921
    vertex 29.43979726516181 24.699998945788735 5.685000051808011
    vertex 31.887832358585815 11.699940701597871 5.685835900603905
  endloop
endfacet
facet normal 7.78754250615298e-05 1.2509803135449325e-06 -0.9999999969669267
  outer loop
    vertex 31.887832358585815 11.699940701597871 5.685835900603905
    vertex 29.43979726516181 24.699998945788735 5.685000051808011
    vertex 32.20566893042878 12.114158035103605 5.684980773346982
  endloop
endfacet
facet normal 7.78754250615298e-05 1.2509803135449325e-06 -0.9999999969669267
  outer loop
    vertex 32.20566893042878 12.114158035103605 5.684980773346982
    vertex 29.43979726516181 24.699998945788735 5.685000051808011
    vertex 46.63979726527243 24.699998514706692 5.6849999924666
  endloop
endfacet
facet normal 7.78754250615298e-05 1.2509803135449325e-06 -0.9999999969669267
  outer loop
    vertex 32.20566893042878 12.114158035103605 5.684980773346982
    vertex 46.63979726527243 24.699998514706692 5.6849999924666
    vertex 32.61988207518451 12.431999626797753 5.683975626092193
  endloop
endfacet
facet normal 7.78754250615298e-05 1.2509803135449325e-06 -0.9999999969669267
  outer loop
    vertex 32.61988207518451 12.431999626797753 5.683975626092193
    vertex 46.63979726527243 24.699998514706692 5.6849999924666
    vertex 33.10224426588222 12.631805415391625 5.682888956958446
  endloop
endfacet
facet normal 7.78754250615298e-05 1.2509803135449325e-06 -0.9999999969669267
  outer loop
    vertex 33.10224426588222 12.631805415391625 5.682888956958446
    vertex 46.63979726527243 24.699998514706692 5.6849999924666
    vertex 33.61988379885915 12.699959166446828 5.681794819564439
  endloop
endfacet
facet normal 7.78754250615298e-05 1.2509803135449325e-06 -0.9999999969669267
  outer loop
    vertex 33.61988379885915 12.699959166446828 5.681794819564439
    vertex 46.63979726527243 24.699998514706692 5.6849999924666
    vertex 42.45987957372108 12.699938784104026 5.6859614599497945
  endloop
endfacet
facet normal 7.78754250615298e-05 1.2509803135449325e-06 -0.9999999969669267
  outer loop
    vertex 42.45987957372108 12.699938784104026 5.6859614599497945
    vertex 46.63979726527243 24.699998514706692 5.6849999924666
    vertex 42.97751788772059 12.63178928116416 5.686182994574501
  endloop
endfacet
facet normal 7.78754250615298e-05 1.2509803135449325e-06 -0.9999999969669267
  outer loop
    vertex 42.97751788772059 12.63178928116416 5.686182994574501
    vertex 46.63979726527243 24.699998514706692 5.6849999924666
    vertex 43.45987979524885 12.431987445490035 5.686394124255726
  endloop
endfacet
facet normal 7.78754250615298e-05 1.2509803135449325e-06 -0.9999999969669267
  outer loop
    vertex 43.45987979524885 12.431987445490035 5.686394124255726
    vertex 46.63979726527243 24.699998514706692 5.6849999924666
    vertex 43.87409323069368 12.114149400057387 5.6865804608989166
  endloop
endfacet
facet normal 7.78754250615298e-05 1.2509803135449325e-06 -0.9999999969669267
  outer loop
    vertex 43.87409323069368 12.114149400057387 5.6865804608989166
    vertex 46.63979726527243 24.699998514706692 5.6849999924666
    vertex 44.1919303198907 11.699935215697781 5.686729306008887
  endloop
endfacet
facet normal 7.78754250615298e-05 1.2509803135449325e-06 -0.9999999969669267
  outer loop
    vertex 44.1919303198907 11.699935215697781 5.686729306008887
    vertex 46.63979726527243 24.699998514706692 5.6849999924666
    vertex 44.39173105717403 11.21757281761273 5.686830516068613
  endloop
endfacet
facet normal 7.78754250615298e-05 1.2509803135449325e-06 -0.9999999969669267
  outer loop
    vertex 44.39173105717403 11.21757281761273 5.686830516068613
    vertex 46.63979726527243 24.699998514706692 5.6849999924666
    vertex 44.45987939442121 10.69993430484496 5.686877193801025
  endloop
endfacet
facet normal 7.78754250615298e-05 1.2509803135449325e-06 -0.9999999969669267
  outer loop
    vertex 44.45987939442121 10.69993430484496 5.686877193801025
    vertex 46.659797265272424 -0.8000014852933003 5.68499999232149
    vertex 44.45979743174455 -0.7999653455086314 5.684999996247479
  endloop
endfacet
facet normal 7.78754250615298e-05 1.2509803135449325e-06 -0.9999999969669267
  outer loop
    vertex 46.659797265272424 -0.8000014852933003 5.68499999232149
    vertex 44.45987939442121 10.69993430484496 5.686877193801025
    vertex 46.63979726527243 24.699998514706692 5.6849999924666
  endloop
endfacet
facet normal 2.4979647787302353e-09 -5.714101743297448e-10 1.0
  outer loop
    vertex 46.659797265272424 -0.8000014852933014 -1.0000000076785092
    vertex 42.439797265198884 4.989999999999996 -1.0000000000000009
    vertex 42.439797265198884 -0.8000000000000014 -0.9999999999999992
  endloop
endfacet
facet normal 2.4979647787302353e-09 -5.714101743297448e-10 1.0
  outer loop
    vertex 42.439797265198884 4.989999999999996 -1.0000000000000009
    vertex 46.659797265272424 -0.8000014852933014 -1.0000000076785092
    vertex 46.63979726527243 24.699998514706692 -1.0000000075333981
  endloop
endfacet
facet normal 2.4979647787302353e-09 -5.714101743297448e-10 1.0
  outer loop
    vertex 33.639797265198894 -0.8000000000000014 -0.9999999999999992
    vertex 29.4397972651618 24.699998945788735 -0.9999999481919883
    vertex 29.41979726516181 -0.8000010542112544 -0.9999999551775485
  endloop
endfacet
facet normal 2.4979647787302353e-09 -5.714101743297448e-10 1.0
  outer loop
    vertex 29.4397972651618 24.699998945788735 -0.9999999481919883
    vertex 33.639797265198894 -0.8000000000000014 -0.9999999999999992
    vertex 33.639797265198894 4.989999999999999 -0.9999999999999981
  endloop
endfacet
facet normal 2.4979647787302353e-09 -5.714101743297448e-10 1.0
  outer loop
    vertex 29.4397972651618 24.699998945788735 -0.9999999481919883
    vertex 33.639797265198894 4.989999999999999 -0.9999999999999981
    vertex 46.63979726527243 24.699998514706692 -1.0000000075333981
  endloop
endfacet
facet normal 2.4979647787302353e-09 -5.714101743297448e-10 1.0
  outer loop
    vertex 46.63979726527243 24.699998514706692 -1.0000000075333981
    vertex 33.639797265198894 4.989999999999999 -0.9999999999999981
    vertex 35.64166203382426 6.411904215273964 -0.9999999999999989
  endloop
endfacet
facet normal 2.4979647787302353e-09 -5.714101743297448e-10 1.0
  outer loop
    vertex 46.63979726527243 24.699998514706692 -1.0000000075333981
    vertex 35.64166203382426 6.411904215273964 -0.9999999999999989
    vertex 40.438337966175744 6.411904215273962 -0.9999999999999989
  endloop
endfacet
facet normal 2.4979647787302353e-09 -5.714101743297448e-10 1.0
  outer loop
    vertex 46.63979726527243 24.699998514706692 -1.0000000075333981
    vertex 40.438337966175744 6.411904215273962 -0.9999999999999989
    vertex 42.439797265198884 4.989999999999996 -1.0000000000000009
  endloop
endfacet
facet normal -1.0209171843754357e-05 0.0007331617826125453 -0.9999997311847507
  outer loop
    vertex 46.648531581265 24.7003181731812 -1.782133623216957
    vertex 33.63979726346794 4.99000000053051 -1.799999999999998
    vertex 29.431047536947638 24.700318286602844 -1.7816763322806841
  endloop
endfacet
facet normal -1.0209171843754357e-05 0.0007331617826125453 -0.9999997311847507
  outer loop
    vertex 33.63979726346794 4.99000000053051 -1.799999999999998
    vertex 46.648531581265 24.7003181731812 -1.782133623216957
    vertex 35.64166203209332 6.411904215804474 -1.7999999999999987
  endloop
endfacet
facet normal -1.0209171843754357e-05 0.0007331617826125453 -0.9999997311847507
  outer loop
    vertex 35.64166203209332 6.411904215804474 -1.7999999999999987
    vertex 46.648531581265 24.7003181731812 -1.782133623216957
    vertex 40.438337964444806 6.411904215804473 -1.7999999999999987
  endloop
endfacet
facet normal -1.0209171843754357e-05 0.0007331617826125453 -0.9999997311847507
  outer loop
    vertex 40.438337964444806 6.411904215804473 -1.7999999999999987
    vertex 46.648531581265 24.7003181731812 -1.782133623216957
    vertex 42.439797263467945 4.9900000005305065 -1.800000000000001
  endloop
endfacet
facet normal -1.0209171843754357e-05 0.0007331617826125453 -0.9999997311847507
  outer loop
    vertex 42.439797263467945 4.9900000005305065 -1.800000000000001
    vertex 46.648531581265 24.7003181731812 -1.782133623216957
    vertex 42.439797263467945 -0.7999999994694904 -1.7999999999999996
  endloop
endfacet
facet normal -1.0209171843754357e-05 0.0007331617826125453 -0.9999997311847507
  outer loop
    vertex 42.439797263467945 -0.7999999994694904 -1.7999999999999996
    vertex 46.648531581265 24.7003181731812 -1.782133623216957
    vertex 46.65979723246773 -0.7997374586977171 -1.8000000076797122
  endloop
endfacet
facet normal -1.0209171843754357e-05 0.0007331617826125453 -0.9999997311847507
  outer loop
    vertex 29.431047536947638 24.700318286602844 -1.7816763322806841
    vertex 33.63979726346794 -0.7999999994694904 -1.7999999999999996
    vertex 29.419797297966504 -0.7997370276158853 -1.7999999623247214
  endloop
endfacet
facet normal -1.0209171843754357e-05 0.0007331617826125453 -0.9999997311847507
  outer loop
    vertex 33.63979726346794 -0.7999999994694904 -1.7999999999999996
    vertex 29.431047536947638 24.700318286602844 -1.7816763322806841
    vertex 33.63979726346794 4.99000000053051 -1.799999999999998
  endloop
endfacet
facet normal 1.0 3.951755370713255e-25 -2.1636818487531905e-09
  outer loop
    vertex 33.63979726346794 -0.7999999994694904 -1.7999999999999996
    vertex 33.639797265198894 4.989999999999999 -0.9999999999999981
    vertex 33.639797265198894 -0.8000000000000014 -0.9999999999999992
  endloop
endfacet
facet normal 1.0 3.951755370713255e-25 -2.1636818487531905e-09
  outer loop
    vertex 33.639797265198894 4.989999999999999 -0.9999999999999981
    vertex 33.63979726346794 -0.7999999994694904 -1.7999999999999996
    vertex 33.63979726346794 4.99000000053051 -1.799999999999998
  endloop
endfacet
facet normal 0.5790790135545669 -0.8152714247786867 -1.793580839488136e-09
  outer loop
    vertex 35.64166203382426 6.411904215273964 -0.9999999999999989
    vertex 33.63979726346794 4.99000000053051 -1.799999999999998
    vertex 35.64166203209332 6.411904215804474 -1.7999999999999987
  endloop
endfacet
facet normal 0.5790790135545669 -0.8152714247786867 -1.793580839488136e-09
  outer loop
    vertex 33.63979726346794 4.99000000053051 -1.799999999999998
    vertex 35.64166203382426 6.411904215273964 -0.9999999999999989
    vertex 33.639797265198894 4.989999999999999 -0.9999999999999981
  endloop
endfacet
facet normal -2.9395007316717567e-16 -1.0 -6.631387688008046e-10
  outer loop
    vertex 40.438337966175744 6.411904215273962 -0.9999999999999989
    vertex 35.64166203209332 6.411904215804474 -1.7999999999999987
    vertex 40.438337964444806 6.411904215804473 -1.7999999999999987
  endloop
endfacet
facet normal -2.9395007316717567e-16 -1.0 -6.631387688008046e-10
  outer loop
    vertex 35.64166203209332 6.411904215804474 -1.7999999999999987
    vertex 40.438337966175744 6.411904215273962 -0.9999999999999989
    vertex 35.64166203382426 6.411904215273964 -0.9999999999999989
  endloop
endfacet
facet normal -0.5791569803258783 -0.8152160401634713 7.125100847291392e-10
  outer loop
    vertex 42.439797265198884 4.989999999999996 -1.0000000000000009
    vertex 40.438337964444806 6.411904215804473 -1.7999999999999987
    vertex 42.439797263467945 4.9900000005305065 -1.800000000000001
  endloop
endfacet
facet normal -0.5791569803258783 -0.8152160401634713 7.125100847291392e-10
  outer loop
    vertex 40.438337964444806 6.411904215804473 -1.7999999999999987
    vertex 42.439797265198884 4.989999999999996 -1.0000000000000009
    vertex 40.438337966175744 6.411904215273962 -0.9999999999999989
  endloop
endfacet
facet normal -1.0 9.740816872036687e-16 2.163681848753191e-09
  outer loop
    vertex 42.439797265198884 4.989999999999996 -1.0000000000000009
    vertex 42.439797263467945 -0.7999999994694904 -1.7999999999999996
    vertex 42.439797265198884 -0.8000000000000014 -0.9999999999999992
  endloop
endfacet
facet normal -1.0 9.740816872036687e-16 2.163681848753191e-09
  outer loop
    vertex 42.439797263467945 -0.7999999994694904 -1.7999999999999996
    vertex 42.439797265198884 4.989999999999996 -1.0000000000000009
    vertex 42.439797263467945 4.9900000005305065 -1.800000000000001
  endloop
endfacet
facet normal 0.9999997753915635 0.0002824550738186888 -0.0006078124334466851
  outer loop
    vertex 47.44853165561294 24.700111091866418 -0.9821336463995437
    vertex 47.459797431756996 -0.7999299800474384 5.684999990251457
    vertex 47.45979730681567 -0.799944540012498 -1.0000000308622992
  endloop
endfacet
facet normal 0.9999997753915635 0.0002824550738186888 -0.0006078124334466851
  outer loop
    vertex 47.459797431756996 -0.7999299800474384 5.684999990251457
    vertex 47.44853165561294 24.700111091866418 -0.9821336463995437
    vertex 47.456658106742836 24.7000663052576 5.6675300333278935
  endloop
endfacet
facet normal -0.9999999033232492 0.00043968244472617667 -5.730638712176066e-06
  outer loop
    vertex 28.61979723311781 -0.7999294277019201 5.68500005386722
    vertex 28.631047454535633 24.700096376817136 -0.9816763186988943
    vertex 28.6197972155545 -0.7999589374016001 -0.9999999487429316
  endloop
endfacet
facet normal -0.9999999033232492 0.00043968244472617667 -5.730638712176066e-06
  outer loop
    vertex 28.631047454535633 24.700096376817136 -0.9816763186988943
    vertex 28.61979723311781 -0.7999294277019201 5.68500005386722
    vertex 28.63097084352359 24.700126705923285 5.667804592129266
  endloop
endfacet
facet normal -2.719911387517721e-06 0.9999999999716527 -7.021179640106022e-06
  outer loop
    vertex 29.431047536947638 24.700318286602844 -1.7816763322806841
    vertex 46.855586827740275 24.700323915215552 -1.754874288270136
    vertex 46.648531581265 24.7003181731812 -1.782133623216957
  endloop
endfacet
facet normal -2.719911387517721e-06 0.9999999999716527 -7.021179640106022e-06
  outer loop
    vertex 46.855586827740275 24.700323915215552 -1.754874288270136
    vertex 29.431047536947638 24.700318286602844 -1.7816763322806841
    vertex 29.223992282829187 24.700320190749242 -1.754416996868261
  endloop
endfacet
facet normal -2.719911387517721e-06 0.9999999999716527 -7.021179640106022e-06
  outer loop
    vertex 46.855586827740275 24.700323915215552 -1.754874288270136
    vertex 29.223992282829187 24.700320190749242 -1.754416996868261
    vertex 47.04853160378363 24.700311272963866 -1.6749539547785979
  endloop
endfacet
facet normal -2.719911387517721e-06 0.9999999999716527 -7.021179640106022e-06
  outer loop
    vertex 47.04853160378363 24.700311272963866 -1.6749539547785979
    vertex 29.223992282829187 24.700320190749242 -1.754416996868261
    vertex 29.031047500434138 24.700303972154344 -1.6744966595798407
  endloop
endfacet
facet normal -2.719911387517721e-06 0.9999999999716527 -7.021179640106022e-06
  outer loop
    vertex 47.04853160378363 24.700311272963866 -1.6749539547785979
    vertex 29.031047500434138 24.700303972154344 -1.6744966595798407
    vertex 47.214217041954896 24.700281107974675 -1.547819061316137
  endloop
endfacet
facet normal -2.719911387517721e-06 0.9999999999716527 -7.021179640106022e-06
  outer loop
    vertex 47.214217041954896 24.700281107974675 -1.547819061316137
    vertex 29.031047500434138 24.700303972154344 -1.6744966595798407
    vertex 28.86536205835364 24.700270736088612 -1.5473617595454197
  endloop
endfacet
facet normal -2.719911387517721e-06 0.9999999999716527 -7.021179640106022e-06
  outer loop
    vertex 47.214217041954896 24.700281107974675 -1.547819061316137
    vertex 28.86536205835364 24.700270736088612 -1.5473617595454197
    vertex 47.34135195361477 24.700235475942115 -1.3821336406461093
  endloop
endfacet
facet normal -2.719911387517721e-06 0.9999999999716527 -7.021179640106022e-06
  outer loop
    vertex 47.34135195361477 24.700235475942115 -1.3821336406461093
    vertex 28.86536205835364 24.700270736088612 -1.5473617595454197
    vertex 28.738227146110102 24.7002227475351 -1.3816763304493995
  endloop
endfacet
facet normal -2.719911387517721e-06 0.9999999999716527 -7.021179640106022e-06
  outer loop
    vertex 47.34135195361477 24.700235475942115 -1.3821336406461093
    vertex 28.738227146110102 24.7002227475351 -1.3816763304493995
    vertex 47.421272304759725 24.700177486613747 -1.1891888802151749
  endloop
endfacet
facet normal -2.719911387517721e-06 0.9999999999716527 -7.021179640106022e-06
  outer loop
    vertex 47.421272304759725 24.700177486613747 -1.1891888802151749
    vertex 28.738227146110102 24.7002227475351 -1.3816763304493995
    vertex 28.65830679821993 24.70016327683457 -1.1887315609293136
  endloop
endfacet
facet normal -2.719911387517721e-06 0.9999999999716527 -7.021179640106022e-06
  outer loop
    vertex 47.421272304759725 24.700177486613747 -1.1891888802151749
    vertex 28.65830679821993 24.70016327683457 -1.1887315609293136
    vertex 47.4415230678744 24.700348411896645 -1.035372293064683
  endloop
endfacet
facet normal -2.719911387517721e-06 0.9999999999716527 -7.021179640106022e-06
  outer loop
    vertex 47.4415230678744 24.700348411896645 -1.035372293064683
    vertex 28.65830679821993 24.70016327683457 -1.1887315609293136
    vertex 28.63890124769674 24.70034564276056 -1.0413352072722564
  endloop
endfacet
facet normal -2.719911387517721e-06 0.9999999999716527 -7.021179640106022e-06
  outer loop
    vertex 47.4415230678744 24.700348411896645 -1.035372293064683
    vertex 28.63890124769674 24.70034564276056 -1.0413352072722564
    vertex 29.4397972651618 24.699998945788735 -0.9999999481919883
  endloop
endfacet
facet normal -2.719911387517721e-06 0.9999999999716527 -7.021179640106022e-06
  outer loop
    vertex 29.4397972651618 24.699998945788735 -0.9999999481919883
    vertex 28.63890124769674 24.70034564276056 -1.0413352072722564
    vertex 28.631047454535633 24.700096376817136 -0.9816763186988943
  endloop
endfacet
facet normal -2.719911387517721e-06 0.9999999999716527 -7.021179640106022e-06
  outer loop
    vertex 47.4415230678744 24.700348411896645 -1.035372293064683
    vertex 29.4397972651618 24.699998945788735 -0.9999999481919883
    vertex 46.63979726527243 24.699998514706692 -1.0000000075333981
  endloop
endfacet
facet normal -2.719911387517721e-06 0.9999999999716527 -7.021179640106022e-06
  outer loop
    vertex 29.4397972651618 24.699998945788735 -0.9999999481919883
    vertex 28.631047454535633 24.700096376817136 -0.9816763186988943
    vertex 29.43979726516181 24.699998945788735 5.685000051808011
  endloop
endfacet
facet normal -2.719911387517721e-06 0.9999999999716527 -7.021179640106022e-06
  outer loop
    vertex 29.43979726516181 24.699998945788735 5.685000051808011
    vertex 28.631047454535633 24.700096376817136 -0.9816763186988943
    vertex 28.63097084352359 24.700126705923285 5.667804592129266
  endloop
endfacet
facet normal -2.719911387517721e-06 0.9999999999716527 -7.021179640106022e-06
  outer loop
    vertex 29.43979726516181 24.699998945788735 5.685000051808011
    vertex 28.63097084352359 24.700126705923285 5.667804592129266
    vertex 28.658230191962787 24.700191699800776 5.874859826045433
  endloop
endfacet
facet normal -2.719911387517721e-06 0.9999999999716527 -7.021179640106022e-06
  outer loop
    vertex 29.43979726516181 24.699998945788735 5.685000051808011
    vertex 28.658230191962787 24.700191699800776 5.874859826045433
    vertex 47.42939875250208 24.70019873775472 5.874585262307364
  endloop
endfacet
facet normal -2.719911387517721e-06 0.9999999999716527 -7.021179640106022e-06
  outer loop
    vertex 47.42939875250208 24.70019873775472 5.874585262307364
    vertex 28.658230191962787 24.700191699800776 5.874859826045433
    vertex 47.34947839263032 24.700317272232656 6.06753002074168
  endloop
endfacet
facet normal -2.719911387517721e-06 0.9999999999716527 -7.021179640106022e-06
  outer loop
    vertex 47.34947839263032 24.700317272232656 6.06753002074168
    vertex 28.658230191962787 24.700191699800776 5.874859826045433
    vertex 28.738150540975283 24.700247383224678 6.067804587328777
  endloop
endfacet
facet normal -2.719911387517721e-06 0.9999999999716527 -7.021179640106022e-06
  outer loop
    vertex 47.34947839263032 24.700317272232656 6.06753002074168
    vertex 28.738150540975283 24.700247383224678 6.067804587328777
    vertex 47.22234346719459 24.7004138307632 6.233215443125888
  endloop
endfacet
facet normal -2.719911387517721e-06 0.9999999999716527 -7.021179640106022e-06
  outer loop
    vertex 47.22234346719459 24.7004138307632 6.233215443125888
    vertex 28.738150540975283 24.700247383224678 6.067804587328777
    vertex 28.865285450850514 24.70028996146167 6.233490009354138
  endloop
endfacet
facet normal -2.719911387517721e-06 0.9999999999716527 -7.021179640106022e-06
  outer loop
    vertex 47.22234346719459 24.7004138307632 6.233215443125888
    vertex 28.865285450850514 24.70028996146167 6.233490009354138
    vertex 47.056658010652754 24.700481833042524 6.360350342527843
  endloop
endfacet
facet normal -2.719911387517721e-06 0.9999999999716527 -7.021179640106022e-06
  outer loop
    vertex 47.056658010652754 24.700481833042524 6.360350342527843
    vertex 28.865285450850514 24.70028996146167 6.233490009354138
    vertex 29.03097088758086 24.700316532875277 6.360624904418593
  endloop
endfacet
facet normal -2.719911387517721e-06 0.9999999999716527 -7.021179640106022e-06
  outer loop
    vertex 47.056658010652754 24.700481833042524 6.360350342527843
    vertex 29.03097088758086 24.700316532875277 6.360624904418593
    vertex 46.86371321226473 24.700516644827992 6.440270686263836
  endloop
endfacet
facet normal -2.719911387517721e-06 0.9999999999716527 -7.021179640106022e-06
  outer loop
    vertex 46.86371321226473 24.700516644827992 6.440270686263836
    vertex 29.03097088758086 24.700316532875277 6.360624904418593
    vertex 29.223915662461263 24.70032528666757 6.440545239523842
  endloop
endfacet
facet normal -2.719911387517721e-06 0.9999999999716527 -7.021179640106022e-06
  outer loop
    vertex 46.86371321226473 24.700516644827992 6.440270686263836
    vertex 29.223915662461263 24.70032528666757 6.440545239523842
    vertex 46.65665794025827 24.70051589375413 6.467530035366463
  endloop
endfacet
facet normal -2.719911387517721e-06 0.9999999999716527 -7.021179640106022e-06
  outer loop
    vertex 46.65665794025827 24.70051589375413 6.467530035366463
    vertex 29.223915662461263 24.70032528666757 6.440545239523842
    vertex 29.430970907939937 24.700315626282066 6.4678045759070635
  endloop
endfacet
facet normal -2.719911387517721e-06 0.9999999999716527 -7.021179640106022e-06
  outer loop
    vertex 46.63979726527243 24.699998514706692 -1.0000000075333981
    vertex 47.44853165561294 24.700111091866418 -0.9821336463995437
    vertex 47.4415230678744 24.700348411896645 -1.035372293064683
  endloop
endfacet
facet normal -2.719911387517721e-06 0.9999999999716527 -7.021179640106022e-06
  outer loop
    vertex 47.44853165561294 24.700111091866418 -0.9821336463995437
    vertex 46.63979726527243 24.699998514706692 -1.0000000075333981
    vertex 46.63979726527243 24.699998514706692 5.6849999924666
  endloop
endfacet
facet normal -2.719911387517721e-06 0.9999999999716527 -7.021179640106022e-06
  outer loop
    vertex 47.44853165561294 24.700111091866418 -0.9821336463995437
    vertex 46.63979726527243 24.699998514706692 5.6849999924666
    vertex 47.456658106742836 24.7000663052576 5.6675300333278935
  endloop
endfacet
facet normal -2.719911387517721e-06 0.9999999999716527 -7.021179640106022e-06
  outer loop
    vertex 47.456658106742836 24.7000663052576 5.6675300333278935
    vertex 46.63979726527243 24.699998514706692 5.6849999924666
    vertex 47.42939875250208 24.70019873775472 5.874585262307364
  endloop
endfacet
facet normal -2.719911387517721e-06 0.9999999999716527 -7.021179640106022e-06
  outer loop
    vertex 47.42939875250208 24.70019873775472 5.874585262307364
    vertex 46.63979726527243 24.699998514706692 5.6849999924666
    vertex 29.43979726516181 24.699998945788735 5.685000051808011
  endloop
endfacet
facet normal -0.9999996924261321 -0.0007843134842557002 -1.9948927266691803e-21
  outer loop
    vertex 46.659797265272424 -0.8000014852933003 5.68499999232149
    vertex 46.63979726527243 24.699998514706692 -1.0000000075333981
    vertex 46.659797265272424 -0.8000014852933014 -1.0000000076785092
  endloop
endfacet
facet normal -0.9999996924261321 -0.0007843134842557002 -1.9948927266691803e-21
  outer loop
    vertex 46.63979726527243 24.699998514706692 -1.0000000075333981
    vertex 46.659797265272424 -0.8000014852933003 5.68499999232149
    vertex 46.63979726527243 24.699998514706692 5.6849999924666
  endloop
endfacet
facet normal 0.9999996924261321 -0.0007843134842554791 -8.43633158459805e-16
  outer loop
    vertex 29.4397972651618 24.699998945788735 -0.9999999481919883
    vertex 29.41979726516181 -0.8000010542112534 5.68500004482245
    vertex 29.41979726516181 -0.8000010542112544 -0.9999999551775485
  endloop
endfacet
facet normal 0.9999996924261321 -0.0007843134842554791 -8.43633158459805e-16
  outer loop
    vertex 29.41979726516181 -0.8000010542112534 5.68500004482245
    vertex 29.4397972651618 24.699998945788735 -0.9999999481919883
    vertex 29.43979726516181 24.699998945788735 5.685000051808011
  endloop
endfacet
facet normal 0.9914448466646485 0.0002114805610682 0.13052613262517324
  outer loop
    vertex 47.456658106742836 24.7000663052576 5.6675300333278935
    vertex 47.432538077516234 -0.7997975475503173 5.892055219230928
    vertex 47.459797431756996 -0.7999299800474384 5.684999990251457
  endloop
endfacet
facet normal 0.9914448466646485 0.0002114805610682 0.13052613262517324
  outer loop
    vertex 47.432538077516234 -0.7997975475503173 5.892055219230928
    vertex 47.456658106742836 24.7000663052576 5.6675300333278935
    vertex 47.42939875250208 24.70019873775472 5.874585262307364
  endloop
endfacet
facet normal 0.1305261836263135 0.0006953043716393109 0.9914446186952556
  outer loop
    vertex 46.659797265272424 -0.7994803915509081 6.484999992290021
    vertex 46.86371321226473 24.700516644827992 6.440270686263836
    vertex 46.65665794025827 24.70051589375413 6.467530035366463
  endloop
endfacet
facet normal 0.1305261836263135 0.0006953043716393109 0.9914446186952556
  outer loop
    vertex 46.86371321226473 24.700516644827992 6.440270686263836
    vertex 46.659797265272424 -0.7994803915509081 6.484999992290021
    vertex 46.86685253727889 -0.7994796404770452 6.457740643187391
  endloop
endfacet
facet normal 0.3826834136763724 0.0006800588838209439 0.9238792899599565
  outer loop
    vertex 46.86685253727889 -0.7994796404770452 6.457740643187391
    vertex 47.056658010652754 24.700481833042524 6.360350342527843
    vertex 46.86371321226473 24.700516644827992 6.440270686263836
  endloop
endfacet
facet normal 0.3826834136763724 0.0006800588838209439 0.9238792899599565
  outer loop
    vertex 47.056658010652754 24.700481833042524 6.360350342527843
    vertex 46.86685253727889 -0.7994796404770452 6.457740643187391
    vertex 47.05979733566691 -0.7995144522625163 6.377820299451399
  endloop
endfacet
facet normal 0.6087614032790554 0.0006184685102710538 0.7933531189668426
  outer loop
    vertex 47.05979733566691 -0.7995144522625163 6.377820299451399
    vertex 47.22234346719459 24.7004138307632 6.233215443125888
    vertex 47.056658010652754 24.700481833042524 6.360350342527843
  endloop
endfacet
facet normal 0.6087614032790554 0.0006184685102710538 0.7933531189668426
  outer loop
    vertex 47.22234346719459 24.7004138307632 6.233215443125888
    vertex 47.05979733566691 -0.7995144522625163 6.377820299451399
    vertex 47.22548279220875 -0.7995824545418375 6.250685400049452
  endloop
endfacet
facet normal 0.7933533122521601 0.000514730532882213 0.6087612479379786
  outer loop
    vertex 47.34947839263032 24.700317272232656 6.06753002074168
    vertex 47.22548279220875 -0.7995824545418375 6.250685400049452
    vertex 47.35261771764448 -0.7996790130723787 6.084999977665244
  endloop
endfacet
facet normal 0.7933533122521601 0.000514730532882213 0.6087612479379786
  outer loop
    vertex 47.22548279220875 -0.7995824545418375 6.250685400049452
    vertex 47.34947839263032 24.700317272232656 6.06753002074168
    vertex 47.22234346719459 24.7004138307632 6.233215443125888
  endloop
endfacet
facet normal 0.9238795080174332 0.0003759145228355684 0.382683306865791
  outer loop
    vertex 47.42939875250208 24.70019873775472 5.874585262307364
    vertex 47.35261771764448 -0.7996790130723787 6.084999977665244
    vertex 47.432538077516234 -0.7997975475503173 5.892055219230928
  endloop
endfacet
facet normal 0.9238795080174332 0.0003759145228355684 0.382683306865791
  outer loop
    vertex 47.35261771764448 -0.7996790130723787 6.084999977665244
    vertex 47.42939875250208 24.70019873775472 5.874585262307364
    vertex 47.34947839263032 24.700317272232656 6.06753002074168
  endloop
endfacet
facet normal -2.1719985257548307e-05 -0.999999999745858 6.043705773899401e-06
  outer loop
    vertex 31.61980211334698 -0.7996391932475863 6.484999851293958
    vertex 29.41979726516181 -0.8000010542112534 5.68500004482245
    vertex 31.61979723305146 -0.7999541540496142 5.685000021250691
  endloop
endfacet
facet normal -2.1719985257548307e-05 -0.999999999745858 6.043705773899401e-06
  outer loop
    vertex 29.41979726516181 -0.8000010542112534 5.68500004482245
    vertex 31.61980211334698 -0.7996391932475863 6.484999851293958
    vertex 28.61979723311781 -0.7999294277019201 5.68500005386722
  endloop
endfacet
facet normal -2.1719985257548307e-05 -0.999999999745858 6.043705773899401e-06
  outer loop
    vertex 28.61979723311781 -0.7999294277019201 5.68500005386722
    vertex 31.61980211334698 -0.7996391932475863 6.484999851293958
    vertex 28.647056581557013 -0.7998644338244307 5.892055287783386
  endloop
endfacet
facet normal -2.1719985257548307e-05 -0.999999999745858 6.043705773899401e-06
  outer loop
    vertex 28.647056581557013 -0.7998644338244307 5.892055287783386
    vertex 31.61980211334698 -0.7996391932475863 6.484999851293958
    vertex 28.72697693056951 -0.7998087504005277 6.08500004906673
  endloop
endfacet
facet normal -2.1719985257548307e-05 -0.999999999745858 6.043705773899401e-06
  outer loop
    vertex 28.72697693056951 -0.7998087504005277 6.08500004906673
    vertex 31.61980211334698 -0.7996391932475863 6.484999851293958
    vertex 28.85411184044474 -0.7997661721635282 6.250685471092091
  endloop
endfacet
facet normal -2.1719985257548307e-05 -0.999999999745858 6.043705773899401e-06
  outer loop
    vertex 28.85411184044474 -0.7997661721635282 6.250685471092091
    vertex 31.61980211334698 -0.7996391932475863 6.484999851293958
    vertex 29.019797277175083 -0.7997396007499205 6.3778203661565405
  endloop
endfacet
facet normal -2.1719985257548307e-05 -0.999999999745858 6.043705773899401e-06
  outer loop
    vertex 29.019797277175083 -0.7997396007499205 6.3778203661565405
    vertex 31.61980211334698 -0.7996391932475863 6.484999851293958
    vertex 29.212742052055486 -0.7997308469576301 6.457740701261789
  endloop
endfacet
facet normal -2.1719985257548307e-05 -0.999999999745858 6.043705773899401e-06
  outer loop
    vertex 29.212742052055486 -0.7997308469576301 6.457740701261789
    vertex 31.61980211334698 -0.7996391932475863 6.484999851293958
    vertex 29.41979729753416 -0.7997405073431356 6.485000037645011
  endloop
endfacet
facet normal -2.1719985257548307e-05 -0.999999999745858 6.043705773899401e-06
  outer loop
    vertex 33.639797265198894 -0.8000000000000014 -0.9999999999999992
    vertex 29.419797297966504 -0.7997370276158853 -1.7999999623247214
    vertex 33.63979726346794 -0.7999999994694904 -1.7999999999999996
  endloop
endfacet
facet normal -2.1719985257548307e-05 -0.999999999745858 6.043705773899401e-06
  outer loop
    vertex 29.419797297966504 -0.7997370276158853 -1.7999999623247214
    vertex 33.639797265198894 -0.8000000000000014 -0.9999999999999992
    vertex 29.212742043848063 -0.799735123469484 -1.7727406269122983
  endloop
endfacet
facet normal -2.1719985257548307e-05 -0.999999999745858 6.043705773899401e-06
  outer loop
    vertex 29.212742043848063 -0.799735123469484 -1.7727406269122983
    vertex 33.639797265198894 -0.8000000000000014 -0.9999999999999992
    vertex 29.019797261453014 -0.79975134206439 -1.6928202896238782
  endloop
endfacet
facet normal -2.1719985257548307e-05 -0.999999999745858 6.043705773899401e-06
  outer loop
    vertex 29.019797261453014 -0.79975134206439 -1.6928202896238782
    vertex 33.639797265198894 -0.8000000000000014 -0.9999999999999992
    vertex 28.854111819372505 -0.7997845781301184 -1.565685389589457
  endloop
endfacet
facet normal -2.1719985257548307e-05 -0.999999999745858 6.043705773899401e-06
  outer loop
    vertex 28.854111819372505 -0.7997845781301184 -1.565685389589457
    vertex 33.639797265198894 -0.8000000000000014 -0.9999999999999992
    vertex 28.726976907128964 -0.7998325666836239 -1.399999960493437
  endloop
endfacet
facet normal -2.1719985257548307e-05 -0.999999999745858 6.043705773899401e-06
  outer loop
    vertex 28.726976907128964 -0.7998325666836239 -1.399999960493437
    vertex 33.639797265198894 -0.8000000000000014 -0.9999999999999992
    vertex 28.647056559238806 -0.7998920373841591 -1.2070551909733511
  endloop
endfacet
facet normal -2.1719985257548307e-05 -0.999999999745858 6.043705773899401e-06
  outer loop
    vertex 28.647056559238806 -0.7998920373841591 -1.2070551909733511
    vertex 33.639797265198894 -0.8000000000000014 -0.9999999999999992
    vertex 28.6197972155545 -0.7999589374016001 -0.9999999487429316
  endloop
endfacet
facet normal -2.1719985257548307e-05 -0.999999999745858 6.043705773899401e-06
  outer loop
    vertex 28.6197972155545 -0.7999589374016001 -0.9999999487429316
    vertex 33.639797265198894 -0.8000000000000014 -0.9999999999999992
    vertex 29.41979726516181 -0.8000010542112544 -0.9999999551775485
  endloop
endfacet
facet normal -2.1719985257548307e-05 -0.999999999745858 6.043705773899401e-06
  outer loop
    vertex 28.6197972155545 -0.7999589374016001 -0.9999999487429316
    vertex 29.41979726516181 -0.8000010542112544 -0.9999999551775485
    vertex 29.41979726516181 -0.8000010542112534 5.68500004482245
  endloop
endfacet
facet normal -2.1719985257548307e-05 -0.999999999745858 6.043705773899401e-06
  outer loop
    vertex 28.6197972155545 -0.7999589374016001 -0.9999999487429316
    vertex 29.41979726516181 -0.8000010542112534 5.68500004482245
    vertex 28.61979723311781 -0.7999294277019201 5.68500005386722
  endloop
endfacet
facet normal -0.9914447412424068 0.0005224487767059215 0.13052605912250928
  outer loop
    vertex 28.647056581557013 -0.7998644338244307 5.892055287783386
    vertex 28.63097084352359 24.700126705923285 5.667804592129266
    vertex 28.61979723311781 -0.7999294277019201 5.68500005386722
  endloop
endfacet
facet normal -0.9914447412424068 0.0005224487767059215 0.13052605912250928
  outer loop
    vertex 28.63097084352359 24.700126705923285 5.667804592129266
    vertex 28.647056581557013 -0.7998644338244307 5.892055287783386
    vertex 28.658230191962787 24.700191699800776 5.874859826045433
  endloop
endfacet
facet normal -0.9238793766824709 0.0006628802322700051 0.3826832344519511
  outer loop
    vertex 28.72697693056951 -0.7998087504005277 6.08500004906673
    vertex 28.658230191962787 24.700191699800776 5.874859826045433
    vertex 28.647056581557013 -0.7998644338244307 5.892055287783386
  endloop
endfacet
facet normal -0.9238793766824709 0.0006628802322700051 0.3826832344519511
  outer loop
    vertex 28.658230191962787 24.700191699800776 5.874859826045433
    vertex 28.72697693056951 -0.7998087504005277 6.08500004906673
    vertex 28.738150540975283 24.700247383224678 6.067804587328777
  endloop
endfacet
facet normal -0.7933531739173663 0.000758137497775045 0.6087611737477809
  outer loop
    vertex 28.85411184044474 -0.7997661721635282 6.250685471092091
    vertex 28.738150540975283 24.700247383224678 6.067804587328777
    vertex 28.72697693056951 -0.7998087504005277 6.08500004906673
  endloop
endfacet
facet normal -0.7933531739173663 0.000758137497775045 0.6087611737477809
  outer loop
    vertex 28.738150540975283 24.700247383224678 6.067804587328777
    vertex 28.85411184044474 -0.7997661721635282 6.250685471092091
    vertex 28.865285450850514 24.70028996146167 6.233490009354138
  endloop
endfacet
facet normal -0.6087612779607919 0.0008017289561153779 0.7933530510978226
  outer loop
    vertex 29.019797277175083 -0.7997396007499205 6.3778203661565405
    vertex 28.865285450850514 24.70028996146167 6.233490009354138
    vertex 28.85411184044474 -0.7997661721635282 6.250685471092091
  endloop
endfacet
facet normal -0.6087612779607919 0.0008017289561153779 0.7933530510978226
  outer loop
    vertex 28.865285450850514 24.70028996146167 6.233490009354138
    vertex 29.019797277175083 -0.7997396007499205 6.3778203661565405
    vertex 29.03097088758086 24.700316532875277 6.360624904418593
  endloop
endfacet
facet normal -0.382683312956524 0.0007906839234538497 0.9238792436263261
  outer loop
    vertex 29.212742052055486 -0.7997308469576301 6.457740701261789
    vertex 29.03097088758086 24.700316532875277 6.360624904418593
    vertex 29.019797277175083 -0.7997396007499205 6.3778203661565405
  endloop
endfacet
facet normal -0.382683312956524 0.0007906839234538497 0.9238792436263261
  outer loop
    vertex 29.03097088758086 24.700316532875277 6.360624904418593
    vertex 29.212742052055486 -0.7997308469576301 6.457740701261789
    vertex 29.223915662461263 24.70032528666757 6.440545239523842
  endloop
endfacet
facet normal -0.13052610656861569 0.0007257550952382525 0.9914446070172455
  outer loop
    vertex 29.41979729753416 -0.7997405073431356 6.485000037645011
    vertex 29.223915662461263 24.70032528666757 6.440545239523842
    vertex 29.212742052055486 -0.7997308469576301 6.457740701261789
  endloop
endfacet
facet normal -0.13052610656861569 0.0007257550952382525 0.9914446070172455
  outer loop
    vertex 29.223915662461263 24.70032528666757 6.440545239523842
    vertex 29.41979729753416 -0.7997405073431356 6.485000037645011
    vertex 29.430970907939937 24.700315626282066 6.4678045759070635
  endloop
endfacet
facet normal -0.9914446926037187 0.0005311958377012114 -0.1305263932654996
  outer loop
    vertex 28.631047454535633 24.700096376817136 -0.9816763186988943
    vertex 28.647056559238806 -0.7998920373841591 -1.2070551909733511
    vertex 28.6197972155545 -0.7999589374016001 -0.9999999487429316
  endloop
endfacet
facet normal -0.9914446926037187 0.0005311958377012114 -0.1305263932654996
  outer loop
    vertex 28.647056559238806 -0.7998920373841591 -1.2070551909733511
    vertex 28.631047454535633 24.700096376817136 -0.9816763186988943
    vertex 28.65830679821993 24.70016327683457 -1.1887315609293136
  endloop
endfacet
facet normal -0.9914446926037187 0.0005311958377012114 -0.1305263932654996
  outer loop
    vertex 28.65830679821993 24.70016327683457 -1.1887315609293136
    vertex 28.631047454535633 24.700096376817136 -0.9816763186988943
    vertex 28.63890124769674 24.70034564276056 -1.0413352072722564
  endloop
endfacet
facet normal -0.13052611864889244 0.000770010626777766 -0.9914445720432837
  outer loop
    vertex 29.223992282829187 24.700320190749242 -1.754416996868261
    vertex 29.419797297966504 -0.7997370276158853 -1.7999999623247214
    vertex 29.212742043848063 -0.799735123469484 -1.7727406269122983
  endloop
endfacet
facet normal -0.13052611864889244 0.000770010626777766 -0.9914445720432837
  outer loop
    vertex 29.419797297966504 -0.7997370276158853 -1.7999999623247214
    vertex 29.223992282829187 24.700320190749242 -1.754416996868261
    vertex 29.431047536947638 24.700318286602844 -1.7816763322806841
  endloop
endfacet
facet normal -0.3826833252298468 0.0008327079803225435 -0.9238792016213198
  outer loop
    vertex 29.031047500434138 24.700303972154344 -1.6744966595798407
    vertex 29.212742043848063 -0.799735123469484 -1.7727406269122983
    vertex 29.019797261453014 -0.79975134206439 -1.6928202896238782
  endloop
endfacet
facet normal -0.3826833252298468 0.0008327079803225435 -0.9238792016213198
  outer loop
    vertex 29.212742043848063 -0.799735123469484 -1.7727406269122983
    vertex 29.031047500434138 24.700303972154344 -1.6744966595798407
    vertex 29.223992282829187 24.700320190749242 -1.754416996868261
  endloop
endfacet
facet normal -0.6087612870886605 0.0008386576685191112 -0.7933530059156976
  outer loop
    vertex 28.86536205835364 24.700270736088612 -1.5473617595454197
    vertex 29.019797261453014 -0.79975134206439 -1.6928202896238782
    vertex 28.854111819372505 -0.7997845781301184 -1.565685389589457
  endloop
endfacet
facet normal -0.6087612870886605 0.0008386576685191112 -0.7933530059156976
  outer loop
    vertex 29.019797261453014 -0.79975134206439 -1.6928202896238782
    vertex 28.86536205835364 24.700270736088612 -1.5473617595454197
    vertex 29.031047500434138 24.700303972154344 -1.6744966595798407
  endloop
endfacet
facet normal -0.7933531790705858 0.0007874542365295226 -0.6087611298156448
  outer loop
    vertex 28.738227146110102 24.7002227475351 -1.3816763304493995
    vertex 28.854111819372505 -0.7997845781301184 -1.565685389589457
    vertex 28.726976907128964 -0.7998325666836239 -1.399999960493437
  endloop
endfacet
facet normal -0.7933531790705858 0.0007874542365295226 -0.6087611298156448
  outer loop
    vertex 28.854111819372505 -0.7997845781301184 -1.565685389589457
    vertex 28.738227146110102 24.7002227475351 -1.3816763304493995
    vertex 28.86536205835364 24.700270736088612 -1.5473617595454197
  endloop
endfacet
facet normal -0.9238793788578548 0.0006825871108329639 -0.3826831945566214
  outer loop
    vertex 28.65830679821993 24.70016327683457 -1.1887315609293136
    vertex 28.726976907128964 -0.7998325666836239 -1.399999960493437
    vertex 28.647056559238806 -0.7998920373841591 -1.2070551909733511
  endloop
endfacet
facet normal -0.9238793788578548 0.0006825871108329639 -0.3826831945566214
  outer loop
    vertex 28.726976907128964 -0.7998325666836239 -1.399999960493437
    vertex 28.65830679821993 24.70016327683457 -1.1887315609293136
    vertex 28.738227146110102 24.7002227475351 -1.3816763304493995
  endloop
endfacet
facet normal 0.9914446853007598 0.0005294551629845367 -0.13052645580918792
  outer loop
    vertex 47.432537955962474 -0.7998781452651655 -1.2070552646779302
    vertex 47.44853165561294 24.700111091866418 -0.9821336463995437
    vertex 47.45979730681567 -0.799944540012498 -1.0000000308622992
  endloop
endfacet
facet normal 0.9914446853007598 0.0005294551629845367 -0.13052645580918792
  outer loop
    vertex 47.44853165561294 24.700111091866418 -0.9821336463995437
    vertex 47.432537955962474 -0.7998781452651655 -1.2070552646779302
    vertex 47.421272304759725 24.700177486613747 -1.1891888802151749
  endloop
endfacet
facet normal 0.9914446853007598 0.0005294551629845367 -0.13052645580918792
  outer loop
    vertex 47.44853165561294 24.700111091866418 -0.9821336463995437
    vertex 47.421272304759725 24.700177486613747 -1.1891888802151749
    vertex 47.4415230678744 24.700348411896645 -1.035372293064683
  endloop
endfacet
facet normal 0.9238793684083034 0.0006762835618443812 -0.38268323097572327
  outer loop
    vertex 47.3526176048175 -0.7998201559367996 -1.4000000251088647
    vertex 47.421272304759725 24.700177486613747 -1.1891888802151749
    vertex 47.432537955962474 -0.7998781452651655 -1.2070552646779302
  endloop
endfacet
facet normal 0.9238793684083034 0.0006762835618443812 -0.38268323097572327
  outer loop
    vertex 47.421272304759725 24.700177486613747 -1.1891888802151749
    vertex 47.3526176048175 -0.7998201559367996 -1.4000000251088647
    vertex 47.34135195361477 24.700235475942115 -1.3821336406461093
  endloop
endfacet
facet normal 0.7933531651477962 0.0007770179516554315 -0.6087611613704316
  outer loop
    vertex 47.225482693157645 -0.7997745239042388 -1.5656854457788922
    vertex 47.34135195361477 24.700235475942115 -1.3821336406461093
    vertex 47.3526176048175 -0.7998201559367996 -1.4000000251088647
  endloop
endfacet
facet normal 0.7933531651477962 0.0007770179516554315 -0.6087611613704316
  outer loop
    vertex 47.34135195361477 24.700235475942115 -1.3821336406461093
    vertex 47.225482693157645 -0.7997745239042388 -1.5656854457788922
    vertex 47.214217041954896 24.700281107974675 -1.547819061316137
  endloop
endfacet
facet normal 0.6087612719668133 0.0008247998649331939 -0.7933530320472283
  outer loop
    vertex 47.214217041954896 24.700281107974675 -1.547819061316137
    vertex 47.059797254986364 -0.7997443589150466 -1.6928203392413534
    vertex 47.04853160378363 24.700311272963866 -1.6749539547785979
  endloop
endfacet
facet normal 0.6087612719668133 0.0008247998649331939 -0.7933530320472283
  outer loop
    vertex 47.059797254986364 -0.7997443589150466 -1.6928203392413534
    vertex 47.214217041954896 24.700281107974675 -1.547819061316137
    vertex 47.225482693157645 -0.7997745239042388 -1.5656854457788922
  endloop
endfacet
facet normal 0.38268331153098845 0.0008163730457883584 -0.9238792218741184
  outer loop
    vertex 47.04853160378363 24.700311272963866 -1.6749539547785979
    vertex 46.86685247894301 -0.7997317166633567 -1.7727406727328914
    vertex 46.855586827740275 24.700323915215552 -1.754874288270136
  endloop
endfacet
facet normal 0.38268331153098845 0.0008163730457883584 -0.9238792218741184
  outer loop
    vertex 46.86685247894301 -0.7997317166633567 -1.7727406727328914
    vertex 47.04853160378363 24.700311272963866 -1.6749539547785979
    vertex 47.059797254986364 -0.7997443589150466 -1.6928203392413534
  endloop
endfacet
facet normal 0.13052610940498535 0.0007523117620014643 -0.9914445868482064
  outer loop
    vertex 46.855586827740275 24.700323915215552 -1.754874288270136
    vertex 46.65979723246773 -0.7997374586977171 -1.8000000076797122
    vertex 46.648531581265 24.7003181731812 -1.782133623216957
  endloop
endfacet
facet normal 0.13052610940498535 0.0007523117620014643 -0.9914445868482064
  outer loop
    vertex 46.65979723246773 -0.7997374586977171 -1.8000000076797122
    vertex 46.855586827740275 24.700323915215552 -1.754874288270136
    vertex 46.86685247894301 -0.7997317166633567 -1.7727406727328914
  endloop
endfacet
facet normal 4.3041011792294595e-05 -0.9999999989348212 1.6668208029350453e-05
  outer loop
    vertex 47.459797431756996 -0.7999299800474384 5.684999990251457
    vertex 46.659797265272424 -0.8000014852933014 -1.0000000076785092
    vertex 47.45979730681567 -0.799944540012498 -1.0000000308622992
  endloop
endfacet
facet normal 4.3041011792294595e-05 -0.9999999989348212 1.6668208029350453e-05
  outer loop
    vertex 46.659797265272424 -0.8000014852933014 -1.0000000076785092
    vertex 47.459797431756996 -0.7999299800474384 5.684999990251457
    vertex 46.659797265272424 -0.8000014852933003 5.68499999232149
  endloop
endfacet
facet normal 4.3041011792294595e-05 -0.9999999989348212 1.6668208029350453e-05
  outer loop
    vertex 46.659797265272424 -0.8000014852933003 5.68499999232149
    vertex 47.459797431756996 -0.7999299800474384 5.684999990251457
    vertex 47.432538077516234 -0.7997975475503173 5.892055219230928
  endloop
endfacet
facet normal 4.3041011792294595e-05 -0.9999999989348212 1.6668208029350453e-05
  outer loop
    vertex 46.659797265272424 -0.8000014852933003 5.68499999232149
    vertex 47.432538077516234 -0.7997975475503173 5.892055219230928
    vertex 44.45979743174455 -0.7999653455086314 5.684999996247479
  endloop
endfacet
facet normal 4.3041011792294595e-05 -0.9999999989348212 1.6668208029350453e-05
  outer loop
    vertex 44.45979743174455 -0.7999653455086314 5.684999996247479
    vertex 47.432538077516234 -0.7997975475503173 5.892055219230928
    vertex 44.45979743589472 -0.799841571485873 6.48499999648242
  endloop
endfacet
facet normal 4.3041011792294595e-05 -0.9999999989348212 1.6668208029350453e-05
  outer loop
    vertex 44.45979743589472 -0.799841571485873 6.48499999648242
    vertex 47.432538077516234 -0.7997975475503173 5.892055219230928
    vertex 47.35261771764448 -0.7996790130723787 6.084999977665244
  endloop
endfacet
facet normal 4.3041011792294595e-05 -0.9999999989348212 1.6668208029350453e-05
  outer loop
    vertex 44.45979743589472 -0.799841571485873 6.48499999648242
    vertex 47.35261771764448 -0.7996790130723787 6.084999977665244
    vertex 47.22548279220875 -0.7995824545418375 6.250685400049452
  endloop
endfacet
facet normal 4.3041011792294595e-05 -0.9999999989348212 1.6668208029350453e-05
  outer loop
    vertex 44.45979743589472 -0.799841571485873 6.48499999648242
    vertex 47.22548279220875 -0.7995824545418375 6.250685400049452
    vertex 47.05979733566691 -0.7995144522625163 6.377820299451399
  endloop
endfacet
facet normal 4.3041011792294595e-05 -0.9999999989348212 1.6668208029350453e-05
  outer loop
    vertex 44.45979743589472 -0.799841571485873 6.48499999648242
    vertex 47.05979733566691 -0.7995144522625163 6.377820299451399
    vertex 46.86685253727889 -0.7994796404770452 6.457740643187391
  endloop
endfacet
facet normal 4.3041011792294595e-05 -0.9999999989348212 1.6668208029350453e-05
  outer loop
    vertex 44.45979743589472 -0.799841571485873 6.48499999648242
    vertex 46.86685253727889 -0.7994796404770452 6.457740643187391
    vertex 46.659797265272424 -0.7994803915509081 6.484999992290021
  endloop
endfacet
facet normal 4.3041011792294595e-05 -0.9999999989348212 1.6668208029350453e-05
  outer loop
    vertex 46.86685247894301 -0.7997317166633567 -1.7727406727328914
    vertex 42.439797263467945 -0.7999999994694904 -1.7999999999999996
    vertex 46.65979723246773 -0.7997374586977171 -1.8000000076797122
  endloop
endfacet
facet normal 4.3041011792294595e-05 -0.9999999989348212 1.6668208029350453e-05
  outer loop
    vertex 42.439797263467945 -0.7999999994694904 -1.7999999999999996
    vertex 46.86685247894301 -0.7997317166633567 -1.7727406727328914
    vertex 42.439797265198884 -0.8000000000000014 -0.9999999999999992
  endloop
endfacet
facet normal 4.3041011792294595e-05 -0.9999999989348212 1.6668208029350453e-05
  outer loop
    vertex 42.439797265198884 -0.8000000000000014 -0.9999999999999992
    vertex 46.86685247894301 -0.7997317166633567 -1.7727406727328914
    vertex 47.059797254986364 -0.7997443589150466 -1.6928203392413534
  endloop
endfacet
facet normal 4.3041011792294595e-05 -0.9999999989348212 1.6668208029350453e-05
  outer loop
    vertex 42.439797265198884 -0.8000000000000014 -0.9999999999999992
    vertex 47.059797254986364 -0.7997443589150466 -1.6928203392413534
    vertex 47.225482693157645 -0.7997745239042388 -1.5656854457788922
  endloop
endfacet
facet normal 4.3041011792294595e-05 -0.9999999989348212 1.6668208029350453e-05
  outer loop
    vertex 42.439797265198884 -0.8000000000000014 -0.9999999999999992
    vertex 47.225482693157645 -0.7997745239042388 -1.5656854457788922
    vertex 47.3526176048175 -0.7998201559367996 -1.4000000251088647
  endloop
endfacet
facet normal 4.3041011792294595e-05 -0.9999999989348212 1.6668208029350453e-05
  outer loop
    vertex 42.439797265198884 -0.8000000000000014 -0.9999999999999992
    vertex 47.3526176048175 -0.7998201559367996 -1.4000000251088647
    vertex 47.432537955962474 -0.7998781452651655 -1.2070552646779302
  endloop
endfacet
facet normal 4.3041011792294595e-05 -0.9999999989348212 1.6668208029350453e-05
  outer loop
    vertex 42.439797265198884 -0.8000000000000014 -0.9999999999999992
    vertex 47.432537955962474 -0.7998781452651655 -1.2070552646779302
    vertex 47.45979730681567 -0.799944540012498 -1.0000000308622992
  endloop
endfacet
facet normal 4.3041011792294595e-05 -0.9999999989348212 1.6668208029350453e-05
  outer loop
    vertex 42.439797265198884 -0.8000000000000014 -0.9999999999999992
    vertex 47.45979730681567 -0.799944540012498 -1.0000000308622992
    vertex 46.659797265272424 -0.8000014852933014 -1.0000000076785092
  endloop
endfacet
facet normal -7.500639267637909e-05 0.000698770862211108 0.9999997530466312
  outer loop
    vertex 31.61980211334698 -0.7996391932475863 6.484999851293958
    vertex 29.430970907939937 24.700315626282066 6.4678045759070635
    vertex 29.41979729753416 -0.7997405073431356 6.485000037645011
  endloop
endfacet
facet normal -7.500639267637909e-05 0.000698770862211108 0.9999997530466312
  outer loop
    vertex 29.430970907939937 24.700315626282066 6.4678045759070635
    vertex 31.61980211334698 -0.7996391932475863 6.484999851293958
    vertex 31.61980199173318 10.700379068462128 6.476877061703509
  endloop
endfacet
facet normal -7.500639267637909e-05 0.000698770862211108 0.9999997530466312
  outer loop
    vertex 29.430970907939937 24.700315626282066 6.4678045759070635
    vertex 32.20558697190228 12.114602944120266 6.474980643814544
    vertex 46.65665794025827 24.70051589375413 6.467530035366463
  endloop
endfacet
facet normal -7.500639267637909e-05 0.000698770862211108 0.9999997530466312
  outer loop
    vertex 32.20558697190228 12.114602944120266 6.474980643814544
    vertex 29.430970907939937 24.700315626282066 6.4678045759070635
    vertex 31.887750400059318 11.700385610614532 6.475835771071467
  endloop
endfacet
facet normal -7.500639267637909e-05 0.000698770862211108 0.9999997530466312
  outer loop
    vertex 31.887750400059318 11.700385610614532 6.475835771071467
    vertex 29.430970907939937 24.700315626282066 6.4678045759070635
    vertex 31.68795012032828 11.218020347720225 6.476482603676483
  endloop
endfacet
facet normal -7.500639267637909e-05 0.000698770862211108 0.9999997530466312
  outer loop
    vertex 31.68795012032828 11.218020347720225 6.476482603676483
    vertex 29.430970907939937 24.700315626282066 6.4678045759070635
    vertex 31.61980199173318 10.700379068462128 6.476877061703509
  endloop
endfacet
facet normal -7.500639267637909e-05 0.000698770862211108 0.9999997530466312
  outer loop
    vertex 46.65665794025827 24.70051589375413 6.467530035366463
    vertex 32.20558697190228 12.114602944120266 6.474980643814544
    vertex 32.61980011665801 12.432444535814414 6.473975496559755
  endloop
endfacet
facet normal -7.500639267637909e-05 0.000698770862211108 0.9999997530466312
  outer loop
    vertex 46.65665794025827 24.70051589375413 6.467530035366463
    vertex 32.61980011665801 12.432444535814414 6.473975496559755
    vertex 33.10216230735571 12.632250324408286 6.472888827426008
  endloop
endfacet
facet normal -7.500639267637909e-05 0.000698770862211108 0.9999997530466312
  outer loop
    vertex 46.65665794025827 24.70051589375413 6.467530035366463
    vertex 33.10216230735571 12.632250324408286 6.472888827426008
    vertex 33.61980184033265 12.700404075463489 6.471794690032001
  endloop
endfacet
facet normal -7.500639267637909e-05 0.000698770862211108 0.9999997530466312
  outer loop
    vertex 46.65665794025827 24.70051589375413 6.467530035366463
    vertex 33.61980184033265 12.700404075463489 6.471794690032001
    vertex 42.45979761519458 12.700383693120687 6.475961330417356
  endloop
endfacet
facet normal -7.500639267637909e-05 0.000698770862211108 0.9999997530466312
  outer loop
    vertex 46.65665794025827 24.70051589375413 6.467530035366463
    vertex 42.45979761519458 12.700383693120687 6.475961330417356
    vertex 42.977435929194094 12.63223419018082 6.4761828650420625
  endloop
endfacet
facet normal -7.500639267637909e-05 0.000698770862211108 0.9999997530466312
  outer loop
    vertex 46.65665794025827 24.70051589375413 6.467530035366463
    vertex 42.977435929194094 12.63223419018082 6.4761828650420625
    vertex 43.45979783672235 12.432432354506696 6.476393994723288
  endloop
endfacet
facet normal -7.500639267637909e-05 0.000698770862211108 0.9999997530466312
  outer loop
    vertex 46.65665794025827 24.70051589375413 6.467530035366463
    vertex 43.45979783672235 12.432432354506696 6.476393994723288
    vertex 43.874011272167174 12.114594309074048 6.4765803313664785
  endloop
endfacet
facet normal -7.500639267637909e-05 0.000698770862211108 0.9999997530466312
  outer loop
    vertex 46.65665794025827 24.70051589375413 6.467530035366463
    vertex 43.874011272167174 12.114594309074048 6.4765803313664785
    vertex 44.1918483613642 11.700380124714442 6.476729176476449
  endloop
endfacet
facet normal -7.500639267637909e-05 0.000698770862211108 0.9999997530466312
  outer loop
    vertex 46.65665794025827 24.70051589375413 6.467530035366463
    vertex 44.1918483613642 11.700380124714442 6.476729176476449
    vertex 44.39164909864753 11.218017726629391 6.476830386536175
  endloop
endfacet
facet normal -7.500639267637909e-05 0.000698770862211108 0.9999997530466312
  outer loop
    vertex 46.65665794025827 24.70051589375413 6.467530035366463
    vertex 44.39164909864753 11.218017726629391 6.476830386536175
    vertex 44.459797435894714 10.700379213861622 6.476877064268587
  endloop
endfacet
facet normal -7.500639267637909e-05 0.000698770862211108 0.9999997530466312
  outer loop
    vertex 46.65665794025827 24.70051589375413 6.467530035366463
    vertex 44.459797435894714 10.700379213861622 6.476877064268587
    vertex 44.45979743589472 -0.799841571485873 6.48499999648242
  endloop
endfacet
facet normal -7.500639267637909e-05 0.000698770862211108 0.9999997530466312
  outer loop
    vertex 46.65665794025827 24.70051589375413 6.467530035366463
    vertex 44.45979743589472 -0.799841571485873 6.48499999648242
    vertex 46.659797265272424 -0.7994803915509081 6.484999992290021
  endloop
endfacet
facet normal -0.9999999986820243 3.5496168020281105e-06 -5.121866805225125e-05
  outer loop
    vertex 44.45979743589472 -0.799841571485873 6.48499999648242
    vertex 44.45987939442121 10.69993430484496 5.686877193801025
    vertex 44.45979743174455 -0.7999653455086314 5.684999996247479
  endloop
endfacet
facet normal -0.9999999986820243 3.5496168020281105e-06 -5.121866805225125e-05
  outer loop
    vertex 44.45987939442121 10.69993430484496 5.686877193801025
    vertex 44.45979743589472 -0.799841571485873 6.48499999648242
    vertex 44.459797435894714 10.700379213861622 6.476877064268587
  endloop
endfacet
facet normal -0.9914448769151205 -0.1305260708726057 -2.934827744145431e-05
  outer loop
    vertex 44.459797435894714 10.700379213861622 6.476877064268587
    vertex 44.39173105717403 11.21757281761273 5.686830516068613
    vertex 44.45987939442121 10.69993430484496 5.686877193801025
  endloop
endfacet
facet normal -0.9914448769151205 -0.1305260708726057 -2.934827744145431e-05
  outer loop
    vertex 44.39173105717403 11.21757281761273 5.686830516068613
    vertex 44.459797435894714 10.700379213861622 6.476877064268587
    vertex 44.39164909864753 11.218017726629391 6.476830386536175
  endloop
endfacet
facet normal -0.9238797446836213 -0.38268290142417943 0.00011966995737901905
  outer loop
    vertex 44.39164909864753 11.218017726629391 6.476830386536175
    vertex 44.1919303198907 11.699935215697781 5.686729306008887
    vertex 44.39173105717403 11.21757281761273 5.686830516068613
  endloop
endfacet
facet normal -0.9238797446836213 -0.38268290142417943 0.00011966995737901905
  outer loop
    vertex 44.1919303198907 11.699935215697781 5.686729306008887
    vertex 44.39164909864753 11.218017726629391 6.476830386536175
    vertex 44.1918483613642 11.700380124714442 6.476729176476449
  endloop
endfacet
facet normal -0.7933539443706215 -0.6087605860058513 0.0002605328951592614
  outer loop
    vertex 44.1918483613642 11.700380124714442 6.476729176476449
    vertex 43.87409323069368 12.114149400057387 5.6865804608989166
    vertex 44.1919303198907 11.699935215697781 5.686729306008887
  endloop
endfacet
facet normal -0.7933539443706215 -0.6087605860058513 0.0002605328951592614
  outer loop
    vertex 43.87409323069368 12.114149400057387 5.6865804608989166
    vertex 44.1918483613642 11.700380124714442 6.476729176476449
    vertex 43.874011272167174 12.114594309074048 6.4765803313664785
  endloop
endfacet
facet normal -0.6087625749506317 -0.7933523682192306 0.0003836409975583214
  outer loop
    vertex 43.87409323069368 12.114149400057387 5.6865804608989166
    vertex 43.45979783672235 12.432432354506696 6.476393994723288
    vertex 43.45987979524885 12.431987445490035 5.686394124255726
  endloop
endfacet
facet normal -0.6087625749506317 -0.7933523682192306 0.0003836409975583214
  outer loop
    vertex 43.45979783672235 12.432432354506696 6.476393994723288
    vertex 43.87409323069368 12.114149400057387 5.6865804608989166
    vertex 43.874011272167174 12.114594309074048 6.4765803313664785
  endloop
endfacet
facet normal -0.382685188825751 -0.9238786799534525 0.0004806046874385828
  outer loop
    vertex 43.45987979524885 12.431987445490035 5.686394124255726
    vertex 42.977435929194094 12.63223419018082 6.4761828650420625
    vertex 42.97751788772059 12.63178928116416 5.686182994574501
  endloop
endfacet
facet normal -0.382685188825751 -0.9238786799534525 0.0004806046874385828
  outer loop
    vertex 42.977435929194094 12.63223419018082 6.4761828650420625
    vertex 43.45987979524885 12.431987445490035 5.686394124255726
    vertex 43.45979783672235 12.432432354506696 6.476393994723288
  endloop
endfacet
facet normal -0.1305285220550814 -0.9914444049494449 0.0005448160766044367
  outer loop
    vertex 42.97751788772059 12.63178928116416 5.686182994574501
    vertex 42.45979761519458 12.700383693120687 6.475961330417356
    vertex 42.45987957372108 12.699938784104026 5.6859614599497945
  endloop
endfacet
facet normal -0.1305285220550814 -0.9914444049494449 0.0005448160766044367
  outer loop
    vertex 42.45979761519458 12.700383693120687 6.475961330417356
    vertex 42.97751788772059 12.63178928116416 5.686182994574501
    vertex 42.977435929194094 12.63223419018082 6.4761828650420625
  endloop
endfacet
facet normal -2.5711426557013836e-06 -0.9999998414132437 0.000563175706742605
  outer loop
    vertex 42.45987957372108 12.699938784104026 5.6859614599497945
    vertex 33.61980184033265 12.700404075463489 6.471794690032001
    vertex 33.61988379885915 12.699959166446828 5.681794819564439
  endloop
endfacet
facet normal -2.5711426557013836e-06 -0.9999998414132437 0.000563175706742605
  outer loop
    vertex 33.61980184033265 12.700404075463489 6.471794690032001
    vertex 42.45987957372108 12.699938784104026 5.6859614599497945
    vertex 42.45979761519458 12.700383693120687 6.475961330417356
  endloop
endfacet
facet normal 0.13053717483024602 -0.9914432504778523 0.0005718996838324368
  outer loop
    vertex 33.61980184033265 12.700404075463489 6.471794690032001
    vertex 33.10224426588222 12.631805415391625 5.682888956958446
    vertex 33.61988379885915 12.699959166446828 5.681794819564439
  endloop
endfacet
facet normal 0.13053717483024602 -0.9914432504778523 0.0005718996838324368
  outer loop
    vertex 33.10224426588222 12.631805415391625 5.682888956958446
    vertex 33.61980184033265 12.700404075463489 6.471794690032001
    vertex 33.10216230735571 12.632250324408286 6.472888827426008
  endloop
endfacet
facet normal 0.3826923408457597 -0.9238756727233747 0.0005600070759074736
  outer loop
    vertex 33.10216230735571 12.632250324408286 6.472888827426008
    vertex 32.61988207518451 12.431999626797753 5.683975626092193
    vertex 33.10224426588222 12.631805415391625 5.682888956958446
  endloop
endfacet
facet normal 0.3826923408457597 -0.9238756727233747 0.0005600070759074736
  outer loop
    vertex 32.61988207518451 12.431999626797753 5.683975626092193
    vertex 33.10216230735571 12.632250324408286 6.472888827426008
    vertex 32.61980011665801 12.432444535814414 6.473975496559755
  endloop
endfacet
facet normal 0.6087677547942765 -0.7933483224109812 0.0005099513876125503
  outer loop
    vertex 32.61980011665801 12.432444535814414 6.473975496559755
    vertex 32.20566893042878 12.114158035103605 5.684980773346982
    vertex 32.61988207518451 12.431999626797753 5.683975626092193
  endloop
endfacet
facet normal 0.6087677547942765 -0.7933483224109812 0.0005099513876125503
  outer loop
    vertex 32.20566893042878 12.114158035103605 5.684980773346982
    vertex 32.61980011665801 12.432444535814414 6.473975496559755
    vertex 32.20558697190228 12.114602944120266 6.474980643814544
  endloop
endfacet
facet normal 0.7933569920780075 -0.6087565214218167 0.0004251439119754789
  outer loop
    vertex 32.20566893042878 12.114158035103605 5.684980773346982
    vertex 31.887750400059318 11.700385610614532 6.475835771071467
    vertex 31.887832358585815 11.699940701597871 5.685835900603905
  endloop
endfacet
facet normal 0.7933569920780075 -0.6087565214218167 0.0004251439119754789
  outer loop
    vertex 31.887750400059318 11.700385610614532 6.475835771071467
    vertex 32.20566893042878 12.114158035103605 5.684980773346982
    vertex 32.20558697190228 12.114602944120266 6.474980643814544
  endloop
endfacet
facet normal 0.9238809586406377 -0.38267986269676957 0.00031136415667278196
  outer loop
    vertex 31.887832358585815 11.699940701597871 5.685835900603905
    vertex 31.68795012032828 11.218020347720225 6.476482603676483
    vertex 31.688032078854786 11.217575438703564 5.686482733208921
  endloop
endfacet
facet normal 0.9238809586406377 -0.38267986269676957 0.00031136415667278196
  outer loop
    vertex 31.68795012032828 11.218020347720225 6.476482603676483
    vertex 31.887832358585815 11.699940701597871 5.685835900603905
    vertex 31.887750400059318 11.700385610614532 6.475835771071467
  endloop
endfacet
facet normal 0.9914450216470824 -0.13052485566464608 0.00017636592545723287
  outer loop
    vertex 31.688032078854786 11.217575438703564 5.686482733208921
    vertex 31.61980199173318 10.700379068462128 6.476877061703509
    vertex 31.61988395025968 10.699934159445467 5.686877191235947
  endloop
endfacet
facet normal 0.9914450216470824 -0.13052485566464608 0.00017636592545723287
  outer loop
    vertex 31.61980199173318 10.700379068462128 6.476877061703509
    vertex 31.688032078854786 11.217575438703564 5.686482733208921
    vertex 31.68795012032828 11.218020347720225 6.476482603676483
  endloop
endfacet
facet normal 0.9999999988345554 -3.751948312684906e-06 4.813327925056016e-05
  outer loop
    vertex 31.61988395025968 10.699934159445467 5.686877191235947
    vertex 31.61980211334698 -0.7996391932475863 6.484999851293958
    vertex 31.61979723305146 -0.7999541540496142 5.685000021250691
  endloop
endfacet
facet normal 0.9999999988345554 -3.751948312684906e-06 4.813327925056016e-05
  outer loop
    vertex 31.61980211334698 -0.7996391932475863 6.484999851293958
    vertex 31.61988395025968 10.699934159445467 5.686877191235947
    vertex 31.61980199173318 10.700379068462128 6.476877061703509
  endloop
endfacet
endsolid Lickometer_15ga
