 0
SECTION
 2
ENTITIES
  0
POLYLINE
 8
Group#2
 66
     1
10
0.0
 20
 0.0
 30
0.0
70
    64
71
398
72
   1
  0
VERTEX
  8
Group#2
10
183.39999999995925
20
143.00002734197153
30
0.0
 70
     192
  0
VERTEX
  8
Group#2
10
47.237404863241366
20
148.0500273419736
30
0.0
 70
     192
  0
VERTEX
  8
Group#2
10
36.038947615559934
20
142.9829170647175
30
0.0
 70
     192
  0
VERTEX
  8
Group#2
10
67.43740486324155
20
148.05002734197376
30
0.0
 70
     192
  0
VERTEX
  8
Group#2
10
97.2374048632557
20
148.0500273419708
30
0.0
 70
     192
  0
VERTEX
  8
Group#2
10
67.4374048632416
20
152.75002734197375
30
0.0
 70
     192
  0
VERTEX
  8
Group#2
10
117.4374048632393
20
148.0500273419698
30
0.0
 70
     192
  0
VERTEX
  8
Group#2
10
147.23740486323115
20
148.05002734196975
30
0.0
 70
     192
  0
VERTEX
  8
Group#2
10
117.43740486323965
20
152.75002734196977
30
0.0
 70
     192
  0
VERTEX
  8
Group#2
10
167.4374048632313
20
148.05002734196967
30
0.0
 70
     192
  0
VERTEX
  8
Group#2
10
35.813037096869365
20
26.80645421176524
30
1.2166554502601733e-05
 70
     192
  0
VERTEX
  8
Group#2
10
47.237404863231305
20
21.74999999999839
30
0.0
 70
     192
  0
VERTEX
  8
Group#2
10
183.17408948126857
20
26.789343934513766
30
1.2166554502601733e-05
 70
     192
  0
VERTEX
  8
Group#2
10
47.23740486323121
20
17.049999999998377
30
0.0
 70
     192
  0
VERTEX
  8
Group#2
10
67.43740486323131
20
21.750000000000174
30
0.0
 70
     192
  0
VERTEX
  8
Group#2
10
97.23740486323139
20
21.749999999999677
30
0.0
 70
     192
  0
VERTEX
  8
Group#2
10
97.23740486323129
20
17.049999999999663
30
0.0
 70
     192
  0
VERTEX
  8
Group#2
10
117.43740486323131
20
21.749999999999677
30
0.0
 70
     192
  0
VERTEX
  8
Group#2
10
147.2374048632312
20
21.749999999999655
30
0.0
 70
     192
  0
VERTEX
  8
Group#2
10
117.4374048632314
20
17.049999999999663
30
0.0
 70
     192
  0
VERTEX
  8
Group#2
10
167.4374048632313
20
21.7499999999997
30
0.0
 70
     192
  0
VERTEX
  8
Group#2
10
167.43740486323148
20
17.049999999999688
30
0.0
 70
     192
  0
VERTEX
  8
Group#2
10
193.5999999999592
20
17.899999999999945
30
0.0
 70
     192
  0
VERTEX
  8
Group#2
10
193.8000000000787
20
24.449999999924955
30
2.4271671664433112e-05
 70
     192
  0
VERTEX
  8
Group#2
10
189.40000000007882
20
24.449999999913427
30
2.4271671672893013e-05
 70
     192
  0
VERTEX
  8
Group#2
10
193.65451867789662
20
18.314110472163975
30
0.0
 70
     192
  0
VERTEX
  8
Group#2
10
193.81435935390425
20
18.699999999999942
30
0.0
 70
     192
  0
VERTEX
  8
Group#2
10
193.8000000000789
20
136.95002734197192
30
2.4271671664433112e-05
 70
     192
  0
VERTEX
  8
Group#2
10
199.3999999999595
20
133.70002734196984
30
0.0
 70
     192
  0
VERTEX
  8
Group#2
10
201.6545186778967
20
151.48591686980677
30
0.0
 70
     192
  0
VERTEX
  8
Group#2
10
201.59999999995918
20
151.90002734197083
30
0.0
 70
     192
  0
VERTEX
  8
Group#2
10
206.0999999999592
20
133.70002734197084
30
0.0
 70
     192
  0
VERTEX
  8
Group#2
10
201.81435935390422
20
151.1000273419708
30
0.0
 70
     192
  0
VERTEX
  8
Group#2
10
202.06862915006076
20
150.76865649207446
30
0.0
 70
     192
  0
VERTEX
  8
Group#2
10
202.39999999995928
20
150.51438669591568
30
0.0
 70
     192
  0
VERTEX
  8
Group#2
10
202.7858895277952
20
150.35454601991046
30
0.0
 70
     192
  0
VERTEX
  8
Group#2
10
203.19999999995926
20
150.30002734197063
30
0.0
 70
     192
  0
VERTEX
  8
Group#2
10
203.6141104721233
20
150.3545460199083
30
0.0
 70
     192
  0
VERTEX
  8
Group#2
10
203.99999999995924
20
150.5143866959179
30
0.0
 70
     192
  0
VERTEX
  8
Group#2
10
204.3313708498576
20
150.76865649207235
30
0.0
 70
     192
  0
VERTEX
  8
Group#2
10
204.5856406460143
20
151.10002734197298
30
0.0
 70
     192
  0
VERTEX
  8
Group#2
10
204.74548132202165
20
151.48591686980893
30
0.0
 70
     192
  0
VERTEX
  8
Group#2
10
204.79999999995914
20
151.900027341973
30
0.0
 70
     192
  0
VERTEX
  8
Group#2
10
11.108555138626354
20
134.56950114974993
30
0.0
 70
     192
  0
VERTEX
  8
Group#2
10
11.100000000000042
20
155.90002734197333
30
0.0
 70
     192
  0
VERTEX
  8
Group#2
10
11.100000000000042
20
134.70002734197342
30
0.0
 70
     192
  0
VERTEX
  8
Group#2
10
11.108555138626308
20
156.03055353418998
30
0.0
 70
     192
  0
VERTEX
  8
Group#2
10
11.134074173711047
20
156.1588463870758
30
0.0
 70
     192
  0
VERTEX
  8
Group#2
10
11.134074173711092
20
134.44120829687088
30
0.0
 70
     192
  0
VERTEX
  8
Group#2
10
11.176120467488783
20
156.282710774335
30
0.0
 70
     192
  0
VERTEX
  8
Group#2
10
11.17612046748955
20
134.31734390960477
30
0.0
 70
     192
  0
VERTEX
  8
Group#2
10
11.233974596215607
20
156.4000273419697
30
0.0
 70
     192
  0
VERTEX
  8
Group#2
10
11.233974596215607
20
134.20002734196973
30
0.0
 70
     192
  0
VERTEX
  8
Group#2
10
11.3066466597089
20
134.091265912961
30
0.0
 70
     192
  0
VERTEX
  8
Group#2
10
11.306646659709395
20
156.50878877097844
30
0.0
 70
     192
  0
VERTEX
  8
Group#2
10
11.392893218813581
20
133.99292056078335
30
0.0
 70
     192
  0
VERTEX
  8
Group#2
10
11.392893218814212
20
156.6071341231564
30
0.0
 70
     192
  0
VERTEX
  8
Group#2
10
11.491238570991428
20
133.90667400168283
30
0.0
 70
     192
  0
VERTEX
  8
Group#2
10
11.491238570992014
20
156.6933806822652
30
0.0
 70
     192
  0
VERTEX
  8
Group#2
10
11.600000000000154
20
133.83400193818895
30
0.0
 70
     192
  0
VERTEX
  8
Group#2
10
11.600000000000064
20
156.76605274575778
30
0.0
 70
     192
  0
VERTEX
  8
Group#2
10
11.717316567635011
20
156.82390687448097
30
0.0
 70
     192
  0
VERTEX
  8
Group#2
10
11.717316567634965
20
133.77614780945842
30
0.0
 70
     192
  0
VERTEX
  8
Group#2
10
11.841180954897595
20
133.73410151568063
30
0.0
 70
     192
  0
VERTEX
  8
Group#2
10
11.84118095489746
20
156.86595316825876
30
0.0
 70
     192
  0
VERTEX
  8
Group#2
10
11.969473807780014
20
156.89147220334712
30
0.0
 70
     192
  0
VERTEX
  8
Group#2
10
11.969473807780105
20
133.708582480596
30
0.0
 70
     192
  0
VERTEX
  8
Group#2
10
12.099999999999994
20
156.90002734197338
30
0.0
 70
     192
  0
VERTEX
  8
Group#2
10
12.100000000000085
20
133.70002734197342
30
0.0
 70
     192
  0
VERTEX
  8
Group#2
10
13.00000000000006
20
152.05002734197083
30
0.0
 70
     192
  0
VERTEX
  8
Group#2
10
13.054518677938255
20
152.46413781413483
30
0.0
 70
     192
  0
VERTEX
  8
Group#2
10
13.214359353944973
20
152.85002734197082
30
0.0
 70
     192
  0
VERTEX
  8
Group#2
10
13.468629150101588
20
153.18139819187073
30
0.0
 70
     192
  0
VERTEX
  8
Group#2
10
13.800000000000104
20
153.43566798802487
30
0.0
 70
     192
  0
VERTEX
  8
Group#2
10
14.185889527836094
20
153.59550866403478
30
0.0
 70
     192
  0
VERTEX
  8
Group#2
10
14.600000000000103
20
153.65002734196943
30
0.0
 70
     192
  0
VERTEX
  8
Group#2
10
206.0999999999592
20
156.9000273419708
30
0.0
 70
     192
  0
VERTEX
  8
Group#2
10
15.014110472164203
20
153.5955086640333
30
0.0
 70
     192
  0
VERTEX
  8
Group#2
10
15.400000000000102
20
153.43566798802735
30
0.0
 70
     192
  0
VERTEX
  8
Group#2
10
15.731370849898617
20
153.18139819187
30
0.0
 70
     192
  0
VERTEX
  8
Group#2
10
15.985640646055232
20
152.85002734197226
30
0.0
 70
     192
  0
VERTEX
  8
Group#2
10
16.145481322063215
20
152.4641378141375
30
0.0
 70
     192
  0
VERTEX
  8
Group#2
10
16.200000000000056
20
152.05002734197228
30
0.0
 70
     192
  0
VERTEX
  8
Group#2
10
47.23740486324141
20
152.7500273419736
30
0.0
 70
     192
  0
VERTEX
  8
Group#2
10
16.200000000000824
20
140.05002734197225
30
0.0
 70
     192
  0
VERTEX
  8
Group#2
10
19.20000000000172
20
133.7000273419715
30
0.0
 70
     192
  0
VERTEX
  8
Group#2
10
35.08247714198267
20
142.58673402255576
30
0.0
 70
     192
  0
VERTEX
  8
Group#2
10
34.88578643762702
20
142.4142409043464
30
0.0
 70
     192
  0
VERTEX
  8
Group#2
10
34.71329331941766
20
142.21755019998898
30
0.0
 70
     192
  0
VERTEX
  8
Group#2
10
25.450000000000163
20
129.90011642238093
30
0.0
 70
     192
  0
VERTEX
  8
Group#2
10
19.200000000001765
20
36.099999999998715
30
0.0
 70
     192
  0
VERTEX
  8
Group#2
10
25.44999999999777
20
39.70011642237928
30
0.0
 70
     192
  0
VERTEX
  8
Group#2
10
25.449999999999758
20
59.90011642238131
30
0.0
 70
     192
  0
VERTEX
  8
Group#2
10
34.56794919243188
20
142.00002734197338
30
0.0
 70
     192
  0
VERTEX
  8
Group#2
10
34.452240934977475
20
141.76539420670014
30
0.0
 70
     192
  0
VERTEX
  8
Group#2
10
30.149999999999995
20
129.90011642237755
30
0.0
 70
     192
  0
VERTEX
  8
Group#2
10
34.36814834742191
20
141.51766543217832
30
0.0
 70
     192
  0
VERTEX
  8
Group#2
10
34.31711027725243
20
141.26107972641344
30
0.0
 70
     192
  0
VERTEX
  8
Group#2
10
30.150000000002343
20
109.70011642237746
30
0.0
 70
     192
  0
VERTEX
  8
Group#2
10
34.091199758562006
20
28.528291550072854
30
1.2166554502601733e-05
 70
     192
  0
VERTEX
  8
Group#2
10
35.30000000000075
20
142.73207814954225
30
0.0
 70
     192
  0
VERTEX
  8
Group#2
10
35.53463313526997
20
142.8477864069923
30
0.0
 70
     192
  0
VERTEX
  8
Group#2
10
35.78236190979505
20
142.93187899455154
30
0.0
 70
     192
  0
VERTEX
  8
Group#2
10
97.23740486325606
20
152.75002734197076
30
0.0
 70
     192
  0
VERTEX
  8
Group#2
10
147.23740486323126
20
152.75002734196977
30
0.0
 70
     192
  0
VERTEX
  8
Group#2
10
167.43740486323122
20
152.75002734196968
30
0.0
 70
     192
  0
VERTEX
  8
Group#2
10
194.78588952779523
20
153.44550866403546
30
0.0
 70
     192
  0
VERTEX
  8
Group#2
10
194.39999999995928
20
153.2856679880281
30
0.0
 70
     192
  0
VERTEX
  8
Group#2
10
194.06862915006076
20
153.0313981918693
30
0.0
 70
     192
  0
VERTEX
  8
Group#2
10
183.66105238439923
20
142.98291706471838
30
0.0
 70
     192
  0
VERTEX
  8
Group#2
10
183.91763809016416
20
142.9318789945497
30
0.0
 70
     192
  0
VERTEX
  8
Group#2
10
184.1653668646893
20
142.84778640699338
30
0.0
 70
     192
  0
VERTEX
  8
Group#2
10
184.3999999999601
20
142.73207814954125
30
0.0
 70
     192
  0
VERTEX
  8
Group#2
10
184.61752285797684
20
142.5867340225549
30
0.0
 70
     192
  0
VERTEX
  8
Group#2
10
184.81421356233236
20
142.4142409043455
30
0.0
 70
     192
  0
VERTEX
  8
Group#2
10
184.98670668054172
20
142.2175501999882
30
0.0
 70
     192
  0
VERTEX
  8
Group#2
10
185.13205080752823
20
142.00002734197236
30
0.0
 70
     192
  0
VERTEX
  8
Group#2
10
185.2477590649817
20
141.7653942066998
30
0.0
 70
     192
  0
VERTEX
  8
Group#2
10
193.81435935390417
20
152.7000273419708
30
0.0
 70
     192
  0
VERTEX
  8
Group#2
10
185.33185165253752
20
141.5176654321774
30
0.0
 70
     192
  0
VERTEX
  8
Group#2
10
185.382889722707
20
141.2610797264124
30
0.0
 70
     192
  0
VERTEX
  8
Group#2
10
189.40000000005733
20
145.35002734196183
30
2.427167165879318e-05
 70
     192
  0
VERTEX
  8
Group#2
10
189.40000000005733
20
32.849999999913415
30
2.427167165879318e-05
 70
     192
  0
VERTEX
  8
Group#2
10
193.65451867789682
20
152.31413781413482
30
0.0
 70
     192
  0
VERTEX
  8
Group#2
10
193.5999999999592
20
151.90002734197077
30
0.0
 70
     192
  0
VERTEX
  8
Group#2
10
195.1999999999593
20
153.50002734197298
30
0.0
 70
     192
  0
VERTEX
  8
Group#2
10
195.61411047212334
20
153.44550866403313
30
0.0
 70
     192
  0
VERTEX
  8
Group#2
10
195.99999999995927
20
153.28566798802808
30
0.0
 70
     192
  0
VERTEX
  8
Group#2
10
196.3313708498577
20
153.0313981918693
30
0.0
 70
     192
  0
VERTEX
  8
Group#2
10
196.58564064601424
20
152.7000273419708
30
0.0
 70
     192
  0
VERTEX
  8
Group#2
10
196.74548132202176
20
152.31413781413482
30
0.0
 70
     192
  0
VERTEX
  8
Group#2
10
196.7999999999592
20
151.90002734197083
30
0.0
 70
     192
  0
VERTEX
  8
Group#2
10
202.06862915006067
20
153.03139819187146
30
0.0
 70
     192
  0
VERTEX
  8
Group#2
10
201.81435935390414
20
152.7000273419708
30
0.0
 70
     192
  0
VERTEX
  8
Group#2
10
201.6545186778968
20
152.31413781413482
30
0.0
 70
     192
  0
VERTEX
  8
Group#2
10
198.43407417367038
20
132.95884638707204
30
0.0
 70
     192
  0
VERTEX
  8
Group#2
10
198.39999999995956
20
132.70002734196964
30
0.0
 70
     192
  0
VERTEX
  8
Group#2
10
198.39999999995956
20
37.09999999999962
30
0.0
 70
     192
  0
VERTEX
  8
Group#2
10
198.5339745961751
20
133.20002734197055
30
0.0
 70
     192
  0
VERTEX
  8
Group#2
10
198.6928932187729
20
133.40713412315628
30
0.0
 70
     192
  0
VERTEX
  8
Group#2
10
198.89999999995933
20
133.5660527457542
30
0.0
 70
     192
  0
VERTEX
  8
Group#2
10
199.14118095485705
20
133.6659531682597
30
0.0
 70
     192
  0
VERTEX
  8
Group#2
10
202.39999999995928
20
153.2856679880259
30
0.0
 70
     192
  0
VERTEX
  8
Group#2
10
202.7858895277952
20
153.44550866403546
30
0.0
 70
     192
  0
VERTEX
  8
Group#2
10
203.19999999995926
20
153.50002734197062
30
0.0
 70
     192
  0
VERTEX
  8
Group#2
10
203.6141104721233
20
153.4455086640333
30
0.0
 70
     192
  0
VERTEX
  8
Group#2
10
203.99999999995924
20
153.2856679880281
30
0.0
 70
     192
  0
VERTEX
  8
Group#2
10
204.33137084985768
20
153.0313981918693
30
0.0
 70
     192
  0
VERTEX
  8
Group#2
10
204.58564064601418
20
152.70002734197297
30
0.0
 70
     192
  0
VERTEX
  8
Group#2
10
204.74548132202173
20
152.31413781413698
30
0.0
 70
     192
  0
VERTEX
  8
Group#2
10
206.23052619217916
20
133.7085824805986
30
0.0
 70
     192
  0
VERTEX
  8
Group#2
10
206.23052619217907
20
156.89147220334615
30
0.0
 70
     192
  0
VERTEX
  8
Group#2
10
206.35881904506184
20
156.86595316825853
30
0.0
 70
     192
  0
VERTEX
  8
Group#2
10
206.35881904506167
20
133.7341015156804
30
0.0
 70
     192
  0
VERTEX
  8
Group#2
10
206.48268343232425
20
133.7761478094582
30
0.0
 70
     192
  0
VERTEX
  8
Group#2
10
206.48268343232425
20
156.82390687448077
30
0.0
 70
     192
  0
VERTEX
  8
Group#2
10
206.5999999999593
20
133.83400193818642
30
0.0
 70
     192
  0
VERTEX
  8
Group#2
10
206.59999999995918
20
156.76605274575792
30
0.0
 70
     192
  0
VERTEX
  8
Group#2
10
206.70876142896856
20
156.69338068226358
30
0.0
 70
     192
  0
VERTEX
  8
Group#2
10
206.70876142896802
20
133.9066740016812
30
0.0
 70
     192
  0
VERTEX
  8
Group#2
10
206.80710678114582
20
133.9929205607832
30
0.0
 70
     192
  0
VERTEX
  8
Group#2
10
206.80710678114636
20
156.60713412315727
30
0.0
 70
     192
  0
VERTEX
  8
Group#2
10
206.89335334025037
20
134.09126591296075
30
0.0
 70
     192
  0
VERTEX
  8
Group#2
10
206.89335334025108
20
156.5087887709782
30
0.0
 70
     192
  0
VERTEX
  8
Group#2
10
206.9660254037436
20
134.20002734196947
30
0.0
 70
     192
  0
VERTEX
  8
Group#2
10
206.9660254037436
20
156.4000273419695
30
0.0
 70
     192
  0
VERTEX
  8
Group#2
10
207.02387953247103
20
134.31734390960568
30
0.0
 70
     192
  0
VERTEX
  8
Group#2
10
207.02387953247037
20
156.2827107743359
30
0.0
 70
     192
  0
VERTEX
  8
Group#2
10
207.065925826248
20
156.15884638707487
30
0.0
 70
     192
  0
VERTEX
  8
Group#2
10
207.06592582624825
20
134.44120829686986
30
0.0
 70
     192
  0
VERTEX
  8
Group#2
10
207.09144486133303
20
156.03055353418952
30
0.0
 70
     192
  0
VERTEX
  8
Group#2
10
207.09144486133277
20
134.56950114974953
30
0.0
 70
     192
  0
VERTEX
  8
Group#2
10
207.09999999995918
20
134.7000273419735
30
0.0
 70
     192
  0
VERTEX
  8
Group#2
10
207.09999999995918
20
155.90002734197353
30
0.0
 70
     192
  0
VERTEX
  8
Group#2
10
193.80000000005725
20
145.3500273419719
30
2.427167165033328e-05
 70
     192
  0
VERTEX
  8
Group#2
10
193.6545186778967
20
151.48591686980677
30
0.0
 70
     192
  0
VERTEX
  8
Group#2
10
193.81435935390425
20
151.10002734197082
30
0.0
 70
     192
  0
VERTEX
  8
Group#2
10
194.06862915006067
20
19.031370849898416
30
0.0
 70
     192
  0
VERTEX
  8
Group#2
10
194.06862915006076
20
150.7686564920723
30
0.0
 70
     192
  0
VERTEX
  8
Group#2
10
194.3999999999591
20
19.28564064605505
30
0.0
 70
     192
  0
VERTEX
  8
Group#2
10
194.39999999995928
20
150.5143866959179
30
0.0
 70
     192
  0
VERTEX
  8
Group#2
10
194.78588952779523
20
19.445481322062445
30
0.0
 70
     192
  0
VERTEX
  8
Group#2
10
194.78588952779523
20
150.35454601991046
30
0.0
 70
     192
  0
VERTEX
  8
Group#2
10
195.1999999999591
20
19.499999999998746
30
0.0
 70
     192
  0
VERTEX
  8
Group#2
10
195.19999999995946
20
150.300027341973
30
0.0
 70
     192
  0
VERTEX
  8
Group#2
10
195.61411047212334
20
19.445481322062445
30
0.0
 70
     192
  0
VERTEX
  8
Group#2
10
195.61411047212334
20
150.3545460199081
30
0.0
 70
     192
  0
VERTEX
  8
Group#2
10
195.9999999999591
20
19.28564064605503
30
0.0
 70
     192
  0
VERTEX
  8
Group#2
10
195.99999999995927
20
150.51438669591786
30
0.0
 70
     192
  0
VERTEX
  8
Group#2
10
196.3313708498577
20
19.03137084989839
30
0.0
 70
     192
  0
VERTEX
  8
Group#2
10
196.33137084985762
20
150.76865649207235
30
0.0
 70
     192
  0
VERTEX
  8
Group#2
10
196.58564064601433
20
151.10002734197082
30
0.0
 70
     192
  0
VERTEX
  8
Group#2
10
196.5856406460145
20
18.69999999999992
30
0.0
 70
     192
  0
VERTEX
  8
Group#2
10
196.74548132202167
20
151.48591686980677
30
0.0
 70
     192
  0
VERTEX
  8
Group#2
10
196.74548132202176
20
18.314110472163954
30
0.0
 70
     192
  0
VERTEX
  8
Group#2
10
196.7999999999592
20
17.89999999999992
30
0.0
 70
     192
  0
VERTEX
  8
Group#2
10
189.40000000007882
20
136.95002734196186
30
2.4271671672893013e-05
 70
     192
  0
VERTEX
  8
Group#2
10
193.80000000005725
20
32.84999999992494
30
2.427167165033328e-05
 70
     192
  0
VERTEX
  8
Group#2
10
13.000000000000828
20
140.05002734197086
30
0.0
 70
     192
  0
VERTEX
  8
Group#2
10
13.054518677938255
20
151.63591686980678
30
0.0
 70
     192
  0
VERTEX
  8
Group#2
10
13.054518677937624
20
140.46413781413486
30
0.0
 70
     192
  0
VERTEX
  8
Group#2
10
13.21435935394565
20
140.85002734197084
30
0.0
 70
     192
  0
VERTEX
  8
Group#2
10
13.214359353944973
20
151.25002734197082
30
0.0
 70
     192
  0
VERTEX
  8
Group#2
10
13.468629150101632
20
150.9186564920738
30
0.0
 70
     192
  0
VERTEX
  8
Group#2
10
13.468629150101588
20
141.18139819187076
30
0.0
 70
     192
  0
VERTEX
  8
Group#2
10
13.80000000000015
20
141.43566798802485
30
0.0
 70
     192
  0
VERTEX
  8
Group#2
10
13.80000000000015
20
150.66438669591471
30
0.0
 70
     192
  0
VERTEX
  8
Group#2
10
14.185889527836725
20
141.5955086640348
30
0.0
 70
     192
  0
VERTEX
  8
Group#2
10
14.185889527836048
20
150.50454601990975
30
0.0
 70
     192
  0
VERTEX
  8
Group#2
10
14.600000000000149
20
150.45002734196947
30
0.0
 70
     192
  0
VERTEX
  8
Group#2
10
14.600000000000826
20
141.6500273419695
30
0.0
 70
     192
  0
VERTEX
  8
Group#2
10
15.014110472164157
20
150.5045460199083
30
0.0
 70
     192
  0
VERTEX
  8
Group#2
10
15.014110472164834
20
141.59550866403336
30
0.0
 70
     192
  0
VERTEX
  8
Group#2
10
15.400000000000146
20
150.6643866959172
30
0.0
 70
     192
  0
VERTEX
  8
Group#2
10
15.400000000000102
20
141.43566798802738
30
0.0
 70
     192
  0
VERTEX
  8
Group#2
10
15.731370849898617
20
141.18139819187
30
0.0
 70
     192
  0
VERTEX
  8
Group#2
10
15.731370849898664
20
150.91865649207304
30
0.0
 70
     192
  0
VERTEX
  8
Group#2
10
15.98564064605591
20
140.85002734197224
30
0.0
 70
     192
  0
VERTEX
  8
Group#2
10
15.985640646055232
20
151.25002734197227
30
0.0
 70
     192
  0
VERTEX
  8
Group#2
10
16.145481322063215
20
151.6359168698094
30
0.0
 70
     192
  0
VERTEX
  8
Group#2
10
16.145481322062583
20
140.46413781413517
30
0.0
 70
     192
  0
VERTEX
  8
Group#2
10
13.000000000000242
20
17.749999999999932
30
0.0
 70
     192
  0
VERTEX
  8
Group#2
10
13.054518677937669
20
29.335889527835608
30
0.0
 70
     192
  0
VERTEX
  8
Group#2
10
13.000000000000107
20
29.74999999999991
30
0.0
 70
     192
  0
VERTEX
  8
Group#2
10
13.054518677937669
20
18.16411047216367
30
0.0
 70
     192
  0
VERTEX
  8
Group#2
10
13.214359353944973
20
18.54999999999955
30
0.0
 70
     192
  0
VERTEX
  8
Group#2
10
13.214359353945019
20
28.949999999999505
30
0.0
 70
     192
  0
VERTEX
  8
Group#2
10
13.468629150101632
20
18.881370849898335
30
0.0
 70
     192
  0
VERTEX
  8
Group#2
10
13.468629150101679
20
28.618629150101373
30
0.0
 70
     192
  0
VERTEX
  8
Group#2
10
13.800000000000194
20
19.135640646054792
30
0.0
 70
     192
  0
VERTEX
  8
Group#2
10
13.800000000000827
20
28.3643593539446
30
0.0
 70
     192
  0
VERTEX
  8
Group#2
10
14.185889527836771
20
19.29548132206099
30
0.0
 70
     192
  0
VERTEX
  8
Group#2
10
14.185889527836004
20
28.204518677936033
30
0.0
 70
     192
  0
VERTEX
  8
Group#2
10
14.600000000000149
20
28.14999999999978
30
0.0
 70
     192
  0
VERTEX
  8
Group#2
10
14.600000000000149
20
19.349999999999707
30
0.0
 70
     192
  0
VERTEX
  8
Group#2
10
15.01411047216488
20
19.29548132206255
30
0.0
 70
     192
  0
VERTEX
  8
Group#2
10
15.014110472164113
20
28.20451867793748
30
0.0
 70
     192
  0
VERTEX
  8
Group#2
10
15.400000000000823
20
28.364359353944668
30
0.0
 70
     192
  0
VERTEX
  8
Group#2
10
15.400000000000192
20
19.13564064605486
30
0.0
 70
     192
  0
VERTEX
  8
Group#2
10
15.731370849898664
20
18.881370849898133
30
0.0
 70
     192
  0
VERTEX
  8
Group#2
10
15.731370849898708
20
28.61862915010115
30
0.0
 70
     192
  0
VERTEX
  8
Group#2
10
15.985640646055232
20
18.549999999999866
30
0.0
 70
     192
  0
VERTEX
  8
Group#2
10
15.985640646055279
20
28.949999999999847
30
0.0
 70
     192
  0
VERTEX
  8
Group#2
10
16.145481322062626
20
18.164110472163966
30
0.0
 70
     192
  0
VERTEX
  8
Group#2
10
16.145481322062626
20
29.335889527835835
30
0.0
 70
     192
  0
VERTEX
  8
Group#2
10
16.200000000000234
20
17.749999999999865
30
0.0
 70
     192
  0
VERTEX
  8
Group#2
10
16.2000000000001
20
29.749999999999844
30
0.0
 70
     192
  0
VERTEX
  8
Group#2
10
13.054518677937669
20
139.6359168698068
30
0.0
 70
     192
  0
VERTEX
  8
Group#2
10
13.214359353945605
20
139.25002734197085
30
0.0
 70
     192
  0
VERTEX
  8
Group#2
10
13.468629150101544
20
138.91865649207384
30
0.0
 70
     192
  0
VERTEX
  8
Group#2
10
13.80000000000006
20
138.6643866959147
30
0.0
 70
     192
  0
VERTEX
  8
Group#2
10
14.185889527836048
20
138.50454601990978
30
0.0
 70
     192
  0
VERTEX
  8
Group#2
10
14.600000000000058
20
138.4500273419695
30
0.0
 70
     192
  0
VERTEX
  8
Group#2
10
15.014110472164157
20
138.50454601990833
30
0.0
 70
     192
  0
VERTEX
  8
Group#2
10
15.400000000000057
20
138.66438669591722
30
0.0
 70
     192
  0
VERTEX
  8
Group#2
10
15.731370849898573
20
138.91865649207307
30
0.0
 70
     192
  0
VERTEX
  8
Group#2
10
15.985640646055865
20
139.25002734197224
30
0.0
 70
     192
  0
VERTEX
  8
Group#2
10
16.145481322062626
20
139.63591686980706
30
0.0
 70
     192
  0
VERTEX
  8
Group#2
10
25.450000000002508
20
109.70011642238116
30
0.0
 70
     192
  0
VERTEX
  8
Group#2
10
30.14999999999959
20
59.900116422377856
30
0.0
 70
     192
  0
VERTEX
  8
Group#2
10
12.10000000000031
20
36.10000000000007
30
0.0
 70
     192
  0
VERTEX
  8
Group#2
10
13.468629150102265
20
30.881370849898403
30
0.0
 70
     192
  0
VERTEX
  8
Group#2
10
13.214359353945019
20
30.549999999999503
30
0.0
 70
     192
  0
VERTEX
  8
Group#2
10
13.054518677937669
20
30.164110472163628
30
0.0
 70
     192
  0
VERTEX
  8
Group#2
10
13.80000000000024
20
31.13564064605477
30
0.0
 70
     192
  0
VERTEX
  8
Group#2
10
14.185889527836139
20
31.295481322061082
30
0.0
 70
     192
  0
VERTEX
  8
Group#2
10
14.600000000000238
20
31.349999999999774
30
0.0
 70
     192
  0
VERTEX
  8
Group#2
10
15.014110472164248
20
31.295481322062525
30
0.0
 70
     192
  0
VERTEX
  8
Group#2
10
15.400000000000237
20
31.135640646054927
30
0.0
 70
     192
  0
VERTEX
  8
Group#2
10
15.731370849899294
20
30.881370849898087
30
0.0
 70
     192
  0
VERTEX
  8
Group#2
10
15.985640646055279
20
30.54999999999984
30
0.0
 70
     192
  0
VERTEX
  8
Group#2
10
16.145481322062626
20
30.164110472163944
30
0.0
 70
     192
  0
VERTEX
  8
Group#2
10
11.108555138626308
20
13.769473807779724
30
0.0
 70
     192
  0
VERTEX
  8
Group#2
10
11.100000000000087
20
35.09999999999971
30
0.0
 70
     192
  0
VERTEX
  8
Group#2
10
11.100000000000087
20
13.899999999999952
30
0.0
 70
     192
  0
VERTEX
  8
Group#2
10
11.108555138626354
20
35.23052619221944
30
0.0
 70
     192
  0
VERTEX
  8
Group#2
10
11.134074173711047
20
13.641180954895725
30
0.0
 70
     192
  0
VERTEX
  8
Group#2
10
11.134074173711001
20
35.35881904510055
30
0.0
 70
     192
  0
VERTEX
  8
Group#2
10
11.176120467488829
20
35.482683432364894
30
0.0
 70
     192
  0
VERTEX
  8
Group#2
10
11.176120467489506
20
13.51731656763481
30
0.0
 70
     192
  0
VERTEX
  8
Group#2
10
11.233974596216374
20
35.599999999999554
30
0.0
 70
     192
  0
VERTEX
  8
Group#2
10
11.233974596216374
20
13.39999999999966
30
0.0
 70
     192
  0
VERTEX
  8
Group#2
10
11.3066466597089
20
13.291238570990934
30
0.0
 70
     192
  0
VERTEX
  8
Group#2
10
11.306646659709621
20
35.70876142900837
30
0.0
 70
     192
  0
VERTEX
  8
Group#2
10
11.392893218813535
20
13.192893218811554
30
0.0
 70
     192
  0
VERTEX
  8
Group#2
10
11.39289321881367
20
35.80710678118459
30
0.0
 70
     192
  0
VERTEX
  8
Group#2
10
11.49123857099003
20
13.10664665970694
30
0.0
 70
     192
  0
VERTEX
  8
Group#2
10
11.491238570991428
20
35.89335334028943
30
0.0
 70
     192
  0
VERTEX
  8
Group#2
10
11.600000000000108
20
13.033974596215586
30
0.0
 70
     192
  0
VERTEX
  8
Group#2
10
11.600000000000154
20
35.96602540378439
30
0.0
 70
     192
  0
VERTEX
  8
Group#2
10
11.717316567635011
20
12.976120467488425
30
0.0
 70
     192
  0
VERTEX
  8
Group#2
10
11.717316567635146
20
36.02387953251097
30
0.0
 70
     192
  0
VERTEX
  8
Group#2
10
11.841180954897595
20
12.934074173710599
30
0.0
 70
     192
  0
VERTEX
  8
Group#2
10
11.841180954897776
20
36.06592582628879
30
0.0
 70
     192
  0
VERTEX
  8
Group#2
10
11.969473807780105
20
12.908555138626175
30
0.0
 70
     192
  0
VERTEX
  8
Group#2
10
11.96947380778024
20
36.091444861373844
30
0.0
 70
     192
  0
VERTEX
  8
Group#2
10
12.10000000000013
20
12.900000000000022
30
0.0
 70
     192
  0
VERTEX
  8
Group#2
10
13.054518677937669
20
17.335889527835654
30
0.0
 70
     192
  0
VERTEX
  8
Group#2
10
13.214359353945019
20
16.94999999999955
30
0.0
 70
     192
  0
VERTEX
  8
Group#2
10
13.468629150101632
20
16.618629150101395
30
0.0
 70
     192
  0
VERTEX
  8
Group#2
10
13.800000000000104
20
16.364359353944625
30
0.0
 70
     192
  0
VERTEX
  8
Group#2
10
14.185889527836094
20
16.204518677935944
30
0.0
 70
     192
  0
VERTEX
  8
Group#2
10
14.600000000000103
20
16.14999999999971
30
0.0
 70
     192
  0
VERTEX
  8
Group#2
10
206.0999999999592
20
12.900000000000201
30
0.0
 70
     192
  0
VERTEX
  8
Group#2
10
15.014110472164203
20
16.2045186779375
30
0.0
 70
     192
  0
VERTEX
  8
Group#2
10
15.400000000000102
20
16.364359353944693
30
0.0
 70
     192
  0
VERTEX
  8
Group#2
10
15.731370849898664
20
16.618629150101192
30
0.0
 70
     192
  0
VERTEX
  8
Group#2
10
15.985640646055279
20
16.949999999999868
30
0.0
 70
     192
  0
VERTEX
  8
Group#2
10
16.145481322062583
20
17.335889527835857
30
0.0
 70
     192
  0
VERTEX
  8
Group#2
10
34.8565666232921
20
27.202637253931123
30
1.2166554502601733e-05
 70
     192
  0
VERTEX
  8
Group#2
10
34.65987591893699
20
27.37513037214053
30
1.2166554502601733e-05
 70
     192
  0
VERTEX
  8
Group#2
10
34.487382800726955
20
27.571821076496313
30
1.2166554502601733e-05
 70
     192
  0
VERTEX
  8
Group#2
10
34.34203867374064
20
27.789343934513585
30
1.2166554502601733e-05
 70
     192
  0
VERTEX
  8
Group#2
10
34.22633041628705
20
28.023977069783367
30
1.2166554502601733e-05
 70
     192
  0
VERTEX
  8
Group#2
10
30.149999999997604
20
39.7001164223779
30
0.0
 70
     192
  0
VERTEX
  8
Group#2
10
34.14223782873144
20
28.27170584430865
30
1.2166554502601733e-05
 70
     192
  0
VERTEX
  8
Group#2
10
35.07408948130955
20
27.057293126943676
30
1.2166554502601733e-05
 70
     192
  0
VERTEX
  8
Group#2
10
35.30872261657936
20
26.94158486949091
30
1.2166554502601733e-05
 70
     192
  0
VERTEX
  8
Group#2
10
35.556451391104346
20
26.857492281934423
30
1.2166554502601733e-05
 70
     192
  0
VERTEX
  8
Group#2
10
67.43740486323131
20
17.05000000000016
30
0.0
 70
     192
  0
VERTEX
  8
Group#2
10
147.23740486323138
20
17.049999999999642
30
0.0
 70
     192
  0
VERTEX
  8
Group#2
10
194.78588952779504
20
16.35451867793742
30
0.0
 70
     192
  0
VERTEX
  8
Group#2
10
194.39999999995928
20
16.514359353944837
30
0.0
 70
     192
  0
VERTEX
  8
Group#2
10
194.06862915006067
20
16.768629150101475
30
0.0
 70
     192
  0
VERTEX
  8
Group#2
10
183.4351418657086
20
26.80645421176614
30
1.2166554502601733e-05
 70
     192
  0
VERTEX
  8
Group#2
10
183.69172757147362
20
26.85749228193519
30
1.2166554502601733e-05
 70
     192
  0
VERTEX
  8
Group#2
10
183.93945634599896
20
26.941584869490054
30
1.2166554502601733e-05
 70
     192
  0
VERTEX
  8
Group#2
10
184.1740894812686
20
27.057293126944398
30
1.2166554502601733e-05
 70
     192
  0
VERTEX
  8
Group#2
10
184.39161233928687
20
27.202637253930444
30
1.2166554502601733e-05
 70
     192
  0
VERTEX
  8
Group#2
10
184.58830304364173
20
27.375130372140166
30
1.2166554502601733e-05
 70
     192
  0
VERTEX
  8
Group#2
10
184.7607961618512
20
27.571821076496246
30
1.2166554502601733e-05
 70
     192
  0
VERTEX
  8
Group#2
10
184.90614028883752
20
27.78934393451331
30
1.2166554502601733e-05
 70
     192
  0
VERTEX
  8
Group#2
10
185.0218485462919
20
28.02397706978314
30
1.2166554502601733e-05
 70
     192
  0
VERTEX
  8
Group#2
10
185.10594113384673
20
28.27170584430829
30
1.2166554502601733e-05
 70
     192
  0
VERTEX
  8
Group#2
10
193.81435935390417
20
17.099999999999945
30
0.0
 70
     192
  0
VERTEX
  8
Group#2
10
185.1569792040161
20
28.528291550073238
30
1.2166554502601733e-05
 70
     192
  0
VERTEX
  8
Group#2
10
193.65451867789682
20
17.485889527835912
30
0.0
 70
     192
  0
VERTEX
  8
Group#2
10
195.1999999999593
20
16.29999999999875
30
0.0
 70
     192
  0
VERTEX
  8
Group#2
10
195.61411047212314
20
16.35451867793742
30
0.0
 70
     192
  0
VERTEX
  8
Group#2
10
195.99999999995927
20
16.514359353944815
30
0.0
 70
     192
  0
VERTEX
  8
Group#2
10
196.3313708498577
20
16.768629150101454
30
0.0
 70
     192
  0
VERTEX
  8
Group#2
10
196.5856406460144
20
17.099999999999923
30
0.0
 70
     192
  0
VERTEX
  8
Group#2
10
196.74548132202193
20
17.48588952783589
30
0.0
 70
     192
  0
VERTEX
  8
Group#2
10
202.06862915006067
20
16.768629150101454
30
0.0
 70
     192
  0
VERTEX
  8
Group#2
10
201.81435935390414
20
17.099999999999945
30
0.0
 70
     192
  0
VERTEX
  8
Group#2
10
201.6545186778968
20
17.485889527835912
30
0.0
 70
     192
  0
VERTEX
  8
Group#2
10
198.43407417367047
20
36.841180954897105
30
0.0
 70
     192
  0
VERTEX
  8
Group#2
10
198.5339745961751
20
36.59999999999964
30
0.0
 70
     192
  0
VERTEX
  8
Group#2
10
198.6928932187729
20
36.392893218813114
30
0.0
 70
     192
  0
VERTEX
  8
Group#2
10
198.89999999995945
20
36.233974596215226
30
0.0
 70
     192
  0
VERTEX
  8
Group#2
10
199.14118095485705
20
36.13407417371062
30
0.0
 70
     192
  0
VERTEX
  8
Group#2
10
201.59999999995918
20
17.899999999999945
30
0.0
 70
     192
  0
VERTEX
  8
Group#2
10
199.3999999999595
20
36.09999999999971
30
0.0
 70
     192
  0
VERTEX
  8
Group#2
10
202.39999999995928
20
16.514359353944837
30
0.0
 70
     192
  0
VERTEX
  8
Group#2
10
202.7858895277952
20
16.35451867793733
30
0.0
 70
     192
  0
VERTEX
  8
Group#2
10
203.19999999995926
20
16.299999999999947
30
0.0
 70
     192
  0
VERTEX
  8
Group#2
10
203.61411047212312
20
16.354518677936248
30
0.0
 70
     192
  0
VERTEX
  8
Group#2
10
203.99999999995924
20
16.51435935394486
30
0.0
 70
     192
  0
VERTEX
  8
Group#2
10
204.33137084985768
20
16.768629150101475
30
0.0
 70
     192
  0
VERTEX
  8
Group#2
10
204.58564064601438
20
17.099999999999945
30
0.0
 70
     192
  0
VERTEX
  8
Group#2
10
204.7454813220219
20
17.485889527835912
30
0.0
 70
     192
  0
VERTEX
  8
Group#2
10
204.79999999995914
20
17.899999999999945
30
0.0
 70
     192
  0
VERTEX
  8
Group#2
10
201.65451867789662
20
18.314110472163975
30
0.0
 70
     192
  0
VERTEX
  8
Group#2
10
206.0999999999592
20
36.100000000000115
30
0.0
 70
     192
  0
VERTEX
  8
Group#2
10
201.81435935390422
20
18.699999999999942
30
0.0
 70
     192
  0
VERTEX
  8
Group#2
10
202.06862915006067
20
19.031370849898416
30
0.0
 70
     192
  0
VERTEX
  8
Group#2
10
202.39999999995908
20
19.28564064605503
30
0.0
 70
     192
  0
VERTEX
  8
Group#2
10
202.7858895277952
20
19.445481322062356
30
0.0
 70
     192
  0
VERTEX
  8
Group#2
10
203.1999999999591
20
19.499999999999943
30
0.0
 70
     192
  0
VERTEX
  8
Group#2
10
203.6141104721233
20
19.445481322061273
30
0.0
 70
     192
  0
VERTEX
  8
Group#2
10
203.99999999995907
20
19.28564064605505
30
0.0
 70
     192
  0
VERTEX
  8
Group#2
10
204.33137084985768
20
19.031370849898437
30
0.0
 70
     192
  0
VERTEX
  8
Group#2
10
204.58564064601447
20
18.699999999999942
30
0.0
 70
     192
  0
VERTEX
  8
Group#2
10
204.74548132202173
20
18.314110472163975
30
0.0
 70
     192
  0
VERTEX
  8
Group#2
10
206.23052619217907
20
12.908555138625566
30
0.0
 70
     192
  0
VERTEX
  8
Group#2
10
206.23052619217907
20
36.09144486137315
30
0.0
 70
     192
  0
VERTEX
  8
Group#2
10
206.35881904506167
20
12.934074173710576
30
0.0
 70
     192
  0
VERTEX
  8
Group#2
10
206.35881904506167
20
36.065925826288684
30
0.0
 70
     192
  0
VERTEX
  8
Group#2
10
206.48268343232425
20
12.976120467488357
30
0.0
 70
     192
  0
VERTEX
  8
Group#2
10
206.48268343232408
20
36.0238795325109
30
0.0
 70
     192
  0
VERTEX
  8
Group#2
10
206.5999999999593
20
35.9660254037841
30
0.0
 70
     192
  0
VERTEX
  8
Group#2
10
206.5999999999591
20
13.0339745962157
30
0.0
 70
     192
  0
VERTEX
  8
Group#2
10
206.70876142896782
20
13.106646659708407
30
0.0
 70
     192
  0
VERTEX
  8
Group#2
10
206.70876142896782
20
35.89335334029085
30
0.0
 70
     192
  0
VERTEX
  8
Group#2
10
206.80710678114582
20
13.192893218813605
30
0.0
 70
     192
  0
VERTEX
  8
Group#2
10
206.80710678114582
20
35.80710678118664
30
0.0
 70
     192
  0
VERTEX
  8
Group#2
10
206.89335334025054
20
13.291238570990911
30
0.0
 70
     192
  0
VERTEX
  8
Group#2
10
206.89335334025108
20
35.70876142900835
30
0.0
 70
     192
  0
VERTEX
  8
Group#2
10
206.96602540374434
20
13.399999999999636
30
0.0
 70
     192
  0
VERTEX
  8
Group#2
10
206.96602540374434
20
35.59999999999962
30
0.0
 70
     192
  0
VERTEX
  8
Group#2
10
207.0238795324711
20
13.517316567634946
30
0.0
 70
     192
  0
VERTEX
  8
Group#2
10
207.02387953247037
20
35.48268343236512
30
0.0
 70
     192
  0
VERTEX
  8
Group#2
10
207.06592582624808
20
35.35881904510215
30
0.0
 70
     192
  0
VERTEX
  8
Group#2
10
207.06592582624825
20
13.641180954897102
30
0.0
 70
     192
  0
VERTEX
  8
Group#2
10
207.09144486133295
20
35.23052619221971
30
0.0
 70
     192
  0
VERTEX
  8
Group#2
10
207.09144486133286
20
13.769473807779542
30
0.0
 70
     192
  0
VERTEX
  8
Group#2
10
207.09999999995918
20
13.900000000000087
30
0.0
 70
     192
  0
VERTEX
  8
Group#2
10
207.09999999995918
20
35.09999999999971
30
0.0
 70
     192
  0
VERTEX
  8
Group#2
10
0.0
 20
 0.0
 30
0.0
 70
     128
 71
-1
 72
-2
 73
3
  0
VERTEX
  8
Group#2
10
0.0
 20
 0.0
 30
0.0
 70
     128
 71
-2
 72
-1
 73
4
  0
VERTEX
  8
Group#2
10
0.0
 20
 0.0
 30
0.0
 70
     128
 71
-4
 72
-1
 73
-5
  0
VERTEX
  8
Group#2
10
0.0
 20
 0.0
 30
0.0
 70
     128
 71
-4
 72
-5
 73
6
  0
VERTEX
  8
Group#2
10
0.0
 20
 0.0
 30
0.0
 70
     128
 71
-5
 72
-1
 73
7
  0
VERTEX
  8
Group#2
10
0.0
 20
 0.0
 30
0.0
 70
     128
 71
-7
 72
-1
 73
-8
  0
VERTEX
  8
Group#2
10
0.0
 20
 0.0
 30
0.0
 70
     128
 71
-7
 72
-8
 73
9
  0
VERTEX
  8
Group#2
10
0.0
 20
 0.0
 30
0.0
 70
     128
 71
-8
 72
-1
 73
10
  0
VERTEX
  8
Group#2
10
0.0
 20
 0.0
 30
0.0
 70
     128
 71
-11
 72
-12
 73
13
  0
VERTEX
  8
Group#2
10
0.0
 20
 0.0
 30
0.0
 70
     128
 71
-12
 72
-11
 73
14
  0
VERTEX
  8
Group#2
10
0.0
 20
 0.0
 30
0.0
 70
     128
 71
-13
 72
12
 73
-15
  0
VERTEX
  8
Group#2
10
0.0
 20
 0.0
 30
0.0
 70
     128
 71
-13
 72
-15
 73
-16
  0
VERTEX
  8
Group#2
10
0.0
 20
 0.0
 30
0.0
 70
     128
 71
-16
 72
-15
 73
17
  0
VERTEX
  8
Group#2
10
0.0
 20
 0.0
 30
0.0
 70
     128
 71
-13
 72
16
 73
-18
  0
VERTEX
  8
Group#2
10
0.0
 20
 0.0
 30
0.0
 70
     128
 71
-13
 72
-18
 73
-19
  0
VERTEX
  8
Group#2
10
0.0
 20
 0.0
 30
0.0
 70
     128
 71
-19
 72
18
 73
-20
  0
VERTEX
  8
Group#2
10
0.0
 20
 0.0
 30
0.0
 70
     128
 71
-13
 72
19
 73
-21
  0
VERTEX
  8
Group#2
10
0.0
 20
 0.0
 30
0.0
 70
     128
 71
-13
 72
21
 73
-22
  0
VERTEX
  8
Group#2
10
0.0
 20
 0.0
 30
0.0
 70
     128
 71
-23
 72
24
 73
-25
  0
VERTEX
  8
Group#2
10
0.0
 20
 0.0
 30
0.0
 70
     128
 71
-24
 72
23
 73
-26
  0
VERTEX
  8
Group#2
10
0.0
 20
 0.0
 30
0.0
 70
     128
 71
-24
 72
26
 73
-27
  0
VERTEX
  8
Group#2
10
0.0
 20
 0.0
 30
0.0
 70
     128
 71
-24
 72
-27
 73
-28
  0
VERTEX
  8
Group#2
10
0.0
 20
 0.0
 30
0.0
 70
     128
 71
-29
 72
30
 73
-31
  0
VERTEX
  8
Group#2
10
0.0
 20
 0.0
 30
0.0
 70
     128
 71
-30
 72
29
 73
-32
  0
VERTEX
  8
Group#2
10
0.0
 20
 0.0
 30
0.0
 70
     128
 71
-30
 72
-32
 73
33
  0
VERTEX
  8
Group#2
10
0.0
 20
 0.0
 30
0.0
 70
     128
 71
-33
 72
-32
 73
34
  0
VERTEX
  8
Group#2
10
0.0
 20
 0.0
 30
0.0
 70
     128
 71
-34
 72
-32
 73
35
  0
VERTEX
  8
Group#2
10
0.0
 20
 0.0
 30
0.0
 70
     128
 71
-35
 72
-32
 73
36
  0
VERTEX
  8
Group#2
10
0.0
 20
 0.0
 30
0.0
 70
     128
 71
-36
 72
-32
 73
37
  0
VERTEX
  8
Group#2
10
0.0
 20
 0.0
 30
0.0
 70
     128
 71
-37
 72
-32
 73
38
  0
VERTEX
  8
Group#2
10
0.0
 20
 0.0
 30
0.0
 70
     128
 71
-38
 72
-32
 73
39
  0
VERTEX
  8
Group#2
10
0.0
 20
 0.0
 30
0.0
 70
     128
 71
-39
 72
-32
 73
40
  0
VERTEX
  8
Group#2
10
0.0
 20
 0.0
 30
0.0
 70
     128
 71
-40
 72
-32
 73
41
  0
VERTEX
  8
Group#2
10
0.0
 20
 0.0
 30
0.0
 70
     128
 71
-41
 72
-32
 73
42
  0
VERTEX
  8
Group#2
10
0.0
 20
 0.0
 30
0.0
 70
     128
 71
-42
 72
-32
 73
43
  0
VERTEX
  8
Group#2
10
0.0
 20
 0.0
 30
0.0
 70
     128
 71
-44
 72
45
 73
46
  0
VERTEX
  8
Group#2
10
0.0
 20
 0.0
 30
0.0
 70
     128
 71
-45
 72
-44
 73
47
  0
VERTEX
  8
Group#2
10
0.0
 20
 0.0
 30
0.0
 70
     128
 71
-47
 72
-44
 73
48
  0
VERTEX
  8
Group#2
10
0.0
 20
 0.0
 30
0.0
 70
     128
 71
-48
 72
44
 73
-49
  0
VERTEX
  8
Group#2
10
0.0
 20
 0.0
 30
0.0
 70
     128
 71
-48
 72
-49
 73
50
  0
VERTEX
  8
Group#2
10
0.0
 20
 0.0
 30
0.0
 70
     128
 71
-50
 72
49
 73
-51
  0
VERTEX
  8
Group#2
10
0.0
 20
 0.0
 30
0.0
 70
     128
 71
-50
 72
-51
 73
52
  0
VERTEX
  8
Group#2
10
0.0
 20
 0.0
 30
0.0
 70
     128
 71
-52
 72
51
 73
-53
  0
VERTEX
  8
Group#2
10
0.0
 20
 0.0
 30
0.0
 70
     128
 71
-52
 72
53
 73
-54
  0
VERTEX
  8
Group#2
10
0.0
 20
 0.0
 30
0.0
 70
     128
 71
-52
 72
-54
 73
55
  0
VERTEX
  8
Group#2
10
0.0
 20
 0.0
 30
0.0
 70
     128
 71
-55
 72
54
 73
-56
  0
VERTEX
  8
Group#2
10
0.0
 20
 0.0
 30
0.0
 70
     128
 71
-55
 72
-56
 73
57
  0
VERTEX
  8
Group#2
10
0.0
 20
 0.0
 30
0.0
 70
     128
 71
-57
 72
56
 73
-58
  0
VERTEX
  8
Group#2
10
0.0
 20
 0.0
 30
0.0
 70
     128
 71
-57
 72
-58
 73
59
  0
VERTEX
  8
Group#2
10
0.0
 20
 0.0
 30
0.0
 70
     128
 71
-59
 72
58
 73
-60
  0
VERTEX
  8
Group#2
10
0.0
 20
 0.0
 30
0.0
 70
     128
 71
-59
 72
-60
 73
61
  0
VERTEX
  8
Group#2
10
0.0
 20
 0.0
 30
0.0
 70
     128
 71
-61
 72
-60
 73
62
  0
VERTEX
  8
Group#2
10
0.0
 20
 0.0
 30
0.0
 70
     128
 71
-62
 72
60
 73
-63
  0
VERTEX
  8
Group#2
10
0.0
 20
 0.0
 30
0.0
 70
     128
 71
-62
 72
63
 73
-64
  0
VERTEX
  8
Group#2
10
0.0
 20
 0.0
 30
0.0
 70
     128
 71
-62
 72
-64
 73
65
  0
VERTEX
  8
Group#2
10
0.0
 20
 0.0
 30
0.0
 70
     128
 71
-65
 72
-64
 73
66
  0
VERTEX
  8
Group#2
10
0.0
 20
 0.0
 30
0.0
 70
     128
 71
-66
 72
64
 73
-67
  0
VERTEX
  8
Group#2
10
0.0
 20
 0.0
 30
0.0
 70
     128
 71
-66
 72
-67
 73
68
  0
VERTEX
  8
Group#2
10
0.0
 20
 0.0
 30
0.0
 70
     128
 71
-68
 72
67
 73
-69
  0
VERTEX
  8
Group#2
10
0.0
 20
 0.0
 30
0.0
 70
     128
 71
-68
 72
-69
 73
-70
  0
VERTEX
  8
Group#2
10
0.0
 20
 0.0
 30
0.0
 70
     128
 71
-68
 72
70
 73
-71
  0
VERTEX
  8
Group#2
10
0.0
 20
 0.0
 30
0.0
 70
     128
 71
-68
 72
71
 73
-72
  0
VERTEX
  8
Group#2
10
0.0
 20
 0.0
 30
0.0
 70
     128
 71
-68
 72
72
 73
-73
  0
VERTEX
  8
Group#2
10
0.0
 20
 0.0
 30
0.0
 70
     128
 71
-68
 72
73
 73
-74
  0
VERTEX
  8
Group#2
10
0.0
 20
 0.0
 30
0.0
 70
     128
 71
-68
 72
74
 73
-75
  0
VERTEX
  8
Group#2
10
0.0
 20
 0.0
 30
0.0
 70
     128
 71
-68
 72
75
 73
-76
  0
VERTEX
  8
Group#2
10
0.0
 20
 0.0
 30
0.0
 70
     128
 71
-68
 72
-76
 73
77
  0
VERTEX
  8
Group#2
10
0.0
 20
 0.0
 30
0.0
 70
     128
 71
-77
 72
76
 73
-78
  0
VERTEX
  8
Group#2
10
0.0
 20
 0.0
 30
0.0
 70
     128
 71
-77
 72
78
 73
-79
  0
VERTEX
  8
Group#2
10
0.0
 20
 0.0
 30
0.0
 70
     128
 71
-77
 72
79
 73
-80
  0
VERTEX
  8
Group#2
10
0.0
 20
 0.0
 30
0.0
 70
     128
 71
-77
 72
80
 73
-81
  0
VERTEX
  8
Group#2
10
0.0
 20
 0.0
 30
0.0
 70
     128
 71
-77
 72
81
 73
-82
  0
VERTEX
  8
Group#2
10
0.0
 20
 0.0
 30
0.0
 70
     128
 71
-77
 72
82
 73
-83
  0
VERTEX
  8
Group#2
10
0.0
 20
 0.0
 30
0.0
 70
     128
 71
-77
 72
-83
 73
-84
  0
VERTEX
  8
Group#2
10
0.0
 20
 0.0
 30
0.0
 70
     128
 71
-84
 72
-83
 73
-85
  0
VERTEX
  8
Group#2
10
0.0
 20
 0.0
 30
0.0
 70
     128
 71
-84
 72
-85
 73
-86
  0
VERTEX
  8
Group#2
10
0.0
 20
 0.0
 30
0.0
 70
     128
 71
-84
 72
-86
 73
-87
  0
VERTEX
  8
Group#2
10
0.0
 20
 0.0
 30
0.0
 70
     128
 71
-87
 72
-86
 73
88
  0
VERTEX
  8
Group#2
10
0.0
 20
 0.0
 30
0.0
 70
     128
 71
-88
 72
-86
 73
89
  0
VERTEX
  8
Group#2
10
0.0
 20
 0.0
 30
0.0
 70
     128
 71
-89
 72
-86
 73
-90
  0
VERTEX
  8
Group#2
10
0.0
 20
 0.0
 30
0.0
 70
     128
 71
-90
 72
86
 73
-91
  0
VERTEX
  8
Group#2
10
0.0
 20
 0.0
 30
0.0
 70
     128
 71
-90
 72
-91
 73
-92
  0
VERTEX
  8
Group#2
10
0.0
 20
 0.0
 30
0.0
 70
     128
 71
-90
 72
92
 73
-93
  0
VERTEX
  8
Group#2
10
0.0
 20
 0.0
 30
0.0
 70
     128
 71
-89
 72
-90
 73
94
  0
VERTEX
  8
Group#2
10
0.0
 20
 0.0
 30
0.0
 70
     128
 71
-94
 72
-90
 73
95
  0
VERTEX
  8
Group#2
10
0.0
 20
 0.0
 30
0.0
 70
     128
 71
-95
 72
90
 73
-96
  0
VERTEX
  8
Group#2
10
0.0
 20
 0.0
 30
0.0
 70
     128
 71
-95
 72
-96
 73
97
  0
VERTEX
  8
Group#2
10
0.0
 20
 0.0
 30
0.0
 70
     128
 71
-97
 72
-96
 73
98
  0
VERTEX
  8
Group#2
10
0.0
 20
 0.0
 30
0.0
 70
     128
 71
-98
 72
96
 73
-99
  0
VERTEX
  8
Group#2
10
0.0
 20
 0.0
 30
0.0
 70
     128
 71
-98
 72
-99
 73
100
  0
VERTEX
  8
Group#2
10
0.0
 20
 0.0
 30
0.0
 70
     128
 71
-84
 72
87
 73
-101
  0
VERTEX
  8
Group#2
10
0.0
 20
 0.0
 30
0.0
 70
     128
 71
-84
 72
101
 73
-102
  0
VERTEX
  8
Group#2
10
0.0
 20
 0.0
 30
0.0
 70
     128
 71
-84
 72
102
 73
-103
  0
VERTEX
  8
Group#2
10
0.0
 20
 0.0
 30
0.0
 70
     128
 71
-84
 72
103
 73
-3
  0
VERTEX
  8
Group#2
10
0.0
 20
 0.0
 30
0.0
 70
     128
 71
-84
 72
-3
 73
2
  0
VERTEX
  8
Group#2
10
0.0
 20
 0.0
 30
0.0
 70
     128
 71
-77
 72
84
 73
-6
  0
VERTEX
  8
Group#2
10
0.0
 20
 0.0
 30
0.0
 70
     128
 71
-77
 72
-6
 73
-104
  0
VERTEX
  8
Group#2
10
0.0
 20
 0.0
 30
0.0
 70
     128
 71
-104
 72
-6
 73
5
  0
VERTEX
  8
Group#2
10
0.0
 20
 0.0
 30
0.0
 70
     128
 71
-77
 72
104
 73
-9
  0
VERTEX
  8
Group#2
10
0.0
 20
 0.0
 30
0.0
 70
     128
 71
-77
 72
-9
 73
-105
  0
VERTEX
  8
Group#2
10
0.0
 20
 0.0
 30
0.0
 70
     128
 71
-105
 72
-9
 73
8
  0
VERTEX
  8
Group#2
10
0.0
 20
 0.0
 30
0.0
 70
     128
 71
-77
 72
105
 73
-106
  0
VERTEX
  8
Group#2
10
0.0
 20
 0.0
 30
0.0
 70
     128
 71
-77
 72
106
 73
-10
  0
VERTEX
  8
Group#2
10
0.0
 20
 0.0
 30
0.0
 70
     128
 71
-77
 72
-10
 73
-107
  0
VERTEX
  8
Group#2
10
0.0
 20
 0.0
 30
0.0
 70
     128
 71
-107
 72
-10
 73
108
  0
VERTEX
  8
Group#2
10
0.0
 20
 0.0
 30
0.0
 70
     128
 71
-108
 72
-10
 73
109
  0
VERTEX
  8
Group#2
10
0.0
 20
 0.0
 30
0.0
 70
     128
 71
-109
 72
-10
 73
-1
  0
VERTEX
  8
Group#2
10
0.0
 20
 0.0
 30
0.0
 70
     128
 71
-109
 72
1
 73
-110
  0
VERTEX
  8
Group#2
10
0.0
 20
 0.0
 30
0.0
 70
     128
 71
-109
 72
110
 73
-111
  0
VERTEX
  8
Group#2
10
0.0
 20
 0.0
 30
0.0
 70
     128
 71
-109
 72
111
 73
-112
  0
VERTEX
  8
Group#2
10
0.0
 20
 0.0
 30
0.0
 70
     128
 71
-109
 72
112
 73
-113
  0
VERTEX
  8
Group#2
10
0.0
 20
 0.0
 30
0.0
 70
     128
 71
-109
 72
113
 73
-114
  0
VERTEX
  8
Group#2
10
0.0
 20
 0.0
 30
0.0
 70
     128
 71
-109
 72
114
 73
-115
  0
VERTEX
  8
Group#2
10
0.0
 20
 0.0
 30
0.0
 70
     128
 71
-109
 72
115
 73
-116
  0
VERTEX
  8
Group#2
10
0.0
 20
 0.0
 30
0.0
 70
     128
 71
-109
 72
116
 73
-117
  0
VERTEX
  8
Group#2
10
0.0
 20
 0.0
 30
0.0
 70
     128
 71
-109
 72
117
 73
-118
  0
VERTEX
  8
Group#2
10
0.0
 20
 0.0
 30
0.0
 70
     128
 71
-109
 72
-118
 73
119
  0
VERTEX
  8
Group#2
10
0.0
 20
 0.0
 30
0.0
 70
     128
 71
-119
 72
118
 73
-120
  0
VERTEX
  8
Group#2
10
0.0
 20
 0.0
 30
0.0
 70
     128
 71
-119
 72
120
 73
-121
  0
VERTEX
  8
Group#2
10
0.0
 20
 0.0
 30
0.0
 70
     128
 71
-119
 72
-121
 73
-122
  0
VERTEX
  8
Group#2
10
0.0
 20
 0.0
 30
0.0
 70
     128
 71
-122
 72
-121
 73
-123
  0
VERTEX
  8
Group#2
10
0.0
 20
 0.0
 30
0.0
 70
     128
 71
-119
 72
-122
 73
124
  0
VERTEX
  8
Group#2
10
0.0
 20
 0.0
 30
0.0
 70
     128
 71
-124
 72
-122
 73
125
  0
VERTEX
  8
Group#2
10
0.0
 20
 0.0
 30
0.0
 70
     128
 71
-77
 72
107
 73
-126
  0
VERTEX
  8
Group#2
10
0.0
 20
 0.0
 30
0.0
 70
     128
 71
-77
 72
126
 73
-127
  0
VERTEX
  8
Group#2
10
0.0
 20
 0.0
 30
0.0
 70
     128
 71
-77
 72
127
 73
-128
  0
VERTEX
  8
Group#2
10
0.0
 20
 0.0
 30
0.0
 70
     128
 71
-77
 72
128
 73
-129
  0
VERTEX
  8
Group#2
10
0.0
 20
 0.0
 30
0.0
 70
     128
 71
-77
 72
129
 73
-130
  0
VERTEX
  8
Group#2
10
0.0
 20
 0.0
 30
0.0
 70
     128
 71
-77
 72
130
 73
-131
  0
VERTEX
  8
Group#2
10
0.0
 20
 0.0
 30
0.0
 70
     128
 71
-77
 72
131
 73
-132
  0
VERTEX
  8
Group#2
10
0.0
 20
 0.0
 30
0.0
 70
     128
 71
-77
 72
-132
 73
-133
  0
VERTEX
  8
Group#2
10
0.0
 20
 0.0
 30
0.0
 70
     128
 71
-133
 72
-132
 73
134
  0
VERTEX
  8
Group#2
10
0.0
 20
 0.0
 30
0.0
 70
     128
 71
-134
 72
-132
 73
135
  0
VERTEX
  8
Group#2
10
0.0
 20
 0.0
 30
0.0
 70
     128
 71
-135
 72
-132
 73
-136
  0
VERTEX
  8
Group#2
10
0.0
 20
 0.0
 30
0.0
 70
     128
 71
-136
 72
-132
 73
137
  0
VERTEX
  8
Group#2
10
0.0
 20
 0.0
 30
0.0
 70
     128
 71
-137
 72
-132
 73
138
  0
VERTEX
  8
Group#2
10
0.0
 20
 0.0
 30
0.0
 70
     128
 71
-135
 72
136
 73
-139
  0
VERTEX
  8
Group#2
10
0.0
 20
 0.0
 30
0.0
 70
     128
 71
-135
 72
139
 73
-140
  0
VERTEX
  8
Group#2
10
0.0
 20
 0.0
 30
0.0
 70
     128
 71
-135
 72
140
 73
-141
  0
VERTEX
  8
Group#2
10
0.0
 20
 0.0
 30
0.0
 70
     128
 71
-135
 72
141
 73
-142
  0
VERTEX
  8
Group#2
10
0.0
 20
 0.0
 30
0.0
 70
     128
 71
-135
 72
-142
 73
31
  0
VERTEX
  8
Group#2
10
0.0
 20
 0.0
 30
0.0
 70
     128
 71
-31
 72
142
 73
-29
  0
VERTEX
  8
Group#2
10
0.0
 20
 0.0
 30
0.0
 70
     128
 71
-77
 72
133
 73
-143
  0
VERTEX
  8
Group#2
10
0.0
 20
 0.0
 30
0.0
 70
     128
 71
-77
 72
143
 73
-144
  0
VERTEX
  8
Group#2
10
0.0
 20
 0.0
 30
0.0
 70
     128
 71
-77
 72
144
 73
-145
  0
VERTEX
  8
Group#2
10
0.0
 20
 0.0
 30
0.0
 70
     128
 71
-77
 72
145
 73
-146
  0
VERTEX
  8
Group#2
10
0.0
 20
 0.0
 30
0.0
 70
     128
 71
-77
 72
146
 73
-147
  0
VERTEX
  8
Group#2
10
0.0
 20
 0.0
 30
0.0
 70
     128
 71
-77
 72
147
 73
-148
  0
VERTEX
  8
Group#2
10
0.0
 20
 0.0
 30
0.0
 70
     128
 71
-77
 72
148
 73
-149
  0
VERTEX
  8
Group#2
10
0.0
 20
 0.0
 30
0.0
 70
     128
 71
-77
 72
149
 73
-150
  0
VERTEX
  8
Group#2
10
0.0
 20
 0.0
 30
0.0
 70
     128
 71
-77
 72
150
 73
-43
  0
VERTEX
  8
Group#2
10
0.0
 20
 0.0
 30
0.0
 70
     128
 71
-77
 72
-43
 73
-32
  0
VERTEX
  8
Group#2
10
0.0
 20
 0.0
 30
0.0
 70
     128
 71
-77
 72
32
 73
-151
  0
VERTEX
  8
Group#2
10
0.0
 20
 0.0
 30
0.0
 70
     128
 71
-77
 72
-151
 73
152
  0
VERTEX
  8
Group#2
10
0.0
 20
 0.0
 30
0.0
 70
     128
 71
-152
 72
-151
 73
153
  0
VERTEX
  8
Group#2
10
0.0
 20
 0.0
 30
0.0
 70
     128
 71
-153
 72
151
 73
-154
  0
VERTEX
  8
Group#2
10
0.0
 20
 0.0
 30
0.0
 70
     128
 71
-153
 72
154
 73
-155
  0
VERTEX
  8
Group#2
10
0.0
 20
 0.0
 30
0.0
 70
     128
 71
-153
 72
-155
 73
156
  0
VERTEX
  8
Group#2
10
0.0
 20
 0.0
 30
0.0
 70
     128
 71
-156
 72
155
 73
-157
  0
VERTEX
  8
Group#2
10
0.0
 20
 0.0
 30
0.0
 70
     128
 71
-156
 72
-157
 73
158
  0
VERTEX
  8
Group#2
10
0.0
 20
 0.0
 30
0.0
 70
     128
 71
-158
 72
-157
 73
159
  0
VERTEX
  8
Group#2
10
0.0
 20
 0.0
 30
0.0
 70
     128
 71
-159
 72
157
 73
-160
  0
VERTEX
  8
Group#2
10
0.0
 20
 0.0
 30
0.0
 70
     128
 71
-159
 72
160
 73
-161
  0
VERTEX
  8
Group#2
10
0.0
 20
 0.0
 30
0.0
 70
     128
 71
-159
 72
-161
 73
162
  0
VERTEX
  8
Group#2
10
0.0
 20
 0.0
 30
0.0
 70
     128
 71
-162
 72
161
 73
-163
  0
VERTEX
  8
Group#2
10
0.0
 20
 0.0
 30
0.0
 70
     128
 71
-162
 72
-163
 73
164
  0
VERTEX
  8
Group#2
10
0.0
 20
 0.0
 30
0.0
 70
     128
 71
-164
 72
163
 73
-165
  0
VERTEX
  8
Group#2
10
0.0
 20
 0.0
 30
0.0
 70
     128
 71
-164
 72
-165
 73
166
  0
VERTEX
  8
Group#2
10
0.0
 20
 0.0
 30
0.0
 70
     128
 71
-166
 72
165
 73
-167
  0
VERTEX
  8
Group#2
10
0.0
 20
 0.0
 30
0.0
 70
     128
 71
-166
 72
-167
 73
168
  0
VERTEX
  8
Group#2
10
0.0
 20
 0.0
 30
0.0
 70
     128
 71
-168
 72
-167
 73
169
  0
VERTEX
  8
Group#2
10
0.0
 20
 0.0
 30
0.0
 70
     128
 71
-169
 72
167
 73
-170
  0
VERTEX
  8
Group#2
10
0.0
 20
 0.0
 30
0.0
 70
     128
 71
-169
 72
-170
 73
171
  0
VERTEX
  8
Group#2
10
0.0
 20
 0.0
 30
0.0
 70
     128
 71
-171
 72
170
 73
-172
  0
VERTEX
  8
Group#2
10
0.0
 20
 0.0
 30
0.0
 70
     128
 71
-171
 72
172
 73
-173
  0
VERTEX
  8
Group#2
10
0.0
 20
 0.0
 30
0.0
 70
     128
 71
-171
 72
173
 73
174
  0
VERTEX
  8
Group#2
10
0.0
 20
 0.0
 30
0.0
 70
     128
 71
-175
 72
-125
 73
122
  0
VERTEX
  8
Group#2
10
0.0
 20
 0.0
 30
0.0
 70
     128
 71
-125
 72
-175
 73
176
  0
VERTEX
  8
Group#2
10
0.0
 20
 0.0
 30
0.0
 70
     128
 71
-176
 72
-175
 73
177
  0
VERTEX
  8
Group#2
10
0.0
 20
 0.0
 30
0.0
 70
     128
 71
-177
 72
175
 73
-28
  0
VERTEX
  8
Group#2
10
0.0
 20
 0.0
 30
0.0
 70
     128
 71
-177
 72
-28
 73
-27
  0
VERTEX
  8
Group#2
10
0.0
 20
 0.0
 30
0.0
 70
     128
 71
-177
 72
27
 73
-178
  0
VERTEX
  8
Group#2
10
0.0
 20
 0.0
 30
0.0
 70
     128
 71
-177
 72
-178
 73
179
  0
VERTEX
  8
Group#2
10
0.0
 20
 0.0
 30
0.0
 70
     128
 71
-179
 72
178
 73
-180
  0
VERTEX
  8
Group#2
10
0.0
 20
 0.0
 30
0.0
 70
     128
 71
-179
 72
-180
 73
181
  0
VERTEX
  8
Group#2
10
0.0
 20
 0.0
 30
0.0
 70
     128
 71
-181
 72
180
 73
-182
  0
VERTEX
  8
Group#2
10
0.0
 20
 0.0
 30
0.0
 70
     128
 71
-181
 72
-182
 73
183
  0
VERTEX
  8
Group#2
10
0.0
 20
 0.0
 30
0.0
 70
     128
 71
-183
 72
182
 73
-184
  0
VERTEX
  8
Group#2
10
0.0
 20
 0.0
 30
0.0
 70
     128
 71
-183
 72
-184
 73
185
  0
VERTEX
  8
Group#2
10
0.0
 20
 0.0
 30
0.0
 70
     128
 71
-185
 72
184
 73
-186
  0
VERTEX
  8
Group#2
10
0.0
 20
 0.0
 30
0.0
 70
     128
 71
-185
 72
-186
 73
187
  0
VERTEX
  8
Group#2
10
0.0
 20
 0.0
 30
0.0
 70
     128
 71
-187
 72
186
 73
-188
  0
VERTEX
  8
Group#2
10
0.0
 20
 0.0
 30
0.0
 70
     128
 71
-187
 72
-188
 73
189
  0
VERTEX
  8
Group#2
10
0.0
 20
 0.0
 30
0.0
 70
     128
 71
-189
 72
188
 73
-190
  0
VERTEX
  8
Group#2
10
0.0
 20
 0.0
 30
0.0
 70
     128
 71
-189
 72
-190
 73
191
  0
VERTEX
  8
Group#2
10
0.0
 20
 0.0
 30
0.0
 70
     128
 71
-191
 72
-190
 73
192
  0
VERTEX
  8
Group#2
10
0.0
 20
 0.0
 30
0.0
 70
     128
 71
-192
 72
190
 73
-193
  0
VERTEX
  8
Group#2
10
0.0
 20
 0.0
 30
0.0
 70
     128
 71
-192
 72
-193
 73
194
  0
VERTEX
  8
Group#2
10
0.0
 20
 0.0
 30
0.0
 70
     128
 71
-194
 72
193
 73
-195
  0
VERTEX
  8
Group#2
10
0.0
 20
 0.0
 30
0.0
 70
     128
 71
-194
 72
-195
 73
132
  0
VERTEX
  8
Group#2
10
0.0
 20
 0.0
 30
0.0
 70
     128
 71
-132
 72
195
 73
-196
  0
VERTEX
  8
Group#2
10
0.0
 20
 0.0
 30
0.0
 70
     128
 71
-123
 72
197
 73
-122
  0
VERTEX
  8
Group#2
10
0.0
 20
 0.0
 30
0.0
 70
     128
 71
-197
 72
123
 73
-198
  0
VERTEX
  8
Group#2
10
0.0
 20
 0.0
 30
0.0
 70
     128
 71
-197
 72
-198
 73
28
  0
VERTEX
  8
Group#2
10
0.0
 20
 0.0
 30
0.0
 70
     128
 71
-28
 72
198
 73
-24
  0
VERTEX
  8
Group#2
10
0.0
 20
 0.0
 30
0.0
 70
     128
 71
-199
 72
200
 73
-70
  0
VERTEX
  8
Group#2
10
0.0
 20
 0.0
 30
0.0
 70
     128
 71
-200
 72
199
 73
-201
  0
VERTEX
  8
Group#2
10
0.0
 20
 0.0
 30
0.0
 70
     128
 71
-200
 72
201
 73
-202
  0
VERTEX
  8
Group#2
10
0.0
 20
 0.0
 30
0.0
 70
     128
 71
-200
 72
-202
 73
203
  0
VERTEX
  8
Group#2
10
0.0
 20
 0.0
 30
0.0
 70
     128
 71
-203
 72
-202
 73
204
  0
VERTEX
  8
Group#2
10
0.0
 20
 0.0
 30
0.0
 70
     128
 71
-204
 72
202
 73
-205
  0
VERTEX
  8
Group#2
10
0.0
 20
 0.0
 30
0.0
 70
     128
 71
-204
 72
205
 73
-206
  0
VERTEX
  8
Group#2
10
0.0
 20
 0.0
 30
0.0
 70
     128
 71
-204
 72
-206
 73
207
  0
VERTEX
  8
Group#2
10
0.0
 20
 0.0
 30
0.0
 70
     128
 71
-207
 72
206
 73
-208
  0
VERTEX
  8
Group#2
10
0.0
 20
 0.0
 30
0.0
 70
     128
 71
-207
 72
-208
 73
209
  0
VERTEX
  8
Group#2
10
0.0
 20
 0.0
 30
0.0
 70
     128
 71
-209
 72
-208
 73
210
  0
VERTEX
  8
Group#2
10
0.0
 20
 0.0
 30
0.0
 70
     128
 71
-210
 72
208
 73
-211
  0
VERTEX
  8
Group#2
10
0.0
 20
 0.0
 30
0.0
 70
     128
 71
-210
 72
-211
 73
212
  0
VERTEX
  8
Group#2
10
0.0
 20
 0.0
 30
0.0
 70
     128
 71
-212
 72
211
 73
-213
  0
VERTEX
  8
Group#2
10
0.0
 20
 0.0
 30
0.0
 70
     128
 71
-212
 72
-213
 73
214
  0
VERTEX
  8
Group#2
10
0.0
 20
 0.0
 30
0.0
 70
     128
 71
-214
 72
213
 73
-215
  0
VERTEX
  8
Group#2
10
0.0
 20
 0.0
 30
0.0
 70
     128
 71
-214
 72
215
 73
-216
  0
VERTEX
  8
Group#2
10
0.0
 20
 0.0
 30
0.0
 70
     128
 71
-214
 72
-216
 73
217
  0
VERTEX
  8
Group#2
10
0.0
 20
 0.0
 30
0.0
 70
     128
 71
-217
 72
216
 73
-218
  0
VERTEX
  8
Group#2
10
0.0
 20
 0.0
 30
0.0
 70
     128
 71
-217
 72
-218
 73
219
  0
VERTEX
  8
Group#2
10
0.0
 20
 0.0
 30
0.0
 70
     128
 71
-219
 72
-218
 73
220
  0
VERTEX
  8
Group#2
10
0.0
 20
 0.0
 30
0.0
 70
     128
 71
-220
 72
218
 73
-221
  0
VERTEX
  8
Group#2
10
0.0
 20
 0.0
 30
0.0
 70
     128
 71
-220
 72
221
 73
-85
  0
VERTEX
  8
Group#2
10
0.0
 20
 0.0
 30
0.0
 70
     128
 71
-220
 72
-85
 73
83
  0
VERTEX
  8
Group#2
10
0.0
 20
 0.0
 30
0.0
 70
     128
 71
-222
 72
223
 73
-224
  0
VERTEX
  8
Group#2
10
0.0
 20
 0.0
 30
0.0
 70
     128
 71
-223
 72
222
 73
-225
  0
VERTEX
  8
Group#2
10
0.0
 20
 0.0
 30
0.0
 70
     128
 71
-223
 72
225
 73
-226
  0
VERTEX
  8
Group#2
10
0.0
 20
 0.0
 30
0.0
 70
     128
 71
-223
 72
-226
 73
227
  0
VERTEX
  8
Group#2
10
0.0
 20
 0.0
 30
0.0
 70
     128
 71
-227
 72
226
 73
-228
  0
VERTEX
  8
Group#2
10
0.0
 20
 0.0
 30
0.0
 70
     128
 71
-227
 72
-228
 73
229
  0
VERTEX
  8
Group#2
10
0.0
 20
 0.0
 30
0.0
 70
     128
 71
-229
 72
228
 73
-230
  0
VERTEX
  8
Group#2
10
0.0
 20
 0.0
 30
0.0
 70
     128
 71
-229
 72
-230
 73
231
  0
VERTEX
  8
Group#2
10
0.0
 20
 0.0
 30
0.0
 70
     128
 71
-231
 72
230
 73
-232
  0
VERTEX
  8
Group#2
10
0.0
 20
 0.0
 30
0.0
 70
     128
 71
-231
 72
-232
 73
233
  0
VERTEX
  8
Group#2
10
0.0
 20
 0.0
 30
0.0
 70
     128
 71
-233
 72
-232
 73
234
  0
VERTEX
  8
Group#2
10
0.0
 20
 0.0
 30
0.0
 70
     128
 71
-234
 72
232
 73
-235
  0
VERTEX
  8
Group#2
10
0.0
 20
 0.0
 30
0.0
 70
     128
 71
-234
 72
235
 73
-236
  0
VERTEX
  8
Group#2
10
0.0
 20
 0.0
 30
0.0
 70
     128
 71
-234
 72
-236
 73
237
  0
VERTEX
  8
Group#2
10
0.0
 20
 0.0
 30
0.0
 70
     128
 71
-237
 72
-236
 73
238
  0
VERTEX
  8
Group#2
10
0.0
 20
 0.0
 30
0.0
 70
     128
 71
-238
 72
236
 73
-239
  0
VERTEX
  8
Group#2
10
0.0
 20
 0.0
 30
0.0
 70
     128
 71
-238
 72
239
 73
-240
  0
VERTEX
  8
Group#2
10
0.0
 20
 0.0
 30
0.0
 70
     128
 71
-238
 72
-240
 73
241
  0
VERTEX
  8
Group#2
10
0.0
 20
 0.0
 30
0.0
 70
     128
 71
-241
 72
240
 73
-242
  0
VERTEX
  8
Group#2
10
0.0
 20
 0.0
 30
0.0
 70
     128
 71
-241
 72
-242
 73
243
  0
VERTEX
  8
Group#2
10
0.0
 20
 0.0
 30
0.0
 70
     128
 71
-243
 72
242
 73
-244
  0
VERTEX
  8
Group#2
10
0.0
 20
 0.0
 30
0.0
 70
     128
 71
-243
 72
-244
 73
245
  0
VERTEX
  8
Group#2
10
0.0
 20
 0.0
 30
0.0
 70
     128
 71
-245
 72
244
 73
-246
  0
VERTEX
  8
Group#2
10
0.0
 20
 0.0
 30
0.0
 70
     128
 71
-245
 72
-246
 73
247
  0
VERTEX
  8
Group#2
10
0.0
 20
 0.0
 30
0.0
 70
     128
 71
-69
 72
-199
 73
-70
  0
VERTEX
  8
Group#2
10
0.0
 20
 0.0
 30
0.0
 70
     128
 71
-199
 72
-69
 73
248
  0
VERTEX
  8
Group#2
10
0.0
 20
 0.0
 30
0.0
 70
     128
 71
-248
 72
-69
 73
249
  0
VERTEX
  8
Group#2
10
0.0
 20
 0.0
 30
0.0
 70
     128
 71
-249
 72
-69
 73
250
  0
VERTEX
  8
Group#2
10
0.0
 20
 0.0
 30
0.0
 70
     128
 71
-250
 72
69
 73
-86
  0
VERTEX
  8
Group#2
10
0.0
 20
 0.0
 30
0.0
 70
     128
 71
-250
 72
-86
 73
251
  0
VERTEX
  8
Group#2
10
0.0
 20
 0.0
 30
0.0
 70
     128
 71
-251
 72
-86
 73
252
  0
VERTEX
  8
Group#2
10
0.0
 20
 0.0
 30
0.0
 70
     128
 71
-252
 72
-86
 73
253
  0
VERTEX
  8
Group#2
10
0.0
 20
 0.0
 30
0.0
 70
     128
 71
-253
 72
-86
 73
254
  0
VERTEX
  8
Group#2
10
0.0
 20
 0.0
 30
0.0
 70
     128
 71
-254
 72
-86
 73
255
  0
VERTEX
  8
Group#2
10
0.0
 20
 0.0
 30
0.0
 70
     128
 71
-255
 72
-86
 73
256
  0
VERTEX
  8
Group#2
10
0.0
 20
 0.0
 30
0.0
 70
     128
 71
-256
 72
-86
 73
257
  0
VERTEX
  8
Group#2
10
0.0
 20
 0.0
 30
0.0
 70
     128
 71
-257
 72
-86
 73
258
  0
VERTEX
  8
Group#2
10
0.0
 20
 0.0
 30
0.0
 70
     128
 71
-258
 72
-86
 73
85
  0
VERTEX
  8
Group#2
10
0.0
 20
 0.0
 30
0.0
 70
     128
 71
-93
 72
259
 73
-90
  0
VERTEX
  8
Group#2
10
0.0
 20
 0.0
 30
0.0
 70
     128
 71
-259
 72
93
 73
-260
  0
VERTEX
  8
Group#2
10
0.0
 20
 0.0
 30
0.0
 70
     128
 71
-259
 72
-260
 73
99
  0
VERTEX
  8
Group#2
10
0.0
 20
 0.0
 30
0.0
 70
     128
 71
-261
 72
-262
 73
91
  0
VERTEX
  8
Group#2
10
0.0
 20
 0.0
 30
0.0
 70
     128
 71
-262
 72
-261
 73
263
  0
VERTEX
  8
Group#2
10
0.0
 20
 0.0
 30
0.0
 70
     128
 71
-263
 72
-261
 73
264
  0
VERTEX
  8
Group#2
10
0.0
 20
 0.0
 30
0.0
 70
     128
 71
-264
 72
-261
 73
224
  0
VERTEX
  8
Group#2
10
0.0
 20
 0.0
 30
0.0
 70
     128
 71
-91
 72
262
 73
-265
  0
VERTEX
  8
Group#2
10
0.0
 20
 0.0
 30
0.0
 70
     128
 71
-91
 72
265
 73
-266
  0
VERTEX
  8
Group#2
10
0.0
 20
 0.0
 30
0.0
 70
     128
 71
-91
 72
266
 73
-267
  0
VERTEX
  8
Group#2
10
0.0
 20
 0.0
 30
0.0
 70
     128
 71
-91
 72
267
 73
-268
  0
VERTEX
  8
Group#2
10
0.0
 20
 0.0
 30
0.0
 70
     128
 71
-91
 72
268
 73
-269
  0
VERTEX
  8
Group#2
10
0.0
 20
 0.0
 30
0.0
 70
     128
 71
-91
 72
269
 73
-270
  0
VERTEX
  8
Group#2
10
0.0
 20
 0.0
 30
0.0
 70
     128
 71
-91
 72
270
 73
-271
  0
VERTEX
  8
Group#2
10
0.0
 20
 0.0
 30
0.0
 70
     128
 71
-91
 72
271
 73
-272
  0
VERTEX
  8
Group#2
10
0.0
 20
 0.0
 30
0.0
 70
     128
 71
-91
 72
272
 73
-247
  0
VERTEX
  8
Group#2
10
0.0
 20
 0.0
 30
0.0
 70
     128
 71
-91
 72
-247
 73
-246
  0
VERTEX
  8
Group#2
10
0.0
 20
 0.0
 30
0.0
 70
     128
 71
-273
 72
274
 73
275
  0
VERTEX
  8
Group#2
10
0.0
 20
 0.0
 30
0.0
 70
     128
 71
-274
 72
-273
 73
276
  0
VERTEX
  8
Group#2
10
0.0
 20
 0.0
 30
0.0
 70
     128
 71
-276
 72
273
 73
-277
  0
VERTEX
  8
Group#2
10
0.0
 20
 0.0
 30
0.0
 70
     128
 71
-276
 72
-277
 73
278
  0
VERTEX
  8
Group#2
10
0.0
 20
 0.0
 30
0.0
 70
     128
 71
-278
 72
-277
 73
279
  0
VERTEX
  8
Group#2
10
0.0
 20
 0.0
 30
0.0
 70
     128
 71
-279
 72
277
 73
-280
  0
VERTEX
  8
Group#2
10
0.0
 20
 0.0
 30
0.0
 70
     128
 71
-279
 72
-280
 73
281
  0
VERTEX
  8
Group#2
10
0.0
 20
 0.0
 30
0.0
 70
     128
 71
-281
 72
280
 73
-282
  0
VERTEX
  8
Group#2
10
0.0
 20
 0.0
 30
0.0
 70
     128
 71
-281
 72
282
 73
-283
  0
VERTEX
  8
Group#2
10
0.0
 20
 0.0
 30
0.0
 70
     128
 71
-281
 72
-283
 73
284
  0
VERTEX
  8
Group#2
10
0.0
 20
 0.0
 30
0.0
 70
     128
 71
-284
 72
283
 73
-285
  0
VERTEX
  8
Group#2
10
0.0
 20
 0.0
 30
0.0
 70
     128
 71
-284
 72
-285
 73
286
  0
VERTEX
  8
Group#2
10
0.0
 20
 0.0
 30
0.0
 70
     128
 71
-286
 72
285
 73
-287
  0
VERTEX
  8
Group#2
10
0.0
 20
 0.0
 30
0.0
 70
     128
 71
-286
 72
-287
 73
288
  0
VERTEX
  8
Group#2
10
0.0
 20
 0.0
 30
0.0
 70
     128
 71
-288
 72
287
 73
-289
  0
VERTEX
  8
Group#2
10
0.0
 20
 0.0
 30
0.0
 70
     128
 71
-288
 72
-289
 73
290
  0
VERTEX
  8
Group#2
10
0.0
 20
 0.0
 30
0.0
 70
     128
 71
-290
 72
289
 73
-291
  0
VERTEX
  8
Group#2
10
0.0
 20
 0.0
 30
0.0
 70
     128
 71
-290
 72
-291
 73
292
  0
VERTEX
  8
Group#2
10
0.0
 20
 0.0
 30
0.0
 70
     128
 71
-292
 72
291
 73
-293
  0
VERTEX
  8
Group#2
10
0.0
 20
 0.0
 30
0.0
 70
     128
 71
-292
 72
-293
 73
294
  0
VERTEX
  8
Group#2
10
0.0
 20
 0.0
 30
0.0
 70
     128
 71
-294
 72
293
 73
-295
  0
VERTEX
  8
Group#2
10
0.0
 20
 0.0
 30
0.0
 70
     128
 71
-294
 72
-295
 73
296
  0
VERTEX
  8
Group#2
10
0.0
 20
 0.0
 30
0.0
 70
     128
 71
-296
 72
295
 73
-297
  0
VERTEX
  8
Group#2
10
0.0
 20
 0.0
 30
0.0
 70
     128
 71
-296
 72
-297
 73
261
  0
VERTEX
  8
Group#2
10
0.0
 20
 0.0
 30
0.0
 70
     128
 71
-261
 72
-297
 73
-222
  0
VERTEX
  8
Group#2
10
0.0
 20
 0.0
 30
0.0
 70
     128
 71
-222
 72
-297
 73
298
  0
VERTEX
  8
Group#2
10
0.0
 20
 0.0
 30
0.0
 70
     128
 71
-298
 72
-297
 73
299
  0
VERTEX
  8
Group#2
10
0.0
 20
 0.0
 30
0.0
 70
     128
 71
-299
 72
-297
 73
300
  0
VERTEX
  8
Group#2
10
0.0
 20
 0.0
 30
0.0
 70
     128
 71
-300
 72
-297
 73
301
  0
VERTEX
  8
Group#2
10
0.0
 20
 0.0
 30
0.0
 70
     128
 71
-301
 72
-297
 73
302
  0
VERTEX
  8
Group#2
10
0.0
 20
 0.0
 30
0.0
 70
     128
 71
-302
 72
-297
 73
303
  0
VERTEX
  8
Group#2
10
0.0
 20
 0.0
 30
0.0
 70
     128
 71
-303
 72
297
 73
-304
  0
VERTEX
  8
Group#2
10
0.0
 20
 0.0
 30
0.0
 70
     128
 71
-261
 72
-222
 73
-224
  0
VERTEX
  8
Group#2
10
0.0
 20
 0.0
 30
0.0
 70
     128
 71
-303
 72
-304
 73
305
  0
VERTEX
  8
Group#2
10
0.0
 20
 0.0
 30
0.0
 70
     128
 71
-305
 72
-304
 73
306
  0
VERTEX
  8
Group#2
10
0.0
 20
 0.0
 30
0.0
 70
     128
 71
-306
 72
-304
 73
307
  0
VERTEX
  8
Group#2
10
0.0
 20
 0.0
 30
0.0
 70
     128
 71
-307
 72
-304
 73
308
  0
VERTEX
  8
Group#2
10
0.0
 20
 0.0
 30
0.0
 70
     128
 71
-308
 72
-304
 73
309
  0
VERTEX
  8
Group#2
10
0.0
 20
 0.0
 30
0.0
 70
     128
 71
-309
 72
-304
 73
246
  0
VERTEX
  8
Group#2
10
0.0
 20
 0.0
 30
0.0
 70
     128
 71
-246
 72
-304
 73
-14
  0
VERTEX
  8
Group#2
10
0.0
 20
 0.0
 30
0.0
 70
     128
 71
-246
 72
-14
 73
-91
  0
VERTEX
  8
Group#2
10
0.0
 20
 0.0
 30
0.0
 70
     128
 71
-91
 72
-14
 73
-310
  0
VERTEX
  8
Group#2
10
0.0
 20
 0.0
 30
0.0
 70
     128
 71
-91
 72
310
 73
-311
  0
VERTEX
  8
Group#2
10
0.0
 20
 0.0
 30
0.0
 70
     128
 71
-91
 72
311
 73
-312
  0
VERTEX
  8
Group#2
10
0.0
 20
 0.0
 30
0.0
 70
     128
 71
-91
 72
-312
 73
-92
  0
VERTEX
  8
Group#2
10
0.0
 20
 0.0
 30
0.0
 70
     128
 71
-92
 72
312
 73
-313
  0
VERTEX
  8
Group#2
10
0.0
 20
 0.0
 30
0.0
 70
     128
 71
-92
 72
313
 73
-314
  0
VERTEX
  8
Group#2
10
0.0
 20
 0.0
 30
0.0
 70
     128
 71
-92
 72
-314
 73
315
  0
VERTEX
  8
Group#2
10
0.0
 20
 0.0
 30
0.0
 70
     128
 71
-315
 72
314
 73
-316
  0
VERTEX
  8
Group#2
10
0.0
 20
 0.0
 30
0.0
 70
     128
 71
-315
 72
316
 73
-100
  0
VERTEX
  8
Group#2
10
0.0
 20
 0.0
 30
0.0
 70
     128
 71
-315
 72
-100
 73
260
  0
VERTEX
  8
Group#2
10
0.0
 20
 0.0
 30
0.0
 70
     128
 71
-260
 72
-100
 73
-99
  0
VERTEX
  8
Group#2
10
0.0
 20
 0.0
 30
0.0
 70
     128
 71
-310
 72
-14
 73
317
  0
VERTEX
  8
Group#2
10
0.0
 20
 0.0
 30
0.0
 70
     128
 71
-317
 72
-14
 73
318
  0
VERTEX
  8
Group#2
10
0.0
 20
 0.0
 30
0.0
 70
     128
 71
-318
 72
-14
 73
319
  0
VERTEX
  8
Group#2
10
0.0
 20
 0.0
 30
0.0
 70
     128
 71
-319
 72
-14
 73
11
  0
VERTEX
  8
Group#2
10
0.0
 20
 0.0
 30
0.0
 70
     128
 71
-14
 72
-304
 73
320
  0
VERTEX
  8
Group#2
10
0.0
 20
 0.0
 30
0.0
 70
     128
 71
-320
 72
-304
 73
-17
  0
VERTEX
  8
Group#2
10
0.0
 20
 0.0
 30
0.0
 70
     128
 71
-320
 72
-17
 73
15
  0
VERTEX
  8
Group#2
10
0.0
 20
 0.0
 30
0.0
 70
     128
 71
-17
 72
-304
 73
20
  0
VERTEX
  8
Group#2
10
0.0
 20
 0.0
 30
0.0
 70
     128
 71
-20
 72
-304
 73
-321
  0
VERTEX
  8
Group#2
10
0.0
 20
 0.0
 30
0.0
 70
     128
 71
-20
 72
321
 73
-19
  0
VERTEX
  8
Group#2
10
0.0
 20
 0.0
 30
0.0
 70
     128
 71
-321
 72
-304
 73
22
  0
VERTEX
  8
Group#2
10
0.0
 20
 0.0
 30
0.0
 70
     128
 71
-22
 72
-304
 73
-322
  0
VERTEX
  8
Group#2
10
0.0
 20
 0.0
 30
0.0
 70
     128
 71
-22
 72
322
 73
-323
  0
VERTEX
  8
Group#2
10
0.0
 20
 0.0
 30
0.0
 70
     128
 71
-22
 72
323
 73
-324
  0
VERTEX
  8
Group#2
10
0.0
 20
 0.0
 30
0.0
 70
     128
 71
-22
 72
-324
 73
-13
  0
VERTEX
  8
Group#2
10
0.0
 20
 0.0
 30
0.0
 70
     128
 71
-13
 72
-324
 73
325
  0
VERTEX
  8
Group#2
10
0.0
 20
 0.0
 30
0.0
 70
     128
 71
-325
 72
-324
 73
326
  0
VERTEX
  8
Group#2
10
0.0
 20
 0.0
 30
0.0
 70
     128
 71
-326
 72
-324
 73
327
  0
VERTEX
  8
Group#2
10
0.0
 20
 0.0
 30
0.0
 70
     128
 71
-327
 72
-324
 73
328
  0
VERTEX
  8
Group#2
10
0.0
 20
 0.0
 30
0.0
 70
     128
 71
-328
 72
-324
 73
329
  0
VERTEX
  8
Group#2
10
0.0
 20
 0.0
 30
0.0
 70
     128
 71
-329
 72
-324
 73
330
  0
VERTEX
  8
Group#2
10
0.0
 20
 0.0
 30
0.0
 70
     128
 71
-330
 72
-324
 73
331
  0
VERTEX
  8
Group#2
10
0.0
 20
 0.0
 30
0.0
 70
     128
 71
-331
 72
-324
 73
332
  0
VERTEX
  8
Group#2
10
0.0
 20
 0.0
 30
0.0
 70
     128
 71
-332
 72
-324
 73
333
  0
VERTEX
  8
Group#2
10
0.0
 20
 0.0
 30
0.0
 70
     128
 71
-333
 72
-324
 73
334
  0
VERTEX
  8
Group#2
10
0.0
 20
 0.0
 30
0.0
 70
     128
 71
-334
 72
324
 73
-335
  0
VERTEX
  8
Group#2
10
0.0
 20
 0.0
 30
0.0
 70
     128
 71
-334
 72
-335
 73
336
  0
VERTEX
  8
Group#2
10
0.0
 20
 0.0
 30
0.0
 70
     128
 71
-336
 72
-335
 73
-25
  0
VERTEX
  8
Group#2
10
0.0
 20
 0.0
 30
0.0
 70
     128
 71
-336
 72
-25
 73
121
  0
VERTEX
  8
Group#2
10
0.0
 20
 0.0
 30
0.0
 70
     128
 71
-121
 72
25
 73
-123
  0
VERTEX
  8
Group#2
10
0.0
 20
 0.0
 30
0.0
 70
     128
 71
-25
 72
335
 73
-337
  0
VERTEX
  8
Group#2
10
0.0
 20
 0.0
 30
0.0
 70
     128
 71
-25
 72
337
 73
-23
  0
VERTEX
  8
Group#2
10
0.0
 20
 0.0
 30
0.0
 70
     128
 71
-322
 72
-304
 73
338
  0
VERTEX
  8
Group#2
10
0.0
 20
 0.0
 30
0.0
 70
     128
 71
-338
 72
-304
 73
339
  0
VERTEX
  8
Group#2
10
0.0
 20
 0.0
 30
0.0
 70
     128
 71
-339
 72
-304
 73
340
  0
VERTEX
  8
Group#2
10
0.0
 20
 0.0
 30
0.0
 70
     128
 71
-340
 72
-304
 73
341
  0
VERTEX
  8
Group#2
10
0.0
 20
 0.0
 30
0.0
 70
     128
 71
-341
 72
-304
 73
342
  0
VERTEX
  8
Group#2
10
0.0
 20
 0.0
 30
0.0
 70
     128
 71
-342
 72
-304
 73
343
  0
VERTEX
  8
Group#2
10
0.0
 20
 0.0
 30
0.0
 70
     128
 71
-343
 72
-304
 73
196
  0
VERTEX
  8
Group#2
10
0.0
 20
 0.0
 30
0.0
 70
     128
 71
-196
 72
-304
 73
-344
  0
VERTEX
  8
Group#2
10
0.0
 20
 0.0
 30
0.0
 70
     128
 71
-196
 72
344
 73
-345
  0
VERTEX
  8
Group#2
10
0.0
 20
 0.0
 30
0.0
 70
     128
 71
-196
 72
345
 73
-346
  0
VERTEX
  8
Group#2
10
0.0
 20
 0.0
 30
0.0
 70
     128
 71
-196
 72
-346
 73
-347
  0
VERTEX
  8
Group#2
10
0.0
 20
 0.0
 30
0.0
 70
     128
 71
-196
 72
347
 73
-138
  0
VERTEX
  8
Group#2
10
0.0
 20
 0.0
 30
0.0
 70
     128
 71
-196
 72
-138
 73
-132
  0
VERTEX
  8
Group#2
10
0.0
 20
 0.0
 30
0.0
 70
     128
 71
-347
 72
-346
 73
348
  0
VERTEX
  8
Group#2
10
0.0
 20
 0.0
 30
0.0
 70
     128
 71
-348
 72
-346
 73
349
  0
VERTEX
  8
Group#2
10
0.0
 20
 0.0
 30
0.0
 70
     128
 71
-349
 72
-346
 73
350
  0
VERTEX
  8
Group#2
10
0.0
 20
 0.0
 30
0.0
 70
     128
 71
-350
 72
-346
 73
351
  0
VERTEX
  8
Group#2
10
0.0
 20
 0.0
 30
0.0
 70
     128
 71
-351
 72
346
 73
-352
  0
VERTEX
  8
Group#2
10
0.0
 20
 0.0
 30
0.0
 70
     128
 71
-351
 72
-352
 73
353
  0
VERTEX
  8
Group#2
10
0.0
 20
 0.0
 30
0.0
 70
     128
 71
-344
 72
-304
 73
354
  0
VERTEX
  8
Group#2
10
0.0
 20
 0.0
 30
0.0
 70
     128
 71
-354
 72
-304
 73
355
  0
VERTEX
  8
Group#2
10
0.0
 20
 0.0
 30
0.0
 70
     128
 71
-355
 72
-304
 73
356
  0
VERTEX
  8
Group#2
10
0.0
 20
 0.0
 30
0.0
 70
     128
 71
-356
 72
-304
 73
357
  0
VERTEX
  8
Group#2
10
0.0
 20
 0.0
 30
0.0
 70
     128
 71
-357
 72
-304
 73
358
  0
VERTEX
  8
Group#2
10
0.0
 20
 0.0
 30
0.0
 70
     128
 71
-358
 72
-304
 73
359
  0
VERTEX
  8
Group#2
10
0.0
 20
 0.0
 30
0.0
 70
     128
 71
-359
 72
-304
 73
360
  0
VERTEX
  8
Group#2
10
0.0
 20
 0.0
 30
0.0
 70
     128
 71
-360
 72
-304
 73
361
  0
VERTEX
  8
Group#2
10
0.0
 20
 0.0
 30
0.0
 70
     128
 71
-361
 72
-304
 73
362
  0
VERTEX
  8
Group#2
10
0.0
 20
 0.0
 30
0.0
 70
     128
 71
-353
 72
-363
 73
364
  0
VERTEX
  8
Group#2
10
0.0
 20
 0.0
 30
0.0
 70
     128
 71
-363
 72
-353
 73
352
  0
VERTEX
  8
Group#2
10
0.0
 20
 0.0
 30
0.0
 70
     128
 71
-364
 72
363
 73
-365
  0
VERTEX
  8
Group#2
10
0.0
 20
 0.0
 30
0.0
 70
     128
 71
-364
 72
365
 73
-366
  0
VERTEX
  8
Group#2
10
0.0
 20
 0.0
 30
0.0
 70
     128
 71
-364
 72
366
 73
-367
  0
VERTEX
  8
Group#2
10
0.0
 20
 0.0
 30
0.0
 70
     128
 71
-364
 72
367
 73
-368
  0
VERTEX
  8
Group#2
10
0.0
 20
 0.0
 30
0.0
 70
     128
 71
-364
 72
368
 73
-369
  0
VERTEX
  8
Group#2
10
0.0
 20
 0.0
 30
0.0
 70
     128
 71
-364
 72
369
 73
-370
  0
VERTEX
  8
Group#2
10
0.0
 20
 0.0
 30
0.0
 70
     128
 71
-364
 72
370
 73
-371
  0
VERTEX
  8
Group#2
10
0.0
 20
 0.0
 30
0.0
 70
     128
 71
-364
 72
371
 73
-372
  0
VERTEX
  8
Group#2
10
0.0
 20
 0.0
 30
0.0
 70
     128
 71
-364
 72
372
 73
-373
  0
VERTEX
  8
Group#2
10
0.0
 20
 0.0
 30
0.0
 70
     128
 71
-364
 72
373
 73
-374
  0
VERTEX
  8
Group#2
10
0.0
 20
 0.0
 30
0.0
 70
     128
 71
-364
 72
374
 73
-362
  0
VERTEX
  8
Group#2
10
0.0
 20
 0.0
 30
0.0
 70
     128
 71
-364
 72
-362
 73
-304
  0
VERTEX
  8
Group#2
10
0.0
 20
 0.0
 30
0.0
 70
     128
 71
-364
 72
304
 73
-375
  0
VERTEX
  8
Group#2
10
0.0
 20
 0.0
 30
0.0
 70
     128
 71
-364
 72
-375
 73
376
  0
VERTEX
  8
Group#2
10
0.0
 20
 0.0
 30
0.0
 70
     128
 71
-376
 72
375
 73
-377
  0
VERTEX
  8
Group#2
10
0.0
 20
 0.0
 30
0.0
 70
     128
 71
-376
 72
-377
 73
378
  0
VERTEX
  8
Group#2
10
0.0
 20
 0.0
 30
0.0
 70
     128
 71
-378
 72
377
 73
-379
  0
VERTEX
  8
Group#2
10
0.0
 20
 0.0
 30
0.0
 70
     128
 71
-378
 72
-379
 73
380
  0
VERTEX
  8
Group#2
10
0.0
 20
 0.0
 30
0.0
 70
     128
 71
-380
 72
-379
 73
381
  0
VERTEX
  8
Group#2
10
0.0
 20
 0.0
 30
0.0
 70
     128
 71
-381
 72
379
 73
-382
  0
VERTEX
  8
Group#2
10
0.0
 20
 0.0
 30
0.0
 70
     128
 71
-381
 72
382
 73
-383
  0
VERTEX
  8
Group#2
10
0.0
 20
 0.0
 30
0.0
 70
     128
 71
-381
 72
-383
 73
384
  0
VERTEX
  8
Group#2
10
0.0
 20
 0.0
 30
0.0
 70
     128
 71
-384
 72
383
 73
-385
  0
VERTEX
  8
Group#2
10
0.0
 20
 0.0
 30
0.0
 70
     128
 71
-384
 72
-385
 73
386
  0
VERTEX
  8
Group#2
10
0.0
 20
 0.0
 30
0.0
 70
     128
 71
-386
 72
385
 73
-387
  0
VERTEX
  8
Group#2
10
0.0
 20
 0.0
 30
0.0
 70
     128
 71
-386
 72
-387
 73
388
  0
VERTEX
  8
Group#2
10
0.0
 20
 0.0
 30
0.0
 70
     128
 71
-388
 72
387
 73
-389
  0
VERTEX
  8
Group#2
10
0.0
 20
 0.0
 30
0.0
 70
     128
 71
-388
 72
-389
 73
390
  0
VERTEX
  8
Group#2
10
0.0
 20
 0.0
 30
0.0
 70
     128
 71
-390
 72
389
 73
-391
  0
VERTEX
  8
Group#2
10
0.0
 20
 0.0
 30
0.0
 70
     128
 71
-390
 72
-391
 73
392
  0
VERTEX
  8
Group#2
10
0.0
 20
 0.0
 30
0.0
 70
     128
 71
-392
 72
-391
 73
393
  0
VERTEX
  8
Group#2
10
0.0
 20
 0.0
 30
0.0
 70
     128
 71
-393
 72
391
 73
-394
  0
VERTEX
  8
Group#2
10
0.0
 20
 0.0
 30
0.0
 70
     128
 71
-393
 72
-394
 73
395
  0
VERTEX
  8
Group#2
10
0.0
 20
 0.0
 30
0.0
 70
     128
 71
-395
 72
394
 73
-396
  0
VERTEX
  8
Group#2
10
0.0
 20
 0.0
 30
0.0
 70
     128
 71
-395
 72
396
 73
-397
  0
VERTEX
  8
Group#2
10
0.0
 20
 0.0
 30
0.0
 70
     128
 71
-395
 72
397
 73
398
  0
SEQEND
 0
ENDSEC
 0
EOF
