 0
SECTION
 2
ENTITIES
  0
POLYLINE
 8
Group#2
 66
     1
10
0.0
 20
 0.0
 30
0.0
70
    64
71
55
72
   1
  0
VERTEX
  8
Group#2
10
137.61481815781514
20
9.299999999999994
30
0.0
 70
     192
  0
VERTEX
  8
Group#2
10
5.618216945899921
20
174.32160844947515
30
0.0
 70
     192
  0
VERTEX
  8
Group#2
10
5.600000000000001
20
9.300055195656054
30
0.0
 70
     192
  0
VERTEX
  8
Group#2
10
5.8324498367948365
20
177.58487651147928
30
0.0
 70
     192
  0
VERTEX
  8
Group#2
10
6.4707629517825795
20
180.79226961854803
30
0.0
 70
     192
  0
VERTEX
  8
Group#2
10
7.522236079860768
20
183.88891593948406
30
0.0
 70
     192
  0
VERTEX
  8
Group#2
10
8.968880700736966
20
186.82183829047247
30
0.0
 70
     192
  0
VERTEX
  8
Group#2
10
10.785947731031234
20
189.54086046461052
30
0.0
 70
     192
  0
VERTEX
  8
Group#2
10
12.942350929664832
20
191.9994656425438
30
0.0
 70
     192
  0
VERTEX
  8
Group#2
10
15.401198718849006
20
194.15559219858392
30
0.0
 70
     192
  0
VERTEX
  8
Group#2
10
18.120425322321186
20
195.97235328772206
30
0.0
 70
     192
  0
VERTEX
  8
Group#2
10
32.68831432310532
20
178.32160844947532
30
0.0
 70
     192
  0
VERTEX
  8
Group#2
10
21.053510423365598
20
197.41866790289703
30
0.0
 70
     192
  0
VERTEX
  8
Group#2
10
24.150275030764412
20
198.4697926064406
30
0.0
 70
     192
  0
VERTEX
  8
Group#2
10
31.889110943068232
20
180.25105608865513
30
0.0
 70
     192
  0
VERTEX
  8
Group#2
10
27.357739937067002
20
199.10774483888002
30
0.0
 70
     192
  0
VERTEX
  8
Group#2
10
31.616517553380778
20
182.32160844947524
30
0.0
 70
     192
  0
VERTEX
  8
Group#2
10
30.621032082740456
20
199.32161056316357
30
0.0
 70
     192
  0
VERTEX
  8
Group#2
10
33.95966330388841
20
176.66475419998292
30
0.0
 70
     192
  0
VERTEX
  8
Group#2
10
35.61651755338082
20
175.39340521919976
30
0.0
 70
     192
  0
VERTEX
  8
Group#2
10
37.54596519256062
20
174.59420183916282
30
0.0
 70
     192
  0
VERTEX
  8
Group#2
10
39.61651755338081
20
174.32160844947532
30
0.0
 70
     192
  0
VERTEX
  8
Group#2
10
103.61651755338083
20
174.3216084494757
30
0.0
 70
     192
  0
VERTEX
  8
Group#2
10
105.68706991420093
20
174.5942018391632
30
0.0
 70
     192
  0
VERTEX
  8
Group#2
10
107.61651755338069
20
175.39340521920022
30
0.0
 70
     192
  0
VERTEX
  8
Group#2
10
109.273371802873
20
176.6647541999833
30
0.0
 70
     192
  0
VERTEX
  8
Group#2
10
110.54472078365608
20
178.3216084494756
30
0.0
 70
     192
  0
VERTEX
  8
Group#2
10
111.34392416369305
20
180.25105608865522
30
0.0
 70
     192
  0
VERTEX
  8
Group#2
10
111.61651755338055
20
182.3216084494755
30
0.0
 70
     192
  0
VERTEX
  8
Group#2
10
112.61481815781515
20
199.3216084494756
30
0.0
 70
     192
  0
VERTEX
  8
Group#2
10
115.87797296331642
20
199.10772998382086
30
0.0
 70
     192
  0
VERTEX
  8
Group#2
10
119.08529428537814
20
198.46975410670228
30
0.0
 70
     192
  0
VERTEX
  8
Group#2
10
122.18190396694236
20
197.41859676225783
30
0.0
 70
     192
  0
VERTEX
  8
Group#2
10
125.11481815781515
20
195.97224354408667
30
0.0
 70
     192
  0
VERTEX
  8
Group#2
10
127.83385388303316
20
194.15544195675653
30
0.0
 70
     192
  0
VERTEX
  8
Group#2
10
130.2924876874788
20
191.99927797913938
30
0.0
 70
     192
  0
VERTEX
  8
Group#2
10
132.44865166509598
20
189.5406441746937
30
0.0
 70
     192
  0
VERTEX
  8
Group#2
10
134.26545325242608
20
186.82160844947575
30
0.0
 70
     192
  0
VERTEX
  8
Group#2
10
135.71180647059728
20
183.88869425860295
30
0.0
 70
     192
  0
VERTEX
  8
Group#2
10
136.76296381504181
20
180.79208457703868
30
0.0
 70
     192
  0
VERTEX
  8
Group#2
10
137.40093969216036
20
177.58476325497708
30
0.0
 70
     192
  0
VERTEX
  8
Group#2
10
137.6148181578151
20
174.3216084494757
30
0.0
 70
     192
  0
VERTEX
  8
Group#2
10
31.616517553380824
20
199.32160844947524
30
0.0
 70
     192
  0
VERTEX
  8
Group#2
10
31.889110943068232
20
184.39216081029542
30
0.0
 70
     192
  0
VERTEX
  8
Group#2
10
32.68831432310525
20
186.32160844947532
30
0.0
 70
     192
  0
VERTEX
  8
Group#2
10
33.95966330388837
20
187.97846269896763
30
0.0
 70
     192
  0
VERTEX
  8
Group#2
10
35.6165175533807
20
189.2498116797508
30
0.0
 70
     192
  0
VERTEX
  8
Group#2
10
37.54596519256058
20
190.04901505978782
30
0.0
 70
     192
  0
VERTEX
  8
Group#2
10
39.616517553380696
20
190.3216084494753
30
0.0
 70
     192
  0
VERTEX
  8
Group#2
10
103.61651755338075
20
190.32160844947512
30
0.0
 70
     192
  0
VERTEX
  8
Group#2
10
105.68706991420083
20
190.0490150597877
30
0.0
 70
     192
  0
VERTEX
  8
Group#2
10
107.61651755338065
20
189.24981167975062
30
0.0
 70
     192
  0
VERTEX
  8
Group#2
10
109.273371802873
20
187.97846269896763
30
0.0
 70
     192
  0
VERTEX
  8
Group#2
10
110.54472078365608
20
186.32160844947532
30
0.0
 70
     192
  0
VERTEX
  8
Group#2
10
111.3439241636931
20
184.39216081029542
30
0.0
 70
     192
  0
VERTEX
  8
Group#2
10
0.0
 20
 0.0
 30
0.0
 70
     128
 71
-1
 72
2
 73
3
  0
VERTEX
  8
Group#2
10
0.0
 20
 0.0
 30
0.0
 70
     128
 71
-2
 72
-1
 73
4
  0
VERTEX
  8
Group#2
10
0.0
 20
 0.0
 30
0.0
 70
     128
 71
-4
 72
-1
 73
5
  0
VERTEX
  8
Group#2
10
0.0
 20
 0.0
 30
0.0
 70
     128
 71
-5
 72
-1
 73
6
  0
VERTEX
  8
Group#2
10
0.0
 20
 0.0
 30
0.0
 70
     128
 71
-6
 72
-1
 73
7
  0
VERTEX
  8
Group#2
10
0.0
 20
 0.0
 30
0.0
 70
     128
 71
-7
 72
-1
 73
8
  0
VERTEX
  8
Group#2
10
0.0
 20
 0.0
 30
0.0
 70
     128
 71
-8
 72
-1
 73
9
  0
VERTEX
  8
Group#2
10
0.0
 20
 0.0
 30
0.0
 70
     128
 71
-9
 72
-1
 73
10
  0
VERTEX
  8
Group#2
10
0.0
 20
 0.0
 30
0.0
 70
     128
 71
-10
 72
-1
 73
11
  0
VERTEX
  8
Group#2
10
0.0
 20
 0.0
 30
0.0
 70
     128
 71
-11
 72
-1
 73
-12
  0
VERTEX
  8
Group#2
10
0.0
 20
 0.0
 30
0.0
 70
     128
 71
-11
 72
-12
 73
13
  0
VERTEX
  8
Group#2
10
0.0
 20
 0.0
 30
0.0
 70
     128
 71
-13
 72
-12
 73
14
  0
VERTEX
  8
Group#2
10
0.0
 20
 0.0
 30
0.0
 70
     128
 71
-14
 72
12
 73
-15
  0
VERTEX
  8
Group#2
10
0.0
 20
 0.0
 30
0.0
 70
     128
 71
-14
 72
-15
 73
16
  0
VERTEX
  8
Group#2
10
0.0
 20
 0.0
 30
0.0
 70
     128
 71
-16
 72
15
 73
-17
  0
VERTEX
  8
Group#2
10
0.0
 20
 0.0
 30
0.0
 70
     128
 71
-16
 72
-17
 73
18
  0
VERTEX
  8
Group#2
10
0.0
 20
 0.0
 30
0.0
 70
     128
 71
-12
 72
-1
 73
19
  0
VERTEX
  8
Group#2
10
0.0
 20
 0.0
 30
0.0
 70
     128
 71
-19
 72
-1
 73
20
  0
VERTEX
  8
Group#2
10
0.0
 20
 0.0
 30
0.0
 70
     128
 71
-20
 72
-1
 73
21
  0
VERTEX
  8
Group#2
10
0.0
 20
 0.0
 30
0.0
 70
     128
 71
-21
 72
-1
 73
22
  0
VERTEX
  8
Group#2
10
0.0
 20
 0.0
 30
0.0
 70
     128
 71
-22
 72
-1
 73
23
  0
VERTEX
  8
Group#2
10
0.0
 20
 0.0
 30
0.0
 70
     128
 71
-23
 72
-1
 73
24
  0
VERTEX
  8
Group#2
10
0.0
 20
 0.0
 30
0.0
 70
     128
 71
-24
 72
-1
 73
25
  0
VERTEX
  8
Group#2
10
0.0
 20
 0.0
 30
0.0
 70
     128
 71
-25
 72
-1
 73
26
  0
VERTEX
  8
Group#2
10
0.0
 20
 0.0
 30
0.0
 70
     128
 71
-26
 72
-1
 73
27
  0
VERTEX
  8
Group#2
10
0.0
 20
 0.0
 30
0.0
 70
     128
 71
-27
 72
-1
 73
28
  0
VERTEX
  8
Group#2
10
0.0
 20
 0.0
 30
0.0
 70
     128
 71
-28
 72
-1
 73
29
  0
VERTEX
  8
Group#2
10
0.0
 20
 0.0
 30
0.0
 70
     128
 71
-29
 72
-1
 73
-30
  0
VERTEX
  8
Group#2
10
0.0
 20
 0.0
 30
0.0
 70
     128
 71
-30
 72
-1
 73
31
  0
VERTEX
  8
Group#2
10
0.0
 20
 0.0
 30
0.0
 70
     128
 71
-31
 72
-1
 73
32
  0
VERTEX
  8
Group#2
10
0.0
 20
 0.0
 30
0.0
 70
     128
 71
-32
 72
-1
 73
33
  0
VERTEX
  8
Group#2
10
0.0
 20
 0.0
 30
0.0
 70
     128
 71
-33
 72
-1
 73
34
  0
VERTEX
  8
Group#2
10
0.0
 20
 0.0
 30
0.0
 70
     128
 71
-34
 72
-1
 73
35
  0
VERTEX
  8
Group#2
10
0.0
 20
 0.0
 30
0.0
 70
     128
 71
-35
 72
-1
 73
36
  0
VERTEX
  8
Group#2
10
0.0
 20
 0.0
 30
0.0
 70
     128
 71
-36
 72
-1
 73
37
  0
VERTEX
  8
Group#2
10
0.0
 20
 0.0
 30
0.0
 70
     128
 71
-37
 72
-1
 73
38
  0
VERTEX
  8
Group#2
10
0.0
 20
 0.0
 30
0.0
 70
     128
 71
-38
 72
-1
 73
39
  0
VERTEX
  8
Group#2
10
0.0
 20
 0.0
 30
0.0
 70
     128
 71
-39
 72
-1
 73
40
  0
VERTEX
  8
Group#2
10
0.0
 20
 0.0
 30
0.0
 70
     128
 71
-40
 72
-1
 73
41
  0
VERTEX
  8
Group#2
10
0.0
 20
 0.0
 30
0.0
 70
     128
 71
-41
 72
1
 73
42
  0
VERTEX
  8
Group#2
10
0.0
 20
 0.0
 30
0.0
 70
     128
 71
-17
 72
43
 73
-18
  0
VERTEX
  8
Group#2
10
0.0
 20
 0.0
 30
0.0
 70
     128
 71
-43
 72
17
 73
-44
  0
VERTEX
  8
Group#2
10
0.0
 20
 0.0
 30
0.0
 70
     128
 71
-43
 72
44
 73
-45
  0
VERTEX
  8
Group#2
10
0.0
 20
 0.0
 30
0.0
 70
     128
 71
-43
 72
45
 73
-46
  0
VERTEX
  8
Group#2
10
0.0
 20
 0.0
 30
0.0
 70
     128
 71
-43
 72
46
 73
-47
  0
VERTEX
  8
Group#2
10
0.0
 20
 0.0
 30
0.0
 70
     128
 71
-43
 72
47
 73
-48
  0
VERTEX
  8
Group#2
10
0.0
 20
 0.0
 30
0.0
 70
     128
 71
-43
 72
48
 73
-49
  0
VERTEX
  8
Group#2
10
0.0
 20
 0.0
 30
0.0
 70
     128
 71
-43
 72
-49
 73
30
  0
VERTEX
  8
Group#2
10
0.0
 20
 0.0
 30
0.0
 70
     128
 71
-30
 72
49
 73
-50
  0
VERTEX
  8
Group#2
10
0.0
 20
 0.0
 30
0.0
 70
     128
 71
-30
 72
50
 73
-51
  0
VERTEX
  8
Group#2
10
0.0
 20
 0.0
 30
0.0
 70
     128
 71
-30
 72
51
 73
-52
  0
VERTEX
  8
Group#2
10
0.0
 20
 0.0
 30
0.0
 70
     128
 71
-30
 72
52
 73
-53
  0
VERTEX
  8
Group#2
10
0.0
 20
 0.0
 30
0.0
 70
     128
 71
-30
 72
53
 73
-54
  0
VERTEX
  8
Group#2
10
0.0
 20
 0.0
 30
0.0
 70
     128
 71
-30
 72
54
 73
-55
  0
VERTEX
  8
Group#2
10
0.0
 20
 0.0
 30
0.0
 70
     128
 71
-30
 72
55
 73
-29
  0
SEQEND
 0
ENDSEC
 0
EOF
