<?xml version="1.0" encoding="UTF-8" standalone="no"?>
<svg
   xmlns:dc="http://purl.org/dc/elements/1.1/"
   xmlns:cc="http://creativecommons.org/ns#"
   xmlns:rdf="http://www.w3.org/1999/02/22-rdf-syntax-ns#"
   xmlns:svg="http://www.w3.org/2000/svg"
   xmlns="http://www.w3.org/2000/svg"
   xmlns:sodipodi="http://sodipodi.sourceforge.net/DTD/sodipodi-0.dtd"
   xmlns:inkscape="http://www.inkscape.org/namespaces/inkscape"
   width="75.38999999999999mm"
   height="124.8120000000001mm"
   viewBox="0 0 75.38999999999999 124.8120000000001"
   version="1.1"
   id="svg12"
   sodipodi:docname="REM_v2.svg"
   inkscape:version="1.0.1 (3bc2e813f5, 2020-09-07)">
  <metadata
     id="metadata18">
    <rdf:RDF>
      <cc:Work
         rdf:about="">
        <dc:format>image/svg+xml</dc:format>
        <dc:type
           rdf:resource="http://purl.org/dc/dcmitype/StillImage" />
      </cc:Work>
    </rdf:RDF>
  </metadata>
  <defs
     id="defs16" />
  <sodipodi:namedview
     pagecolor="#ffffff"
     bordercolor="#666666"
     borderopacity="1"
     objecttolerance="10"
     gridtolerance="10"
     guidetolerance="10"
     inkscape:pageopacity="0"
     inkscape:pageshadow="2"
     inkscape:window-width="1920"
     inkscape:window-height="1002"
     id="namedview14"
     showgrid="false"
     inkscape:zoom="1.2591296"
     inkscape:cx="136.67447"
     inkscape:cy="252.97993"
     inkscape:window-x="-8"
     inkscape:window-y="-8"
     inkscape:window-maximized="1"
     inkscape:current-layer="svg12" />
  <desc
     id="desc2">Output from Flights of Ideas SVG Sketchup Plugin</desc>
  <path
     id="face0-cut"
     style="fill:none;stroke:#ff0000;stroke-width:0.05;stroke-miterlimit:4;stroke-dasharray:none;stroke-linejoin:round;stroke-linecap:round;stroke-opacity:1"
     d="M 10.0,53.90599999999999 L 10.06725151858869,54.58881612705644 L 10.266421636210502,55.24539201327781 L 10.589856356941091,55.85049581556862 L 11.025126265847085,56.38087373415293 L 11.555504184431392,56.81614364305893 L 12.16060798672219,57.139578363789525 L 12.817183872943552,57.33874848141132 L 13.500000000000007,57.406000000000006 L 61.88999999999999,57.406000000000034 L 62.57281612705645,57.338748481411464 L 63.229392013277824,57.13957836378947 L 63.83449581556861,56.81614364305883 L 64.36487373415292,56.38087373415278 L 64.8001436430589,55.85049581556861 L 65.1235783637895,55.24539201327801 L 65.32274848141131,54.588816127056695 L 65.38999999999999,53.90599999999999 L 65.38999999999999,13.499999999999982 L 65.32274848141131,12.817183872943549 L 65.1235783637895,12.16060798672217 L 64.8001436430589,11.555504184431399 L 64.36487373415292,11.025126265847092 L 63.83449581556864,10.589856356941084 L 63.229392013277824,10.266421636210495 L 62.57281612705648,10.067251518588698 L 61.88999999999999,10.0 L 13.5,10.0 L 12.81718387294356,10.067251518588698 L 12.16060798672219,10.266421636210495 L 11.555504184431399,10.589856356941084 L 11.025126265847092,11.025126265847085 L 10.589856356941091,11.555504184431385 L 10.266421636210502,12.16060798672219 L 10.067251518588698,12.81718387294356 L 10.0,13.499999999999993 L 10.0,53.90599999999999 M 14.500000000000007,12.440000000000005 L 14.93999237667429,12.497926095308586 L 15.349999999999994,12.667756813566456 L 15.702081528017132,12.937918471982872 L 15.972243186433552,13.290000000000003 L 16.142073904691408,13.700007623325703 L 16.199999999999996,14.14 L 16.142073904691408,14.579992376674284 L 15.972243186433552,14.989999999999998 L 15.702081528017132,15.342081528017125 L 15.349999999999994,15.612243186433552 L 14.939992376674283,15.782073904691412 L 14.500000000000007,15.839999999999996 L 14.06000762332571,15.782073904691412 L 13.649999999999999,15.612243186433542 L 13.297918471982868,15.342081528017125 L 13.027756813566455,14.989999999999998 L 12.857926095308592,14.579992376674284 L 12.800000000000011,14.14 L 12.857926095308585,13.700007623325714 L 13.027756813566462,13.290000000000003 L 13.297918471982868,12.937918471982872 L 13.649999999999999,12.667756813566456 L 14.06000762332571,12.497926095308586 L 14.500000000000007,12.440000000000005 M 16.142073904691422,52.81600762332571 L 16.200000000000003,53.256 L 16.142073904691422,53.69599237667429 L 15.972243186433552,54.10599999999998 L 15.702081528017132,54.45808152801713 L 15.349999999999994,54.728243186433545 L 14.93999237667429,54.898073904691415 L 14.500000000000007,54.95599999999999 L 14.06000762332571,54.898073904691415 L 13.649999999999999,54.728243186433545 L 13.297918471982868,54.458081528017125 L 13.027756813566455,54.105999999999995 L 12.857926095308585,53.69599237667428 L 12.799999999999997,53.256 L 12.857926095308585,52.81600762332571 L 13.027756813566455,52.406 L 13.297918471982868,52.05391847198287 L 13.649999999999999,51.783756813566455 L 14.060007623325724,51.613926095308585 L 14.499999999999993,51.556 L 14.93999237667429,51.613926095308585 L 15.350000000000009,51.783756813566455 L 15.702081528017132,52.05391847198287 L 15.972243186433552,52.406 L 16.142073904691422,52.81600762332571 M 60.88999999999999,54.95600000000012 L 60.45000762332571,54.898073904691685 L 60.04000000000003,54.72824318643333 L 59.687918471982876,54.45808152801709 L 59.41775681356645,54.10600000000046 L 59.24792609530861,53.695992376675505 L 59.190000000000005,53.255999999999595 L 59.24792609530859,52.81600762332579 L 59.41775681356645,52.405999999999985 L 59.687918471982876,52.05391847198284 L 60.04000000000003,51.78375681356656 L 60.45000762332571,51.61392609530863 L 60.88999999999999,51.55599999999977 L 61.32999237667428,51.61392609530859 L 61.74,51.783756813566406 L 62.09208152801714,52.05391847198267 L 62.36224318643354,52.4059999999999 L 62.53207390469142,52.816007623326 L 62.589999999999996,53.25599999999926 L 62.53207390469142,53.695992376675136 L 62.36224318643354,54.106000000001224 L 62.09208152801714,54.458081528016955 L 61.74,54.728243186433666 L 61.32999237667428,54.89807390469171 L 60.88999999999999,54.95600000000012 M 59.687918471982876,12.937918471982861 L 60.04000000000001,12.667756813566456 L 60.450007623325725,12.497926095308586 L 60.88999999999999,12.440000000000005 L 61.32999237667428,12.4979260953086 L 61.74,12.667756813566456 L 62.09208152801714,12.937918471982872 L 62.36224318643354,13.289999999999988 L 62.53207390469142,13.700007623325714 L 62.589999999999996,14.14 L 62.53207390469142,14.579992376674273 L 62.36224318643354,14.989999999999998 L 62.09208152801714,15.342081528017125 L 61.74,15.612243186433542 L 61.32999237667428,15.782073904691401 L 60.88999999999999,15.839999999999986 L 60.45000762332571,15.782073904691412 L 60.04000000000001,15.612243186433542 L 59.687918471982876,15.342081528017125 L 59.41775681356646,14.989999999999998 L 59.24792609530859,14.579992376674284 L 59.190000000000005,14.14 L 59.24792609530859,13.700007623325703 L 59.41775681356645,13.289999999999988 L 59.687918471982876,12.937918471982861 " />
  <path
     id="face1-cut"
     style="fill:none;stroke:#ff0000;stroke-width:0.05;stroke-miterlimit:4;stroke-dasharray:none;stroke-linejoin:round;stroke-linecap:round;stroke-opacity:1"
     d="M 65.32274848141131,111.99481612705651 L 65.38999999999999,111.31200000000004 L 65.38999999999999,70.90600000000003 L 65.32274848141131,70.22318387294358 L 65.1235783637895,69.5666079867222 L 64.80014364305893,68.96150418443142 L 64.36487373415292,68.43112626584711 L 63.83449581556862,67.99585635694112 L 63.229392013277824,67.67242163621053 L 62.57281612705646,67.47325151858873 L 61.89000000000001,67.40600000000003 L 13.499999999999993,67.40600000000003 L 12.81718387294356,67.47325151858871 L 12.16060798672219,67.67242163621053 L 11.555504184431399,67.99585635694113 L 11.025126265847106,68.4311262658471 L 10.589856356941098,68.96150418443142 L 10.266421636210524,69.56660798672223 L 10.067251518588705,70.22318387294357 L 10.0,70.90600000000003 L 10.0,111.3119999999998 L 10.067251518588698,111.99481612705651 L 10.266421636210495,112.65139201327833 L 10.589856356941098,113.25649581556877 L 11.025126265847085,113.78687373415283 L 11.555504184431399,114.22214364305893 L 12.16060798672219,114.54557836378959 L 12.81718387294356,114.74474848141145 L 13.500000000000007,114.8120000000001 L 25.194999999999986,114.81200000000001 L 25.651841672770168,114.78205701480832 L 26.10086665785881,114.69274039201173 L 26.534392013277817,114.54557836378962 L 26.945,114.34308891324557 L 27.325665001530517,114.08873669101942 L 27.669873734152908,113.78687373415303 L 27.971736691019323,113.44266500153049 L 28.22608891324554,113.06200000000001 L 28.42857836378952,112.65139201327804 L 28.575740392011745,112.21786665785879 L 28.665057014808347,111.76884167277072 L 28.69500000000003,111.31200000000001 L 28.695,101.162 L 28.72907417371095,100.90318095489752 L 28.828974596215566,100.66200000000003 L 28.987893218813447,100.45489321881351 L 29.195,100.29597459621561 L 29.436180954897488,100.19607417371097 L 29.695,100.16200000000006 L 45.695,100.16200000000003 L 45.95381904510253,100.19607417371097 L 46.195,100.29597459621559 L 46.40210678118654,100.45489321881348 L 46.56102540378445,100.66200000000003 L 46.660925826289066,100.90318095489752 L 46.695,101.16200000000002 L 46.695,111.31200000000007 L 46.72494298519165,111.76884167277024 L 46.81425960798827,112.21786665785876 L 46.961421636210495,112.65139201327787 L 47.163911086754474,113.06200000000001 L 47.41826330898068,113.44266500153054 L 47.72012626584709,113.78687373415295 L 48.064334998469484,114.08873669101934 L 48.445,114.34308891324557 L 48.855607986722184,114.54557836378953 L 49.28913334214118,114.69274039201176 L 49.738158327229804,114.78205701480837 L 50.194999999999986,114.81200000000004 L 61.89000000000001,114.81200000000004 L 62.57281612705646,114.74474848141134 L 63.229392013277824,114.54557836378956 L 63.83449581556862,114.22214364305893 L 64.36487373415292,113.78687373415295 L 64.80014364305893,113.25649581556863 L 65.1235783637895,112.65139201327784 L 65.32274848141131,111.99481612705651 M 14.500000000000007,69.84600000000003 L 14.93999237667429,69.90392609530863 L 15.350000000000001,70.0737568135665 L 15.702081528017132,70.34391847198292 L 15.972243186433538,70.69600000000005 L 16.142073904691422,71.10600762332572 L 16.199999999999996,71.54600000000005 L 16.142073904691422,71.98599237667432 L 15.972243186433538,72.39600000000004 L 15.702081528017132,72.74808152801717 L 15.350000000000001,73.01824318643361 L 14.93999237667429,73.18807390469145 L 14.499999999999993,73.24600000000004 L 14.060007623325717,73.18807390469146 L 13.650000000000006,73.01824318643355 L 13.297918471982875,72.74808152801717 L 13.027756813566455,72.39600000000006 L 12.857926095308606,71.9859923766743 L 12.799999999999997,71.54600000000002 L 12.857926095308585,71.10600762332575 L 13.027756813566462,70.69600000000003 L 13.297918471982875,70.34391847198292 L 13.650000000000006,70.07375681356649 L 14.060007623325717,69.90392609530863 L 14.500000000000007,69.84600000000003 M 16.142073904691422,110.22200762332577 L 16.20000000000001,110.66199999999996 L 16.142073904691422,111.10199237667464 L 15.972243186433538,111.51200000000057 L 15.702081528017132,111.86408152801778 L 15.350000000000001,112.13424318643175 L 14.93999237667429,112.30407390469122 L 14.500000000000007,112.36200000000028 L 14.060007623325717,112.3040739046912 L 13.650000000000006,112.13424318643459 L 13.297918471982875,111.86408152801522 L 13.027756813566455,111.5120000000004 L 12.857926095308592,111.10199237667415 L 12.800000000000011,110.66200000000002 L 12.857926095308592,110.22200762332585 L 13.027756813566462,109.8120000000001 L 13.297918471982875,109.4599184719828 L 13.650000000000006,109.18975681356638 L 14.060007623325717,109.01992609530856 L 14.500000000000007,108.96199999999999 L 14.939992376674276,109.01992609530873 L 15.350000000000001,109.18975681356656 L 15.702081528017132,109.45991847198289 L 15.972243186433552,109.81200000000014 L 16.142073904691422,110.22200762332577 M 60.89000000000001,112.36200000000002 L 60.450007623325725,112.30407390469145 L 60.04000000000001,112.13424318643357 L 59.68791847198289,111.86408152801718 L 59.41775681356646,111.51200000000003 L 59.24792609530861,111.1019923766743 L 59.190000000000005,110.66200000000003 L 59.24792609530861,110.22200762332574 L 59.41775681356646,109.81200000000004 L 59.68791847198289,109.45991847198289 L 60.04000000000001,109.18975681356649 L 60.450007623325725,109.01992609530862 L 60.89000000000001,108.96200000000003 L 61.32999237667429,109.01992609530862 L 61.740000000000016,109.18975681356649 L 62.09208152801714,109.45991847198289 L 62.36224318643355,109.81200000000004 L 62.53207390469142,110.22200762332574 L 62.589999999999996,110.66200000000003 L 62.53207390469142,111.1019923766743 L 62.36224318643355,111.51200000000003 L 62.09208152801714,111.86408152801715 L 61.740000000000016,112.13424318643357 L 61.32999237667429,112.30407390469142 L 60.89000000000001,112.36200000000002 M 59.68791847198289,70.34391847198292 L 60.04000000000001,70.07375681356649 L 60.450007623325725,69.90392609530863 L 60.89000000000001,69.84600000000003 L 61.32999237667429,69.90392609530862 L 61.740000000000016,70.07375681356649 L 62.09208152801714,70.34391847198292 L 62.36224318643355,70.69600000000004 L 62.53207390469142,71.10600762332575 L 62.589999999999996,71.54600000000002 L 62.53207390469142,71.98599237667432 L 62.36224318643355,72.39600000000004 L 62.09208152801714,72.74808152801717 L 61.740000000000016,73.01824318643358 L 61.32999237667429,73.18807390469145 L 60.89000000000001,73.24600000000002 L 60.450007623325725,73.18807390469146 L 60.04000000000001,73.01824318643357 L 59.68791847198289,72.74808152801717 L 59.41775681356646,72.39600000000004 L 59.24792609530861,71.98599237667432 L 59.190000000000005,71.54600000000003 L 59.24792609530861,71.10600762332575 L 59.41775681356646,70.69600000000004 L 59.68791847198289,70.34391847198292 " />
  <path
     id="face0-interior"
     style="fill:none;stroke:#ff0000;stroke-width:0.05;stroke-miterlimit:4;stroke-dasharray:none;stroke-linejoin:round;stroke-linecap:round;stroke-opacity:1"
     d="M 10.0,53.90599999999999 M 10.06725151858869,54.58881612705644 M 10.266421636210502,55.24539201327781 M 10.589856356941091,55.85049581556862 M 11.025126265847085,56.38087373415293 M 11.555504184431392,56.81614364305893 M 12.16060798672219,57.139578363789525 M 12.817183872943552,57.33874848141132 M 13.500000000000007,57.406000000000006 M 61.88999999999999,57.406000000000034 M 62.57281612705645,57.338748481411464 M 63.229392013277824,57.13957836378947 M 63.83449581556861,56.81614364305883 M 64.36487373415292,56.38087373415278 M 64.8001436430589,55.85049581556861 M 65.1235783637895,55.24539201327801 M 65.32274848141131,54.588816127056695 M 65.38999999999999,53.90599999999999 M 65.38999999999999,13.499999999999982 M 65.32274848141131,12.817183872943549 M 65.1235783637895,12.16060798672217 M 64.8001436430589,11.555504184431399 M 64.36487373415292,11.025126265847092 M 63.83449581556864,10.589856356941084 M 63.229392013277824,10.266421636210495 M 62.57281612705648,10.067251518588698 M 61.88999999999999,10.0 M 13.5,10.0 M 12.81718387294356,10.067251518588698 M 12.16060798672219,10.266421636210495 M 11.555504184431399,10.589856356941084 M 11.025126265847092,11.025126265847085 M 10.589856356941091,11.555504184431385 M 10.266421636210502,12.16060798672219 M 10.067251518588698,12.81718387294356 M 10.0,13.499999999999993 M 14.500000000000007,12.440000000000005 M 14.93999237667429,12.497926095308586 M 15.349999999999994,12.667756813566456 M 15.702081528017132,12.937918471982872 M 15.972243186433552,13.290000000000003 M 16.142073904691408,13.700007623325703 M 16.199999999999996,14.14 M 16.142073904691408,14.579992376674284 M 15.972243186433552,14.989999999999998 M 15.702081528017132,15.342081528017125 M 15.349999999999994,15.612243186433552 M 14.939992376674283,15.782073904691412 M 14.500000000000007,15.839999999999996 M 14.06000762332571,15.782073904691412 M 13.649999999999999,15.612243186433542 M 13.297918471982868,15.342081528017125 M 13.027756813566455,14.989999999999998 M 12.857926095308592,14.579992376674284 M 12.800000000000011,14.14 M 12.857926095308585,13.700007623325714 M 13.027756813566462,13.290000000000003 M 13.297918471982868,12.937918471982872 M 13.649999999999999,12.667756813566456 M 14.06000762332571,12.497926095308586 M 16.142073904691422,52.81600762332571 M 16.200000000000003,53.256 M 16.142073904691422,53.69599237667429 M 15.972243186433552,54.10599999999998 M 15.702081528017132,54.45808152801713 M 15.349999999999994,54.728243186433545 M 14.93999237667429,54.898073904691415 M 14.500000000000007,54.95599999999999 M 14.06000762332571,54.898073904691415 M 13.649999999999999,54.728243186433545 M 13.297918471982868,54.458081528017125 M 13.027756813566455,54.105999999999995 M 12.857926095308585,53.69599237667428 M 12.799999999999997,53.256 M 12.857926095308585,52.81600762332571 M 13.027756813566455,52.406 M 13.297918471982868,52.05391847198287 M 13.649999999999999,51.783756813566455 M 14.060007623325724,51.613926095308585 M 14.499999999999993,51.556 M 14.93999237667429,51.613926095308585 M 15.350000000000009,51.783756813566455 M 15.702081528017132,52.05391847198287 M 15.972243186433552,52.406 M 60.88999999999999,54.95600000000012 M 60.45000762332571,54.898073904691685 M 60.04000000000003,54.72824318643333 M 59.687918471982876,54.45808152801709 M 59.41775681356645,54.10600000000046 M 59.24792609530861,53.695992376675505 M 59.190000000000005,53.255999999999595 M 59.24792609530859,52.81600762332579 M 59.41775681356645,52.405999999999985 M 59.687918471982876,52.05391847198284 M 60.04000000000003,51.78375681356656 M 60.45000762332571,51.61392609530863 M 60.88999999999999,51.55599999999977 M 61.32999237667428,51.61392609530859 M 61.74,51.783756813566406 M 62.09208152801714,52.05391847198267 M 62.36224318643354,52.4059999999999 M 62.53207390469142,52.816007623326 M 62.589999999999996,53.25599999999926 M 62.53207390469142,53.695992376675136 M 62.36224318643354,54.106000000001224 M 62.09208152801714,54.458081528016955 M 61.74,54.728243186433666 M 61.32999237667428,54.89807390469171 M 59.687918471982876,12.937918471982861 M 60.04000000000001,12.667756813566456 M 60.450007623325725,12.497926095308586 M 60.88999999999999,12.440000000000005 M 61.32999237667428,12.4979260953086 M 61.74,12.667756813566456 M 62.09208152801714,12.937918471982872 M 62.36224318643354,13.289999999999988 M 62.53207390469142,13.700007623325714 M 62.589999999999996,14.14 M 62.53207390469142,14.579992376674273 M 62.36224318643354,14.989999999999998 M 62.09208152801714,15.342081528017125 M 61.74,15.612243186433542 M 61.32999237667428,15.782073904691401 M 60.88999999999999,15.839999999999986 M 60.45000762332571,15.782073904691412 M 60.04000000000001,15.612243186433542 M 59.687918471982876,15.342081528017125 M 59.41775681356646,14.989999999999998 M 59.24792609530859,14.579992376674284 M 59.190000000000005,14.14 M 59.24792609530859,13.700007623325703 M 59.41775681356645,13.289999999999988 " />
  <path
     id="face1-interior"
     style="fill:none;stroke:#ff0000;stroke-width:0.05;stroke-miterlimit:4;stroke-dasharray:none;stroke-linejoin:round;stroke-linecap:round;stroke-opacity:1"
     d="M 65.32274848141131,111.99481612705651 M 65.38999999999999,111.31200000000004 M 65.38999999999999,70.90600000000003 M 65.32274848141131,70.22318387294358 M 65.1235783637895,69.5666079867222 M 64.80014364305893,68.96150418443142 M 64.36487373415292,68.43112626584711 M 63.83449581556862,67.99585635694112 M 63.229392013277824,67.67242163621053 M 62.57281612705646,67.47325151858873 M 61.89000000000001,67.40600000000003 M 13.499999999999993,67.40600000000003 M 12.81718387294356,67.47325151858871 M 12.16060798672219,67.67242163621053 M 11.555504184431399,67.99585635694113 M 11.025126265847106,68.4311262658471 M 10.589856356941098,68.96150418443142 M 10.266421636210524,69.56660798672223 M 10.067251518588705,70.22318387294357 M 10.0,70.90600000000003 M 10.0,111.3119999999998 M 10.067251518588698,111.99481612705651 M 10.266421636210495,112.65139201327833 M 10.589856356941098,113.25649581556877 M 11.025126265847085,113.78687373415283 M 11.555504184431399,114.22214364305893 M 12.16060798672219,114.54557836378959 M 12.81718387294356,114.74474848141145 M 13.500000000000007,114.8120000000001 M 25.194999999999986,114.81200000000001 M 25.651841672770168,114.78205701480832 M 26.10086665785881,114.69274039201173 M 26.534392013277817,114.54557836378962 M 26.945,114.34308891324557 M 27.325665001530517,114.08873669101942 M 27.669873734152908,113.78687373415303 M 27.971736691019323,113.44266500153049 M 28.22608891324554,113.06200000000001 M 28.42857836378952,112.65139201327804 M 28.575740392011745,112.21786665785879 M 28.665057014808347,111.76884167277072 M 28.69500000000003,111.31200000000001 M 28.695,101.162 M 28.72907417371095,100.90318095489752 M 28.828974596215566,100.66200000000003 M 28.987893218813447,100.45489321881351 M 29.195,100.29597459621561 M 29.436180954897488,100.19607417371097 M 29.695,100.16200000000006 M 45.695,100.16200000000003 M 45.95381904510253,100.19607417371097 M 46.195,100.29597459621559 M 46.40210678118654,100.45489321881348 M 46.56102540378445,100.66200000000003 M 46.660925826289066,100.90318095489752 M 46.695,101.16200000000002 M 46.695,111.31200000000007 M 46.72494298519165,111.76884167277024 M 46.81425960798827,112.21786665785876 M 46.961421636210495,112.65139201327787 M 47.163911086754474,113.06200000000001 M 47.41826330898068,113.44266500153054 M 47.72012626584709,113.78687373415295 M 48.064334998469484,114.08873669101934 M 48.445,114.34308891324557 M 48.855607986722184,114.54557836378953 M 49.28913334214118,114.69274039201176 M 49.738158327229804,114.78205701480837 M 50.194999999999986,114.81200000000004 M 61.89000000000001,114.81200000000004 M 62.57281612705646,114.74474848141134 M 63.229392013277824,114.54557836378956 M 63.83449581556862,114.22214364305893 M 64.36487373415292,113.78687373415295 M 64.80014364305893,113.25649581556863 M 65.1235783637895,112.65139201327784 M 14.500000000000007,69.84600000000003 M 14.93999237667429,69.90392609530863 M 15.350000000000001,70.0737568135665 M 15.702081528017132,70.34391847198292 M 15.972243186433538,70.69600000000005 M 16.142073904691422,71.10600762332572 M 16.199999999999996,71.54600000000005 M 16.142073904691422,71.98599237667432 M 15.972243186433538,72.39600000000004 M 15.702081528017132,72.74808152801717 M 15.350000000000001,73.01824318643361 M 14.93999237667429,73.18807390469145 M 14.499999999999993,73.24600000000004 M 14.060007623325717,73.18807390469146 M 13.650000000000006,73.01824318643355 M 13.297918471982875,72.74808152801717 M 13.027756813566455,72.39600000000006 M 12.857926095308606,71.9859923766743 M 12.799999999999997,71.54600000000002 M 12.857926095308585,71.10600762332575 M 13.027756813566462,70.69600000000003 M 13.297918471982875,70.34391847198292 M 13.650000000000006,70.07375681356649 M 14.060007623325717,69.90392609530863 M 16.142073904691422,110.22200762332577 M 16.20000000000001,110.66199999999996 M 16.142073904691422,111.10199237667464 M 15.972243186433538,111.51200000000057 M 15.702081528017132,111.86408152801778 M 15.350000000000001,112.13424318643175 M 14.93999237667429,112.30407390469122 M 14.500000000000007,112.36200000000028 M 14.060007623325717,112.3040739046912 M 13.650000000000006,112.13424318643459 M 13.297918471982875,111.86408152801522 M 13.027756813566455,111.5120000000004 M 12.857926095308592,111.10199237667415 M 12.800000000000011,110.66200000000002 M 12.857926095308592,110.22200762332585 M 13.027756813566462,109.8120000000001 M 13.297918471982875,109.4599184719828 M 13.650000000000006,109.18975681356638 M 14.060007623325717,109.01992609530856 M 14.500000000000007,108.96199999999999 M 14.939992376674276,109.01992609530873 M 15.350000000000001,109.18975681356656 M 15.702081528017132,109.45991847198289 M 15.972243186433552,109.81200000000014 M 60.89000000000001,112.36200000000002 M 60.450007623325725,112.30407390469145 M 60.04000000000001,112.13424318643357 M 59.68791847198289,111.86408152801718 M 59.41775681356646,111.51200000000003 M 59.24792609530861,111.1019923766743 M 59.190000000000005,110.66200000000003 M 59.24792609530861,110.22200762332574 M 59.41775681356646,109.81200000000004 M 59.68791847198289,109.45991847198289 M 60.04000000000001,109.18975681356649 M 60.450007623325725,109.01992609530862 M 60.89000000000001,108.96200000000003 M 61.32999237667429,109.01992609530862 M 61.740000000000016,109.18975681356649 M 62.09208152801714,109.45991847198289 M 62.36224318643355,109.81200000000004 M 62.53207390469142,110.22200762332574 M 62.589999999999996,110.66200000000003 M 62.53207390469142,111.1019923766743 M 62.36224318643355,111.51200000000003 M 62.09208152801714,111.86408152801715 M 61.740000000000016,112.13424318643357 M 61.32999237667429,112.30407390469142 M 59.68791847198289,70.34391847198292 M 60.04000000000001,70.07375681356649 M 60.450007623325725,69.90392609530863 M 60.89000000000001,69.84600000000003 M 61.32999237667429,69.90392609530862 M 61.740000000000016,70.07375681356649 M 62.09208152801714,70.34391847198292 M 62.36224318643355,70.69600000000004 M 62.53207390469142,71.10600762332575 M 62.589999999999996,71.54600000000002 M 62.53207390469142,71.98599237667432 M 62.36224318643355,72.39600000000004 M 62.09208152801714,72.74808152801717 M 61.740000000000016,73.01824318643358 M 61.32999237667429,73.18807390469145 M 60.89000000000001,73.24600000000002 M 60.450007623325725,73.18807390469146 M 60.04000000000001,73.01824318643357 M 59.68791847198289,72.74808152801717 M 59.41775681356646,72.39600000000004 M 59.24792609530861,71.98599237667432 M 59.190000000000005,71.54600000000003 M 59.24792609530861,71.10600762332575 M 59.41775681356646,70.69600000000004 " />
  <path
     id="path8"
     style="fill:none;stroke:#ff0000;stroke-width:0.05;stroke-miterlimit:4;stroke-dasharray:none;stroke-linejoin:round;stroke-linecap:round;stroke-opacity:1"
     d="M 10.0,53.90599999999999 M 10.06725151858869,54.58881612705644 M 10.266421636210502,55.24539201327781 M 10.589856356941091,55.85049581556862 M 11.025126265847085,56.38087373415293 M 11.555504184431392,56.81614364305893 M 12.16060798672219,57.139578363789525 M 12.817183872943552,57.33874848141132 M 13.500000000000007,57.406000000000006 M 61.88999999999999,57.406000000000034 M 62.57281612705645,57.338748481411464 M 63.229392013277824,57.13957836378947 M 63.83449581556861,56.81614364305883 M 64.36487373415292,56.38087373415278 M 64.8001436430589,55.85049581556861 M 65.1235783637895,55.24539201327801 M 65.32274848141131,54.588816127056695 M 65.38999999999999,53.90599999999999 M 65.38999999999999,13.499999999999982 M 65.32274848141131,12.817183872943549 M 65.1235783637895,12.16060798672217 M 64.8001436430589,11.555504184431399 M 64.36487373415292,11.025126265847092 M 63.83449581556864,10.589856356941084 M 63.229392013277824,10.266421636210495 M 62.57281612705648,10.067251518588698 M 61.88999999999999,10.0 M 13.5,10.0 M 12.81718387294356,10.067251518588698 M 12.16060798672219,10.266421636210495 M 11.555504184431399,10.589856356941084 M 11.025126265847092,11.025126265847085 M 10.589856356941091,11.555504184431385 M 10.266421636210502,12.16060798672219 M 10.067251518588698,12.81718387294356 M 10.0,13.499999999999993 M 14.500000000000007,12.440000000000005 M 14.93999237667429,12.497926095308586 M 15.349999999999994,12.667756813566456 M 15.702081528017132,12.937918471982872 M 15.972243186433552,13.290000000000003 M 16.142073904691408,13.700007623325703 M 16.199999999999996,14.14 M 16.142073904691408,14.579992376674284 M 15.972243186433552,14.989999999999998 M 15.702081528017132,15.342081528017125 M 15.349999999999994,15.612243186433552 M 14.939992376674283,15.782073904691412 M 14.500000000000007,15.839999999999996 M 14.06000762332571,15.782073904691412 M 13.649999999999999,15.612243186433542 M 13.297918471982868,15.342081528017125 M 13.027756813566455,14.989999999999998 M 12.857926095308592,14.579992376674284 M 12.800000000000011,14.14 M 12.857926095308585,13.700007623325714 M 13.027756813566462,13.290000000000003 M 13.297918471982868,12.937918471982872 M 13.649999999999999,12.667756813566456 M 14.06000762332571,12.497926095308586 M 16.142073904691422,52.81600762332571 M 16.200000000000003,53.256 M 16.142073904691422,53.69599237667429 M 15.972243186433552,54.10599999999998 M 15.702081528017132,54.45808152801713 M 15.349999999999994,54.728243186433545 M 14.93999237667429,54.898073904691415 M 14.500000000000007,54.95599999999999 M 14.06000762332571,54.898073904691415 M 13.649999999999999,54.728243186433545 M 13.297918471982868,54.458081528017125 M 13.027756813566455,54.105999999999995 M 12.857926095308585,53.69599237667428 M 12.799999999999997,53.256 M 12.857926095308585,52.81600762332571 M 13.027756813566455,52.406 M 13.297918471982868,52.05391847198287 M 13.649999999999999,51.783756813566455 M 14.060007623325724,51.613926095308585 M 14.499999999999993,51.556 M 14.93999237667429,51.613926095308585 M 15.350000000000009,51.783756813566455 M 15.702081528017132,52.05391847198287 M 15.972243186433552,52.406 M 60.88999999999999,54.95600000000012 M 60.45000762332571,54.898073904691685 M 60.04000000000003,54.72824318643333 M 59.687918471982876,54.45808152801709 M 59.41775681356645,54.10600000000046 M 59.24792609530861,53.695992376675505 M 59.190000000000005,53.255999999999595 M 59.24792609530859,52.81600762332579 M 59.41775681356645,52.405999999999985 M 59.687918471982876,52.05391847198284 M 60.04000000000003,51.78375681356656 M 60.45000762332571,51.61392609530863 M 60.88999999999999,51.55599999999977 M 61.32999237667428,51.61392609530859 M 61.74,51.783756813566406 M 62.09208152801714,52.05391847198267 M 62.36224318643354,52.4059999999999 M 62.53207390469142,52.816007623326 M 62.589999999999996,53.25599999999926 M 62.53207390469142,53.695992376675136 M 62.36224318643354,54.106000000001224 M 62.09208152801714,54.458081528016955 M 61.74,54.728243186433666 M 61.32999237667428,54.89807390469171 M 59.687918471982876,12.937918471982861 M 60.04000000000001,12.667756813566456 M 60.450007623325725,12.497926095308586 M 60.88999999999999,12.440000000000005 M 61.32999237667428,12.4979260953086 M 61.74,12.667756813566456 M 62.09208152801714,12.937918471982872 M 62.36224318643354,13.289999999999988 M 62.53207390469142,13.700007623325714 M 62.589999999999996,14.14 M 62.53207390469142,14.579992376674273 M 62.36224318643354,14.989999999999998 M 62.09208152801714,15.342081528017125 M 61.74,15.612243186433542 M 61.32999237667428,15.782073904691401 M 60.88999999999999,15.839999999999986 M 60.45000762332571,15.782073904691412 M 60.04000000000001,15.612243186433542 M 59.687918471982876,15.342081528017125 M 59.41775681356646,14.989999999999998 M 59.24792609530859,14.579992376674284 M 59.190000000000005,14.14 M 59.24792609530859,13.700007623325703 M 59.41775681356645,13.289999999999988 " />
  <path
     id="path10"
     style="fill:none;stroke:#ff0000;stroke-width:0.05;stroke-miterlimit:4;stroke-dasharray:none;stroke-linejoin:round;stroke-linecap:round;stroke-opacity:1"
     d="M 65.32274848141131,111.99481612705651 M 65.38999999999999,111.31200000000004 M 65.38999999999999,70.90600000000003 M 65.32274848141131,70.22318387294358 M 65.1235783637895,69.5666079867222 M 64.80014364305893,68.96150418443142 M 64.36487373415292,68.43112626584711 M 63.83449581556862,67.99585635694112 M 63.229392013277824,67.67242163621053 M 62.57281612705646,67.47325151858873 M 61.89000000000001,67.40600000000003 M 13.499999999999993,67.40600000000003 M 12.81718387294356,67.47325151858871 M 12.16060798672219,67.67242163621053 M 11.555504184431399,67.99585635694113 M 11.025126265847106,68.4311262658471 M 10.589856356941098,68.96150418443142 M 10.266421636210524,69.56660798672223 M 10.067251518588705,70.22318387294357 M 10.0,70.90600000000003 M 10.0,111.3119999999998 M 10.067251518588698,111.99481612705651 M 10.266421636210495,112.65139201327833 M 10.589856356941098,113.25649581556877 M 11.025126265847085,113.78687373415283 M 11.555504184431399,114.22214364305893 M 12.16060798672219,114.54557836378959 M 12.81718387294356,114.74474848141145 M 13.500000000000007,114.8120000000001 M 25.194999999999986,114.81200000000001 M 25.651841672770168,114.78205701480832 M 26.10086665785881,114.69274039201173 M 26.534392013277817,114.54557836378962 M 26.945,114.34308891324557 M 27.325665001530517,114.08873669101942 M 27.669873734152908,113.78687373415303 M 27.971736691019323,113.44266500153049 M 28.22608891324554,113.06200000000001 M 28.42857836378952,112.65139201327804 M 28.575740392011745,112.21786665785879 M 28.665057014808347,111.76884167277072 M 28.69500000000003,111.31200000000001 M 28.695,101.162 M 28.72907417371095,100.90318095489752 M 28.828974596215566,100.66200000000003 M 28.987893218813447,100.45489321881351 M 29.195,100.29597459621561 M 29.436180954897488,100.19607417371097 M 29.695,100.16200000000006 M 45.695,100.16200000000003 M 45.95381904510253,100.19607417371097 M 46.195,100.29597459621559 M 46.40210678118654,100.45489321881348 M 46.56102540378445,100.66200000000003 M 46.660925826289066,100.90318095489752 M 46.695,101.16200000000002 M 46.695,111.31200000000007 M 46.72494298519165,111.76884167277024 M 46.81425960798827,112.21786665785876 M 46.961421636210495,112.65139201327787 M 47.163911086754474,113.06200000000001 M 47.41826330898068,113.44266500153054 M 47.72012626584709,113.78687373415295 M 48.064334998469484,114.08873669101934 M 48.445,114.34308891324557 M 48.855607986722184,114.54557836378953 M 49.28913334214118,114.69274039201176 M 49.738158327229804,114.78205701480837 M 50.194999999999986,114.81200000000004 M 61.89000000000001,114.81200000000004 M 62.57281612705646,114.74474848141134 M 63.229392013277824,114.54557836378956 M 63.83449581556862,114.22214364305893 M 64.36487373415292,113.78687373415295 M 64.80014364305893,113.25649581556863 M 65.1235783637895,112.65139201327784 M 14.500000000000007,69.84600000000003 M 14.93999237667429,69.90392609530863 M 15.350000000000001,70.0737568135665 M 15.702081528017132,70.34391847198292 M 15.972243186433538,70.69600000000005 M 16.142073904691422,71.10600762332572 M 16.199999999999996,71.54600000000005 M 16.142073904691422,71.98599237667432 M 15.972243186433538,72.39600000000004 M 15.702081528017132,72.74808152801717 M 15.350000000000001,73.01824318643361 M 14.93999237667429,73.18807390469145 M 14.499999999999993,73.24600000000004 M 14.060007623325717,73.18807390469146 M 13.650000000000006,73.01824318643355 M 13.297918471982875,72.74808152801717 M 13.027756813566455,72.39600000000006 M 12.857926095308606,71.9859923766743 M 12.799999999999997,71.54600000000002 M 12.857926095308585,71.10600762332575 M 13.027756813566462,70.69600000000003 M 13.297918471982875,70.34391847198292 M 13.650000000000006,70.07375681356649 M 14.060007623325717,69.90392609530863 M 16.142073904691422,110.22200762332577 M 16.20000000000001,110.66199999999996 M 16.142073904691422,111.10199237667464 M 15.972243186433538,111.51200000000057 M 15.702081528017132,111.86408152801778 M 15.350000000000001,112.13424318643175 M 14.93999237667429,112.30407390469122 M 14.500000000000007,112.36200000000028 M 14.060007623325717,112.3040739046912 M 13.650000000000006,112.13424318643459 M 13.297918471982875,111.86408152801522 M 13.027756813566455,111.5120000000004 M 12.857926095308592,111.10199237667415 M 12.800000000000011,110.66200000000002 M 12.857926095308592,110.22200762332585 M 13.027756813566462,109.8120000000001 M 13.297918471982875,109.4599184719828 M 13.650000000000006,109.18975681356638 M 14.060007623325717,109.01992609530856 M 14.500000000000007,108.96199999999999 M 14.939992376674276,109.01992609530873 M 15.350000000000001,109.18975681356656 M 15.702081528017132,109.45991847198289 M 15.972243186433552,109.81200000000014 M 60.89000000000001,112.36200000000002 M 60.450007623325725,112.30407390469145 M 60.04000000000001,112.13424318643357 M 59.68791847198289,111.86408152801718 M 59.41775681356646,111.51200000000003 M 59.24792609530861,111.1019923766743 M 59.190000000000005,110.66200000000003 M 59.24792609530861,110.22200762332574 M 59.41775681356646,109.81200000000004 M 59.68791847198289,109.45991847198289 M 60.04000000000001,109.18975681356649 M 60.450007623325725,109.01992609530862 M 60.89000000000001,108.96200000000003 M 61.32999237667429,109.01992609530862 M 61.740000000000016,109.18975681356649 M 62.09208152801714,109.45991847198289 M 62.36224318643355,109.81200000000004 M 62.53207390469142,110.22200762332574 M 62.589999999999996,110.66200000000003 M 62.53207390469142,111.1019923766743 M 62.36224318643355,111.51200000000003 M 62.09208152801714,111.86408152801715 M 61.740000000000016,112.13424318643357 M 61.32999237667429,112.30407390469142 M 59.68791847198289,70.34391847198292 M 60.04000000000001,70.07375681356649 M 60.450007623325725,69.90392609530863 M 60.89000000000001,69.84600000000003 M 61.32999237667429,69.90392609530862 M 61.740000000000016,70.07375681356649 M 62.09208152801714,70.34391847198292 M 62.36224318643355,70.69600000000004 M 62.53207390469142,71.10600762332575 M 62.589999999999996,71.54600000000002 M 62.53207390469142,71.98599237667432 M 62.36224318643355,72.39600000000004 M 62.09208152801714,72.74808152801717 M 61.740000000000016,73.01824318643358 M 61.32999237667429,73.18807390469145 M 60.89000000000001,73.24600000000002 M 60.450007623325725,73.18807390469146 M 60.04000000000001,73.01824318643357 M 59.68791847198289,72.74808152801717 M 59.41775681356646,72.39600000000004 M 59.24792609530861,71.98599237667432 M 59.190000000000005,71.54600000000003 M 59.24792609530861,71.10600762332575 M 59.41775681356646,70.69600000000004 " />
</svg>
